<?xml version="1.0" encoding="UTF-8"?>
<svg version="1.1" xmlns="http://www.w3.org/2000/svg" width="1000" height="1000">
<path d="M0 0 C1.53599854 0.06960937 1.53599854 0.06960937 3.10302734 0.140625 C71.36732438 3.49055286 137.41924896 22.91897629 194 62 C194.66064453 62.45503906 195.32128906 62.91007812 196.00195312 63.37890625 C200.05209723 66.18510744 204.04472583 69.06179633 208 72 C208.55768066 72.4134668 209.11536133 72.82693359 209.68994141 73.25292969 C216.218248 78.1187715 222.5042565 83.1664131 228.48828125 88.69921875 C230.48927826 90.53216935 232.51832804 92.30146829 234.578125 94.06640625 C239.56596902 98.42065141 244.25645124 103.07038503 248.93579102 107.75048828 C250.42641615 109.23893237 251.92487017 110.71917277 253.42382812 112.19921875 C259.73344544 118.47208683 265.46782637 125.01986354 271 132 C272.00029127 133.20872989 273.00371163 134.41488462 274.01171875 135.6171875 C282.48657734 145.87320807 289.82563769 156.80663473 297 168 C297.41846191 168.6487207 297.83692383 169.29744141 298.26806641 169.96582031 C323.72073214 209.75009108 339.53351355 254.43611985 347.75 300.75 C348.04825684 302.41554932 348.04825684 302.41554932 348.35253906 304.11474609 C351.49511797 322.71417751 352.37938383 341.22764699 352.3125 360.0625 C352.30976578 361.66983002 352.30976578 361.66983002 352.30697632 363.30963135 C352.25917919 380.04672314 351.66507066 396.44511716 349 413 C348.82307617 414.11874512 348.64615234 415.23749023 348.46386719 416.39013672 C333.65987075 507.52803879 286.07747739 577.15294491 222.15479088 640.96127474 C219.08296101 644.02873349 216.01407598 647.09913622 212.94480896 650.16915894 C207.64337237 655.47111659 202.34012694 660.77125918 197.03560257 666.07012749 C189.36641678 673.73114123 181.70003651 681.39495752 174.03430979 689.05943228 C161.59319135 701.49836911 149.14984746 713.93507719 136.70507812 726.37036133 C124.62544703 738.44079517 112.54688027 750.51229245 100.46972656 762.58520508 C99.7236688 763.33100012 98.97761104 764.07679515 98.20894547 764.84519004 C94.46571521 768.58711514 90.72250568 772.32906099 86.97930646 776.07101715 C55.98941801 807.05056075 24.99590682 838.02647802 -6 869 C-9.52863523 867.49259406 -11.79946304 865.45018056 -14.50191975 862.74696922 C-15.85546479 861.40032238 -15.85546479 861.40032238 -17.23635417 860.02647054 C-18.23385715 859.02395238 -19.23126637 858.02134091 -20.22859192 857.01864624 C-21.29082874 855.95799732 -22.35350305 854.89778641 -23.41657752 853.83797705 C-26.34015011 850.92082834 -29.25743285 847.9974589 -32.17374051 845.07304978 C-35.31883872 841.92138194 -38.46968765 838.77547263 -41.61982727 835.62884521 C-47.79273017 829.46098903 -53.96026987 823.28779639 -60.12602571 817.11279647 C-67.30720507 809.92123793 -74.49360376 802.73490452 -81.68021747 795.5487773 C-94.50650514 782.72299055 -107.32795195 769.89237539 -120.14672852 757.05908203 C-132.58158684 744.61014899 -145.01992873 732.16471047 -157.4621582 719.72314453 C-158.22779435 718.95754834 -158.99343049 718.19195216 -159.78226773 717.40315609 C-160.54658569 716.63887848 -161.31090366 715.87460087 -162.09838277 715.08716333 C-176.2626693 700.92356733 -190.42366003 686.75668018 -204.58312688 672.58826601 C-209.58853432 667.57984542 -214.59491489 662.5723988 -219.60160255 657.56525803 C-225.70823378 651.45794344 -231.81296203 645.34873372 -237.91534928 639.23717849 C-241.02784484 636.12007665 -244.14110776 633.00375218 -247.25653839 629.88958359 C-250.11164317 627.03557927 -252.96440826 624.17925733 -255.81536444 621.32110901 C-256.84410914 620.29056122 -257.87368124 619.26083852 -258.90418801 618.23205273 C-264.48757054 612.65695881 -269.88220999 607.00526892 -275 601 C-275.948172 599.92760616 -276.89831886 598.85695073 -277.8515625 597.7890625 C-289.84552591 584.17666232 -300.22699901 569.26796175 -310 554 C-310.35980957 553.43877441 -310.71961914 552.87754883 -311.09033203 552.29931641 C-322.54833444 534.24158828 -332.28649024 514.93714922 -340 495 C-340.32274902 494.18096191 -340.64549805 493.36192383 -340.97802734 492.51806641 C-357.41563265 450.52330761 -365.22315871 405.98691992 -365.25 361 C-365.25067474 359.98077454 -365.25134949 358.96154907 -365.25204468 357.91143799 C-365.23442248 341.09524976 -364.50429484 324.65503957 -362 308 C-361.83371094 306.8661084 -361.66742188 305.7322168 -361.49609375 304.56396484 C-356.12248133 269.00358709 -345.61979651 234.40056893 -330 202 C-329.61376465 201.18660156 -329.2275293 200.37320313 -328.82958984 199.53515625 C-315.08852908 170.69186537 -297.38496331 144.56883975 -276.36816406 120.56347656 C-275.18499264 119.2114013 -274.00972118 117.85242057 -272.8359375 116.4921875 C-262.19582992 104.37314605 -250.7345943 92.9024839 -238 83 C-236.3110779 81.58502904 -234.62363449 80.16829164 -232.9375 78.75 C-205.25661884 56.19810814 -173.39358119 37.70846163 -140 25 C-139.07364746 24.64244629 -138.14729492 24.28489258 -137.19287109 23.91650391 C-94.04018225 7.38320329 -46.38103263 -2.13114899 0 0 Z " fill="#E0B104" transform="translate(506,83)"/>
<path d="M0 0 C6 2 6 2 8.28125 2.8515625 C19.5149487 6.76753493 30.83291271 5.61618766 42 2 C42.66 1.67 43.32 1.34 44 1 C49.54339763 0.56522372 52.99253515 1.72387962 58 4 C68.57320326 6.23547726 78.74493081 6.04445672 88.69140625 1.90625 C94.05769929 -0.20031512 97.90575412 0.90236934 103 3 C113.75483238 7.14555267 125.27233465 5.52715403 136 2 C136.66 1.67 137.32 1.34 138 1 C142.36733115 0.70639791 145.3576892 1.34242763 149.375 3 C160.518929 6.8665429 171.266045 5.8995808 182.23046875 1.97265625 C187.50940543 0.11869964 190.29090228 -0.25123552 195.5625 1.875 C205.7654915 5.9222338 216.46997106 6.51000965 227 3 C228.23289342 2.44571599 229.46215622 1.88327979 230.6875 1.3125 C234.93216514 -0.36934845 237.19084887 0.24542943 241.33203125 1.97265625 C242.55986328 2.51212891 242.55986328 2.51212891 243.8125 3.0625 C253.65674248 6.73074754 266.24831455 6.49970609 275.8515625 2.1640625 C276.45742188 1.88304687 277.06328125 1.60203125 277.6875 1.3125 C281.93216514 -0.36934845 284.19084887 0.24542943 288.33203125 1.97265625 C289.55986328 2.51212891 289.55986328 2.51212891 290.8125 3.0625 C301.64009987 7.04087788 312.565366 5.79237854 323.23046875 1.97265625 C329.87434438 -0.36066538 329.87434438 -0.36066538 333.31640625 0.7421875 C334.05761719 1.11601562 334.79882812 1.48984375 335.5625 1.875 C345.32143217 6.71218302 356.93202535 6.29367694 367.1875 3.0625 C368.19167969 2.70285156 369.19585938 2.34320313 370.23046875 1.97265625 C376.87434438 -0.36066538 376.87434438 -0.36066538 380.31640625 0.7421875 C381.05761719 1.11601562 381.79882812 1.48984375 382.5625 1.875 C391.39154191 6.25126687 402.13916255 6.36877308 411.6796875 4.140625 C414.50475466 3.18742385 417.25123473 2.15226019 420 1 C421.485 0.505 421.485 0.505 423 0 C423 63.36 423 126.72 423 192 C427.62 192 432.24 192 437 192 C441 197 441 197 441 200.125 C439.81282398 203.53813105 439.12199963 204.25616034 436 206 C433.4193905 206.28776186 431.08273787 206.40306955 428.50398922 206.37752342 C427.74219285 206.38188374 426.98039648 206.38624407 426.19551536 206.39073652 C423.62796269 206.40173558 421.06094222 206.39124931 418.49339294 206.38095093 C416.64004063 206.38440565 414.78669036 206.38916896 412.93334442 206.39513266 C407.82881145 206.40769769 402.72444597 206.40144734 397.61991227 206.39217401 C392.11952123 206.38540637 386.61915966 206.39585333 381.11877441 206.40411377 C370.33919917 206.41747751 359.55968647 206.4145617 348.78010874 206.40587585 C340.02259577 206.39911043 331.26510036 206.39817762 322.50758553 206.4014473 C320.64049192 206.40213684 320.64049192 206.40213684 318.73567926 206.40284032 C316.20732958 206.40379946 313.67897991 206.4047721 311.15063024 206.4057581 C288.10049678 206.41407541 265.05039291 206.40543924 242.00026663 206.38973031 C220.94685542 206.37549129 199.89349863 206.37676839 178.84008789 206.39111328 C155.19851311 206.40716771 131.5569623 206.41349733 107.91538101 206.40427649 C105.39645358 206.4033208 102.87752615 206.40237769 100.35859871 206.4014473 C98.49937357 206.40075306 98.49937357 206.40075306 96.60258834 206.40004479 C87.85101764 206.39745013 79.0994662 206.40183611 70.34789848 206.40888596 C59.6893127 206.41728298 49.03079323 206.41505871 38.37221508 206.39904372 C32.92988737 206.39113699 27.48767039 206.38811016 22.0453434 206.39799118 C17.06948099 206.40688895 12.09383261 206.40208699 7.11798979 206.38605852 C5.31187896 206.38268977 3.50575029 206.38445133 1.69965082 206.39168589 C-0.74377154 206.40072733 -3.18644787 206.39153544 -5.62983036 206.37752342 C-6.69682037 206.38805867 -6.69682037 206.38805867 -7.78536573 206.39880675 C-10.67812356 206.36534686 -12.5528455 206.32397793 -14.93573326 204.59749854 C-16.26213066 202.60653346 -16.402059 201.38119236 -16.375 199 C-16.38273437 198.319375 -16.39046875 197.63875 -16.3984375 196.9375 C-16 195 -16 195 -13 192 C-8.71 192 -4.42 192 0 192 C0 128.64 0 65.28 0 0 Z " fill="#FEFEFE" transform="translate(288,453)"/>
<path d="M0 0 C0.67735327 -0.00436032 1.35470654 -0.00872064 2.05258566 -0.0132131 C4.31490679 -0.02413303 6.57661379 -0.01376304 8.83893013 -0.00342751 C10.48023099 -0.00688538 12.12152953 -0.01165081 13.76282322 -0.01760924 C18.26752194 -0.03013135 22.77202995 -0.0239433 27.27672935 -0.01465058 C32.13709603 -0.0078653 36.99742983 -0.01833882 41.85778999 -0.02659035 C51.37764336 -0.03993602 60.89742581 -0.03704604 70.41728197 -0.02835242 C78.15493531 -0.02157878 85.89256877 -0.02065778 93.63022423 -0.02392387 C94.73127107 -0.02438357 95.8323179 -0.02484327 96.9667298 -0.0253169 C99.20347348 -0.02627608 101.44021717 -0.02724872 103.67696084 -0.02823468 C124.65580297 -0.03679122 145.6346058 -0.0269507 166.61344148 -0.01083358 C184.61221822 0.00256611 202.61093691 0.0002449 220.6097126 -0.01358986 C241.51010854 -0.02964742 262.41047 -0.03596329 283.31087124 -0.02675307 C285.54002324 -0.02579742 287.76917525 -0.02485431 289.99832726 -0.02392387 C291.6435041 -0.02322963 291.6435041 -0.02322963 293.32191684 -0.02252137 C301.04878649 -0.01993173 308.77563427 -0.02430199 316.50250053 -0.03136253 C325.92127768 -0.03977984 335.33997983 -0.03749266 344.7587484 -0.0215203 C349.56388626 -0.01364016 354.36889911 -0.01054162 359.17403603 -0.02046776 C363.57462082 -0.02942062 367.97496497 -0.02447199 372.37552799 -0.0085351 C373.96564092 -0.00518977 375.55577426 -0.0068758 377.14587401 -0.01416247 C389.73901874 -0.06743434 398.46221402 0.86367692 407.77231026 9.86971092 C413.71715098 16.72175355 414.67215557 24.07476018 414.40121651 32.96736717 C413.71883689 38.10286208 411.97941593 42.19354725 408.94809151 46.37752342 C408.07966621 47.02052391 407.21124092 47.6635244 406.31649971 48.32600975 C402.72494855 52.95345 403.78502282 56.774927 404.47152901 62.38533592 C404.58298256 63.48443291 404.69443611 64.58352989 404.80926704 65.71593285 C405.04826331 68.06811359 405.29795738 70.41922752 405.55734444 72.76924706 C406.19640295 78.67050621 406.70942775 84.58264578 407.23715401 90.49471092 C407.45939939 92.92366636 407.68164879 95.35262144 407.90390205 97.78157616 C411.43358913 136.87555891 411.43358913 136.87555891 411.63559151 155.81502342 C411.65253059 156.49860924 411.66946968 157.18219505 411.68692207 157.88649559 C411.90396287 167.94539502 410.02688992 176.65898638 403.17270088 184.37654686 C396.00992775 191.09765938 387.60558331 193.76189499 377.96371651 193.65877342 C370.07517208 192.92305425 363.58213252 189.85929306 357.94809151 184.37752342 C355.51346128 185.50119891 353.53738807 186.68805529 351.38559151 188.31502342 C345.27939908 192.421707 336.99634808 194.12735826 329.70199776 193.94002342 C323.66323599 192.70657421 318.28688627 189.34949733 312.94809151 186.37752342 C311.61908691 185.70226866 310.28795983 185.03095674 308.94809151 184.37752342 C308.22106026 184.97500389 308.22106026 184.97500389 307.47934151 185.58455467 C299.68636609 191.74400255 293.39358994 194.0803249 283.34262276 193.86971092 C276.00352398 192.80558383 269.71302861 188.8945212 263.94809151 184.37752342 C260.83867495 185.86058616 257.98103384 187.59651481 255.07309151 189.44002342 C251.25723063 191.72287469 248.46316925 193.19323453 243.94809151 193.37752342 C243.16047432 193.46131248 242.37285713 193.54510155 241.56137276 193.63142967 C233.5343538 194.16961782 227.67566498 191.64454919 220.94809151 187.37752342 C219.10434151 185.67830467 219.10434151 185.67830467 217.94809151 184.37752342 C214.67922115 185.50119761 211.98974852 186.96912258 209.13559151 188.87752342 C202.12981991 193.30841255 194.15871954 194.65158639 185.94809151 193.37752342 C179.91209024 191.03838846 174.47023215 187.72092858 168.94809151 184.37752342 C168.41441963 184.77584373 167.88074776 185.17416405 167.33090401 185.58455467 C159.42930651 191.20316466 151.62237904 194.12077438 141.83090401 193.86971092 C135.26606376 192.74888454 128.41099762 189.3982928 123.94809151 184.37752342 C121.65695378 185.51485078 119.37908197 186.67259439 117.10824776 187.85017967 C116.08602119 188.37482811 115.06379463 188.89947655 114.01059151 189.44002342 C112.99094307 189.96724998 111.97129463 190.49447655 110.92074776 191.03767967 C103.80771904 194.24368342 96.5201686 193.74527619 88.94809151 192.37752342 C85.29738212 190.74969733 82.20200883 188.67476468 78.94809151 186.37752342 C77.62770506 185.68556833 76.29809 185.00976253 74.94809151 184.37752342 C74.49820869 184.77584373 74.04832588 185.17416405 73.58481026 185.58455467 C66.56454765 191.36677497 58.41493453 194.09019496 49.27231026 193.72908592 C41.69252299 192.58256348 35.41804608 189.69964138 29.94809151 184.37752342 C27.50786116 185.50378358 25.4975897 186.71003666 23.32309151 188.31502342 C15.1248213 193.32507744 5.74510056 195.00023279 -3.65347099 192.75642967 C-12.09359708 189.81675727 -18.53167146 184.70224162 -22.65029716 176.75081444 C-25.99654935 169.19507064 -25.74551443 161.80063554 -25.58315849 153.72127342 C-25.56677597 152.09468798 -25.55054414 150.46810102 -25.53445244 148.84151268 C-25.27257072 130.96698698 -23.59378739 113.20913839 -21.80697441 95.43410301 C-21.28783287 90.23063762 -20.79303747 85.02480334 -20.2951107 79.81927299 C-19.909426 75.79046957 -19.52025135 71.7621257 -19.11916924 67.73482323 C-19.01136383 66.6406131 -19.01136383 66.6406131 -18.90138054 65.52429771 C-18.70836255 63.56705634 -18.51309608 61.61003707 -18.31765556 59.65303612 C-17.58268436 54.22022024 -17.58268436 54.22022024 -19.47768974 49.42049217 C-20.10030693 48.80818748 -20.72292412 48.1958828 -21.36440849 47.56502342 C-27.99384139 40.31827491 -28.69676733 33.78073183 -28.45425224 24.00252342 C-27.50504634 15.45045474 -22.78033173 10.62845741 -16.52847099 5.10408592 C-11.11537699 1.33028853 -6.56177557 0.00265999 0 0 Z " fill="#FEFEFD" transform="translate(307.051908493042,251.6224765777588)"/>
<path d="M0 0 C61.38 0 122.76 0 186 0 C186 33 186 66 186 100 C124.62 100 63.24 100 0 100 C0 67 0 34 0 0 Z " fill="#E0B104" transform="translate(339,502)"/>
<path d="M0 0 C7.28902019 6.67504224 11.51904832 16.02321778 12.23900223 25.87492371 C12.30334297 28.69199851 12.30610063 31.5025704 12.28564453 34.3203125 C12.28593658 35.3846199 12.28622864 36.44892731 12.28652954 37.54548645 C12.28514337 41.04082576 12.26961565 44.53594822 12.25390625 48.03125 C12.25017359 50.46362186 12.24732781 52.89599523 12.24533081 55.32836914 C12.2377143 61.71356395 12.2180828 68.09866699 12.19592285 74.48382568 C12.17181379 82.15396733 12.16267401 89.82413974 12.15101624 97.49430847 C12.13165732 109.13168603 12.0933207 120.76886245 12.05859375 132.40625 C-14.01140625 132.40625 -40.08140625 132.40625 -66.94140625 132.40625 C-67.1419503 105.22584687 -67.1419503 105.22584687 -67.18554688 93.58398438 C-67.2153635 85.65959848 -67.25052643 77.7354519 -67.31860352 69.8112793 C-67.37318005 63.41810623 -67.40288107 57.02524508 -67.41579247 50.63185692 C-67.42498633 48.20035077 -67.44293926 45.76886049 -67.47005653 43.33748817 C-67.77033127 15.28274455 -67.77033127 15.28274455 -57.81640625 3.03125 C-40.96092607 -14.13170992 -18.44648683 -15.14319241 0 0 Z " fill="#E0B105" transform="translate(648.94140625,512.59375)"/>
<path d="M0 0 C10.89 0 21.78 0 33 0 C33 6.02484146 32.84720002 11.70259486 32.1953125 17.64453125 C32.02316166 19.29548823 31.85104381 20.94644865 31.67895508 22.59741211 C31.58836823 23.44963348 31.49778137 24.30185486 31.40444946 25.17990112 C29.85585561 39.76868003 28.48902296 54.34053825 27.59619141 68.9855957 C27.52964355 70.04093506 27.4630957 71.09627441 27.39453125 72.18359375 C27.31489136 73.55342407 27.31489136 73.55342407 27.23364258 74.95092773 C27 77 27 77 26 78 C23.6243148 78.0883967 21.27791326 78.11530305 18.90234375 78.09765625 C17.83905602 78.09553383 17.83905602 78.09553383 16.75428772 78.09336853 C14.48198288 78.08775443 12.20977525 78.07519963 9.9375 78.0625 C8.40039204 78.05748681 6.86328255 78.05292359 5.32617188 78.04882812 C1.55074358 78.03778042 -2.22461171 78.02050641 -6 78 C-6.2453964 69.33013854 -5.47624175 60.77119793 -4.6875 52.1484375 C-4.55259352 50.63818742 -4.4180787 49.1279023 -4.28393555 47.61758423 C-3.93272567 43.67507837 -3.57625648 39.73306579 -3.21862793 35.7911377 C-2.78907024 31.04393761 -2.3661567 26.29614141 -1.94210815 21.54844666 C-1.29978202 14.36516589 -0.64910769 7.18268564 0 0 Z " fill="#E0B207" transform="translate(397,309)"/>
<path d="M0 0 C10.89 0 21.78 0 33 0 C31.20574209 26.01673969 29.10151094 52.00655402 27 78 C16.11 78 5.22 78 -6 78 C-5.36245096 60.80816034 -4.02316689 43.75285069 -2.4375 26.625 C-2.20071878 24.02738501 -1.96438801 21.42972892 -1.72851562 18.83203125 C-1.15834127 12.55411149 -0.57900067 6.27713643 0 0 Z " fill="#E0B207" transform="translate(350,309)"/>
<path d="M0 0 C10.89 0 21.78 0 33 0 C34.62883177 15.74537381 36.18355035 31.48729309 37.48690796 47.26260376 C37.61936065 48.86378405 37.75330339 50.46484187 37.88882446 52.06576538 C38.08046599 54.3390478 38.26575277 56.61276349 38.44921875 58.88671875 C38.60910278 60.83904419 38.60910278 60.83904419 38.7722168 62.83081055 C39.04809217 67.88024648 39 72.94303348 39 78 C28.44 78 17.88 78 7 78 C6.25632886 74.2816443 5.75218023 70.88299553 5.44335938 67.13085938 C5.29815857 65.39249817 5.29815857 65.39249817 5.15002441 63.61901855 C5.04895386 62.37317993 4.9478833 61.12734131 4.84375 59.84375 C4.68295959 57.9029657 4.68295959 57.9029657 4.5189209 55.92297363 C4.23395969 52.48242802 3.95254208 49.04160123 3.67181396 45.60070801 C3.44489454 42.82624516 3.21556689 40.05198404 2.98607635 37.27773285 C2.50705774 31.48679643 2.03007907 25.69569227 1.55664062 19.90429688 C1.47305298 18.88235229 1.38946533 17.86040771 1.30334473 16.80749512 C0.85706544 11.20592676 0.43098201 5.60276608 0 0 Z " fill="#E0B207" transform="translate(570,309)"/>
<path d="M0 0 C10.89 0 21.78 0 33 0 C33 6.02484146 32.84720002 11.70259486 32.1953125 17.64453125 C32.02316166 19.29548823 31.85104381 20.94644865 31.67895508 22.59741211 C31.58836823 23.44963348 31.49778137 24.30185486 31.40444946 25.17990112 C29.85585561 39.76868003 28.48902296 54.34053825 27.59619141 68.9855957 C27.52964355 70.04093506 27.4630957 71.09627441 27.39453125 72.18359375 C27.31489136 73.55342407 27.31489136 73.55342407 27.23364258 74.95092773 C27 77 27 77 26 78 C23.6243148 78.0883967 21.27791326 78.11530305 18.90234375 78.09765625 C17.83905602 78.09553383 17.83905602 78.09553383 16.75428772 78.09336853 C14.48198288 78.08775443 12.20977525 78.07519963 9.9375 78.0625 C8.40039204 78.05748681 6.86328255 78.05292359 5.32617188 78.04882812 C1.55074358 78.03778042 -2.22461171 78.02050641 -6 78 C-5.38340254 61.00788451 -3.9702921 44.11861275 -2.4375 27.1875 C-2.2002897 24.53718736 -1.96444658 21.88675521 -1.72851562 19.23632812 C-1.15757203 12.82373002 -0.57863212 6.41192718 0 0 Z " fill="#E0B208" transform="translate(303,309)"/>
<path d="M0 0 C10.89 0 21.78 0 33 0 C33.69528639 7.2915274 34.38954855 14.58313823 35.08129883 21.875 C35.3163907 24.34999055 35.55205585 26.82492673 35.78833008 29.29980469 C39 62.95104387 39 62.95104387 39 78 C28.44 78 17.88 78 7 78 C6.25632886 74.2816443 5.75218023 70.88299553 5.44335938 67.13085938 C5.29815857 65.39249817 5.29815857 65.39249817 5.15002441 63.61901855 C5.04895386 62.37317993 4.9478833 61.12734131 4.84375 59.84375 C4.68295959 57.9029657 4.68295959 57.9029657 4.5189209 55.92297363 C4.23395969 52.48242802 3.95254208 49.04160123 3.67181396 45.60070801 C3.44489454 42.82624516 3.21556689 40.05198404 2.98607635 37.27773285 C2.50705774 31.48679643 2.03007907 25.69569227 1.55664062 19.90429688 C1.47305298 18.88235229 1.38946533 17.86040771 1.30334473 16.80749512 C0.85706544 11.20592676 0.43098201 5.60276608 0 0 Z " fill="#E0B207" transform="translate(664,309)"/>
<path d="M0 0 C10.89 0 21.78 0 33 0 C34.49739555 16.85906952 34.49739555 16.85906952 35.1328125 24.08789062 C35.56512292 29.00581848 35.99825894 33.92366315 36.43652344 38.84106445 C36.79010539 42.80892602 37.13980762 46.77711271 37.48690796 50.74554634 C37.61949715 52.25379005 37.75344548 53.76191496 37.88882446 55.26991081 C38.56926731 62.85904924 39.17865172 70.37380451 39 78 C34.46102295 78.02465392 29.92208457 78.04283789 25.38305664 78.05493164 C23.83780234 78.0599714 22.29255284 78.0668032 20.74731445 78.07543945 C18.53074971 78.08752076 16.31424782 78.09323173 14.09765625 78.09765625 C13.05545677 78.10539818 13.05545677 78.10539818 11.99220276 78.11329651 C10.3277067 78.11349277 8.66334501 78.06189129 7 78 C4.95931414 75.95931414 5.53223223 71.83704214 5.3515625 69.0234375 C5.23349493 67.31673073 5.11541157 65.61002504 4.99731445 63.90332031 C4.93661774 63.00085571 4.87592102 62.09839111 4.81338501 61.1685791 C3.75988931 45.54619193 2.51794639 29.95983932 0.91455078 14.38427734 C0.79450684 13.21074707 0.67446289 12.0372168 0.55078125 10.828125 C0.44419189 9.8165332 0.33760254 8.80494141 0.2277832 7.76269531 C0.01506938 5.1827707 0 2.58867885 0 0 Z " fill="#E0B207" transform="translate(617,309)"/>
<path d="M0 0 C10.56 0 21.12 0 32 0 C32 25.74 32 51.48 32 78 C21.44 78 10.88 78 0 78 C0 52.26 0 26.52 0 0 Z " fill="#E0B105" transform="translate(484,309)"/>
<path d="M0 0 C8.58 0 17.16 0 26 0 C26 25.74 26 51.48 26 78 C15.44 78 4.88 78 -6 78 C-6 65.625 -6 65.625 -5.44921875 59.60083008 C-5.36143661 58.6181868 -5.36143661 58.6181868 -5.2718811 57.61569214 C-5.08172941 55.49985434 -4.88471083 53.38472164 -4.6875 51.26953125 C-4.5525482 49.78313532 -4.41803444 48.29669956 -4.28393555 46.81022644 C-3.93318244 42.93508927 -3.57655912 39.06051501 -3.21862793 35.18603516 C-2.85307894 31.21745084 -2.49319839 27.24835278 -2.1328125 23.27929688 C-1.42735998 15.51902129 -0.71516844 7.75938735 0 0 Z " fill="#E0B20A" transform="translate(444,309)"/>
<path d="M0 0 C8.25 0 16.5 0 25 0 C26.96178505 13.33830487 28.12754149 26.72591092 29.28710938 40.1550293 C29.62693584 44.08488659 29.97326392 48.01413396 30.3203125 51.94335938 C30.53944587 54.45309156 30.75820921 56.96285608 30.9765625 59.47265625 C31.07965729 60.64143814 31.18275208 61.81022003 31.28897095 63.01441956 C31.38261932 64.10673386 31.4762677 65.19904816 31.57275391 66.32446289 C31.65554596 67.27849503 31.73833801 68.23252716 31.82363892 69.21546936 C32.00876441 72.13837961 32 75.07123307 32 78 C21.44 78 10.88 78 0 78 C0 52.26 0 26.52 0 0 Z " fill="#E0B208" transform="translate(531,309)"/>
<path d="M0 0 C4.17690842 0.85243029 5.45833151 2.26562265 8.0625 5.625 C8.75949218 8.64786059 8.717776 11.53580989 8.625 14.625 C8.63595703 15.4190625 8.64691406 16.213125 8.65820312 17.03125 C8.60834018 21.02028587 8.35136369 23.15818653 6.2109375 26.6171875 C4.0625 28.625 4.0625 28.625 1.125 29.75 C-1.9375 29.625 -1.9375 29.625 -4.59375 27.7109375 C-7.81697351 23.46702654 -7.64688771 20.30973916 -7.5 15.125 C-7.51095703 14.28324219 -7.52191406 13.44148437 -7.53320312 12.57421875 C-7.48458033 8.45748877 -7.25793741 6.15365412 -5.0859375 2.5703125 C-2.9375 0.625 -2.9375 0.625 0 0 Z " fill="#FDFAF1" transform="translate(638.9375,551.375)"/>
</svg>
