<?xml version="1.0" encoding="UTF-8"?>
<svg version="1.1" xmlns="http://www.w3.org/2000/svg" width="1000" height="1000">
<path d="M0 0 C1.53599854 0.06960937 1.53599854 0.06960937 3.10302734 0.140625 C71.36732438 3.49055286 137.41924896 22.91897629 194 62 C194.66064453 62.45503906 195.32128906 62.91007812 196.00195312 63.37890625 C200.05209723 66.18510744 204.04472583 69.06179633 208 72 C208.55768066 72.4134668 209.11536133 72.82693359 209.68994141 73.25292969 C216.218248 78.1187715 222.5042565 83.1664131 228.48828125 88.69921875 C230.48927826 90.53216935 232.51832804 92.30146829 234.578125 94.06640625 C239.56596902 98.42065141 244.25645124 103.07038503 248.93579102 107.75048828 C250.42641615 109.23893237 251.92487017 110.71917277 253.42382812 112.19921875 C259.73344544 118.47208683 265.46782637 125.01986354 271 132 C272.00029127 133.20872989 273.00371163 134.41488462 274.01171875 135.6171875 C282.48657734 145.87320807 289.82563769 156.80663473 297 168 C297.41846191 168.6487207 297.83692383 169.29744141 298.26806641 169.96582031 C323.72073214 209.75009108 339.53351355 254.43611985 347.75 300.75 C348.04825684 302.41554932 348.04825684 302.41554932 348.35253906 304.11474609 C351.49511797 322.71417751 352.37938383 341.22764699 352.3125 360.0625 C352.30976578 361.66983002 352.30976578 361.66983002 352.30697632 363.30963135 C352.25917919 380.04672314 351.66507066 396.44511716 349 413 C348.82307617 414.11874512 348.64615234 415.23749023 348.46386719 416.39013672 C333.65987075 507.52803879 286.07747739 577.15294491 222.15479088 640.96127474 C219.08296101 644.02873349 216.01407598 647.09913622 212.94480896 650.16915894 C207.64337237 655.47111659 202.34012694 660.77125918 197.03560257 666.07012749 C189.36641678 673.73114123 181.70003651 681.39495752 174.03430979 689.05943228 C161.59319135 701.49836911 149.14984746 713.93507719 136.70507812 726.37036133 C124.62544703 738.44079517 112.54688027 750.51229245 100.46972656 762.58520508 C99.7236688 763.33100012 98.97761104 764.07679515 98.20894547 764.84519004 C94.46571521 768.58711514 90.72250568 772.32906099 86.97930646 776.07101715 C55.98941801 807.05056075 24.99590682 838.02647802 -6 869 C-9.52863523 867.49259406 -11.79946304 865.45018056 -14.50191975 862.74696922 C-15.85546479 861.40032238 -15.85546479 861.40032238 -17.23635417 860.02647054 C-18.23385715 859.02395238 -19.23126637 858.02134091 -20.22859192 857.01864624 C-21.29082874 855.95799732 -22.35350305 854.89778641 -23.41657752 853.83797705 C-26.34015011 850.92082834 -29.25743285 847.9974589 -32.17374051 845.07304978 C-35.31883872 841.92138194 -38.46968765 838.77547263 -41.61982727 835.62884521 C-47.79273017 829.46098903 -53.96026987 823.28779639 -60.12602571 817.11279647 C-67.30720507 809.92123793 -74.49360376 802.73490452 -81.68021747 795.5487773 C-94.50650514 782.72299055 -107.32795195 769.89237539 -120.14672852 757.05908203 C-132.58158684 744.61014899 -145.01992873 732.16471047 -157.4621582 719.72314453 C-158.22779435 718.95754834 -158.99343049 718.19195216 -159.78226773 717.40315609 C-160.54658569 716.63887848 -161.31090366 715.87460087 -162.09838277 715.08716333 C-176.2626693 700.92356733 -190.42366003 686.75668018 -204.58312688 672.58826601 C-209.58853432 667.57984542 -214.59491489 662.5723988 -219.60160255 657.56525803 C-225.70823378 651.45794344 -231.81296203 645.34873372 -237.91534928 639.23717849 C-241.02784484 636.12007665 -244.14110776 633.00375218 -247.25653839 629.88958359 C-250.11164317 627.03557927 -252.96440826 624.17925733 -255.81536444 621.32110901 C-256.84410914 620.29056122 -257.87368124 619.26083852 -258.90418801 618.23205273 C-264.48757054 612.65695881 -269.88220999 607.00526892 -275 601 C-275.948172 599.92760616 -276.89831886 598.85695073 -277.8515625 597.7890625 C-289.84552591 584.17666232 -300.22699901 569.26796175 -310 554 C-310.35980957 553.43877441 -310.71961914 552.87754883 -311.09033203 552.29931641 C-322.54833444 534.24158828 -332.28649024 514.93714922 -340 495 C-340.32274902 494.18096191 -340.64549805 493.36192383 -340.97802734 492.51806641 C-357.41563265 450.52330761 -365.22315871 405.98691992 -365.25 361 C-365.25067474 359.98077454 -365.25134949 358.96154907 -365.25204468 357.91143799 C-365.23442248 341.09524976 -364.50429484 324.65503957 -362 308 C-361.83371094 306.8661084 -361.66742188 305.7322168 -361.49609375 304.56396484 C-356.12248133 269.00358709 -345.61979651 234.40056893 -330 202 C-329.61376465 201.18660156 -329.2275293 200.37320313 -328.82958984 199.53515625 C-315.08852908 170.69186537 -297.38496331 144.56883975 -276.36816406 120.56347656 C-275.18499264 119.2114013 -274.00972118 117.85242057 -272.8359375 116.4921875 C-262.19582992 104.37314605 -250.7345943 92.9024839 -238 83 C-236.3110779 81.58502904 -234.62363449 80.16829164 -232.9375 78.75 C-205.25661884 56.19810814 -173.39358119 37.70846163 -140 25 C-139.07364746 24.64244629 -138.14729492 24.28489258 -137.19287109 23.91650391 C-94.04018225 7.38320329 -46.38103263 -2.13114899 0 0 Z " fill="#00BF63" transform="translate(506,83)"/>
<path d="M0 0 C3.11088778 1.37885212 5.82582119 3.20146174 8.625 5.125 C10.30441255 6.23218799 11.98411175 7.33894129 13.6640625 8.4453125 C14.53579102 9.02829102 15.40751953 9.61126953 16.30566406 10.21191406 C20.82563927 13.21157865 25.41648276 16.09878469 30 19 C31.86095221 20.18446369 33.7216308 21.36935737 35.58203125 22.5546875 C42.93376232 27.23294308 50.30287236 31.88356854 57.67333984 36.53222656 C61.61660245 39.01983357 65.55820768 41.51006414 69.5 44 C71.0833256 45.00001224 72.66665893 46.00001225 74.25 47 C109.08333333 69 143.91666667 91 178.75 113 C179.5335083 113.49483887 180.3170166 113.98967773 181.12426758 114.49951172 C182.71007325 115.50109035 184.29584791 116.50271808 185.8815918 117.50439453 C190.57855599 120.47125323 195.27649664 123.43655352 199.97583008 126.3996582 C201.53005859 127.38097707 203.08328749 128.36388098 204.63549805 129.34838867 C209.03103629 132.13548215 213.44268592 134.89279351 217.875 137.62109375 C219.8542045 138.85150164 221.83337184 140.08196931 223.8125 141.3125 C224.73780518 141.87501465 225.66311035 142.4375293 226.61645508 143.01708984 C234.33813234 147.84464808 240.26847897 153.04668106 243 162 C244.16894429 169.6890558 242.3627531 175.62112615 238 182 C233.92593864 186.69703676 229.08648742 189.71300291 223 191 C220.91138281 191.07532882 218.82028661 191.09595444 216.73046875 191.0703125 C215.65563232 191.06016113 214.5807959 191.05000977 213.47338867 191.03955078 C212.65717041 191.02649902 211.84095215 191.01344727 211 191 C210.92224057 223.51085542 210.89036499 256.02134591 210.92259431 288.53226922 C210.92635825 292.36998259 210.92973076 296.20769622 210.93286133 300.04541016 C210.93349115 300.80943368 210.93412097 301.57345719 210.93476988 302.36063294 C210.94403591 314.73361208 210.92158772 327.10634093 210.88743024 339.47926767 C210.85308999 352.1739625 210.85280527 364.86832827 210.88417059 377.56303251 C210.90245267 385.39734721 210.89413418 393.2307083 210.85184724 401.06493406 C210.82227193 407.07118046 210.84006697 413.07633118 210.87562943 419.08258438 C210.88278366 421.5472815 210.87450278 424.01207823 210.84977531 426.47666168 C210.81832884 429.83932541 210.84206121 433.19722702 210.87974548 436.5597229 C210.84625855 438.02763147 210.84625855 438.02763147 210.81209511 439.52519476 C210.87767406 442.29414675 211.02468865 444.40463989 212 447 C214.13137579 448.97525365 216.20708319 450.29889023 218.7776652 451.64560544 C223.25357542 454.37343404 225.38866321 459.16598962 227 464 C227 473.57 227 483.14 227 493 C195.65 493 164.3 493 132 493 C132 459.28056112 132 459.28056112 138.94921875 451.94140625 C139.52285156 451.48636719 140.09648438 451.03132813 140.6875 450.5625 C141.55955078 449.85287109 141.55955078 449.85287109 142.44921875 449.12890625 C144 448 144 448 146 447 C146.09346394 422.23489634 146.16398939 397.46981913 146.20724869 372.70457458 C146.2278691 361.20549624 146.25597988 349.70652751 146.30175781 338.20751953 C146.34164136 328.1843464 146.3674366 318.16125267 146.37635398 308.1380024 C146.38156612 302.83132218 146.39380595 297.5248691 146.42292023 292.21826172 C146.45011316 287.2212691 146.45843709 282.22459674 146.45243073 277.22753716 C146.45352922 275.39578955 146.46145993 273.564031 146.4768219 271.73234749 C146.49681085 269.22555339 146.49190728 266.71995832 146.48101807 264.21313477 C146.49266943 263.49326637 146.5043208 262.77339798 146.51632524 262.03171539 C146.4430971 255.76778266 144.32985785 250.64663677 140.21875 245.9765625 C139.36796875 245.30753906 139.36796875 245.30753906 138.5 244.625 C137.64921875 243.93277344 137.64921875 243.93277344 136.78125 243.2265625 C133.12715169 240.71036322 130.41894368 239.74877187 125.95605469 239.68115234 C124.95531921 239.66128265 123.95458374 239.64141296 122.92352295 239.62094116 C121.85047913 239.60938995 120.7774353 239.59783875 119.671875 239.5859375 C118.56773254 239.56657135 117.46359009 239.5472052 116.32598877 239.5272522 C112.80073767 239.46749108 109.27545385 239.42108436 105.75 239.375 C103.35936079 239.33681708 100.96873529 239.29776517 98.578125 239.2578125 C92.71887174 239.16179233 86.85953585 239.07673452 81 239 C81.32379639 240.18174805 81.64759277 241.36349609 81.98120117 242.58105469 C83.52335346 248.77142858 83.32871335 254.90085294 83.3125 261.25 C83.32861328 262.49652344 83.34472656 263.74304688 83.36132812 265.02734375 C83.37296144 287.29350657 73.9593451 307.72144476 59 324 C51.55887231 331.22056385 51.55887231 331.22056385 48 333 C48.59166962 333.00142502 49.18333923 333.00285004 49.79293823 333.00431824 C55.99100188 333.02411407 62.18809374 333.07859788 68.38574219 333.15258789 C70.69393932 333.17568278 73.00224056 333.19014347 75.31054688 333.19555664 C78.64258063 333.2049082 81.97299593 333.24603669 85.3046875 333.29296875 C86.834991 333.28706978 86.834991 333.28706978 88.39620972 333.28105164 C96.27460136 333.4389238 103.0614632 335.3302875 108.94650269 340.81364441 C115.73914022 348.18720224 115.36549564 355.68933725 115.375 365.3125 C115.39949219 366.60607422 115.42398437 367.89964844 115.44921875 369.23242188 C115.47221148 376.72421995 114.89986851 381.59031512 111 388 C111.0788819 391.23415786 111.96898054 392.94365854 113.53125 395.78125 C115.99304473 401.53042765 115.47258821 407.79706279 115.4375 413.9375 C115.45748047 415.17435547 115.47746094 416.41121094 115.49804688 417.68554688 C115.49409275 425.08370901 114.62570914 429.60125361 111 436 C111.28300264 438.69013512 112.22690218 440.41543332 113.53320312 442.80712891 C115.95287895 448.0741929 115.51948997 453.56626244 115.50097656 459.2578125 C115.50000536 461.36337653 115.54165199 463.46527457 115.5859375 465.5703125 C115.65461735 473.24413379 115.31271058 479.13681102 110 485 C109.40316406 485.66773438 108.80632812 486.33546875 108.19140625 487.0234375 C107.65386719 487.46945312 107.11632812 487.91546875 106.5625 488.375 C106.02753906 488.83648438 105.49257813 489.29796875 104.94140625 489.7734375 C99.8073772 493.01706954 94.53933572 493.29130771 88.62564087 493.26742554 C87.38297614 493.27422221 87.38297614 493.27422221 86.11520708 493.28115618 C83.34709261 493.29378779 80.5791752 493.29218062 77.81103516 493.29052734 C75.82315315 493.29651332 73.83527348 493.30331903 71.84739685 493.31088257 C66.4527465 493.32854162 61.0581596 493.33323788 55.66348314 493.33451414 C52.29208117 493.33593623 48.9206953 493.34020689 45.54929733 493.34550858 C33.7848076 493.36400777 22.02036317 493.37217923 10.25585938 493.37060547 C-0.70617134 493.36940375 -11.66800526 493.3905124 -22.62998617 493.4220928 C-32.04587491 493.44825134 -41.46169935 493.45897295 -50.87762415 493.45769465 C-56.49941276 493.45718494 -62.12102641 493.46287336 -67.74277878 493.48405075 C-73.03043108 493.50342618 -78.31774139 493.5035622 -83.60540581 493.48901749 C-85.54357465 493.48692752 -87.48176486 493.49164147 -89.41989708 493.5037384 C-92.07088964 493.51921022 -94.72070576 493.50987031 -97.37167358 493.49447632 C-98.13414064 493.50476344 -98.89660769 493.51505057 -99.68217981 493.52564943 C-106.19 493.44244147 -111.30509729 491.31930652 -116.2421875 487.0703125 C-116.78101563 486.42835938 -117.31984375 485.78640625 -117.875 485.125 C-118.42929687 484.48820312 -118.98359375 483.85140625 -119.5546875 483.1953125 C-124.06523289 476.34415977 -123.40213191 468.56672555 -123.4375 460.6875 C-123.47037109 459.40681641 -123.50324219 458.12613281 -123.53710938 456.80664062 C-123.58182317 448.90855843 -122.76528284 443.41808187 -118 437 C-118.81210937 435.9996875 -119.62421875 434.999375 -120.4609375 433.96875 C-124.02809457 428.24113102 -123.75169656 422.12398793 -123.65185547 415.59130859 C-123.62503901 413.50303795 -123.65168052 411.42013831 -123.68359375 409.33203125 C-123.70603697 400.63891451 -122.66478574 394.87277497 -116.59277344 388.5300293 C-110.73852484 383.17531987 -104.76737003 381.54114569 -97.04516602 381.65942383 C-96.28336533 381.65898575 -95.52156464 381.65854767 -94.73667908 381.65809631 C-92.24215215 381.66017071 -89.74831439 381.68343689 -87.25390625 381.70703125 C-85.51513537 381.71263202 -83.77635972 381.71689985 -82.0375824 381.71989441 C-77.4787572 381.7313053 -72.92022234 381.76073983 -68.36151123 381.79400635 C-63.70263597 381.82478851 -59.04371344 381.8384171 -54.38476562 381.85351562 C-45.25638341 381.8856134 -36.12821592 381.93676396 -27 382 C-27.16233124 381.3947348 -27.32466248 380.7894696 -27.49191284 380.16586304 C-28.11452383 377.51181029 -28.12970104 375.07764478 -28.1328125 372.3515625 C-28.13410156 371.26359375 -28.13539063 370.175625 -28.13671875 369.0546875 C-28.13285156 367.92289063 -28.12898437 366.79109375 -28.125 365.625 C-28.12886719 364.5009375 -28.13273438 363.376875 -28.13671875 362.21875 C-28.13478516 360.58292969 -28.13478516 360.58292969 -28.1328125 358.9140625 C-28.13168457 357.9235791 -28.13055664 356.9330957 -28.12939453 355.91259766 C-27.9943708 352.87328981 -27.55857174 349.98810919 -27 347 C-28.16402344 346.70609375 -28.16402344 346.70609375 -29.3515625 346.40625 C-50.74704315 340.48291884 -69.2287416 325.87144886 -80.28369141 306.57470703 C-87.98884812 292.44066304 -91.17954268 278.80786274 -91.1875 262.75 C-91.19974609 261.46480469 -91.21199219 260.17960937 -91.22460938 258.85546875 C-91.22654297 257.59863281 -91.22847656 256.34179688 -91.23046875 255.046875 C-91.23457764 253.91088867 -91.23868652 252.77490234 -91.24291992 251.60449219 C-90.95037215 247.26361245 -90.05094078 243.21212852 -89 239 C-95.97478793 239.01633021 -102.94852049 239.07130086 -109.92285156 239.15258789 C-112.29322465 239.17572216 -114.66369987 239.19015281 -117.03417969 239.19555664 C-120.4505138 239.20487913 -123.86525165 239.24594538 -127.28125 239.29296875 C-128.33364868 239.2890361 -129.38604736 239.28510345 -130.47033691 239.28105164 C-138.07253787 239.43031772 -142.98435299 241.18996424 -148.5201416 246.44230652 C-153.51708571 251.95682986 -154.29802847 257.71868622 -154.29434204 264.90101624 C-154.30169542 265.6784899 -154.30904879 266.45596357 -154.316625 267.25699705 C-154.33858583 269.85242955 -154.3463666 272.44770163 -154.35400391 275.04321289 C-154.36654106 276.9078878 -154.37983537 278.77255775 -154.39382935 280.63722229 C-154.4357961 286.74899858 -154.45661343 292.86077529 -154.4765625 298.97265625 C-154.48465988 301.07815541 -154.49289379 303.18365405 -154.50126266 305.28915215 C-154.53932951 315.17495668 -154.56780736 325.06073157 -154.5844866 334.94659525 C-154.60406206 346.35994592 -154.65679454 357.772524 -154.73748839 369.18560225 C-154.79773865 378.0095143 -154.82741681 386.83320424 -154.83404863 395.65731806 C-154.83875521 400.92773325 -154.85674684 406.19732126 -154.90697098 411.46751595 C-154.95342346 416.42139787 -154.96204584 421.37390462 -154.94144821 426.32794762 C-154.94045476 428.14647616 -154.95317712 429.96507122 -154.9805603 431.78339386 C-155.55534083 441.01078817 -155.55534083 441.01078817 -152.22835922 449.11904716 C-150.18004887 450.39060052 -148.24813454 451.16195659 -146 452 C-143.94140625 454.5703125 -143.94140625 454.5703125 -142.5625 457.125 C-142.08941406 457.97320313 -141.61632812 458.82140625 -141.12890625 459.6953125 C-135.72722761 470.72296094 -139 476.94028965 -139 493 C-170.68 493 -202.36 493 -235 493 C-235 464 -235 464 -230 454 C-226.69228792 451.18597629 -223.83563039 448.9178152 -220 447 C-219.67 362.52 -219.34 278.04 -219 191 C-223.29 191 -227.58 191 -232 191 C-240.67805125 187.70832539 -245.35097057 183.679952 -249.875 175.6875 C-251.9294384 168.95350746 -251.91856611 163.31523875 -249.0625 156.8125 C-243.13540201 146.33858712 -230.46770132 140.75613441 -220.53613281 134.58056641 C-216.51207843 132.07269886 -212.50667818 129.53549877 -208.5 127 C-206.91286497 125.99723033 -205.32562523 124.99462637 -203.73828125 123.9921875 C-202.95404785 123.49686523 -202.16981445 123.00154297 -201.36181641 122.49121094 C-199.02678644 121.01691251 -196.69120378 119.5434936 -194.35546875 118.0703125 C-185.89235585 112.73116745 -177.44001252 107.37559801 -169 102 C-159.78951614 96.13367474 -150.56300997 90.29326982 -141.32666016 84.46777344 C-137.38339757 81.98016644 -133.44177316 79.48996615 -129.5 77 C-124.78594137 74.02219129 -120.07159764 71.04484165 -115.35546875 68.0703125 C-106.89235585 62.73116745 -98.44001252 57.37559801 -90 52 C-80.78951614 46.13367474 -71.56300997 40.29326982 -62.32666016 34.46777344 C-57.59483362 31.48270091 -52.86518699 28.49417502 -48.13525391 25.50610352 C-44.11598449 22.96720279 -40.09588418 20.42963523 -36.07421875 17.89453125 C-35.26380127 17.3830957 -34.45338379 16.87166016 -33.6184082 16.34472656 C-32.01287202 15.33274051 -30.40596175 14.32293083 -28.79760742 13.31542969 C-25.14444536 11.02070496 -21.52659886 8.69789836 -17.9765625 6.24609375 C-17.35370361 5.82287842 -16.73084473 5.39966309 -16.08911133 4.96362305 C-14.44190043 3.83839488 -12.80821259 2.69343948 -11.17578125 1.546875 C-7.29790792 -0.34197843 -4.1850376 -0.89103637 0 0 Z " fill="#FBFEFC" transform="translate(504,190)"/>
<path d="M0 0 C0.845625 0.52851563 1.69125 1.05703125 2.5625 1.6015625 C3.48832886 2.12907104 3.48832886 2.12907104 4.43286133 2.66723633 C6.77158834 4.00277884 9.0731933 5.39087443 11.375 6.7890625 C12.24882324 7.31661133 13.12264648 7.84416016 14.02294922 8.38769531 C21.79994991 13.10077982 29.51146417 17.91739434 37.21411133 22.75073242 C44.63888588 27.40838576 52.09266788 32.01656195 59.5625 36.6015625 C68.91142828 42.34171837 78.2274011 48.13167862 87.5234375 53.95703125 C94.84751611 58.54178912 102.19907249 63.08031306 109.5625 67.6015625 C118.90544196 73.33826201 128.21571815 79.12429501 137.50585938 84.94604492 C145.0023409 89.63875835 152.5269862 94.28432564 160.0625 98.9140625 C164.22941614 101.476157 168.39602272 104.03875439 172.5625 106.6015625 C173.45227539 107.14844727 174.34205078 107.69533203 175.25878906 108.25878906 C177.57074207 109.68173786 179.87969497 111.10939953 182.1875 112.5390625 C182.85072266 112.94616455 183.51394531 113.3532666 184.19726562 113.77270508 C185.66978575 114.68818102 187.11947213 115.64027052 188.5625 116.6015625 C188.5625 116.9315625 188.5625 117.2615625 188.5625 117.6015625 C63.1625 117.6015625 -62.2375 117.6015625 -191.4375 117.6015625 C-188.90299323 115.06705573 -186.97166212 113.57567908 -183.95703125 111.7734375 C-183.05299561 111.22896973 -182.14895996 110.68450195 -181.2175293 110.12353516 C-180.23824463 109.53878418 -179.25895996 108.9540332 -178.25 108.3515625 C-176.14768486 107.08458136 -174.04614569 105.81631191 -171.9453125 104.546875 C-170.32351074 103.56702637 -170.32351074 103.56702637 -168.66894531 102.56738281 C-163.62565201 99.49934128 -158.62444066 96.36538873 -153.625 93.2265625 C-145.25446132 87.97644257 -136.85808677 82.77103243 -128.4375 77.6015625 C-120.08131794 72.47084562 -111.74651672 67.30831788 -103.4375 62.1015625 C-92.88752384 55.49137167 -82.29071752 48.95939082 -71.68359375 42.44140625 C-59.54045112 34.97942002 -47.42225834 27.47791088 -35.34350586 19.91210938 C-33.30024027 18.63367756 -31.25550642 17.35758906 -29.20922852 16.08398438 C-24.47829538 13.13936569 -19.76514909 10.17504839 -15.09375 7.13671875 C-13.86047974 6.3480542 -13.86047974 6.3480542 -12.60229492 5.54345703 C-11.07736397 4.56819761 -9.56119649 3.57904262 -8.0559082 2.57373047 C-3.16973741 -0.51813015 -3.16973741 -0.51813015 0 0 Z " fill="#02BF64" transform="translate(501.4375,247.3984375)"/>
<path d="M0 0 C0.99128906 0.35191406 1.98257813 0.70382812 3.00390625 1.06640625 C22.14860633 8.47489172 35.32914846 21.38269747 44.3046875 39.65625 C51.44570014 56.12749083 51.59174451 77.47821758 45.53515625 94.2734375 C37.61639066 114.17447893 22.18715533 127.40807198 3 136 C-13.41530315 142.71312398 -33.65093669 141.84485418 -49.95751953 135.20263672 C-67.56026177 127.42468085 -81.81038385 112.88895616 -89 95 C-94.96052383 78.69185872 -96.07831066 58.47472651 -89.54296875 42.21875 C-84.90060391 32.53442436 -79.59574734 24.62158322 -72 17 C-71.32453125 16.30132812 -70.6490625 15.60265625 -69.953125 14.8828125 C-52.04200969 -2.42228764 -23.43040094 -8.37040148 0 0 Z " fill="#02BF64" transform="translate(522,384)"/>
<path d="M0 0 C48.84 0 97.68 0 148 0 C148 84.15 148 168.3 148 255 C137.44 255 126.88 255 116 255 C115.99635437 252.6190361 115.99270874 250.2380722 115.98895264 247.78495789 C115.9527033 225.34617828 115.8944832 202.90753223 115.81609726 180.46885967 C115.7763251 168.93293214 115.7439233 157.39707264 115.72900391 145.86108398 C115.71597799 135.80374487 115.68898918 125.74655557 115.64538693 115.68930084 C115.62279343 110.36637235 115.60708806 105.0436285 115.60811615 99.72064781 C115.608864 94.70468128 115.59086288 89.6891226 115.55883217 84.67326164 C115.55035306 82.83797314 115.54856965 81.00263879 115.55419731 79.16733932 C115.59139676 65.16450909 114.36792581 53.46666796 104 43 C93.86021407 34.49779777 85.63242111 32.58260645 72.6640625 33.015625 C70.04692277 33.05181418 67.42972893 33.08425054 64.8125 33.11328125 C60.71383032 33.16651148 56.61880131 33.24327616 52.52246094 33.39404297 C30.28996363 34.17650617 30.28996363 34.17650617 24.81903076 30.55715942 C21.47319627 27.11513293 19.57365589 23.26328984 17.83323669 18.83596802 C14.6722569 11.87101095 7.60658601 6.30628628 1.43359375 2.05859375 C0.96050781 1.70925781 0.48742187 1.35992187 0 1 C0 0.67 0 0.34 0 0 Z " fill="#02BF64" transform="translate(551,381)"/>
<path d="M0 0 C48.84 0 97.68 0 148 0 C144.90597263 3.09402737 142.14059429 5.73381365 138.8125 8.4375 C132.31509031 14.14041906 126.47317657 21.8683032 122.71461487 29.667099 C121 32 121 32 118.46665955 32.61231995 C116.94970238 32.60421547 116.94970238 32.60421547 115.40209961 32.59594727 C113.67901833 32.60604576 113.67901833 32.60604576 111.92112732 32.61634827 C110.67742874 32.5998674 109.43373016 32.58338654 108.15234375 32.56640625 C106.19360188 32.57501791 104.23485983 32.58365168 102.276124 32.59354305 C98.82983079 32.60387139 95.38373634 32.5810249 91.9375 32.5625 C87.85196892 32.5442385 83.76683526 32.53388647 79.68128967 32.55223083 C77.1380235 32.56146556 74.59460556 32.55249978 72.05149841 32.52259827 C60.39591615 32.5582401 51.41135211 35.80712457 43 44 C36.29569148 51.98007985 32.53181769 59.86346528 32.60127258 70.2890625 C32.59462576 71.0840235 32.58797893 71.87898451 32.58113068 72.69803524 C32.56259718 75.34048996 32.5650994 77.98248804 32.56762695 80.625 C32.55860389 82.52764012 32.54827534 84.43027443 32.53674316 86.332901 C32.50921104 91.48310491 32.49989376 96.63319839 32.49388909 101.78346634 C32.4844956 107.17136239 32.45829139 112.55917629 32.43388367 117.94702148 C32.39024187 128.14299572 32.36168062 138.338954 32.33856028 148.53499317 C32.31149621 160.14564602 32.26758541 171.75621612 32.22227156 183.36680984 C32.12945847 207.24449679 32.05835997 231.12220614 32 255 C21.44 255 10.88 255 0 255 C0 170.85 0 86.7 0 0 Z " fill="#01BF64" transform="translate(301,381)"/>
<path d="M0 0 C3.81014048 2.2412591 7.56437394 4.54440131 11.28125 6.9375 C12.9921173 8.0287559 14.7030568 9.11989861 16.4140625 10.2109375 C17.72165527 11.0477002 17.72165527 11.0477002 19.05566406 11.90136719 C23.07898353 14.47127571 27.11788082 17.01633389 31.15625 19.5625 C32.73966854 20.56236507 34.32300163 21.56236548 35.90625 22.5625 C36.69 23.0575 37.47375 23.5525 38.28125 24.0625 C53.32291667 33.5625 68.36458333 43.0625 83.40625 52.5625 C84.1897583 53.05733887 84.9732666 53.55217773 85.78051758 54.06201172 C87.36632325 55.06359035 88.95209791 56.06521808 90.5378418 57.06689453 C94.45809757 59.54314184 98.37886107 62.01857701 102.30078125 64.4921875 C111.70022818 70.42203993 121.0837346 76.376345 130.45751953 82.34667969 C138.7350382 87.61696637 147.02965293 92.85983903 155.32958984 98.09472656 C159.27285245 100.58233357 163.21445768 103.07256414 167.15625 105.5625 C168.7395756 106.56251224 170.32290893 107.56251225 171.90625 108.5625 C175.07291667 110.5625 178.23958333 112.5625 181.40625 114.5625 C182.19064453 115.05790283 182.97503906 115.55330566 183.78320312 116.0637207 C185.36004152 117.05962718 186.93686454 118.05555801 188.51367188 119.05151367 C193.4056112 122.14134591 198.29809582 125.23031208 203.19116211 128.31835938 C204.81483504 129.34366774 206.43805641 130.3696916 208.06079102 131.39648438 C211.41712235 133.52021672 214.77465248 135.6408381 218.15234375 137.73046875 C219.12300781 138.33503906 220.09367187 138.93960938 221.09375 139.5625 C222.29837891 140.305 222.29837891 140.305 223.52734375 141.0625 C225.86842936 142.71199885 227.77225187 144.40454242 229.65625 146.5625 C230.26442046 150.21152278 230.17042751 151.83078585 228.03125 154.875 C225.02858091 157.00847541 223.35035155 157.41525562 219.65625 157.5625 C216.87471644 156.51444695 214.4671879 154.97116731 211.96875 153.375 C210.85681274 152.69268311 210.85681274 152.69268311 209.72241211 151.99658203 C207.35514031 150.53671072 205.00470666 149.05241772 202.65625 147.5625 C201.18249763 146.63639091 199.70854185 145.71060544 198.234375 144.78515625 C195.94228577 143.34208172 193.65264317 141.89545572 191.3671875 140.44189453 C184.60877972 136.14366594 177.79560056 131.93850532 170.96875 127.75 C162.50800643 122.55735215 154.06782139 117.33443827 145.65625 112.0625 C137.34731128 106.8556199 129.0123874 101.69328745 120.65625 96.5625 C111.30741893 90.82218448 101.99135036 85.03238479 92.6953125 79.20703125 C85.37123389 74.62227338 78.01967751 70.08374944 70.65625 65.5625 C62.3001114 60.43171181 53.96525935 55.26926876 45.65625 50.0625 C36.95037685 44.60758642 28.21957586 39.19487919 19.46875 33.8125 C18.36337891 33.13251953 17.25800781 32.45253906 16.11914062 31.75195312 C11.89014911 29.15322047 11.89014911 29.15322047 7.65625 26.5625 C6.79475342 26.01311768 5.93325684 25.46373535 5.0456543 24.89770508 C1.47952286 22.90494194 -1.44315871 22.66604547 -5.34375 23.5625 C-9.57670979 25.5599471 -13.42880064 28.06953783 -17.34375 30.625 C-18.49627068 31.35854165 -19.64993841 32.09028387 -20.8046875 32.8203125 C-23.17503611 34.32208289 -25.53913789 35.83298341 -27.8984375 37.35205078 C-33.0137283 40.64175256 -38.18166073 43.84696292 -43.34375 47.0625 C-45.32298553 48.30197337 -47.30215166 49.54155758 -49.28125 50.78125 C-56.70676587 55.42219742 -64.17073336 60.00020831 -71.6328125 64.58203125 C-78.8907515 69.04245915 -86.12503596 73.53889951 -93.34375 78.0625 C-102.74296631 83.95251022 -112.18028057 89.77804193 -121.6328125 95.58203125 C-129.87951061 100.65010944 -138.09196094 105.77095001 -146.29370117 110.91137695 C-153.72413269 115.56326593 -161.18485104 120.1642497 -168.65625 124.75 C-176.18519632 129.37198729 -183.69368093 134.02157206 -191.15625 138.75 C-192.27108765 139.45165283 -192.27108765 139.45165283 -193.40844727 140.16748047 C-197.61039112 142.81448186 -201.78145254 145.50200823 -205.93359375 148.2265625 C-207.82010165 149.44303539 -209.70681618 150.65918789 -211.59375 151.875 C-212.46362549 152.45725342 -213.33350098 153.03950684 -214.22973633 153.6394043 C-218.2546726 156.20878802 -220.43043499 157.57151594 -225.30078125 157.5234375 C-228.78805449 156.42219332 -230.29399649 155.59613519 -232.34375 152.5625 C-233.03125 149.6875 -233.03125 149.6875 -232.34375 146.5625 C-227.94788992 141.72680447 -222.11286957 138.32893234 -216.59375 134.9375 C-214.90094586 133.88296628 -213.20824029 132.82827432 -211.515625 131.7734375 C-210.65646484 131.24073242 -209.79730469 130.70802734 -208.91210938 130.15917969 C-204.87507451 127.64946409 -200.86012648 125.10509176 -196.84375 122.5625 C-195.26053284 121.56231608 -193.67719922 120.5623165 -192.09375 119.5625 C-191.31 119.0675 -190.52625 118.5725 -189.71875 118.0625 C-49.59375 29.5625 -49.59375 29.5625 -47.2175293 28.06176758 C-45.63821854 27.0642825 -44.05895402 26.06672421 -42.47973633 25.0690918 C-38.46023855 22.53000329 -34.43988233 19.99229166 -30.41796875 17.45703125 C-29.60730957 16.94543457 -28.79665039 16.43383789 -27.96142578 15.90673828 C-26.35836303 14.89632883 -24.75389826 13.88813987 -23.14794922 12.88232422 C-19.45656204 10.56390115 -15.80301992 8.21399265 -12.21484375 5.73828125 C-11.57844971 5.30604248 -10.94205566 4.87380371 -10.28637695 4.4284668 C-8.59042483 3.27057228 -6.90792517 2.0930421 -5.2265625 0.9140625 C-2.34375 -0.4375 -2.34375 -0.4375 0 0 Z " fill="#03BF65" transform="translate(501.34375,207.4375)"/>
<path d="M0 0 C7.9950991 6.080963 13.35369103 14.1972229 15.6875 23.9375 C15.86667969 24.56914062 16.04585937 25.20078125 16.23046875 25.8515625 C18.57419801 36.54858324 15.65780016 46.29682028 10.1484375 55.51171875 C2.85951302 65.68512283 -7.22731982 70.81567447 -19.3125 72.9375 C-30.72277015 74.02165339 -39.90516678 70.72714912 -49.0234375 63.91015625 C-56.17466927 57.74740532 -59.592105 50.85922554 -62.3125 41.9375 C-62.8075 40.4525 -62.8075 40.4525 -63.3125 38.9375 C-64.41364361 26.22921963 -61.36711357 15.85534949 -53.3125 5.9375 C-48.50437333 0.7513388 -42.71709343 -2.21959002 -36.3125 -5.0625 C-34.889375 -5.7121875 -34.889375 -5.7121875 -33.4375 -6.375 C-21.74321895 -8.94774183 -10.0447186 -6.39908566 0 0 Z " fill="#FAFDFC" transform="translate(523.3125,276.0625)"/>
<path d="M0 0 C5.28 0 10.56 0 16 0 C16 5.28 16 10.56 16 16 C17.32 16.061875 18.64 16.12375 20 16.1875 C26.28601 16.92761107 30.5862343 19.29238457 34.796875 24.015625 C38.67737191 29.30049223 39.7931381 33.48385006 40 40 C34.72 40 29.44 40 24 40 C23.34 38.35 22.68 36.7 22 35 C18.90488016 31.90488016 15.66701591 32.70593522 11.43945312 32.67773438 C9.76786133 32.68256836 9.76786133 32.68256836 8.0625 32.6875 C6.95197266 32.67138672 5.84144531 32.65527344 4.69726562 32.63867188 C3.63314453 32.63802734 2.56902344 32.63738281 1.47265625 32.63671875 C0.49562744 32.63373779 -0.48140137 32.63075684 -1.48803711 32.62768555 C-4.03152989 32.8042355 -4.03152989 32.8042355 -5.81860352 34.33911133 C-7.66563038 36.9357891 -7.37907451 38.90422482 -7 42 C-5.87797354 44.2455002 -5.87797354 44.2455002 -4 46 C-1.59284669 46.54500479 -1.59284669 46.54500479 1.12109375 46.3984375 C2.13381348 46.3991626 3.1465332 46.3998877 4.18994141 46.40063477 C5.26163574 46.39217529 6.33333008 46.38371582 7.4375 46.375 C17.9658484 46.56147364 26.21107117 47.11918341 33.96875 55 C35.52074123 56.93266833 36.78757291 58.84206073 38 61 C38.45375 61.78375 38.9075 62.5675 39.375 63.375 C41.25152088 71.25638771 40.22685738 78.0920292 36 85 C33.5 87.875 33.5 87.875 31 90 C30.360625 90.556875 29.72125 91.11375 29.0625 91.6875 C24.69844547 94.46462561 21.15937196 95 16 95 C16 100.28 16 105.56 16 111 C10.72 111 5.44 111 0 111 C0 105.72 0 100.44 0 95 C-1.299375 94.95875 -2.59875 94.9175 -3.9375 94.875 C-9.70035291 94.20342344 -13.76521398 91.92292193 -18 88 C-22.1155175 82.68902266 -23.63794114 77.63774579 -24 71 C-18.72 71 -13.44 71 -8 71 C-7.01 72.98 -6.02 74.96 -5 77 C-1.12937878 78.93531061 3.61722942 78.27192404 7.875 78.3125 C8.88175781 78.34150391 9.88851562 78.37050781 10.92578125 78.40039062 C16.64568919 78.54483133 16.64568919 78.54483133 21.67578125 76.171875 C23.44251006 73.27423128 23.35516981 71.33859618 23 68 C22.67 67.01 22.34 66.02 22 65 C18.8976985 63.77302629 15.75934439 63.87584676 12.45703125 63.859375 C11.38259766 63.84003906 10.30816406 63.82070313 9.20117188 63.80078125 C6.96176579 63.76722243 4.72207785 63.74872091 2.48242188 63.74609375 C-5.95238678 63.55496511 -11.9009565 61.84993036 -18.12109375 56.0078125 C-22.85159285 49.24193545 -25.3108181 42.31085704 -24 34 C-21.18502282 25.89334899 -17.26785289 21.63335604 -10.0625 17.1875 C-7 16 -7 16 0 16 C0 10.72 0 5.44 0 0 Z " fill="#F9FDFB" transform="translate(492,397)"/>
<path d="M0 0 C0 5.28 0 10.56 0 16 C5.28 16 10.56 16 16 16 C16 10.72 16 5.44 16 0 C21.28 0 26.56 0 32 0 C32 5.28 32 10.56 32 16 C37.28 16 42.56 16 48 16 C48 10.72 48 5.44 48 0 C53.28 0 58.56 0 64 0 C64 5.28 64 10.56 64 16 C69.28 16 74.56 16 80 16 C80 10.72 80 5.44 80 0 C89.19869174 -0.49059689 89.19869174 -0.49059689 93.0625 1.875 C96.93316438 6.1202448 96.25436337 10.31277436 96.3125 15.8125 C96.35600586 17.16698242 96.35600586 17.16698242 96.40039062 18.54882812 C96.44137603 22.8396851 96.40377437 25.32245111 94.16796875 29.07421875 C91.17516598 31.7326904 88.77539797 32.12428029 84.91445923 32.14717102 C84.08455978 32.15432632 83.25466034 32.16148163 82.39961243 32.16885376 C81.03898933 32.17288712 81.03898933 32.17288712 79.65087891 32.17700195 C78.6928688 32.18357315 77.7348587 32.19014435 76.74781799 32.19691467 C73.57406539 32.21664368 70.40036005 32.2283081 67.2265625 32.23828125 C65.60171495 32.24439454 65.60171495 32.24439454 63.94404221 32.25063133 C58.21302226 32.27148824 52.48202625 32.28579283 46.75097656 32.29516602 C40.82688601 32.3062425 34.90316982 32.34065802 28.97921181 32.38033772 C24.42733044 32.40645581 19.87553904 32.41485348 15.32358932 32.41844749 C13.13948405 32.42332421 10.95538308 32.43496888 8.77135086 32.45348549 C5.71656649 32.47777902 2.66276113 32.47692987 -0.39208984 32.4699707 C-1.29512344 32.48278076 -2.19815704 32.49559082 -3.1285553 32.50878906 C-7.28750206 32.47422579 -9.43899935 32.35166444 -13.03799438 30.09562683 C-17.04487032 25.81586502 -16.29246651 21.28852302 -16.375 15.6875 C-16.41238281 14.73681641 -16.44976562 13.78613281 -16.48828125 12.80664062 C-16.54648597 8.17936534 -16.51269892 5.747261 -13.83984375 1.8515625 C-9.14882586 -1.20695536 -5.49007729 -0.33072755 0 0 Z " fill="#04C065" transform="translate(508,540)"/>
<path d="M0 0 C5.28 0 10.56 0 16 0 C16 5.61 16 11.22 16 17 C21.28 17 26.56 17 32 17 C32 11.72 32 6.44 32 1 C37.28 1 42.56 1 48 1 C48 5.95 48 10.9 48 16 C53.28 16 58.56 16 64 16 C64 10.72 64 5.44 64 0 C66.289375 -0.1546875 66.289375 -0.1546875 68.625 -0.3125 C69.91277344 -0.39951172 69.91277344 -0.39951172 71.2265625 -0.48828125 C74.34313766 0.06041156 76.45686909 1.06647856 78.80908203 3.21020508 C81.34804349 7.02593416 80.76950504 11.58392594 80.625 16 C80.63144531 16.98484375 80.63789063 17.9696875 80.64453125 18.984375 C80.54019112 26.00361999 80.54019112 26.00361999 78.58102417 29.61729431 C74.70930863 33.19151835 71.25329267 32.69436183 66.15429688 32.63110352 C65.15552017 32.63825882 64.15674347 32.64541412 63.12770081 32.65278625 C59.82425278 32.66970321 56.52215606 32.6502522 53.21875 32.62890625 C50.92476285 32.62973467 48.63077576 32.63219301 46.33679199 32.63621521 C41.52822002 32.63907528 36.72011329 32.62435094 31.91162109 32.59692383 C25.74410794 32.5628413 19.57742693 32.56885761 13.40987396 32.5875864 C8.67267914 32.59814873 3.93567836 32.58922543 -0.80149841 32.57420158 C-3.07571334 32.56901371 -5.34994848 32.56950888 -7.62416077 32.57574654 C-10.80131695 32.58118927 -13.97727693 32.56085263 -17.15429688 32.53344727 C-18.09675766 32.53997314 -19.03921844 32.54649902 -20.01023865 32.55322266 C-26.36691325 32.45986222 -26.36691325 32.45986222 -29.58399963 30.12303162 C-31.34849315 27.47749874 -31.50249246 25.88583406 -31.49609375 22.71875 C-31.49673828 21.71199219 -31.49738281 20.70523438 -31.49804688 19.66796875 C-31.47806641 18.62253906 -31.45808594 17.57710937 -31.4375 16.5 C-31.44458984 15.45457031 -31.45167969 14.40914062 -31.45898438 13.33203125 C-31.38494942 4.4364466 -31.38494942 4.4364466 -28 1 C-23.61723375 0.45420096 -19.43192924 0.82447805 -15 1 C-15 5.95 -15 10.9 -15 16 C-10.05 16 -5.1 16 0 16 C0 10.72 0 5.44 0 0 Z " fill="#05C066" transform="translate(428,635)"/>
<path d="M0 0 C0 5.28 0 10.56 0 16 C5.61 16 11.22 16 17 16 C17 10.72 17 5.44 17 0 C21.95 0 26.9 0 32 0 C32 5.28 32 10.56 32 16 C37.28 16 42.56 16 48 16 C48 10.72 48 5.44 48 0 C53.28 0 58.56 0 64 0 C64 5.28 64 10.56 64 16 C69.28 16 74.56 16 80 16 C80 10.72 80 5.44 80 0 C90.07436599 -0.60688952 90.07436599 -0.60688952 93.8359375 1.859375 C96.9605681 6.39403746 96.62509305 10.18851073 96.4375 15.5625 C96.42879883 16.98079102 96.42879883 16.98079102 96.41992188 18.42773438 C96.27987987 26.3541119 96.27987987 26.3541119 94 30 C91.70011076 31.14994462 90.38979984 31.13280786 87.83143616 31.14717102 C86.95795029 31.15432632 86.08446442 31.16148163 85.18450928 31.16885376 C84.22393616 31.17154266 83.26336304 31.17423157 82.27368164 31.17700195 C81.26383713 31.18357315 80.25399261 31.19014435 79.21354675 31.19691467 C75.8624159 31.21667186 72.51132985 31.2283139 69.16015625 31.23828125 C68.01834837 31.24235678 66.87654049 31.2464323 65.70013237 31.25063133 C59.6601975 31.27149953 53.62028541 31.28579965 47.58032227 31.29516602 C41.32756113 31.30624941 35.07515402 31.34066964 28.82251835 31.38033772 C24.02623307 31.4064185 19.23003336 31.4148501 14.4336834 31.41844749 C12.12790973 31.42333332 9.82214039 31.43500351 7.51643562 31.45348549 C4.29590464 31.47770162 1.07630606 31.47694422 -2.14428711 31.4699707 C-3.58211044 31.48918579 -3.58211044 31.48918579 -5.04898071 31.50878906 C-11.48902939 31.45775833 -11.48902939 31.45775833 -14.09072876 29.1269989 C-15.94785142 24.78275301 -15.46902939 20.14915156 -15.4375 15.5 C-15.45748047 14.45457031 -15.47746094 13.40914062 -15.49804688 12.33203125 C-15.49740234 11.32527344 -15.49675781 10.31851563 -15.49609375 9.28125 C-15.49794678 8.36408203 -15.4997998 7.44691406 -15.50170898 6.50195312 C-13.84070113 -1.78126271 -6.65737723 -0.31701796 0 0 Z " fill="#00BF63" transform="translate(412,588)"/>
<path d="M0 0 C5.28 0 10.56 0 16 0 C16 5.28 16 10.56 16 16 C20.95 16 25.9 16 31 16 C31 11.05 31 6.1 31 1 C42.07991632 0.39121339 42.07991632 0.39121339 45.86328125 2.89453125 C48.88214215 7.28208959 48.66582922 10.79899269 48.5 16 C48.50386719 17.33417969 48.50386719 17.33417969 48.5078125 18.6953125 C48.43566833 23.52897201 48.28192663 27.18103083 45 31 C41.37189079 33.43589381 38.03799079 33.24162582 33.75292969 33.22705078 C33.03058136 33.22734283 32.30823303 33.22763489 31.56399536 33.22793579 C29.18316517 33.22654562 26.80265033 33.21099934 24.421875 33.1953125 C22.76849539 33.19158125 21.11511357 33.18873481 19.46173096 33.18673706 C15.11500926 33.17910938 10.76842171 33.15946833 6.42175293 33.1373291 C1.98431208 33.11685204 -2.4531505 33.10773136 -6.890625 33.09765625 C-15.59381835 33.07622159 -24.29687702 33.04104651 -33 33 C-33 22.44 -33 11.88 -33 1 C-27.39 1 -21.78 1 -16 1 C-16 5.95 -16 10.9 -16 16 C-10.72 16 -5.44 16 0 16 C0 10.72 0 5.44 0 0 Z " fill="#0AC169" transform="translate(556,635)"/>
<path d="M0 0 C5.61 0 11.22 0 17 0 C17 5.28 17 10.56 17 16 C22.28 16 27.56 16 33 16 C33 10.72 33 5.44 33 0 C38.28 0 43.56 0 49 0 C49 5.28 49 10.56 49 16 C54.28 16 59.56 16 65 16 C65 10.72 65 5.44 65 0 C66.5675 -0.04125 68.135 -0.0825 69.75 -0.125 C71.07257813 -0.15980469 71.07257813 -0.15980469 72.421875 -0.1953125 C75.17990095 0.01362886 76.69903523 0.48936661 79 2 C81.89740017 6.34610025 81.36809044 10.26192431 81.375 15.375 C81.39949219 16.32117188 81.42398438 17.26734375 81.44921875 18.2421875 C81.45308594 19.16 81.45695313 20.0778125 81.4609375 21.0234375 C81.46915527 21.85794434 81.47737305 22.69245117 81.48583984 23.55224609 C80.79898526 27.01275066 79.52131645 28.53789492 77 31 C74.280563 31.4803201 72.18999926 31.63672904 69.47753906 31.56762695 C68.3501255 31.56872215 68.3501255 31.56872215 67.19993591 31.56983948 C64.72109238 31.56636211 62.24413928 31.52749754 59.765625 31.48828125 C58.04499335 31.47895357 56.32434841 31.47183724 54.60369873 31.46684265 C50.07911392 31.44776912 45.55533407 31.39866578 41.03106689 31.34332275 C36.41274912 31.29213762 31.79430103 31.26933021 27.17578125 31.24414062 C18.11677726 31.19054663 9.05858156 31.10260836 0 31 C0 20.77 0 10.54 0 0 Z " fill="#02BF64" transform="translate(523,588)"/>
<path d="M0 0 C6.98242443 3.89130404 11.40269347 9.24355081 13.75 16.9375 C14.91809656 24.6209796 13.1185495 30.56624015 8.75 36.9375 C4.28267443 41.9778317 -1.0525119 45.36337549 -7.8203125 46.2890625 C-14.80625733 46.65879217 -19.7121594 45.22311933 -25.25 40.9375 C-31.09388479 35.553965 -34.32515383 29.58985657 -34.75 21.5625 C-34.53752842 14.82807462 -32.13392808 10.06803476 -27.60546875 5.15234375 C-19.53389568 -2.26330013 -10.10926067 -4.60617441 0 0 Z " fill="#03BF65" transform="translate(510.25,287.0625)"/>
<path d="M0 0 C1.22783203 -0.00241196 2.45566406 -0.00482391 3.72070312 -0.00730896 C6.31643911 -0.00632954 8.91219573 0.00708635 11.5078125 0.03198242 C15.48509553 0.06627773 19.46015643 0.05264682 23.4375 0.03320312 C25.95834281 0.04010156 28.47917987 0.04977391 31 0.0625 C32.78760742 0.0550602 32.78760742 0.0550602 34.61132812 0.04747009 C36.27325195 0.07122459 36.27325195 0.07122459 37.96875 0.09545898 C39.42958008 0.10475685 39.42958008 0.10475685 40.91992188 0.11424255 C43.5 0.62890625 43.5 0.62890625 47.5 4.62890625 C47.5 8.58890625 47.5 12.54890625 47.5 16.62890625 C26.38 16.62890625 5.26 16.62890625 -16.5 16.62890625 C-16.5 5.62890625 -16.5 5.62890625 -15.28125 2.48071289 C-10.57178068 -0.65493711 -5.5217679 -0.06143023 0 0 Z " fill="#09C169" transform="translate(667.5,651.37109375)"/>
<path d="M0 0 C1.08470078 -0.01583633 2.16940155 -0.03167267 3.28697205 -0.04798889 C5.03706322 -0.04054909 5.03706322 -0.04054909 6.82250977 -0.03295898 C8.62740623 -0.04225685 8.62740623 -0.04225685 10.46876526 -0.05174255 C13.01318553 -0.05884593 15.55765223 -0.05565782 18.10205078 -0.04296875 C21.99606909 -0.02911622 25.88767933 -0.06315577 29.78149414 -0.10131836 C32.25349994 -0.10226965 34.72550874 -0.1004102 37.19750977 -0.09545898 C38.36221298 -0.10871719 39.5269162 -0.1219754 40.72691345 -0.13563538 C45.48161723 -0.08085662 48.66789389 0.01952823 52.85009766 2.38525391 C54.57641602 5.53344727 54.57641602 5.53344727 54.57641602 16.53344727 C33.45641602 16.53344727 12.33641602 16.53344727 -9.42358398 16.53344727 C-9.42358398 0.06128683 -9.42358398 0.06128683 0 0 Z " fill="#09C168" transform="translate(294.423583984375,651.466552734375)"/>
</svg>
