<?xml version="1.0" encoding="UTF-8"?>
<svg version="1.1" xmlns="http://www.w3.org/2000/svg" width="1000" height="1000">
<path d="M0 0 C1.53599854 0.06960937 1.53599854 0.06960937 3.10302734 0.140625 C71.36732438 3.49055286 137.41924896 22.91897629 194 62 C194.66064453 62.45503906 195.32128906 62.91007812 196.00195312 63.37890625 C200.05209723 66.18510744 204.04472583 69.06179633 208 72 C208.55768066 72.4134668 209.11536133 72.82693359 209.68994141 73.25292969 C216.218248 78.1187715 222.5042565 83.1664131 228.48828125 88.69921875 C230.48927826 90.53216935 232.51832804 92.30146829 234.578125 94.06640625 C239.56596902 98.42065141 244.25645124 103.07038503 248.93579102 107.75048828 C250.42641615 109.23893237 251.92487017 110.71917277 253.42382812 112.19921875 C259.73344544 118.47208683 265.46782637 125.01986354 271 132 C272.00029127 133.20872989 273.00371163 134.41488462 274.01171875 135.6171875 C282.48657734 145.87320807 289.82563769 156.80663473 297 168 C297.41846191 168.6487207 297.83692383 169.29744141 298.26806641 169.96582031 C323.72073214 209.75009108 339.53351355 254.43611985 347.75 300.75 C348.04825684 302.41554932 348.04825684 302.41554932 348.35253906 304.11474609 C351.49511797 322.71417751 352.37938383 341.22764699 352.3125 360.0625 C352.30976578 361.66983002 352.30976578 361.66983002 352.30697632 363.30963135 C352.25917919 380.04672314 351.66507066 396.44511716 349 413 C348.82307617 414.11874512 348.64615234 415.23749023 348.46386719 416.39013672 C333.65987075 507.52803879 286.07747739 577.15294491 222.15479088 640.96127474 C219.08296101 644.02873349 216.01407598 647.09913622 212.94480896 650.16915894 C207.64337237 655.47111659 202.34012694 660.77125918 197.03560257 666.07012749 C189.36641678 673.73114123 181.70003651 681.39495752 174.03430979 689.05943228 C161.59319135 701.49836911 149.14984746 713.93507719 136.70507812 726.37036133 C124.62544703 738.44079517 112.54688027 750.51229245 100.46972656 762.58520508 C99.7236688 763.33100012 98.97761104 764.07679515 98.20894547 764.84519004 C94.46571521 768.58711514 90.72250568 772.32906099 86.97930646 776.07101715 C55.98941801 807.05056075 24.99590682 838.02647802 -6 869 C-9.52863523 867.49259406 -11.79946304 865.45018056 -14.50191975 862.74696922 C-15.85546479 861.40032238 -15.85546479 861.40032238 -17.23635417 860.02647054 C-18.23385715 859.02395238 -19.23126637 858.02134091 -20.22859192 857.01864624 C-21.29082874 855.95799732 -22.35350305 854.89778641 -23.41657752 853.83797705 C-26.34015011 850.92082834 -29.25743285 847.9974589 -32.17374051 845.07304978 C-35.31883872 841.92138194 -38.46968765 838.77547263 -41.61982727 835.62884521 C-47.79273017 829.46098903 -53.96026987 823.28779639 -60.12602571 817.11279647 C-67.30720507 809.92123793 -74.49360376 802.73490452 -81.68021747 795.5487773 C-94.50650514 782.72299055 -107.32795195 769.89237539 -120.14672852 757.05908203 C-132.58158684 744.61014899 -145.01992873 732.16471047 -157.4621582 719.72314453 C-158.22779435 718.95754834 -158.99343049 718.19195216 -159.78226773 717.40315609 C-160.54658569 716.63887848 -161.31090366 715.87460087 -162.09838277 715.08716333 C-176.2626693 700.92356733 -190.42366003 686.75668018 -204.58312688 672.58826601 C-209.58853432 667.57984542 -214.59491489 662.5723988 -219.60160255 657.56525803 C-225.70823378 651.45794344 -231.81296203 645.34873372 -237.91534928 639.23717849 C-241.02784484 636.12007665 -244.14110776 633.00375218 -247.25653839 629.88958359 C-250.11164317 627.03557927 -252.96440826 624.17925733 -255.81536444 621.32110901 C-256.84410914 620.29056122 -257.87368124 619.26083852 -258.90418801 618.23205273 C-264.48757054 612.65695881 -269.88220999 607.00526892 -275 601 C-275.948172 599.92760616 -276.89831886 598.85695073 -277.8515625 597.7890625 C-289.84552591 584.17666232 -300.22699901 569.26796175 -310 554 C-310.35980957 553.43877441 -310.71961914 552.87754883 -311.09033203 552.29931641 C-322.54833444 534.24158828 -332.28649024 514.93714922 -340 495 C-340.32274902 494.18096191 -340.64549805 493.36192383 -340.97802734 492.51806641 C-357.41563265 450.52330761 -365.22315871 405.98691992 -365.25 361 C-365.25067474 359.98077454 -365.25134949 358.96154907 -365.25204468 357.91143799 C-365.23442248 341.09524976 -364.50429484 324.65503957 -362 308 C-361.83371094 306.8661084 -361.66742188 305.7322168 -361.49609375 304.56396484 C-356.12248133 269.00358709 -345.61979651 234.40056893 -330 202 C-329.61376465 201.18660156 -329.2275293 200.37320313 -328.82958984 199.53515625 C-315.08852908 170.69186537 -297.38496331 144.56883975 -276.36816406 120.56347656 C-275.18499264 119.2114013 -274.00972118 117.85242057 -272.8359375 116.4921875 C-262.19582992 104.37314605 -250.7345943 92.9024839 -238 83 C-236.3110779 81.58502904 -234.62363449 80.16829164 -232.9375 78.75 C-205.25661884 56.19810814 -173.39358119 37.70846163 -140 25 C-139.07364746 24.64244629 -138.14729492 24.28489258 -137.19287109 23.91650391 C-94.04018225 7.38320329 -46.38103263 -2.13114899 0 0 Z " fill="#7B4505" transform="translate(506,83)"/>
<path d="M0 0 C1.31026663 -0.01147664 1.31026663 -0.01147664 2.64700329 -0.02318513 C5.56188322 -0.04375459 8.47596853 -0.03587892 11.39089966 -0.02792358 C13.48568447 -0.03662165 15.58046292 -0.04698923 17.67523193 -0.05889893 C23.35713051 -0.08566108 29.03876287 -0.08683831 34.72071218 -0.08177233 C39.4672138 -0.07963162 44.21366169 -0.08940295 48.96015179 -0.09898317 C60.15976494 -0.12116748 71.35924392 -0.12205177 82.55886841 -0.10995483 C94.10551838 -0.09787467 105.65168097 -0.12249984 117.19824779 -0.16509497 C127.11864891 -0.20034302 137.038895 -0.21232718 146.95935643 -0.20581949 C152.88136303 -0.2021959 158.80302197 -0.20744473 164.72497177 -0.23524857 C170.29513417 -0.26042256 175.86453766 -0.25650194 181.43468857 -0.23042679 C183.47563942 -0.22569972 185.51664383 -0.23114889 187.55753326 -0.24767303 C206.10309925 -0.38696809 206.10309925 -0.38696809 212.45778084 4.55147743 C217.02140193 10.0440974 218.59562393 14.00060279 218.57553101 21.15870667 C218.57894871 21.89564351 218.5823664 22.63258036 218.58588767 23.39184862 C218.59244022 25.8442073 218.57053546 28.29545454 218.5486145 30.74771118 C218.54748545 32.5122678 218.54812101 34.2768263 218.55038452 36.04138184 C218.55153034 40.81990608 218.52804235 45.59802721 218.50008869 50.37645793 C218.47505309 55.37458286 218.47273133 60.37271743 218.46798706 65.37089539 C218.45556364 74.83035608 218.42275056 84.28963146 218.3825891 93.74901062 C218.33785171 104.52040495 218.31587939 115.29180822 218.29580736 126.06327236 C218.25401741 148.21608253 218.18367762 170.368726 218.09451294 192.52139282 C218.91956833 192.65072205 219.74462372 192.78005127 220.59468079 192.91329956 C221.67639053 193.08722229 222.75810028 193.26114502 223.87258911 193.44033813 C224.9451445 193.61091736 226.01769989 193.78149658 227.12275696 193.95724487 C236.50781429 195.73887192 245.28566033 201.41641708 250.96560669 209.02920532 C260.90601501 223.86748635 262.134434 240.79056937 258.86428833 258.06484985 C257.54418468 264.46260913 256.03180011 270.80911288 254.48318481 277.1546936 C249.68488644 296.92714937 244.7368007 324.22910389 255.34451294 342.95889282 C260.30978086 349.96346721 265.84362609 353.4014792 274.09451294 355.52139282 C275.01296997 355.79789673 275.01296997 355.79789673 275.94998169 356.07998657 C284.29428847 357.79748505 294.42482703 357.46217066 302.09451294 353.52139282 C307.03269003 349.84135002 309.25864944 344.88766148 310.62966919 338.99795532 C315.33411277 303.8134613 300.79112528 268.20813181 285.74026489 237.19082642 C279.67020912 224.54976485 276.54519625 211.25169173 274.09451294 197.52139282 C273.86634888 196.26971313 273.63818481 195.01803345 273.40310669 193.72842407 C271.09803451 178.17321667 271.91995506 162.2034044 272.09451294 146.52139282 C271.33307983 146.54234009 270.57164673 146.56328735 269.78713989 146.58486938 C266.32723262 146.66817077 262.86753656 146.72009867 259.40701294 146.77139282 C258.20882935 146.80490845 257.01064575 146.83842407 255.77615356 146.87295532 C254.61921997 146.88584595 253.46228638 146.89873657 252.27029419 146.91201782 C251.20722046 146.93296509 250.14414673 146.95391235 249.04885864 146.97549438 C245.32620927 146.4032997 243.74501433 145.15599872 241.09451294 142.52139282 C238.97021458 139.19365099 238.89191556 136.64472044 239.01370239 132.74087524 C239.04224808 131.57412766 239.07079376 130.40738007 239.10020447 129.20527649 C239.13570908 127.94189957 239.17121368 126.67852264 239.20779419 125.37686157 C239.24114615 122.66913641 239.27086445 119.96160786 239.29568481 117.2538147 C239.33690991 113.00919941 239.39675549 108.76845312 239.54348755 104.52603149 C240.22792109 83.86924766 236.83946721 69.74360929 223.09451294 53.52139282 C227.56343995 48.91856538 232.66579655 45.88202678 238.09451294 42.52139282 C244.47872956 51.08930045 250.43027428 59.89785285 256.28201294 68.83389282 C256.97041763 69.88345657 256.97041763 69.88345657 257.67272949 70.95422363 C265.51737102 82.93137263 273.06560448 95.04375908 280.09451294 107.52139282 C280.50507935 108.24616821 280.91564575 108.9709436 281.33865356 109.71768188 C294.08481538 132.36695616 294.08481538 132.36695616 291.58547974 143.86270142 C285.93141641 174.48067737 293.8698317 211.00810225 307.40701294 238.64639282 C322.79250429 270.10059676 339.04535715 312.70494972 328.34841919 347.99404907 C324.83864465 357.86734006 318.99891395 365.57602081 309.79763794 370.83389282 C302.11511455 374.43673138 294.64023018 375.87512956 286.21951294 375.77139282 C285.42939819 375.76535034 284.63928345 375.75930786 283.82522583 375.75308228 C278.05601849 375.6552388 272.65796787 375.12390973 267.09451294 373.52139282 C265.96529419 373.22942017 265.96529419 373.22942017 264.81326294 372.93154907 C254.23019929 369.86898442 245.05185293 362.78045097 239.18045044 353.49404907 C223.93983123 325.18540956 230.254858 293.51214909 237.78982544 263.80264282 C239.69629907 256.16559166 240.33148028 249.06932525 240.40701294 241.20889282 C240.4505188 239.71712524 240.4505188 239.71712524 240.49490356 238.19522095 C240.56426602 230.06914304 238.87812827 224.07823464 233.84451294 217.64639282 C228.99950745 213.90252494 224.04751505 212.71199324 218.09451294 211.52139282 C218.09451294 273.23139282 218.09451294 334.94139282 218.09451294 398.52139282 C244.49451294 398.52139282 270.89451294 398.52139282 298.09451294 398.52139282 C305.9118504 403.73295113 305.9118504 403.73295113 308.09451294 408.52139282 C308.646483 413.1983331 308.6067127 417.81771747 308.53201294 422.52139282 C308.53910278 423.77951782 308.54619263 425.03764282 308.55349731 426.33389282 C308.47788803 437.31468744 308.47788803 437.31468744 305.09451294 442.52139282 C300.66606774 446.07154484 297.71914316 447.02203664 292.07918549 447.0275507 C291.3936454 447.03366406 290.70810532 447.03977742 290.0017913 447.04607603 C287.70548416 447.06167205 285.41023382 447.04881251 283.11392212 447.03605652 C281.45071913 447.04138188 279.78752095 447.04844751 278.12433195 447.05710357 C273.55453423 447.07575909 268.98505994 447.06941595 264.41524863 447.05895054 C259.48673906 447.05196684 254.55829648 447.06795011 249.62980652 447.08094788 C239.97512046 447.10260657 230.32055218 447.10245626 220.6658498 447.09432233 C212.8203989 447.08802659 204.97498239 447.08915545 197.12953186 447.09559441 C196.01360656 447.09649606 194.89768125 447.09739772 193.74794003 447.09832669 C191.48107262 447.10017786 189.21420521 447.10204042 186.94733781 447.10391425 C165.6829239 447.12049906 144.41857632 447.11176752 123.1541664 447.09492867 C103.69106527 447.0802292 84.22811849 447.09486243 64.76503724 447.12369884 C44.78844223 447.15307608 24.8119185 447.16407012 4.83530283 447.15451664 C2.57669991 447.15349407 0.31809697 447.15249946 -1.94050598 447.15153313 C-3.05182822 447.15105674 -4.16315046 447.15058035 -5.30814913 447.15008952 C-13.14564064 447.14792329 -20.98306481 447.15774054 -28.82054138 447.17230415 C-38.3697571 447.18980074 -47.91877596 447.18974849 -57.46798384 447.1669525 C-62.34168076 447.15578633 -67.2150305 447.1527015 -72.08871269 447.1712532 C-76.5485377 447.18801139 -81.00771149 447.18177059 -85.46749395 447.15703642 C-87.08248181 447.15213737 -88.69752174 447.15571159 -90.3124662 447.16852386 C-92.50581852 447.18467186 -94.69690962 447.1700967 -96.89015961 447.14780521 C-98.10884719 447.14753552 -99.32753478 447.14726584 -100.58315229 447.14698797 C-105.04581899 446.30666849 -106.69207748 444.69285105 -109.90548706 441.52139282 C-113.13320511 435.77074695 -112.27396707 428.98978052 -112.28048706 422.58389282 C-112.30497925 421.3212561 -112.32947144 420.05861938 -112.35470581 418.75772095 C-112.39140129 407.16806507 -112.39140129 407.16806507 -107.90548706 402.52139282 C-104.43781577 399.09103168 -102.04366196 398.06285535 -97.14302063 398.02371216 C-96.03387047 398.04528381 -96.03387047 398.04528381 -94.90231323 398.06729126 C-94.11154388 398.06670715 -93.32077454 398.06612305 -92.50604248 398.06552124 C-89.90306059 398.06829878 -87.30123661 398.09937397 -84.69845581 398.13076782 C-82.88956833 398.13823141 -81.08067275 398.14392379 -79.27177429 398.1479187 C-74.51883484 398.16316577 -69.76638703 398.20243951 -65.01364136 398.24673462 C-60.16060028 398.28770738 -55.3074795 398.30593399 -50.45431519 398.32608032 C-40.93782355 398.36893472 -31.42169624 398.43717478 -21.90548706 398.52139282 C-21.90776538 397.71016199 -21.9100437 396.89893115 -21.91239107 396.06311756 C-22.04664296 347.9890573 -22.149598 299.91501691 -22.21187904 251.84080673 C-22.21938333 246.06921467 -22.22714926 240.29762299 -22.2350769 234.52603149 C-22.23665077 233.3770056 -22.23822463 232.22797971 -22.23984618 231.04413485 C-22.26595809 212.4362595 -22.31326782 193.8284953 -22.36840384 175.22068591 C-22.42450179 156.12908988 -22.45783741 137.03755208 -22.47001803 117.94587702 C-22.47825307 106.16407981 -22.50426785 94.38259679 -22.55298586 82.60089629 C-22.58468778 74.52307444 -22.59429075 66.44541515 -22.58649532 58.3675356 C-22.58265011 53.70606673 -22.58856765 49.04514707 -22.62071991 44.38377571 C-22.64995531 40.11408743 -22.65136967 35.84531675 -22.63088043 31.57558589 C-22.62834883 30.03302178 -22.6359304 28.49040001 -22.65478615 26.94794906 C-22.74416015 19.18393179 -22.7196224 12.54365148 -17.64611506 6.23699123 C-12.33944824 1.00663234 -7.25560893 -0.06803161 0 0 Z " fill="#FEFEFD" transform="translate(389.9054870605469,220.47860717773438)"/>
<path d="M0 0 C65.01 0 130.02 0 197 0 C197 47.19 197 94.38 197 143 C131.99 143 66.98 143 0 143 C0 95.81 0 48.62 0 0 Z " fill="#7B4606" transform="translate(389,266)"/>
</svg>
