<?xml version="1.0" encoding="UTF-8"?>
<svg version="1.1" xmlns="http://www.w3.org/2000/svg" width="1000" height="1000">
<path d="M0 0 C1.53599854 0.06960937 1.53599854 0.06960937 3.10302734 0.140625 C71.36732438 3.49055286 137.41924896 22.91897629 194 62 C194.66064453 62.45503906 195.32128906 62.91007812 196.00195312 63.37890625 C200.05209723 66.18510744 204.04472583 69.06179633 208 72 C208.55768066 72.4134668 209.11536133 72.82693359 209.68994141 73.25292969 C216.218248 78.1187715 222.5042565 83.1664131 228.48828125 88.69921875 C230.48927826 90.53216935 232.51832804 92.30146829 234.578125 94.06640625 C239.56596902 98.42065141 244.25645124 103.07038503 248.93579102 107.75048828 C250.42641615 109.23893237 251.92487017 110.71917277 253.42382812 112.19921875 C259.73344544 118.47208683 265.46782637 125.01986354 271 132 C272.00029127 133.20872989 273.00371163 134.41488462 274.01171875 135.6171875 C282.48657734 145.87320807 289.82563769 156.80663473 297 168 C297.41846191 168.6487207 297.83692383 169.29744141 298.26806641 169.96582031 C323.72073214 209.75009108 339.53351355 254.43611985 347.75 300.75 C348.04825684 302.41554932 348.04825684 302.41554932 348.35253906 304.11474609 C351.49511797 322.71417751 352.37938383 341.22764699 352.3125 360.0625 C352.30976578 361.66983002 352.30976578 361.66983002 352.30697632 363.30963135 C352.25917919 380.04672314 351.66507066 396.44511716 349 413 C348.82307617 414.11874512 348.64615234 415.23749023 348.46386719 416.39013672 C333.65987075 507.52803879 286.07747739 577.15294491 222.15479088 640.96127474 C219.08296101 644.02873349 216.01407598 647.09913622 212.94480896 650.16915894 C207.64337237 655.47111659 202.34012694 660.77125918 197.03560257 666.07012749 C189.36641678 673.73114123 181.70003651 681.39495752 174.03430979 689.05943228 C161.59319135 701.49836911 149.14984746 713.93507719 136.70507812 726.37036133 C124.62544703 738.44079517 112.54688027 750.51229245 100.46972656 762.58520508 C99.7236688 763.33100012 98.97761104 764.07679515 98.20894547 764.84519004 C94.46571521 768.58711514 90.72250568 772.32906099 86.97930646 776.07101715 C55.98941801 807.05056075 24.99590682 838.02647802 -6 869 C-9.52863523 867.49259406 -11.79946304 865.45018056 -14.50191975 862.74696922 C-15.85546479 861.40032238 -15.85546479 861.40032238 -17.23635417 860.02647054 C-18.23385715 859.02395238 -19.23126637 858.02134091 -20.22859192 857.01864624 C-21.29082874 855.95799732 -22.35350305 854.89778641 -23.41657752 853.83797705 C-26.34015011 850.92082834 -29.25743285 847.9974589 -32.17374051 845.07304978 C-35.31883872 841.92138194 -38.46968765 838.77547263 -41.61982727 835.62884521 C-47.79273017 829.46098903 -53.96026987 823.28779639 -60.12602571 817.11279647 C-67.30720507 809.92123793 -74.49360376 802.73490452 -81.68021747 795.5487773 C-94.50650514 782.72299055 -107.32795195 769.89237539 -120.14672852 757.05908203 C-132.58158684 744.61014899 -145.01992873 732.16471047 -157.4621582 719.72314453 C-158.22779435 718.95754834 -158.99343049 718.19195216 -159.78226773 717.40315609 C-160.54658569 716.63887848 -161.31090366 715.87460087 -162.09838277 715.08716333 C-176.2626693 700.92356733 -190.42366003 686.75668018 -204.58312688 672.58826601 C-209.58853432 667.57984542 -214.59491489 662.5723988 -219.60160255 657.56525803 C-225.70823378 651.45794344 -231.81296203 645.34873372 -237.91534928 639.23717849 C-241.02784484 636.12007665 -244.14110776 633.00375218 -247.25653839 629.88958359 C-250.11164317 627.03557927 -252.96440826 624.17925733 -255.81536444 621.32110901 C-256.84410914 620.29056122 -257.87368124 619.26083852 -258.90418801 618.23205273 C-264.48757054 612.65695881 -269.88220999 607.00526892 -275 601 C-275.948172 599.92760616 -276.89831886 598.85695073 -277.8515625 597.7890625 C-289.84552591 584.17666232 -300.22699901 569.26796175 -310 554 C-310.35980957 553.43877441 -310.71961914 552.87754883 -311.09033203 552.29931641 C-322.54833444 534.24158828 -332.28649024 514.93714922 -340 495 C-340.32274902 494.18096191 -340.64549805 493.36192383 -340.97802734 492.51806641 C-357.41563265 450.52330761 -365.22315871 405.98691992 -365.25 361 C-365.25067474 359.98077454 -365.25134949 358.96154907 -365.25204468 357.91143799 C-365.23442248 341.09524976 -364.50429484 324.65503957 -362 308 C-361.83371094 306.8661084 -361.66742188 305.7322168 -361.49609375 304.56396484 C-356.12248133 269.00358709 -345.61979651 234.40056893 -330 202 C-329.61376465 201.18660156 -329.2275293 200.37320313 -328.82958984 199.53515625 C-315.08852908 170.69186537 -297.38496331 144.56883975 -276.36816406 120.56347656 C-275.18499264 119.2114013 -274.00972118 117.85242057 -272.8359375 116.4921875 C-262.19582992 104.37314605 -250.7345943 92.9024839 -238 83 C-236.3110779 81.58502904 -234.62363449 80.16829164 -232.9375 78.75 C-205.25661884 56.19810814 -173.39358119 37.70846163 -140 25 C-139.07364746 24.64244629 -138.14729492 24.28489258 -137.19287109 23.91650391 C-94.04018225 7.38320329 -46.38103263 -2.13114899 0 0 Z " fill="#7B4505" transform="translate(506,83)"/>
<path d="M0 0 C1.20085236 0.00539291 1.20085236 0.00539291 2.42596436 0.01089478 C3.26491745 0.01074875 4.10387054 0.01060272 4.96824646 0.01045227 C7.75487816 0.01115167 10.54144388 0.01894531 13.32806396 0.02676392 C15.25477563 0.028628 17.18148777 0.03005195 19.10820007 0.03105164 C24.18978169 0.03487758 29.27133491 0.04470851 34.35290527 0.05575562 C39.53407405 0.0659681 44.7152474 0.07054891 49.89642334 0.07559204 C60.07026397 0.08633071 70.24408348 0.10340804 80.41790771 0.12442017 C81.89174674 4.43830075 83.00144944 8.62371876 83.85540771 13.10488892 C84.04381226 14.08513786 84.04381226 14.08513786 84.23602295 15.08518982 C84.63380528 17.16005792 85.02589655 19.23595488 85.41790771 21.31192017 C85.68056547 22.68503654 85.94358351 24.05808405 86.20697021 25.43106079 C87.65289346 32.98784434 89.05899912 40.55150235 90.41790771 48.12442017 C91.46978271 48.20692017 92.52165771 48.28942017 93.60540771 48.37442017 C98.7535653 48.98116731 103.48766162 50.68756823 108.36712646 52.38223267 C111.75709787 53.20693762 113.19492561 53.44679816 116.41790771 52.12442017 C118.76226025 50.12603107 120.76448029 47.87516407 122.79290771 45.56192017 C123.37016602 44.9214978 123.94742432 44.28107544 124.54217529 43.62124634 C126.17946536 41.79923873 127.80147421 39.96492957 129.41790771 38.12442017 C130.09466553 37.35871704 130.77142334 36.59301392 131.46868896 35.80410767 C133.97203599 32.9482607 136.45277157 30.08253934 138.88275146 27.16348267 C139.76889427 26.1291348 140.65561148 25.09527876 141.54290771 24.06192017 C142.7533374 22.62139282 142.7533374 22.62139282 143.98822021 21.15176392 C146.41790771 19.12442017 146.41790771 19.12442017 148.76824951 19.3331604 C151.57046681 20.16997845 153.7328542 21.25927091 156.24212646 22.75723267 C157.64168579 23.58420654 157.64168579 23.58420654 159.06951904 24.42788696 C160.57228394 25.3295459 160.57228394 25.3295459 162.10540771 26.24942017 C164.26904102 27.53009347 166.43311912 28.81001554 168.59759521 30.08926392 C170.27933838 31.08675659 170.27933838 31.08675659 171.99505615 32.10440063 C177.54931248 35.38228344 183.14066852 38.59506626 188.73040771 41.81192017 C189.80886963 42.43647095 190.88733154 43.06102173 191.99847412 43.70449829 C197.05568809 46.63118717 202.12426916 49.52685132 207.24603271 52.33926392 C208.13508301 52.83402222 209.0241333 53.32878052 209.94012451 53.83853149 C211.58494976 54.7520774 213.23711791 55.65257604 214.89764404 56.53726196 C215.61718262 56.93985229 216.33672119 57.34244263 217.07806396 57.75723267 C217.70333984 58.09641724 218.32861572 58.43560181 218.97283936 58.7850647 C221.19297347 60.84278657 221.29591357 62.09029124 221.41790771 65.12442017 C220.72718663 68.24013683 219.68952555 71.21232727 218.63665771 74.22207642 C218.19815491 75.52899696 218.19815491 75.52899696 217.75079346 76.86231995 C216.8177963 79.64116079 215.86956501 82.41441884 214.91790771 85.18692017 C213.96678604 87.96314772 213.0193956 90.74032001 212.08502197 93.52223206 C211.50406896 95.25181211 210.91348146 96.97819224 210.31231689 98.70085144 C210.0487439 99.48524094 209.7851709 100.26963043 209.51361084 101.07778931 C209.15934021 102.10773766 209.15934021 102.10773766 208.7979126 103.15849304 C208.3476515 105.48788549 208.63833226 106.89870455 209.41790771 109.12442017 C211.48918687 111.98743828 213.96745437 114.45891148 216.41790771 116.99942017 C217.05341553 117.71356079 217.68892334 118.42770142 218.34368896 119.16348267 C220.27754567 121.16322226 222.01137772 122.72743804 224.41790771 124.12442017 C228.08635504 123.93807473 230.05093685 123.38908727 233.41790771 122.12442017 C234.68875334 121.70508044 235.9617426 121.29220752 237.23626709 120.88418579 C242.51069295 119.18630621 247.76422352 117.42692263 253.00872803 115.63882446 C255.27190733 114.86944814 257.53965468 114.11507703 259.80853271 113.36270142 C260.49820129 113.12320267 261.18786987 112.88370392 261.8984375 112.63694763 C265.72855862 111.37932111 268.62442013 110.50997566 272.41790771 112.12442017 C274.14031982 114.24380493 274.14031982 114.24380493 275.69525146 117.06582642 C276.57817871 118.63542114 276.57817871 118.63542114 277.47894287 120.23672485 C278.40779297 121.94457153 278.40779297 121.94457153 279.35540771 123.68692017 C280.01550837 124.8705687 280.67748269 126.05317411 281.34124756 127.23477173 C282.70742272 129.66922031 284.06629495 132.1075273 285.42034912 134.54873657 C288.38156516 139.87019968 291.46339556 145.12082804 294.54290771 150.37442017 C295.10751709 151.34476196 295.67212646 152.31510376 296.25384521 153.31484985 C299.199964 158.37280321 302.18319623 163.40469631 305.21868896 168.40957642 C306.13400391 169.92793091 306.13400391 169.92793091 307.06781006 171.47695923 C308.23521071 173.40997828 309.41097252 175.33797927 310.59613037 177.26016235 C311.11352783 178.11900024 311.63092529 178.97783813 312.16400146 179.86270142 C312.62476074 180.61591675 313.08552002 181.36913208 313.5602417 182.14517212 C314.41790771 184.12442017 314.41790771 184.12442017 313.41790771 187.12442017 C311.99212646 188.56192017 311.99212646 188.56192017 310.10540771 190.12442017 C306.51054338 193.17265934 303.00678561 196.30386694 299.54290771 199.49942017 C295.6783037 203.05262899 291.80922493 206.60042493 287.91790771 210.12442017 C287.14447021 210.82567017 286.37103271 211.52692017 285.57415771 212.24942017 C283.58453817 213.97952412 281.54940929 215.5742372 279.41790771 217.12442017 C280.49715671 223.15969416 281.89340028 229.07873533 283.49603271 234.99551392 C283.68117432 235.68415527 283.86631592 236.37279663 284.05706787 237.08230591 C284.50924847 238.76339668 284.96337654 240.44396342 285.41790771 242.12442017 C286.41531982 242.3207605 287.41273193 242.51710083 288.44036865 242.71939087 C292.19830148 243.45998388 295.95542715 244.20460608 299.71234131 244.9503479 C301.32768917 245.27043025 302.94324403 245.58947 304.559021 245.90737915 C306.90318279 246.36879971 309.24653382 246.8341696 311.58978271 247.30020142 C312.29342957 247.43783401 312.99707642 247.57546661 313.7220459 247.7172699 C320.02815394 248.97808314 326.15329228 250.55826631 332.41790771 252.12442017 C332.41790771 280.83442017 332.41790771 309.54442017 332.41790771 339.12442017 C325.15790771 340.77442017 317.89790771 342.42442017 310.41790771 344.12442017 C308.34767334 344.64649048 306.27743896 345.16856079 304.14447021 345.70645142 C287.55237236 349.80880667 271.3824928 349.65091846 254.41790771 349.12442017 C254.5918103 348.27230957 254.5918103 348.27230957 254.76922607 347.40298462 C255.3059945 344.7491865 255.83070215 342.09312862 256.35540771 339.43692017 C256.53781006 338.54424438 256.7202124 337.6515686 256.90814209 336.73184204 C259.52394947 323.36744434 259.63053865 309.95797105 259.65814209 296.38858032 C259.6678196 293.52548849 259.6989308 290.6631251 259.73040771 287.80020142 C259.82351741 271.71716836 257.93079932 256.35689637 253.73040771 240.81192017 C253.4769458 239.86244507 253.22348389 238.91296997 252.96234131 237.9347229 C248.46466301 221.58578371 242.49881086 206.0256209 234.41790771 191.12442017 C234.07678955 190.47843872 233.73567139 189.83245728 233.38421631 189.16690063 C217.68452169 159.45667277 194.90942507 133.44655797 167.41790771 114.12442017 C166.74711182 113.65197876 166.07631592 113.17953735 165.38519287 112.69277954 C139.18759894 94.49381946 109.79709043 81.90798149 78.41790771 76.12442017 C77.17782959 75.89238892 75.93775146 75.66035767 74.66009521 75.42129517 C61.50607255 73.20254436 48.1673143 72.88543316 34.85540771 72.87442017 C34.11190063 72.87374542 33.36839355 72.87307068 32.60235596 72.87237549 C20.30564542 72.88999302 8.49761095 73.69545428 -3.58209229 76.12442017 C-4.44060791 76.28539185 -5.29912354 76.44636353 -6.18365479 76.61221313 C-26.5565106 80.47667066 -46.51541313 87.13225836 -64.73150635 97.11074829 C-66.64840989 98.16074612 -68.57925626 99.18162521 -70.51177979 100.20254517 C-93.14679865 112.35409263 -115.37216522 129.05333021 -131.58209229 149.12442017 C-132.48020479 150.19891065 -133.37867736 151.27310022 -134.27740479 152.34707642 C-173.03805124 199.16024402 -190.47611277 258.46881279 -185.06500244 318.75942993 C-183.93858431 328.98810947 -181.74335455 339.07350149 -179.58209229 349.12442017 C-198.85037224 350.35337173 -216.57010905 348.72406399 -235.45709229 344.68692017 C-236.93780212 344.37043015 -236.93780212 344.37043015 -238.44842529 344.04754639 C-254.81152719 340.50970271 -254.81152719 340.50970271 -257.58209229 339.12442017 C-257.58209229 310.41442017 -257.58209229 281.70442017 -257.58209229 252.12442017 C-248.67209229 250.14442017 -248.67209229 250.14442017 -239.58209229 248.12442017 C-233.01768752 246.56400782 -233.01768752 246.56400782 -226.45709229 244.98770142 C-222.18839765 244.03671199 -217.93247704 243.38072141 -213.58599854 242.90957642 C-211.38948446 242.29421649 -211.38948446 242.29421649 -210.43365479 240.05801392 C-209.37826087 236.42223031 -208.33187582 232.79234561 -207.39459229 229.12442017 C-207.20445557 228.42574829 -207.01431885 227.72707642 -206.81842041 227.00723267 C-205.36626863 221.48815243 -205.36626863 221.48815243 -206.58209229 216.12442017 C-208.74945711 213.61756991 -211.16629755 211.4440422 -213.64459229 209.24942017 C-214.33125977 208.62591675 -215.01792725 208.00241333 -215.72540283 207.36001587 C-217.66703439 205.60249065 -219.62112462 203.86031493 -221.58209229 202.12442017 C-222.78092041 201.05901001 -222.78092041 201.05901001 -224.00396729 199.97207642 C-225.21901092 198.90514761 -226.43870482 197.84347891 -227.66412354 196.78848267 C-231.69069573 193.29495975 -235.62709037 189.69851001 -239.58209229 186.12442017 C-238.31787137 181.98952234 -236.77731668 178.42502206 -234.59771729 174.69473267 C-233.70004639 173.14894531 -233.70004639 173.14894531 -232.78424072 171.57192993 C-231.81792725 169.9272876 -231.81792725 169.9272876 -230.83209229 168.24942017 C-230.15743909 167.09207776 -229.48329335 165.93443941 -228.80963135 164.77651978 C-227.07674561 161.80076799 -225.33754888 158.82875777 -223.59674072 155.8576355 C-222.01507596 153.15584686 -220.43931582 150.45062514 -218.86334229 147.74551392 C-216.54536695 143.76758143 -214.22492743 139.7911055 -211.90240479 135.81582642 C-207.10487492 127.59931877 -202.34234102 119.36256492 -197.58209229 111.12442017 C-192.50714551 111.80251858 -187.9058273 113.21824989 -183.07818604 114.84707642 C-181.43435702 115.39085098 -179.79047521 115.93446599 -178.14654541 116.47793579 C-175.57607057 117.33344847 -173.00642566 118.19133394 -170.43780518 119.05239868 C-167.94500561 119.88618813 -165.44932789 120.71085667 -162.95318604 121.53457642 C-162.18848495 121.79392471 -161.42378387 122.05327301 -160.63591003 122.32048035 C-155.23038101 124.11759036 -155.23038101 124.11759036 -149.58209229 124.12442017 C-146.99629822 121.88791705 -146.99629822 121.88791705 -144.64459229 118.93692017 C-141.20265295 114.92003949 -137.79352985 111.33841199 -133.58209229 108.12442017 C-136.25149432 97.6596215 -139.67535342 87.45052406 -143.04718018 77.19741821 C-143.79427342 74.92255594 -144.53790753 72.64658408 -145.28131104 70.37051392 C-145.62811165 69.32219643 -145.62811165 69.32219643 -145.98191833 68.25270081 C-147.58209229 63.35022828 -147.58209229 63.35022828 -147.58209229 61.12442017 C-132.9484687 52.66355183 -118.30108333 44.22802861 -103.61260986 35.86270142 C-98.29029345 32.82845908 -92.97790197 29.78104112 -87.69927979 26.67129517 C-86.37368042 25.89254028 -86.37368042 25.89254028 -85.02130127 25.09805298 C-83.40288494 24.14472411 -81.78758114 23.18608283 -80.17608643 22.22109985 C-74.91378254 19.12442017 -74.91378254 19.12442017 -71.58209229 19.12442017 C-70.14459229 20.45254517 -70.14459229 20.45254517 -68.58209229 22.37442017 C-65.50766158 26.04810431 -62.33456888 29.6083789 -59.08209229 33.12442017 C-55.92448164 36.55436803 -52.78199624 39.99483531 -49.70709229 43.49942017 C-49.16181885 44.11430298 -48.61654541 44.72918579 -48.05474854 45.36270142 C-46.58209229 47.12442017 -46.58209229 47.12442017 -45.32818604 48.97988892 C-44.05957616 50.93270509 -44.05957616 50.93270509 -41.58209229 53.12442017 C-38.41190772 53.24183441 -36.59378716 52.93753236 -33.58209229 52.12442017 C-31.72777588 51.63908813 -31.72777588 51.63908813 -29.83599854 51.14395142 C-27.8107095 50.60990053 -25.78958318 50.06756966 -23.77398682 49.49795532 C-20.93652635 48.70048958 -18.54701289 48.12442017 -15.58209229 48.12442017 C-15.46607666 46.86887329 -15.35006104 45.61332642 -15.23052979 44.31973267 C-14.61415206 38.78530951 -13.43782287 33.42499689 -12.20709229 27.99942017 C-11.75546723 25.97362436 -11.30494847 23.9475816 -10.85552979 21.92129517 C-10.52826904 20.44692993 -10.52826904 20.44692993 -10.19439697 18.94277954 C-9.09389296 13.87730176 -8.12288365 8.78790935 -7.16021729 3.69473267 C-6.13760207 -0.85175931 -4.31479648 0.00818133 0 0 Z " fill="#FEFDFD" transform="translate(462.58209228515625,255.87557983398438)"/>
<path d="M0 0 C0.83015625 0.15033691 1.6603125 0.30067383 2.515625 0.45556641 C38.20654412 7.12683099 71.12207662 24.91738065 98 49 C99.48113281 50.299375 99.48113281 50.299375 100.9921875 51.625 C106.4246681 56.45387164 111.3660589 61.40904932 116 67 C116.75796875 67.87011719 117.5159375 68.74023438 118.296875 69.63671875 C137.38005159 91.83128283 150.5878028 118.07477949 159 146 C159.19722656 146.65403809 159.39445312 147.30807617 159.59765625 147.98193359 C169.83876963 182.90377215 167.79841012 219.90715448 160 255 C147.13 255 134.26 255 121 255 C121 218.04 121 181.08 121 143 C102.85 143 84.7 143 66 143 C64.77062334 131.32092178 63.71095782 120.42392804 63.875 108.8125 C63.91625 104.584375 63.9575 100.35625 64 96 C49.48 96 34.96 96 20 96 C20.0309375 101.32125 20.0309375 101.32125 20.0625 106.75 C20.08053908 114.94819993 19.96491902 123.12361656 19.5625 131.3125 C19.52326416 132.1468457 19.48402832 132.98119141 19.44360352 133.84082031 C19.266411 137.09354439 19.03510796 139.89467611 18 143 C10.41 143 2.82 143 -5 143 C-5.99 139.535 -5.99 139.535 -7 136 C-10.40350133 130.89474801 -14.12411434 127.91510348 -20 126 C-25.83176923 125.10965355 -31.84764399 125.97823581 -36.8515625 129.1875 C-42.10642162 133.30194288 -45.42757154 138.09469784 -46.41088867 144.80322266 C-46.61337422 147.87313267 -46.70764963 150.92382336 -46.75 154 C-46.77964844 155.06089844 -46.80929687 156.12179687 -46.83984375 157.21484375 C-46.90998229 159.80996964 -46.96295402 162.4042265 -47 165 C-47.763125 164.195625 -48.52625 163.39125 -49.3125 162.5625 C-53.2086258 158.84758936 -56.54310762 158.60241116 -61.70703125 158.64453125 C-65.63557031 159.25355519 -67.32482013 161.12418164 -70 164 C-71.0541518 167.16245541 -71.31275672 169.86948218 -71.5625 173.1875 C-71.706875 175.105625 -71.85125 177.02375 -72 179 C-79.26 179 -86.52 179 -94 179 C-94 168.77 -94 158.54 -94 148 C-92.68 148 -91.36 148 -90 148 C-90 141.4 -90 134.8 -90 128 C-91.65 128 -93.3 128 -95 128 C-95.17102625 123.93767164 -95.33598818 119.87511713 -95.5 115.8125 C-95.57154297 114.11577148 -95.57154297 114.11577148 -95.64453125 112.38476562 C-95.95561906 104.58534972 -96.05818215 96.80529668 -96 89 C-94.35 89 -92.7 89 -91 89 C-91 83.72 -91 78.44 -91 73 C-92.98 73 -94.96 73 -97 73 C-97 69.37 -97 65.74 -97 62 C-103.27 62 -109.54 62 -116 62 C-116 65.63 -116 69.26 -116 73 C-117.65 73 -119.3 73 -121 73 C-121 78.28 -121 83.56 -121 89 C-119.68 89 -118.36 89 -117 89 C-116.97052401 93.24998498 -116.95304357 97.49994303 -116.9375 101.75 C-116.92912109 102.93722656 -116.92074219 104.12445313 -116.91210938 105.34765625 C-116.89132968 112.95302522 -117.22855624 120.43341525 -118 128 C-119.32 128 -120.64 128 -122 128 C-122 134.6 -122 141.2 -122 148 C-121.01 148 -120.02 148 -119 148 C-118.68529754 170.41649839 -119.22053529 192.78666728 -120 215.1875 C-120.02391563 215.87500839 -120.04783127 216.56251678 -120.07247162 217.27085876 C-120.37173955 225.84760484 -120.68207011 234.42392571 -121 243 C-124.63 243 -128.26 243 -132 243 C-132.95518257 232.48503184 -133.25008807 222.0214831 -133.4458313 211.46960449 C-133.69883783 197.8913495 -133.98122594 184.32462897 -134.69311523 170.76147461 C-135.0791682 163.1706785 -135.09798769 155.59949002 -135 148 C-133.68 148 -132.36 148 -131 148 C-131 141.4 -131 134.8 -131 128 C-132.65 128 -134.3 128 -136 128 C-136 115.13 -136 102.26 -136 89 C-134.68 89 -133.36 89 -132 89 C-132 83.72 -132 78.44 -132 73 C-133.65 73 -135.3 73 -137 73 C-137 69.37 -137 65.74 -137 62 C-143.27 62 -149.54 62 -156 62 C-156 65.63 -156 69.26 -156 73 C-157.98 73 -159.96 73 -162 73 C-162 78.28 -162 83.56 -162 89 C-160.35 89 -158.7 89 -157 89 C-157.33 101.87 -157.66 114.74 -158 128 C-159.65 128 -161.3 128 -163 128 C-163 134.6 -163 141.2 -163 148 C-161.68 148 -160.36 148 -159 148 C-158.94280899 160.20925983 -159.10160963 172.39718299 -159.4375 184.6015625 C-159.48254748 186.30218976 -159.52738369 188.00282263 -159.57202148 189.70346069 C-159.68829922 194.11244384 -159.80738558 198.52134648 -159.92712402 202.93023682 C-160.04951807 207.45604894 -160.16916327 211.98193372 -160.2890625 216.5078125 C-160.5234014 225.33861405 -160.76097227 234.16932412 -161 243 C-166.94 243 -172.88 243 -179 243 C-179 247.29 -179 251.58 -179 256 C-182.3 256 -185.6 256 -189 256 C-189 212.77 -189 169.54 -189 125 C-192.3 125 -195.6 125 -199 125 C-199 168.23 -199 211.46 -199 256 C-211.87 256 -224.74 256 -238 256 C-241.4847561 242.06097561 -241.4847561 242.06097561 -242.625 235.375 C-242.74617188 234.70210937 -242.86734375 234.02921875 -242.9921875 233.3359375 C-252.0845287 181.1538054 -238.0040761 126.79254676 -207.92480469 83.65112305 C-176.65982883 40.13001657 -128.47221928 8.21474615 -75.2890625 -0.64160156 C-50.53244795 -4.51774386 -24.63770643 -4.7003649 0 0 Z " fill="#FEFDFD" transform="translate(539,349)"/>
<path d="M0 0 C12.54 0 25.08 0 38 0 C38 21.78 38 43.56 38 66 C35.03 66 32.06 66 29 66 C29 62.04 29 58.08 29 54 C23.06 54 17.12 54 11 54 C8.10186695 43.96800098 5.86547371 33.86004779 3.8125 23.625 C3.68035095 22.97247253 3.5482019 22.31994507 3.41204834 21.64764404 C3.02645514 19.7374037 2.64792307 17.82574237 2.26953125 15.9140625 C2.04885986 14.7998291 1.82818848 13.6855957 1.60083008 12.53759766 C0.89536964 8.38395211 0.46526213 4.18735918 0 0 Z " fill="#FDFCFB" transform="translate(611,538)"/>
<path d="M0 0 C6.93 0 13.86 0 21 0 C21 17.82 21 35.64 21 54 C14.4 54 7.8 54 1 54 C0.85570909 48.72049859 0.71270581 43.4409912 0.57275391 38.16137695 C0.52496809 36.37229516 0.47648731 34.58323178 0.42724609 32.79418945 C0.12678498 21.8580182 -0.05494297 10.94051946 0 0 Z " fill="#FDFCFB" transform="translate(446,538)"/>
<path d="M0 0 C13.86 0 27.72 0 42 0 C42 8.25 42 16.5 42 25 C28.8 25 15.6 25 2 25 C0 10 0 10 0 0 Z " fill="#FDFCFC" transform="translate(607,503)"/>
<path d="M0 0 C5.28 0 10.56 0 16 0 C15.37176642 7.43637361 14.23847899 14.6273636 12.75 21.9375 C12.53255127 23.01765381 12.31510254 24.09780762 12.09106445 25.21069336 C10.09719926 34.9112157 7.67043254 44.46598765 5 54 C3.35 54 1.7 54 0 54 C0 36.18 0 18.36 0 0 Z " fill="#FCFBFA" transform="translate(535,538)"/>
<path d="M0 0 C6.93 0 13.86 0 21 0 C20.47089311 8.81844821 19.58938776 17.3113469 18 26 C12.06 26 6.12 26 0 26 C0 17.42 0 8.84 0 0 Z " fill="#F9F7F4" transform="translate(535,502)"/>
</svg>
