<?xml version="1.0" encoding="UTF-8"?>
<svg version="1.1" xmlns="http://www.w3.org/2000/svg" width="1000" height="1000">
<path d="M0 0 C1.53599854 0.06960937 1.53599854 0.06960937 3.10302734 0.140625 C71.36732438 3.49055286 137.41924896 22.91897629 194 62 C194.66064453 62.45503906 195.32128906 62.91007812 196.00195312 63.37890625 C200.05209723 66.18510744 204.04472583 69.06179633 208 72 C208.55768066 72.4134668 209.11536133 72.82693359 209.68994141 73.25292969 C216.218248 78.1187715 222.5042565 83.1664131 228.48828125 88.69921875 C230.48927826 90.53216935 232.51832804 92.30146829 234.578125 94.06640625 C239.56596902 98.42065141 244.25645124 103.07038503 248.93579102 107.75048828 C250.42641615 109.23893237 251.92487017 110.71917277 253.42382812 112.19921875 C259.73344544 118.47208683 265.46782637 125.01986354 271 132 C272.00029127 133.20872989 273.00371163 134.41488462 274.01171875 135.6171875 C282.48657734 145.87320807 289.82563769 156.80663473 297 168 C297.41846191 168.6487207 297.83692383 169.29744141 298.26806641 169.96582031 C323.72073214 209.75009108 339.53351355 254.43611985 347.75 300.75 C348.04825684 302.41554932 348.04825684 302.41554932 348.35253906 304.11474609 C351.49511797 322.71417751 352.37938383 341.22764699 352.3125 360.0625 C352.30976578 361.66983002 352.30976578 361.66983002 352.30697632 363.30963135 C352.25917919 380.04672314 351.66507066 396.44511716 349 413 C348.82307617 414.11874512 348.64615234 415.23749023 348.46386719 416.39013672 C333.65987075 507.52803879 286.07747739 577.15294491 222.15479088 640.96127474 C219.08296101 644.02873349 216.01407598 647.09913622 212.94480896 650.16915894 C207.64337237 655.47111659 202.34012694 660.77125918 197.03560257 666.07012749 C189.36641678 673.73114123 181.70003651 681.39495752 174.03430979 689.05943228 C161.59319135 701.49836911 149.14984746 713.93507719 136.70507812 726.37036133 C124.62544703 738.44079517 112.54688027 750.51229245 100.46972656 762.58520508 C99.7236688 763.33100012 98.97761104 764.07679515 98.20894547 764.84519004 C94.46571521 768.58711514 90.72250568 772.32906099 86.97930646 776.07101715 C55.98941801 807.05056075 24.99590682 838.02647802 -6 869 C-9.52863523 867.49259406 -11.79946304 865.45018056 -14.50191975 862.74696922 C-15.85546479 861.40032238 -15.85546479 861.40032238 -17.23635417 860.02647054 C-18.23385715 859.02395238 -19.23126637 858.02134091 -20.22859192 857.01864624 C-21.29082874 855.95799732 -22.35350305 854.89778641 -23.41657752 853.83797705 C-26.34015011 850.92082834 -29.25743285 847.9974589 -32.17374051 845.07304978 C-35.31883872 841.92138194 -38.46968765 838.77547263 -41.61982727 835.62884521 C-47.79273017 829.46098903 -53.96026987 823.28779639 -60.12602571 817.11279647 C-67.30720507 809.92123793 -74.49360376 802.73490452 -81.68021747 795.5487773 C-94.50650514 782.72299055 -107.32795195 769.89237539 -120.14672852 757.05908203 C-132.58158684 744.61014899 -145.01992873 732.16471047 -157.4621582 719.72314453 C-158.22779435 718.95754834 -158.99343049 718.19195216 -159.78226773 717.40315609 C-160.54658569 716.63887848 -161.31090366 715.87460087 -162.09838277 715.08716333 C-176.2626693 700.92356733 -190.42366003 686.75668018 -204.58312688 672.58826601 C-209.58853432 667.57984542 -214.59491489 662.5723988 -219.60160255 657.56525803 C-225.70823378 651.45794344 -231.81296203 645.34873372 -237.91534928 639.23717849 C-241.02784484 636.12007665 -244.14110776 633.00375218 -247.25653839 629.88958359 C-250.11164317 627.03557927 -252.96440826 624.17925733 -255.81536444 621.32110901 C-256.84410914 620.29056122 -257.87368124 619.26083852 -258.90418801 618.23205273 C-264.48757054 612.65695881 -269.88220999 607.00526892 -275 601 C-275.948172 599.92760616 -276.89831886 598.85695073 -277.8515625 597.7890625 C-289.84552591 584.17666232 -300.22699901 569.26796175 -310 554 C-310.35980957 553.43877441 -310.71961914 552.87754883 -311.09033203 552.29931641 C-322.54833444 534.24158828 -332.28649024 514.93714922 -340 495 C-340.32274902 494.18096191 -340.64549805 493.36192383 -340.97802734 492.51806641 C-357.41563265 450.52330761 -365.22315871 405.98691992 -365.25 361 C-365.25067474 359.98077454 -365.25134949 358.96154907 -365.25204468 357.91143799 C-365.23442248 341.09524976 -364.50429484 324.65503957 -362 308 C-361.83371094 306.8661084 -361.66742188 305.7322168 -361.49609375 304.56396484 C-356.12248133 269.00358709 -345.61979651 234.40056893 -330 202 C-329.61376465 201.18660156 -329.2275293 200.37320313 -328.82958984 199.53515625 C-315.08852908 170.69186537 -297.38496331 144.56883975 -276.36816406 120.56347656 C-275.18499264 119.2114013 -274.00972118 117.85242057 -272.8359375 116.4921875 C-262.19582992 104.37314605 -250.7345943 92.9024839 -238 83 C-236.3110779 81.58502904 -234.62363449 80.16829164 -232.9375 78.75 C-205.25661884 56.19810814 -173.39358119 37.70846163 -140 25 C-139.07364746 24.64244629 -138.14729492 24.28489258 -137.19287109 23.91650391 C-94.04018225 7.38320329 -46.38103263 -2.13114899 0 0 Z " fill="#177EB9" transform="translate(506,83)"/>
<path d="M0 0 C0.66 0 1.32 0 2 0 C2.3403125 0.88300781 2.680625 1.76601562 3.03125 2.67578125 C7.26064556 13.14803462 12.49267924 22.32266175 21 30 C21.58652344 30.59039062 22.17304687 31.18078125 22.77734375 31.7890625 C38.44960822 46.90681482 58.5963419 51.40704893 79.75 51.3125 C80.4149649 51.31001251 81.07992981 51.30752502 81.76504517 51.30496216 C113.34899017 51.12208299 143.05010396 38.26052953 165.41992188 15.96069336 C168.45352519 12.84649345 170.94582332 9.8752553 173 6 C178.94717582 10.34535769 184.65160846 14.95050556 190.33544922 19.6328125 C193.56808614 22.28795576 196.81572237 24.92468265 200.0625 27.5625 C200.75666016 28.12654541 201.45082031 28.69059082 202.16601562 29.27172852 C206.53706422 32.82035166 210.92521308 36.3464366 215.328125 39.85546875 C218.12397351 42.09950505 220.90391633 44.36224015 223.68261719 46.62744141 C236.79087681 57.47360719 236.79087681 57.47360719 250.390625 67.6796875 C250.92171875 68.11539063 251.4528125 68.55109375 252 69 C252 69.66 252 70.32 252 71 C250.29745942 72.37350348 248.53451383 73.67232545 246.75 74.9375 C225.01553284 90.82811312 208.89725695 112.13525015 204.46020508 139.30541992 C201.83522844 160.37903876 204.17796676 181.45889776 209 202 C209.23525391 203.03060547 209.47050781 204.06121094 209.71289062 205.12304688 C212.45591482 217.03971121 215.7505169 228.74438556 219.38964844 240.41577148 C221.78328717 248.13426456 223.87417299 255.90824306 225.87109375 263.73779297 C227.13928771 268.70968975 228.45707777 273.65534678 229.890625 278.58203125 C244.12552153 327.76542374 252.0973738 382.18349094 226.63378906 428.98925781 C209.95700525 458.07863514 183.83364233 479.68711969 155 496 C154.25459961 496.43070801 153.50919922 496.86141602 152.74121094 497.30517578 C125.26764436 513.13900759 95.5553325 525.24374681 66.3671875 537.52905273 C59.54753052 540.41079826 52.89359025 543.42721756 46.375 546.9375 C45.5694165 547.36788574 44.76383301 547.79827148 43.93383789 548.24169922 C41.61757945 549.48554276 39.30761666 550.74021108 37 552 C36.38785645 552.33177246 35.77571289 552.66354492 35.14501953 553.00537109 C27.82656509 556.9990036 21.28115605 561.51489324 15 567 C14.34 567.57621094 13.68 568.15242187 13 568.74609375 C7.79952016 573.59912774 4.25117156 579.24648533 2 586 C1.34 586 0.68 586 0 586 C-1.19140625 584.1640625 -1.19140625 584.1640625 -2.5625 581.625 C-20.54939654 550.89557917 -62.19462628 538.65851714 -93.31634521 525.24438477 C-116.9505323 515.05278242 -140.0907088 504.61394836 -162 491 C-163.10287354 490.3179248 -163.10287354 490.3179248 -164.22802734 489.62207031 C-202.17082297 465.9180717 -228.75713893 433.22684862 -239.2734375 389.515625 C-240.54122823 383.38115374 -241.16970398 377.3951357 -241.23828125 371.13671875 C-241.24798447 370.39564377 -241.25768768 369.65456879 -241.26768494 368.89103699 C-241.29259956 366.48980233 -241.30522155 364.08885111 -241.3125 361.6875 C-241.31642761 360.45305145 -241.31642761 360.45305145 -241.32043457 359.19366455 C-241.32543187 344.48268673 -239.92168856 330.43642774 -237 316 C-236.68462056 314.35552152 -236.36950171 312.71099303 -236.0546875 311.06640625 C-235.12516444 306.35639698 -234.08297316 301.67687916 -233 297 C-232.77022461 296.00548828 -232.54044922 295.01097656 -232.30371094 293.98632812 C-229.10192849 280.21908105 -225.67233161 266.60269388 -221.48046875 253.1015625 C-215.1355103 232.61358734 -209.16904108 212.00470269 -205.0625 190.9375 C-204.86317871 189.92260498 -204.66385742 188.90770996 -204.45849609 187.86206055 C-198.93920571 158.07116237 -200.88452771 129.246153 -217 103 C-219.49688846 99.50535892 -222.19049448 96.24593356 -225 93 C-225.59167969 92.26394531 -226.18335938 91.52789062 -226.79296875 90.76953125 C-233.30573876 82.92365693 -241.54136276 76.6390915 -250 71 C-248.68952192 67.06856576 -246.1944313 65.58419106 -243 63.1875 C-241.72247876 62.20765523 -240.44650688 61.22578796 -239.171875 60.2421875 C-238.49447266 59.71979492 -237.81707031 59.19740234 -237.11914062 58.65917969 C-233.44000298 55.77860141 -229.84737143 52.79410515 -226.25 49.8125 C-221.08382118 45.53885324 -215.90114299 41.29321622 -210.65234375 37.12109375 C-207.08471257 34.26803966 -203.54310506 31.38341925 -200 28.5 C-191.07245854 21.23872557 -182.10527608 14.03789456 -173 7 C-169.31477409 8.48059849 -167.64952137 10.45997735 -165.3125 13.625 C-150.02620815 33.08787432 -122.37598546 47.00966093 -97.88085938 50.28320312 C-70.94704632 53.12658987 -45.11333401 50.89399606 -23 34 C-11.89110131 24.60599961 -5.72066765 13.18058591 0 0 Z " fill="#187EB9" transform="translate(499,206)"/>
<path d="M0 0 C0.66 0 1.32 0 2 0 C2.3403125 0.88300781 2.680625 1.76601562 3.03125 2.67578125 C7.26064556 13.14803462 12.49267924 22.32266175 21 30 C21.58652344 30.59039062 22.17304687 31.18078125 22.77734375 31.7890625 C38.44960822 46.90681482 58.5963419 51.40704893 79.75 51.3125 C80.4149649 51.31001251 81.07992981 51.30752502 81.76504517 51.30496216 C113.34899017 51.12208299 143.05010396 38.26052953 165.41992188 15.96069336 C168.45352519 12.84649345 170.94582332 9.8752553 173 6 C178.94717582 10.34535769 184.65160846 14.95050556 190.33544922 19.6328125 C193.56808614 22.28795576 196.81572237 24.92468265 200.0625 27.5625 C200.75666016 28.12654541 201.45082031 28.69059082 202.16601562 29.27172852 C206.53706422 32.82035166 210.92521308 36.3464366 215.328125 39.85546875 C218.12397351 42.09950505 220.90391633 44.36224015 223.68261719 46.62744141 C236.79087681 57.47360719 236.79087681 57.47360719 250.390625 67.6796875 C250.92171875 68.11539063 251.4528125 68.55109375 252 69 C252 69.66 252 70.32 252 71 C250.29745942 72.37350348 248.53451383 73.67232545 246.75 74.9375 C225.01553284 90.82811312 208.89725695 112.13525015 204.46020508 139.30541992 C201.83522844 160.37903876 204.17796676 181.45889776 209 202 C209.23525391 203.03060547 209.47050781 204.06121094 209.71289062 205.12304688 C212.45591482 217.03971121 215.7505169 228.74438556 219.38964844 240.41577148 C221.78328717 248.13426456 223.87417299 255.90824306 225.87109375 263.73779297 C227.13928771 268.70968975 228.45707777 273.65534678 229.890625 278.58203125 C244.12552153 327.76542374 252.0973738 382.18349094 226.63378906 428.98925781 C209.95700525 458.07863514 183.83364233 479.68711969 155 496 C154.25459961 496.43070801 153.50919922 496.86141602 152.74121094 497.30517578 C125.26764436 513.13900759 95.5553325 525.24374681 66.3671875 537.52905273 C59.54753052 540.41079826 52.89359025 543.42721756 46.375 546.9375 C45.5694165 547.36788574 44.76383301 547.79827148 43.93383789 548.24169922 C41.61757945 549.48554276 39.30761666 550.74021108 37 552 C36.38785645 552.33177246 35.77571289 552.66354492 35.14501953 553.00537109 C27.82656509 556.9990036 21.28115605 561.51489324 15 567 C14.34 567.57621094 13.68 568.15242187 13 568.74609375 C7.79952016 573.59912774 4.25117156 579.24648533 2 586 C1.34 586 0.68 586 0 586 C-1.19140625 584.1640625 -1.19140625 584.1640625 -2.5625 581.625 C-20.54939654 550.89557917 -62.19462628 538.65851714 -93.31634521 525.24438477 C-116.9505323 515.05278242 -140.0907088 504.61394836 -162 491 C-163.10287354 490.3179248 -163.10287354 490.3179248 -164.22802734 489.62207031 C-202.17082297 465.9180717 -228.75713893 433.22684862 -239.2734375 389.515625 C-240.54122823 383.38115374 -241.16970398 377.3951357 -241.23828125 371.13671875 C-241.24798447 370.39564377 -241.25768768 369.65456879 -241.26768494 368.89103699 C-241.29259956 366.48980233 -241.30522155 364.08885111 -241.3125 361.6875 C-241.31642761 360.45305145 -241.31642761 360.45305145 -241.32043457 359.19366455 C-241.32543187 344.48268673 -239.92168856 330.43642774 -237 316 C-236.68462056 314.35552152 -236.36950171 312.71099303 -236.0546875 311.06640625 C-235.12516444 306.35639698 -234.08297316 301.67687916 -233 297 C-232.77022461 296.00548828 -232.54044922 295.01097656 -232.30371094 293.98632812 C-229.10192849 280.21908105 -225.67233161 266.60269388 -221.48046875 253.1015625 C-215.1355103 232.61358734 -209.16904108 212.00470269 -205.0625 190.9375 C-204.86317871 189.92260498 -204.66385742 188.90770996 -204.45849609 187.86206055 C-198.93920571 158.07116237 -200.88452771 129.246153 -217 103 C-219.49688846 99.50535892 -222.19049448 96.24593356 -225 93 C-225.59167969 92.26394531 -226.18335938 91.52789062 -226.79296875 90.76953125 C-233.30573876 82.92365693 -241.54136276 76.6390915 -250 71 C-248.68952192 67.06856576 -246.1944313 65.58419106 -243 63.1875 C-241.72247876 62.20765523 -240.44650688 61.22578796 -239.171875 60.2421875 C-238.49447266 59.71979492 -237.81707031 59.19740234 -237.11914062 58.65917969 C-233.44000298 55.77860141 -229.84737143 52.79410515 -226.25 49.8125 C-221.08382118 45.53885324 -215.90114299 41.29321622 -210.65234375 37.12109375 C-207.08471257 34.26803966 -203.54310506 31.38341925 -200 28.5 C-191.07245854 21.23872557 -182.10527608 14.03789456 -173 7 C-169.31477409 8.48059849 -167.64952137 10.45997735 -165.3125 13.625 C-150.02620815 33.08787432 -122.37598546 47.00966093 -97.88085938 50.28320312 C-70.94704632 53.12658987 -45.11333401 50.89399606 -23 34 C-11.89110131 24.60599961 -5.72066765 13.18058591 0 0 Z M-175 64 C-178.3 66.64 -181.6 69.28 -185 72 C-183.47085133 75.05829734 -181.84437126 77.88197136 -180.03027344 80.76855469 C-153.69602331 123.08589154 -156.07713293 169.94756191 -166.76000977 216.92700195 C-168.95000168 226.31206058 -171.57676754 235.51985904 -174.40234375 244.73046875 C-198.30991037 315.4121462 -198.30991037 315.4121462 -195 388 C-194.67128906 389.09570312 -194.34257812 390.19140625 -194.00390625 391.3203125 C-189.14045832 406.36502687 -181.54625813 418.5298571 -170.37988281 429.61279297 C-169.17459197 430.82448132 -168.01641217 432.08266719 -166.8671875 433.34765625 C-153.95092245 447.3022877 -136.69285116 456.399666 -120 465 C-119.31292969 465.35868164 -118.62585938 465.71736328 -117.91796875 466.08691406 C-99.6543471 475.60630692 -80.77528248 484.0436954 -61.8125 492.0625 C-19.76717544 509.86481319 -19.76717544 509.86481319 -3.375 521.125 C-2.26125 521.74375 -1.1475 522.3625 0 523 C3.36630517 521.99347139 6.26736416 520.3612149 9.2734375 518.56640625 C27.93441988 507.57792223 47.28369572 498.66825505 67.16162109 490.12182617 C143.28177481 459.07587846 143.28177481 459.07587846 193.875 397.625 C212.33494406 351.21543327 190.06989431 292.69495031 176.74169922 247.51611328 C175.12199465 242.02148678 173.53899643 236.51786525 172 231 C171.80696289 230.32291992 171.61392578 229.64583984 171.41503906 228.94824219 C167.67681757 215.77407314 165.02554033 202.54169762 163 189 C162.81993408 187.81833252 162.81993408 187.81833252 162.63623047 186.61279297 C157.27136616 149.90624747 160.95819469 112.75513683 181.66088867 81.328125 C183.75561874 78.13245882 185.06161708 75.75353168 186 72 C183.03 69.36 180.06 66.72 177 64 C173.97230882 65.51384559 171.18755926 67.11803858 168.33422852 68.91845703 C133.32692234 90.75317508 88.66385546 101.19286543 48 92 C33.2346372 88.3783714 18.90220979 82.63313429 6.51513672 73.75683594 C3.5194796 71.6095568 3.5194796 71.6095568 -0.01953125 71.01953125 C-2.79289644 72.39253848 -5.34116252 74.00260856 -7.9375 75.6875 C-14.35786079 79.76143073 -21.01545264 82.98758072 -28 86 C-29.48306641 86.72703125 -29.48306641 86.72703125 -30.99609375 87.46875 C-36.78196793 89.92925409 -43.04795633 90.96397483 -49.1875 92.1875 C-49.85639252 92.32106903 -50.52528503 92.45463806 -51.21444702 92.59225464 C-62.60501809 94.82823504 -73.40184018 95.94308381 -85 95 C-85.95116699 94.93135742 -86.90233398 94.86271484 -87.88232422 94.79199219 C-116.41067681 92.57327249 -141.68333494 83.4186429 -166.21240234 69.04492188 C-169.12851445 67.34033845 -172.0654437 65.67258408 -175 64 Z " fill="#FDFEFE" transform="translate(499,206)"/>
<path d="M0 0 C0.6914209 0.23605957 1.3828418 0.47211914 2.09521484 0.71533203 C13.02654056 4.53649187 21.95933753 9.81443451 31 17 C31.74507812 17.56203125 32.49015625 18.1240625 33.2578125 18.703125 C47.48806463 30.11037165 57.15735936 47.70485485 62 65 C62.21269531 65.71542969 62.42539062 66.43085938 62.64453125 67.16796875 C64.09825956 72.40766575 64.68939599 77.59266648 65 83 C65.07734375 84.21429688 65.1546875 85.42859375 65.234375 86.6796875 C66.30447413 111.55648643 56.83252064 135.33770542 40.25 153.6875 C25.56864056 169.36424499 4.42187663 181.77642648 -17.35961914 183.22314453 C-46.8087198 184.14150326 -70.93445392 178.42291673 -93.55078125 158.78515625 C-112.66346821 140.53072466 -122.45484549 116.260843 -123.33398438 90.11450195 C-123.58066821 75.51757338 -120.35139406 62.15112183 -114 49 C-113.58234375 48.113125 -113.1646875 47.22625 -112.734375 46.3125 C-101.50458166 24.11106949 -81.42170362 7.51465723 -57.91503906 -0.39794922 C-39.53461081 -6.17639594 -18.20047141 -6.42342454 0 0 Z " fill="#FDFEFE" transform="translate(529,354)"/>
<path d="M0 0 C8.19242579 4.51995906 8.19242579 4.51995906 12.08203125 6.83203125 C36.33802935 21.14843525 61.87995085 28.97066899 90 31 C91.26626221 31.10296387 91.26626221 31.10296387 92.55810547 31.20800781 C114.63409628 32.81141717 138.61238262 27.59283127 158 17 C158.680625 16.63519531 159.36125 16.27039063 160.0625 15.89453125 C167.49581213 12.09511098 167.49581213 12.09511098 174 7 C178.57957317 7.24732886 181.45126884 9.48203582 185.125 12.0625 C198.10541569 20.76102337 212.74177425 25.97383832 228 29 C229.66675781 29.33644531 229.66675781 29.33644531 231.3671875 29.6796875 C270.15454086 36.34198584 312.21279526 24.55571876 345.03125 3.84765625 C348 2 348 2 352 0 C354.97 2.64 357.94 5.28 361 8 C359.98054146 12.07783418 358.63679156 14.37315284 356.375 17.875 C331.11474033 58.03818551 332.30951802 104.75206794 342.45410156 149.62304688 C342.63424805 150.40744141 342.81439453 151.19183594 343 152 C343.17756836 152.78439453 343.35513672 153.56878906 343.53808594 154.37695312 C346.14737011 165.75361815 349.43821001 176.8748646 352.91259766 188.01416016 C359.17986064 208.13939743 364.52912551 228.40073664 369 249 C369.20254395 249.93279785 369.40508789 250.8655957 369.61376953 251.82666016 C370.83814293 257.53453784 371.97774983 263.25239843 373 269 C373.11859375 269.66547852 373.2371875 270.33095703 373.359375 271.01660156 C378.09183868 298.83391037 375.59206007 327.06638291 359.6875 350.9375 C330.66689387 390.18014094 283.52855097 408.15833043 240.25634766 427.13330078 C208.55151789 440.30363499 208.55151789 440.30363499 179.32421875 458.015625 C177 459 177 459 174.03515625 458.37890625 C171.04638287 457.02107227 168.47915147 455.50823391 165.75 453.6875 C145.6031271 440.93994872 123.18696738 432.08172928 101.34474182 422.73141479 C51.00289126 401.17691179 51.00289126 401.17691179 29 386 C28.09507812 385.37867188 27.19015625 384.75734375 26.2578125 384.1171875 C19.7401943 379.51332977 13.78823319 374.48695291 8 369 C7.14148438 368.19433594 6.28296875 367.38867188 5.3984375 366.55859375 C-10.90428356 350.82228142 -22.81591397 327.84124077 -23.23046875 304.87890625 C-23.22654787 302.77339243 -23.21214701 300.6678732 -23.1875 298.5625 C-23.18685547 297.52029297 -23.18621094 296.47808594 -23.18554688 295.40429688 C-23.08352194 277.1191622 -19.8919937 259.73355989 -15.75 242 C-15.44887299 240.70242264 -15.44887299 240.70242264 -15.1416626 239.37863159 C-12.13930713 226.46301004 -8.86656221 213.68620081 -5 201 C18.8177397 122.58117091 18.8177397 122.58117091 8 43 C7.74734375 42.34483398 7.4946875 41.68966797 7.234375 41.01464844 C3.62485934 31.85373308 -0.86219785 23.44885639 -6.08203125 15.109375 C-8 12 -8 12 -10 8 C-6.7 5.36 -3.4 2.72 0 0 Z M4 13 C5.27911027 16.28893316 6.6721963 19.46520282 8.2421875 22.625 C12.97892624 32.27547626 17.3550944 41.54484373 20 52 C20.37125 53.258125 20.7425 54.51625 21.125 55.8125 C23.98711935 67.95563599 24.44427118 80.57810441 24.4375 93 C24.43810425 94.15769394 24.43810425 94.15769394 24.4387207 95.33877563 C24.33471894 130.43174968 14.87977515 164.57425168 4.921875 197.98828125 C-17.69697523 268.92781141 -17.69697523 268.92781141 -4.6640625 339.63671875 C9.16746705 363.97562572 32.04109222 379.02824312 56 392 C57.72029419 392.94117676 57.72029419 392.94117676 59.4753418 393.90136719 C68.05407147 398.5648345 76.76756585 402.77864605 85.6875 406.75 C87.03541718 407.35508736 88.38323403 407.96039824 89.73095703 408.56591797 C98.56831546 412.5249886 107.45882292 416.34675745 116.375 420.125 C133.53715117 427.40947119 150.40914583 435.32034843 166.78979492 444.23510742 C168.51734489 445.17384226 170.25810343 446.08816212 172 447 C172.86238281 447.47566406 173.72476563 447.95132812 174.61328125 448.44140625 C177.08478302 449.2764751 177.08478302 449.2764751 179.55859375 447.83203125 C180.50863281 447.16558594 181.45867187 446.49914062 182.4375 445.8125 C204.44033798 431.27678947 230.13849902 421.65168739 254.38037109 411.46240234 C281.58209927 399.99955805 309.50722328 387.44266824 332 368 C332.52770996 367.55446777 333.05541992 367.10893555 333.59912109 366.64990234 C350.51198687 352.30725541 363.22624492 332.37321317 366 310 C366.8634602 290.54206995 364.93660951 272.03433299 361 253 C360.82065918 252.12537109 360.64131836 251.25074219 360.45654297 250.34960938 C357.7841051 237.41313782 354.74111402 224.66757493 351 212 C350.7019043 210.98921387 350.40380859 209.97842773 350.09667969 208.93701172 C349.08729839 205.51990883 348.07531664 202.10358617 347.0625 198.6875 C346.71743408 197.52307373 346.37236816 196.35864746 346.0168457 195.15893555 C344.47649759 189.96456964 342.93152954 184.77194891 341.36328125 179.5859375 C330.00527422 141.58297691 321.37940177 99.3866309 330 60 C330.16628906 59.22108398 330.33257813 58.44216797 330.50390625 57.63964844 C333.70634067 43.08043268 338.70084543 29.02920439 347.14453125 16.65307617 C347.42683594 16.10756104 347.70914062 15.5620459 348 15 C347.67 14.34 347.34 13.68 347 13 C346.18269409 13.46672119 346.18269409 13.46672119 345.34887695 13.94287109 C333.59980186 20.56532008 321.74571916 26.17453407 309 30.5625 C307.83380127 30.96710449 306.66760254 31.37170898 305.46606445 31.78857422 C292.59041383 36.07108617 279.58690563 38.62468719 266 39 C264.59282715 39.04084717 264.59282715 39.04084717 263.15722656 39.08251953 C248.80564214 39.43630278 235.05305266 39.05272305 221 36 C220.34 35.86078125 219.68 35.7215625 219 35.578125 C205.15726639 32.56398139 192.41929325 27.01225225 180.6484375 19.1875 C177.20738753 17.64461034 175.59123509 17.92400895 172 19 C169.89435462 20.13147392 167.83413514 21.34947381 165.8125 22.625 C133.26680312 42.09339629 90.59564795 43.2742785 54.63085938 34.41650391 C50.00036602 33.17374594 45.50763996 31.63653171 41 30 C39.69053352 29.55342655 38.38062791 29.1081389 37.0703125 28.6640625 C27.43088327 25.3102979 18.58510504 20.8486355 9.66601562 15.91210938 C7.80113718 14.89112669 5.91328068 13.92705353 4 13 Z " fill="#1D81BA" transform="translate(324,270)"/>
<path d="M0 0 C0.89525391 0.51046875 0.89525391 0.51046875 1.80859375 1.03125 C42.07847946 23.52972998 88.22985832 33.4013006 133.61206055 21.35644531 C144.82171296 18.1767289 155.81236772 13.82174068 165.625 7.5 C168.42006869 5.7728147 169.68484792 5.02626267 173 4.75 C176.58555576 6.24398157 179.70111687 8.20620825 182.99609375 10.25390625 C207.45613818 24.47190347 234.31633388 26.59409017 262 26 C263.10553223 25.97897217 263.10553223 25.97897217 264.23339844 25.95751953 C290.30289708 25.30206557 315.40574186 15.12141718 338.10668945 3.00219727 C340.05634832 1.97017281 342.02354669 0.97957607 344 0 C342.6429196 3.61888107 341.00394808 7.03089333 339.23364258 10.46484375 C312.93618739 61.62367373 322.98039774 119.05197359 339 172 C345.24852064 192.91223161 351.46839187 213.75755159 356.25 235.0625 C356.49637207 236.15626953 356.74274414 237.25003906 356.99658203 238.37695312 C364.23703652 271.38181686 366.16128 303.17676445 348.3125 332.80078125 C334.76729976 353.21626335 314.51467044 366.31416987 293.4375 377.9375 C292.20966797 378.61800415 292.20966797 378.61800415 290.95703125 379.31225586 C275.26595496 387.82294631 258.91830431 395.00779682 242.49313354 401.96130371 C227.6612406 408.25331192 212.93952716 414.72845155 198.4375 421.75 C197.43813416 422.23004486 197.43813416 422.23004486 196.4185791 422.7197876 C189.0160525 426.2863922 182.04418763 430.0621021 175.38696289 434.91894531 C173 436 173 436 170.55102539 435.36645508 C169.70918701 434.9155249 168.86734863 434.46459473 168 434 C167.09427246 433.54810303 166.18854492 433.09620605 165.25537109 432.63061523 C164.27133301 432.11184814 163.28729492 431.59308105 162.2734375 431.05859375 C161.17 430.47988525 160.0665625 429.90117676 158.9296875 429.30493164 C158.35057617 429.0004007 157.77146484 428.69586975 157.17480469 428.3821106 C140.09543091 419.41816159 122.80607051 411.30602035 105.0625 403.75 C6.535708 361.76716071 6.535708 361.76716071 -12.20947266 318.97558594 C-27.80089562 280.01147394 -13.73555716 234.92424008 -2.375 196.49609375 C1.75537464 182.50837405 5.59826303 168.47257423 9.15917969 154.32861328 C9.70859481 152.15360581 10.26369278 149.98002383 10.82519531 147.80810547 C16.62034779 125.38780275 20.35877847 103.4951726 20.375 80.3125 C20.37699402 79.56535736 20.37898804 78.81821472 20.38104248 78.0484314 C20.37683489 64.17503625 19.46324961 50.32299652 15.5625 36.9375 C15.19475464 35.65190186 15.19475464 35.65190186 14.81958008 34.34033203 C11.69708829 24.10769886 6.89652618 14.61499587 2.02807617 5.11865234 C1 3 1 3 0 0 Z M163.375 18.5 C129.46360205 37.60097632 85.73786497 39.89357819 48.58251953 29.89550781 C40.68274776 27.64738521 32.98092836 25.04715908 25.3984375 21.8828125 C22.95673468 20.82728899 22.95673468 20.82728899 20 21 C21.88356448 28.66268278 23.88439776 36.27865715 26.03515625 43.87109375 C28.65130116 54.35453334 29.33116453 64.72890751 29.25 75.5 C29.24323242 76.81371582 29.23646484 78.12743164 29.22949219 79.48095703 C29.11453571 90.41919952 28.484429 101.16387252 27 112 C26.87641113 112.91313965 26.75282227 113.8262793 26.62548828 114.76708984 C23.25751879 138.75927981 16.75418192 162.00949464 9.83642578 185.18457031 C7.72217972 192.30117438 5.68873964 199.44077372 3.68212891 206.58837891 C3.05476843 208.80636988 2.40945543 211.0183672 1.76171875 213.23046875 C-1.4186663 224.39018968 -3.592471 235.73282663 -5.75 247.125 C-5.90483856 247.93976807 -6.05967712 248.75453613 -6.21920776 249.59399414 C-6.66664408 251.96021926 -7.10809774 254.32746769 -7.546875 256.6953125 C-7.67894852 257.39790192 -7.81102203 258.10049133 -7.94709778 258.82437134 C-12.57681775 284.16641161 -10.76153745 307.87159528 3.79296875 329.6875 C5.45154329 331.87363028 7.18912905 333.9390756 9 336 C9.56847656 336.71027344 10.13695312 337.42054688 10.72265625 338.15234375 C35.66514979 368.28457056 80.20941573 384.28865118 115.39331055 398.93334961 C123.52716068 402.33353981 131.56468026 405.9188178 139.5625 409.625 C140.73796387 410.16930664 141.91342773 410.71361328 143.12451172 411.27441406 C150.52862352 414.74329022 157.8185984 418.37422373 164.85375977 422.54931641 C167.58683442 424.10094563 169.64152674 424.992511 172.8046875 425.05859375 C177.58464282 423.47501442 181.84096484 421.09881437 186.25 418.6875 C203.30699701 409.57161278 220.94026224 401.70173455 238.67529297 394.00927734 C304.87361307 366.9983279 304.87361307 366.9983279 348.9375 313.375 C361.0537362 278.31525269 348.92623149 236.74081529 338.92773438 202.20605469 C337.80025743 198.30973173 336.68910921 194.40886378 335.578125 190.5078125 C333.83257212 184.38451539 332.08407244 178.26206882 330.33203125 172.140625 C330.12570572 171.41950531 329.91938019 170.69838562 329.70680237 169.95541382 C328.60581095 166.10923178 327.49867262 162.264905 326.38671875 158.421875 C323.59463119 148.68969066 321.37257455 138.89909453 319.39794922 128.96923828 C319.07690463 127.38055996 318.73168003 125.79677899 318.37890625 124.21484375 C315.10819921 109.43327626 314.59099982 94.2672096 314.625 79.1875 C314.62521149 78.31358612 314.62542297 77.43967224 314.62564087 76.53927612 C314.65750025 63.31733259 315.37756683 50.78671134 319 38 C319.22445801 37.17918945 319.44891602 36.35837891 319.68017578 35.51269531 C321.02215652 30.64180227 322.46112164 25.8121483 324 21 C319.10327719 21.63306541 314.72218221 23.08842417 310.125 24.8125 C301.85500105 27.80470993 293.60214075 30.17887178 285 32 C283.97011963 32.22647217 283.97011963 32.22647217 282.91943359 32.45751953 C261.75523022 36.9625061 239.10744548 36.62203235 218 32 C217.30664551 31.85546387 216.61329102 31.71092773 215.89892578 31.56201172 C202.29535619 28.68181867 189.85828116 23.74790633 177.5859375 17.19921875 C171.61063202 14.4281934 168.8921525 15.16928009 163.375 18.5 Z " fill="#F7FBFC" transform="translate(328,283)"/>
<path d="M0 0 C1.76548002 2.64822003 2.63003639 4.53190439 3.60400391 7.49975586 C4.05424423 8.8614817 4.05424423 8.8614817 4.51358032 10.25071716 C4.83136444 11.22887894 5.14914856 12.20704071 5.4765625 13.21484375 C5.80667328 14.22213028 6.13678406 15.22941681 6.47689819 16.26722717 C7.17344188 18.39736504 7.8676058 20.52828233 8.55957031 22.65991211 C9.62049898 25.92365349 10.69257062 29.18358753 11.765625 32.44335938 C12.44078307 34.51279946 13.11528433 36.58245397 13.7890625 38.65234375 C14.11089508 39.62848129 14.43272766 40.60461884 14.76431274 41.6103363 C15.05816864 42.52130569 15.35202454 43.43227509 15.65478516 44.37084961 C15.91522614 45.17010361 16.17566711 45.9693576 16.44400024 46.79283142 C17 49 17 49 17 53 C35.15 53 53.3 53 72 53 C66.37868481 58.62131519 66.37868481 58.62131519 63.2421875 60.83984375 C62.19321289 61.58874878 62.19321289 61.58874878 61.12304688 62.3527832 C60.01026367 63.13721802 60.01026367 63.13721802 58.875 63.9375 C57.27787523 65.07443909 55.68154945 66.21250125 54.0859375 67.3515625 C53.25803711 67.94227539 52.43013672 68.53298828 51.57714844 69.14160156 C48.92072802 71.05716354 46.28948788 73.00313948 43.6640625 74.9609375 C42.36879639 75.92592163 42.36879639 75.92592163 41.04736328 76.91040039 C39.368635 78.16389589 37.692459 79.42081788 36.01904297 80.68139648 C34.88039795 81.52939819 34.88039795 81.52939819 33.71875 82.39453125 C32.71231445 83.15020386 32.71231445 83.15020386 31.68554688 83.92114258 C30 85 30 85 28 85 C28.55929199 86.6245813 28.55929199 86.6245813 29.12988281 88.28198242 C30.53353285 92.36100818 31.93439005 96.44098876 33.33447266 100.52124023 C33.9369199 102.27572726 34.54009036 104.02996615 35.14404297 105.78393555 C45 134.41197658 45 134.41197658 45 138 C41.31173009 136.33404233 38.13480438 134.0543731 34.875 131.6875 C33.976604 131.04022949 33.976604 131.04022949 33.06005859 130.37988281 C31.74810716 129.4340496 30.43711494 128.48688484 29.12695312 127.53857422 C26.8737724 125.90869073 24.61686199 124.28406932 22.359375 122.66015625 C20.7811228 121.52361411 19.20299617 120.38689759 17.625 119.25 C16.88878418 118.71979248 16.15256836 118.18958496 15.39404297 117.64331055 C10.55509149 114.14899675 5.76278885 110.59740852 1 107 C-2.64964993 108.76033316 -5.853755 110.93719216 -9.125 113.3125 C-9.72465576 113.74473877 -10.32431152 114.17697754 -10.94213867 114.62231445 C-12.25476502 115.56896009 -13.5664929 116.5168525 -14.87744141 117.46582031 C-17.11633789 119.08408872 -19.36047383 120.6948916 -21.60546875 122.3046875 C-32.95500839 130.44930899 -32.95500839 130.44930899 -44 139 C-45.13802389 135.58592834 -44.86077925 134.8245365 -43.76831055 131.51611328 C-43.47437912 130.61152374 -43.18044769 129.7069342 -42.87760925 128.77493286 C-42.55061539 127.79990814 -42.22362152 126.82488342 -41.88671875 125.8203125 C-41.55710648 124.81539764 -41.2274942 123.81048279 -40.88789368 122.77511597 C-39.82941473 119.55559991 -38.75841871 116.34039682 -37.6875 113.125 C-36.97643208 110.96510086 -36.2661361 108.80494743 -35.55664062 106.64453125 C-34.24885436 102.67575667 -32.94033902 98.70725153 -31.61987305 94.74267578 C-31.35482468 93.9456424 -31.08977631 93.14860901 -30.81669617 92.3274231 C-29.94859944 89.85351854 -28.99004084 87.42739101 -28 85 C-28.53367187 84.75894531 -29.06734375 84.51789063 -29.6171875 84.26953125 C-32.64076176 82.65861054 -35.35896191 80.69586013 -38.125 78.6875 C-38.72393066 78.25598633 -39.32286133 77.82447266 -39.93994141 77.37988281 C-41.25189284 76.4340496 -42.56288506 75.48688484 -43.87304688 74.53857422 C-46.1262276 72.90869073 -48.38313801 71.28406932 -50.640625 69.66015625 C-52.2188772 68.52361411 -53.79700383 67.38689759 -55.375 66.25 C-56.11121582 65.71979248 -56.84743164 65.18958496 -57.60595703 64.64331055 C-59.74149196 63.10119358 -61.8723141 61.55292676 -64 60 C-65.14710449 59.1637207 -65.14710449 59.1637207 -66.31738281 58.31054688 C-67.05053711 57.76978516 -67.78369141 57.22902344 -68.5390625 56.671875 C-69.53607178 55.93855957 -69.53607178 55.93855957 -70.55322266 55.19042969 C-71.03065918 54.79758789 -71.5080957 54.40474609 -72 54 C-72 53.67 -72 53.34 -72 53 C-53.85 53 -35.7 53 -17 53 C-16.34 50.03 -15.68 47.06 -15 44 C-14.53096401 42.34026369 -14.03767981 40.68685807 -13.50366211 39.046875 C-13.08829445 37.76139771 -13.08829445 37.76139771 -12.66453552 36.44995117 C-12.37176224 35.55896729 -12.07898895 34.6679834 -11.77734375 33.75 C-11.47180069 32.81067627 -11.16625763 31.87135254 -10.85145569 30.90356445 C-10.21053541 28.93651217 -9.56755844 26.97012892 -8.92260742 25.00439453 C-7.93178678 21.98257573 -6.94885099 18.95827152 -5.96679688 15.93359375 C-5.34160831 14.01807816 -4.71597347 12.10270816 -4.08984375 10.1875 C-3.79504623 9.28032227 -3.50024872 8.37314453 -3.19651794 7.43847656 C-2.92275833 6.60670898 -2.64899872 5.77494141 -2.36694336 4.91796875 C-2.00626015 3.81618286 -2.00626015 3.81618286 -1.63829041 2.69213867 C-1 1 -1 1 0 0 Z " fill="#197FB9" transform="translate(500,367)"/>
<path d="M0 0 C0.74926758 0.00427002 1.49853516 0.00854004 2.27050781 0.01293945 C10.20703715 0.25549213 15.60011392 2.82944441 21.625 7.9375 C28.30022212 15.98703255 30.30778686 22.55543833 30.12890625 32.8828125 C29.24799867 41.2923014 26.66722953 51.10945543 20.4375 57.13671875 C19.880625 57.58660156 19.32375 58.03648437 18.75 58.5 C18.1725 59.00144531 17.595 59.50289062 17 60.01953125 C9.7085123 65.1890821 0.27178748 64.48973118 -8.25 63.5 C-15.52904217 61.94347526 -21.36807067 58.09223314 -26.25 52.5 C-31.27783884 44.57204543 -32.61401696 36.63417915 -30.56640625 27.42578125 C-27.14379057 16.33423415 -21.53705893 7.90172057 -11.546875 1.8671875 C-7.63753431 0.24601541 -4.16881798 -0.03587382 0 0 Z " fill="#FBFCFD" transform="translate(432.25,559.5)"/>
<path d="M0 0 C6.2518989 1.44642403 12.02760183 4.3940249 17.85302734 7.03271484 C19.24273931 7.65882797 20.63611524 8.27689722 22.03369141 8.88525391 C35.37811725 14.70906403 35.37811725 14.70906403 38.3671875 20.7578125 C39.97184655 26.44345628 39.7321518 31.80354459 37.875 37.375 C34.48091029 42.1267256 29.8584379 46.30180648 23.94921875 47.37109375 C15.71048767 47.61299086 8.60852247 44.84051506 1 42 C0.608125 43.2375 0.21625 44.475 -0.1875 45.75 C-2.13881177 51.63207922 -4.56246179 57.30598782 -7 63 C-11.71370756 62.35014905 -15.57686444 60.48438608 -19.8125 58.4375 C-20.50537109 58.10814453 -21.19824219 57.77878906 -21.91210938 57.43945312 C-23.61044948 56.63127749 -25.30555769 55.81631623 -27 55 C-26.3831886 49.86635024 -24.03897228 45.66341979 -21.73828125 41.11328125 C-21.09586739 39.82770576 -21.09586739 39.82770576 -20.44047546 38.51615906 C-19.5329376 36.70342089 -18.62245066 34.89215658 -17.70922852 33.08227539 C-16.32791226 30.34306321 -14.95717959 27.59875615 -13.58789062 24.85351562 C-5.10646584 7.92020595 -5.10646584 7.92020595 0 0 Z " fill="#FBFCFD" transform="translate(365,536)"/>
<path d="M0 0 C1.1875 3.0625 1.1875 3.0625 2 6 C-0.34971614 7.30035771 -2.70424337 8.59029469 -5.0625 9.875 C-5.71927734 10.23980469 -6.37605469 10.60460937 -7.05273438 10.98046875 C-7.70693359 11.33496094 -8.36113281 11.68945312 -9.03515625 12.0546875 C-9.6269165 12.37937012 -10.21867676 12.70405273 -10.82836914 13.03857422 C-13.7659828 14.33911639 -16.91098046 15.11742299 -20 16 C-18.02 20.95 -16.04 25.9 -14 31 C-9.49870418 30.09974084 -6.39751715 28.90781044 -2.3125 26.9375 C3.79058824 24 3.79058824 24 6 24 C9 29.75 9 29.75 9 32 C6.21128823 33.33957921 3.41856938 34.67058435 0.625 36 C-0.56609375 36.57234375 -0.56609375 36.57234375 -1.78125 37.15625 C-2.54179688 37.5171875 -3.30234375 37.878125 -4.0859375 38.25 C-4.7876709 38.58515625 -5.4894043 38.9203125 -6.21240234 39.265625 C-8 40 -8 40 -10 40 C-8.02 45.28 -6.04 50.56 -4 56 C-0.1202348 55.22404696 2.28833783 54.55031686 5.72265625 52.8984375 C6.59083984 52.49109375 7.45902344 52.08375 8.35351562 51.6640625 C10.16572797 50.80172642 11.97562078 49.93449952 13.78320312 49.0625 C14.65009766 48.65773438 15.51699219 48.25296875 16.41015625 47.8359375 C17.58783569 47.27205322 17.58783569 47.27205322 18.78930664 46.69677734 C21.35290008 45.8887712 22.55514163 45.89969711 25 47 C26.25 50.0625 26.25 50.0625 27 53 C21.7376505 56.84488162 16.1035947 59.32464241 10.125 61.875 C9.11083008 62.31118652 8.09666016 62.74737305 7.05175781 63.19677734 C0.99286326 65.78209712 -5.09013567 68.28980255 -11.25 70.625 C-11.8982373 70.87233887 -12.54647461 71.11967773 -13.21435547 71.37451172 C-15.97263846 72.39213795 -18.03059092 73 -21 73 C-26.32321809 58.13738666 -31.63885868 43.27109034 -36.6875 28.3125 C-37.02587891 27.32314453 -37.36425781 26.33378906 -37.71289062 25.31445312 C-38.01775391 24.40244141 -38.32261719 23.49042969 -38.63671875 22.55078125 C-38.90186279 21.76356689 -39.16700684 20.97635254 -39.44018555 20.1652832 C-40 18 -40 18 -40 14 C-39.41210693 13.79431396 -38.82421387 13.58862793 -38.21850586 13.37670898 C-27.12550398 9.47495786 -16.29253566 5.4857495 -5.80078125 0.15234375 C-3 -1 -3 -1 0 0 Z " fill="#FAFCFD" transform="translate(638,537)"/>
<path d="M0 0 C1.25664978 2.90600261 2 4.79604584 2 8 C0.85402344 8.17015625 -0.29195312 8.3403125 -1.47265625 8.515625 C-3.00272114 8.75968443 -4.53266279 9.00451744 -6.0625 9.25 C-6.81466797 9.35957031 -7.56683594 9.46914063 -8.34179688 9.58203125 C-14.13220025 10.53456514 -19.68652004 11.96832434 -23.421875 16.86328125 C-25.50980584 24.58016079 -24.28932139 33.44523942 -22 41 C-21.79375 41.721875 -21.5875 42.44375 -21.375 43.1875 C-20.29944862 46.51193155 -19.17822263 48.78397257 -16.9375 51.5 C-12.42208115 53.8057458 -8.96945672 53.96384929 -4 53 C0.311226 51.49608395 4.43603001 49.58249236 8.55859375 47.62890625 C12 46 12 46 15 45 C15.66 47.97 16.32 50.94 17 54 C13.65350782 55.6617778 10.29663781 57.30145481 6.9375 58.9375 C5.52307617 59.64036133 5.52307617 59.64036133 4.08007812 60.35742188 C-0.98974249 62.81284022 -5.29828245 64.64321382 -11 65 C-12.13179687 65.07863281 -13.26359375 65.15726563 -14.4296875 65.23828125 C-22.96396125 65.42212615 -29.26495919 64.92385852 -35.9609375 59.375 C-42.54137377 52.71126707 -45.12918812 44.15995021 -45.5 34.9375 C-45.13001885 25.50298077 -41.67569586 16.74970579 -35 10 C-24.31549108 1.27795191 -13.42769792 -0.24866107 0 0 Z " fill="#F9FBFD" transform="translate(594,556)"/>
<path d="M0 0 C5.94 0 11.88 0 18 0 C18.020625 2.59875 18.04125 5.1975 18.0625 7.875 C18.071604 8.67147949 18.08070801 9.46795898 18.09008789 10.28857422 C18.10774857 14.9931508 17.76664639 19.56363022 17.25610352 24.23779297 C16.75089415 29.68673368 16.6234063 35.1575262 16.4375 40.625 C16.39431641 41.81996094 16.35113281 43.01492188 16.30664062 44.24609375 C16.20159693 47.16397406 16.09944352 50.08192438 16 53 C16.60473145 52.79842285 17.20946289 52.5968457 17.83251953 52.38916016 C26.22167969 49.59277344 34.61083984 46.79638672 43 44 C43 50.27 43 56.54 43 63 C3.98248175 63.25839416 3.98248175 63.25839416 -6 61 C-4.46750765 40.61381888 -2.25493425 20.31630082 0 0 Z " fill="#F8FBFD" transform="translate(472,567)"/>
<path d="M0 0 C0.16604736 1.54772095 0.16604736 1.54772095 0.33544922 3.12670898 C0.7558065 7.0426553 1.17731112 10.95847749 1.59912109 14.87426758 C1.77976105 16.55262058 1.96011074 18.23100486 2.14013672 19.90942383 C2.40251034 22.35506844 2.66587593 24.80060385 2.9296875 27.24609375 C3.01692078 28.05718597 3.10415405 28.8682782 3.19403076 29.70394897 C3.63063308 33.72931815 4.08550403 37.75121439 4.57910156 41.77001953 C4.6720047 42.53089371 4.76490784 43.29176788 4.86062622 44.07569885 C5.03560047 45.49604287 5.21408165 46.91596163 5.39694214 48.33531189 C5.92007872 52.58130315 6.0767959 56.72399059 6 61 C3.06271706 61.33534729 0.12520182 61.66836013 -2.8125 62 C-3.64587891 62.09539063 -4.47925781 62.19078125 -5.33789062 62.2890625 C-6.14033203 62.37929688 -6.94277344 62.46953125 -7.76953125 62.5625 C-8.50792236 62.64628906 -9.24631348 62.73007812 -10.00708008 62.81640625 C-12 63 -12 63 -15 63 C-15.43701285 57.3854696 -15.86366873 51.77026966 -16.28173828 46.15429688 C-16.42457038 44.25370327 -16.56997634 42.35330091 -16.71826172 40.453125 C-17.74441468 27.27369109 -18.19402643 14.21894853 -18 1 C-11.96758626 0.40420605 -6.06854261 -0.02508958 0 0 Z " fill="#FBFDFE" transform="translate(537,566)"/>
<path d="M0 0 C3.5 0.9375 3.5 0.9375 5.1953125 2.52734375 C6.9712876 5.80811212 6.94883382 8.8003259 6.875 12.4375 C6.86629883 13.14656494 6.85759766 13.85562988 6.84863281 14.58618164 C6.58460062 24.19414005 4.58152938 36.85597062 -2.5 43.9375 C-4.55859375 44.2734375 -4.55859375 44.2734375 -6.9375 44.3125 C-7.71996094 44.34085938 -8.50242187 44.36921875 -9.30859375 44.3984375 C-11.5 43.9375 -11.5 43.9375 -13.25390625 42.3359375 C-16.85710672 35.40062375 -14.97129582 25.68678153 -12.8515625 18.46191406 C-6.93750415 -0.123884 -6.93750415 -0.123884 0 0 Z " fill="#1B80BA" transform="translate(435.5,569.0625)"/>
<path d="M0 0 C3.24156687 0.55889084 5.00724519 1.33689953 7 4 C7.99384925 8.70063836 7.37759372 12.29515838 5.125 16.5 C3 19 3 19 1 20 C-4.53846154 20.23076923 -4.53846154 20.23076923 -7 19 C-6.4253379 14.21357393 -5.01754357 10.46211213 -2.9375 6.125 C-2.38964844 4.97257813 -1.84179688 3.82015625 -1.27734375 2.6328125 C-0.85582031 1.76398437 -0.43429687 0.89515625 0 0 Z " fill="#1E82BB" transform="translate(378,551)"/>
</svg>
