<?xml version="1.0" encoding="UTF-8"?>
<svg version="1.1" xmlns="http://www.w3.org/2000/svg" width="1000" height="1000">
<path d="M0 0 C1.53599854 0.06960937 1.53599854 0.06960937 3.10302734 0.140625 C71.36732438 3.49055286 137.41924896 22.91897629 194 62 C194.66064453 62.45503906 195.32128906 62.91007812 196.00195312 63.37890625 C200.05209723 66.18510744 204.04472583 69.06179633 208 72 C208.55768066 72.4134668 209.11536133 72.82693359 209.68994141 73.25292969 C216.218248 78.1187715 222.5042565 83.1664131 228.48828125 88.69921875 C230.48927826 90.53216935 232.51832804 92.30146829 234.578125 94.06640625 C239.56596902 98.42065141 244.25645124 103.07038503 248.93579102 107.75048828 C250.42641615 109.23893237 251.92487017 110.71917277 253.42382812 112.19921875 C259.73344544 118.47208683 265.46782637 125.01986354 271 132 C272.00029127 133.20872989 273.00371163 134.41488462 274.01171875 135.6171875 C282.48657734 145.87320807 289.82563769 156.80663473 297 168 C297.41846191 168.6487207 297.83692383 169.29744141 298.26806641 169.96582031 C323.72073214 209.75009108 339.53351355 254.43611985 347.75 300.75 C348.04825684 302.41554932 348.04825684 302.41554932 348.35253906 304.11474609 C351.49511797 322.71417751 352.37938383 341.22764699 352.3125 360.0625 C352.30976578 361.66983002 352.30976578 361.66983002 352.30697632 363.30963135 C352.25917919 380.04672314 351.66507066 396.44511716 349 413 C348.82307617 414.11874512 348.64615234 415.23749023 348.46386719 416.39013672 C333.65987075 507.52803879 286.07747739 577.15294491 222.15479088 640.96127474 C219.08296101 644.02873349 216.01407598 647.09913622 212.94480896 650.16915894 C207.64337237 655.47111659 202.34012694 660.77125918 197.03560257 666.07012749 C189.36641678 673.73114123 181.70003651 681.39495752 174.03430979 689.05943228 C161.59319135 701.49836911 149.14984746 713.93507719 136.70507812 726.37036133 C124.62544703 738.44079517 112.54688027 750.51229245 100.46972656 762.58520508 C99.7236688 763.33100012 98.97761104 764.07679515 98.20894547 764.84519004 C94.46571521 768.58711514 90.72250568 772.32906099 86.97930646 776.07101715 C55.98941801 807.05056075 24.99590682 838.02647802 -6 869 C-9.52863523 867.49259406 -11.79946304 865.45018056 -14.50191975 862.74696922 C-15.85546479 861.40032238 -15.85546479 861.40032238 -17.23635417 860.02647054 C-18.23385715 859.02395238 -19.23126637 858.02134091 -20.22859192 857.01864624 C-21.29082874 855.95799732 -22.35350305 854.89778641 -23.41657752 853.83797705 C-26.34015011 850.92082834 -29.25743285 847.9974589 -32.17374051 845.07304978 C-35.31883872 841.92138194 -38.46968765 838.77547263 -41.61982727 835.62884521 C-47.79273017 829.46098903 -53.96026987 823.28779639 -60.12602571 817.11279647 C-67.30720507 809.92123793 -74.49360376 802.73490452 -81.68021747 795.5487773 C-94.50650514 782.72299055 -107.32795195 769.89237539 -120.14672852 757.05908203 C-132.58158684 744.61014899 -145.01992873 732.16471047 -157.4621582 719.72314453 C-158.22779435 718.95754834 -158.99343049 718.19195216 -159.78226773 717.40315609 C-160.54658569 716.63887848 -161.31090366 715.87460087 -162.09838277 715.08716333 C-176.2626693 700.92356733 -190.42366003 686.75668018 -204.58312688 672.58826601 C-209.58853432 667.57984542 -214.59491489 662.5723988 -219.60160255 657.56525803 C-225.70823378 651.45794344 -231.81296203 645.34873372 -237.91534928 639.23717849 C-241.02784484 636.12007665 -244.14110776 633.00375218 -247.25653839 629.88958359 C-250.11164317 627.03557927 -252.96440826 624.17925733 -255.81536444 621.32110901 C-256.84410914 620.29056122 -257.87368124 619.26083852 -258.90418801 618.23205273 C-264.48757054 612.65695881 -269.88220999 607.00526892 -275 601 C-275.948172 599.92760616 -276.89831886 598.85695073 -277.8515625 597.7890625 C-289.84552591 584.17666232 -300.22699901 569.26796175 -310 554 C-310.35980957 553.43877441 -310.71961914 552.87754883 -311.09033203 552.29931641 C-322.54833444 534.24158828 -332.28649024 514.93714922 -340 495 C-340.32274902 494.18096191 -340.64549805 493.36192383 -340.97802734 492.51806641 C-357.41563265 450.52330761 -365.22315871 405.98691992 -365.25 361 C-365.25067474 359.98077454 -365.25134949 358.96154907 -365.25204468 357.91143799 C-365.23442248 341.09524976 -364.50429484 324.65503957 -362 308 C-361.83371094 306.8661084 -361.66742188 305.7322168 -361.49609375 304.56396484 C-356.12248133 269.00358709 -345.61979651 234.40056893 -330 202 C-329.61376465 201.18660156 -329.2275293 200.37320313 -328.82958984 199.53515625 C-315.08852908 170.69186537 -297.38496331 144.56883975 -276.36816406 120.56347656 C-275.18499264 119.2114013 -274.00972118 117.85242057 -272.8359375 116.4921875 C-262.19582992 104.37314605 -250.7345943 92.9024839 -238 83 C-236.3110779 81.58502904 -234.62363449 80.16829164 -232.9375 78.75 C-205.25661884 56.19810814 -173.39358119 37.70846163 -140 25 C-139.07364746 24.64244629 -138.14729492 24.28489258 -137.19287109 23.91650391 C-94.04018225 7.38320329 -46.38103263 -2.13114899 0 0 Z " fill="#757575" transform="translate(506,83)"/>
<path d="M0 0 C4.03183668 1.67747949 7.06915848 4.46822734 10.3125 7.3125 C11.22902344 8.10720703 11.22902344 8.10720703 12.1640625 8.91796875 C13.45809531 10.04069376 14.75054168 11.16524954 16.04150391 12.29150391 C18.56572868 14.493514 21.09766858 16.6865442 23.62963867 18.87963867 C24.88418153 19.9664943 26.13824504 21.05390346 27.3918457 22.1418457 C31.58124742 25.77691903 35.78535279 29.39424088 40 33 C44.84915361 37.14859869 49.68071453 41.31674344 54.5 45.5 C61.06297842 51.19593031 67.65400263 56.85825063 74.25732422 62.50732422 C76.02894335 64.02479121 77.79800779 65.5451877 79.56640625 67.06640625 C80.16251709 67.57872803 80.75862793 68.0910498 81.37280273 68.61889648 C82.47576326 69.56694769 83.57821344 70.51559328 84.67993164 71.46508789 C85.46098267 72.13592407 85.46098267 72.13592407 86.2578125 72.8203125 C86.78075394 73.29824753 87.30369537 73.77618256 87.84248352 74.26860046 C90.03208763 76.12958279 90.03208763 76.12958279 92.94924927 77.61004639 C97.52350295 80.4731551 101.1843912 83.04468864 102.67372513 88.44120407 C103.73119979 96.00602292 103.37430924 103.64448227 103.171875 111.2578125 C103.14947208 113.73212558 103.13240066 116.20649218 103.12042236 118.68087769 C103.07477068 125.16944334 102.95704708 131.65474582 102.82397461 138.14202881 C102.70085013 144.7713474 102.64633447 151.40108515 102.5859375 158.03125 C102.45753662 171.02221942 102.25527169 184.01093556 102 197 C102.62674622 197.30299515 103.25349243 197.6059903 103.89923096 197.91816711 C106.02174881 199.01119999 107.44886865 200.15384703 109.171875 201.79296875 C109.7496167 202.33719482 110.3273584 202.8814209 110.92260742 203.44213867 C111.82716675 204.30609253 111.82716675 204.30609253 112.75 205.1875 C114.01093348 206.37583379 115.27264591 207.56334163 116.53515625 208.75 C117.13730957 209.3171875 117.73946289 209.884375 118.35986328 210.46875 C120.85516815 212.79839456 123.42767949 215.03180907 126.01171875 217.26171875 C128.54052928 219.47256489 131.01872564 221.73596443 133.5 224 C137.28662998 227.45328153 141.1047632 230.86099051 144.97265625 234.22265625 C148.20124678 237.05311616 151.37913175 239.93961207 154.56640625 242.81640625 C156.67511146 244.70848685 158.79919801 246.57905758 160.9375 248.4375 C165.22586734 252.16575406 169.40262787 256.01398589 173.58203125 259.86328125 C176.0028246 262.0996055 176.0028246 262.0996055 179 264 C179.36914349 266.55746651 179.36914349 266.55746651 179.36076355 269.85916138 C179.36694954 271.73122757 179.36694954 271.73122757 179.3732605 273.64111328 C179.36264236 275.03174042 179.35173792 276.4223654 179.34057617 277.81298828 C179.33973033 279.27139264 179.34020421 280.72979829 179.34190369 282.1882019 C179.34276674 286.15501029 179.32509115 290.1215482 179.30418181 294.08829355 C179.28546642 298.2309575 179.28366864 302.3736272 179.28010559 306.5163269 C179.27076997 314.36449865 179.24613576 322.21254548 179.21605712 330.06066215 C179.17630054 340.66341581 179.16007049 351.26620347 179.14255047 361.86901283 C179.11431567 378.57943551 179.05455634 395.28959455 179 412 C137.09 412 95.18 412 52 412 C51.75 364.3125 51.75 364.3125 51.70214844 349.32543945 C51.6688769 344.84295793 51.6688769 344.84295793 51.63043213 340.36051941 C51.61593904 338.38363026 51.60905124 336.40667547 51.60845947 334.42973328 C51.59268738 314.97591102 49.04800896 299.86588 35.2421875 285.22265625 C26.04971358 276.11025615 13.78570199 271.99611674 0.9375 271.6875 C-6.23323484 271.74480039 -12.33802237 273.45068323 -19 276 C-20.10988281 276.41572266 -20.10988281 276.41572266 -21.2421875 276.83984375 C-31.86198055 281.46734393 -40.70603833 291.44799032 -45.28125 301.9375 C-47.27768703 307.29935947 -49.10655063 312.44421354 -49.15821838 318.20147705 C-49.16799241 319.02984699 -49.17776644 319.85821693 -49.18783665 320.711689 C-49.1936069 321.61539608 -49.19937716 322.51910316 -49.20532227 323.45019531 C-49.21535499 324.42207165 -49.22538771 325.39394798 -49.23572445 326.39527512 C-49.26709311 329.53953421 -49.29187397 332.68380591 -49.31640625 335.828125 C-49.33481119 337.7700237 -49.35364795 339.71191835 -49.3729248 341.65380859 C-49.44135281 348.85249119 -49.50141819 356.05125132 -49.5625 363.25 C-49.706875 379.3375 -49.85125 395.425 -50 412 C-91.91 412 -133.82 412 -177 412 C-177.40303034 375.24811091 -177.40303034 375.24811091 -177.48828125 359.83007812 C-177.54758625 349.19001998 -177.61724669 338.55075455 -177.75439453 327.91137695 C-177.85423897 320.1621364 -177.91862194 312.41353973 -177.94088495 304.66367382 C-177.95389472 300.5618271 -177.98434203 296.46182192 -178.05730057 292.36056709 C-178.1255082 288.49482459 -178.14605404 284.63166987 -178.13107681 280.76538277 C-178.13381377 279.35158179 -178.15352112 277.93768865 -178.19205475 276.52441025 C-178.46773151 265.8860099 -178.46773151 265.8860099 -174.83805466 261.22193718 C-172.32625337 258.93953353 -169.76752993 256.95934664 -167 255 C-165.65315705 253.84895571 -164.31690754 252.68517654 -163 251.5 C-162.360625 250.943125 -161.72125 250.38625 -161.0625 249.8125 C-157.8248667 246.9673071 -154.6331371 244.07146164 -151.43359375 241.18359375 C-149.32488854 239.29151315 -147.20080199 237.42094242 -145.0625 235.5625 C-141.83440488 232.75177475 -138.66261557 229.884201 -135.5 227 C-131.71337002 223.54671847 -127.8952368 220.13900949 -124.02734375 216.77734375 C-121.66510827 214.70640513 -119.33204147 212.60487152 -117 210.5 C-115.33333333 209 -113.66666667 207.5 -112 206 C-111.24976563 205.32066406 -110.49953125 204.64132812 -109.7265625 203.94140625 C-109.03304687 203.32136719 -108.33953125 202.70132813 -107.625 202.0625 C-107.01914062 201.51722656 -106.41328125 200.97195313 -105.7890625 200.41015625 C-103.94457602 198.95631429 -102.10839101 198.01821055 -100 197 C-100.0129051 196.43899723 -100.0258102 195.87799446 -100.03910637 195.29999161 C-100.34930177 181.60202279 -100.57954224 167.90467498 -100.72537041 154.20393753 C-100.79827899 147.57781889 -100.89706973 140.95424424 -101.05615234 134.32958984 C-101.20886603 127.92971788 -101.29209793 121.53228367 -101.3282814 115.13072968 C-101.35404665 112.69526547 -101.40436648 110.25992711 -101.48022079 107.82550812 C-102.08012314 87.76514874 -102.08012314 87.76514874 -97.03399658 81.96691895 C-94.20835403 79.31207438 -91.16541669 77.20191294 -87.85529804 75.19827366 C-84.66348438 73.13679019 -81.89150225 70.58737022 -79.0625 68.0625 C-78.41611572 67.50892822 -77.76973145 66.95535645 -77.10375977 66.38500977 C-72.89010186 62.77091316 -68.69252853 59.1385738 -64.5 55.5 C-56.7863492 48.80554642 -49.03165603 42.15977351 -41.27050781 35.52050781 C-34.03856275 29.33276914 -26.82628502 23.12347249 -19.63867188 16.88427734 C-13.11746157 11.22697344 -6.56117134 5.61086301 0 0 Z " fill="#FEFEFE" transform="translate(499,293)"/>
<path d="M0 0 C7.92 0 15.84 0 24 0 C24 11.22 24 22.44 24 34 C35.55 34 47.1 34 59 34 C59 42.25 59 50.5 59 59 C47.45 59 35.9 59 24 59 C23.88974172 65.37446699 23.8138761 71.73112612 23.82299805 78.10400391 C23.81605632 80.2669179 23.78968647 82.42986568 23.74291992 84.59228516 C22.91381927 97.22631686 22.91381927 97.22631686 27.33325195 108.54760742 C30.10176416 111.0773702 32.81874213 113.02794065 36 115 C37.87124756 116.49976685 39.7278016 118.01823648 41.5625 119.5625 C42.47128906 120.29597656 43.38007812 121.02945313 44.31640625 121.78515625 C47.80550916 124.66480887 51.12996921 127.70693876 54.47265625 130.75390625 C57.06962393 133.06187598 59.73404013 135.25555863 62.4375 137.4375 C67.211403 141.29825137 71.73388428 145.37437075 76.25 149.53125 C78.93737634 151.94378104 81.68965444 154.2325621 84.5 156.5 C88.28460334 159.55348679 91.92207537 162.70668301 95.5 166 C99.9698512 170.11378909 104.59044893 173.97087297 109.31640625 177.78515625 C112.80550916 180.66480887 116.12996921 183.70693876 119.47265625 186.75390625 C122.06962393 189.06187598 124.73404013 191.25555863 127.4375 193.4375 C132.211403 197.29825137 136.73388428 201.37437075 141.25 205.53125 C144.80428891 208.72203209 148.50970715 211.70123943 152.2265625 214.69921875 C156.10344211 217.91539071 159.79847478 221.31470573 163.4921875 224.73828125 C165.92279874 226.93037456 168.42369248 228.98235414 171 231 C169.57053238 235.41617649 167.3596864 238.08458934 164.1875 241.4375 C160.66575767 245.20897514 157.24906139 248.99282429 154 253 C149.53966242 251.58080168 146.67150822 249.13383357 143.375 245.9375 C139.50427013 242.28237631 135.59139497 238.7749192 131.4375 235.4375 C127.67161811 232.40642433 124.05670244 229.27418423 120.5 226 C116.92207537 222.70668301 113.28460334 219.55348679 109.5 216.5 C104.74404581 212.66280969 100.24495199 208.60614899 95.75 204.46875 C93.06262366 202.05621896 90.31034556 199.7674379 87.5 197.5 C82.74404581 193.66280969 78.24495199 189.60614899 73.75 185.46875 C71.06262366 183.05621896 68.31034556 180.7674379 65.5 178.5 C61.71539666 175.44651321 58.07792463 172.29331699 54.5 169 C50.0301488 164.88621091 45.40955107 161.02912703 40.68359375 157.21484375 C37.20371639 154.34280523 33.88752705 151.30954943 30.5546875 148.26953125 C26.95159075 145.06861502 23.20761768 142.05390977 19.4453125 139.04296875 C17.16064697 137.13421464 15.06749022 135.13961197 13 133 C9.32043709 134.56232021 6.83484207 136.83584082 3.9375 139.5625 C0.22521409 143.01462571 -3.54816138 146.31925184 -7.5 149.5 C-11.28460334 152.55348679 -14.92207537 155.70668301 -18.5 159 C-22.94727112 163.09351091 -27.54717463 166.92442499 -32.25 170.71875 C-35.08099578 173.06718968 -37.79383598 175.50909902 -40.5 178 C-44.94727112 182.09351091 -49.54717463 185.92442499 -54.25 189.71875 C-57.08099578 192.06718968 -59.79383598 194.50909902 -62.5 197 C-66.94727112 201.09351091 -71.54717463 204.92442499 -76.25 208.71875 C-79.08099578 211.06718968 -81.79383598 213.50909902 -84.5 216 C-88.94727112 220.09351091 -93.54717463 223.92442499 -98.25 227.71875 C-101.08099578 230.06718968 -103.79383598 232.50909902 -106.5 235 C-113.39374728 241.34066727 -120.68717806 247.15498462 -128 253 C-132.72692933 250.91828133 -135.32646632 247.54928775 -138.625 243.6875 C-139.21023438 243.02298828 -139.79546875 242.35847656 -140.3984375 241.67382812 C-143.3219542 238.28429214 -145.69800175 235.37099411 -147 231 C-141.96365529 226.37879867 -136.88291427 221.85562967 -131.5625 217.5625 C-126.788597 213.70174863 -122.26611572 209.62562925 -117.75 205.46875 C-114.18815771 202.27118704 -110.47434167 199.28611657 -106.75 196.28125 C-103.91900422 193.93281032 -101.20616402 191.49090098 -98.5 189 C-94.0301488 184.88621091 -89.40955107 181.02912703 -84.68359375 177.21484375 C-82.05291443 175.04367173 -79.52057576 172.79758643 -77 170.5 C-73.60401318 167.40444804 -70.13828469 164.44848793 -66.5625 161.5625 C-61.788597 157.70174863 -57.26611572 153.62562925 -52.75 149.46875 C-49.18815771 146.27118704 -45.47434167 143.28611657 -41.75 140.28125 C-38.91900422 137.93281032 -36.20616402 135.49090098 -33.5 133 C-29.03631379 128.89188481 -24.42244488 125.03963408 -19.703125 121.23046875 C-16.16259276 118.30901801 -12.76963328 115.24210861 -9.38671875 112.140625 C-7 110 -7 110 -3.90112305 108.02563477 C-1.86688274 106.32166604 -1.09426089 105.37054104 -0.43418884 102.77578735 C-0.20897268 99.98576136 -0.16934901 97.24825815 -0.1953125 94.44921875 C-0.18160614 93.43527542 -0.16789978 92.42133209 -0.15377808 91.37666321 C-0.11646563 88.14649131 -0.12019399 84.9178569 -0.125 81.6875 C-0.1068742 79.49411658 -0.08607189 77.30075353 -0.0625 75.10742188 C-0.00560968 69.73738227 -0.00424446 64.37137002 0 59 C-11.55 59 -23.1 59 -35 59 C-35 50.75 -35 42.5 -35 34 C-23.45 34 -11.9 34 0 34 C0 22.78 0 11.56 0 0 Z " fill="#FDFDFD" transform="translate(488,142)"/>
<path d="M0 0 C0.66 0 1.32 0 2 0 C4.42767636 35.86291579 4.42767636 35.86291579 -0.8359375 43.171875 C-3.63724026 46.01925946 -6.78956285 48.14166571 -10.29101562 50.04443359 C-12.5723049 51.3200002 -14.35945979 52.95711166 -16.25 54.75 C-16.85328125 55.27078125 -17.4565625 55.7915625 -18.078125 56.328125 C-20.41105074 58.35758073 -22.70511245 60.427647 -25 62.5 C-27.95869751 65.17048344 -30.92926472 67.82298058 -33.9375 70.4375 C-37.16559512 73.24822525 -40.33738443 76.115799 -43.5 79 C-47.28934126 82.45575413 -51.11083698 85.8652289 -54.98046875 89.23046875 C-59.02665089 92.77576954 -63.00743187 96.39458999 -67 100 C-70.32834825 103.00559933 -73.66119418 106.00602167 -77 109 C-77.72445313 109.65355469 -78.44890625 110.30710937 -79.1953125 110.98046875 C-82.96395673 114.34072377 -86.71654896 117.3228431 -91 120 C-97.46262125 113.71416778 -103.44753308 107.10715766 -109 100 C-107.42775175 95.95572287 -104.54829891 93.49423658 -101.375 90.6875 C-100.83375488 90.20039551 -100.29250977 89.71329102 -99.73486328 89.21142578 C-96.18257165 86.02271294 -92.59849469 82.86964892 -88.9921875 79.7421875 C-86.63979365 77.68499601 -84.31965034 75.59403085 -82 73.5 C-79.04130249 70.82951656 -76.07073528 68.17701942 -73.0625 65.5625 C-69.83440488 62.75177475 -66.66261557 59.884201 -63.5 57 C-59.71065874 53.54424587 -55.88916302 50.1347711 -52.01953125 46.76953125 C-47.97334911 43.22423046 -43.99256813 39.60541001 -40 36 C-34.71740942 31.22966063 -29.42065865 26.48105593 -24.0546875 21.8046875 C-21.7290065 19.76197909 -19.42542922 17.69610294 -17.125 15.625 C-15.87589844 14.50158203 -15.87589844 14.50158203 -14.6015625 13.35546875 C-12.79654093 11.72119246 -11.00024026 10.07725256 -9.2109375 8.42578125 C-7.86902344 7.19408203 -7.86902344 7.19408203 -6.5 5.9375 C-5.6853125 5.18339844 -4.870625 4.42929687 -4.03125 3.65234375 C-2 2 -2 2 0 2 C0 1.34 0 0.68 0 0 Z " fill="#FDFDFD" transform="translate(381,441)"/>
<path d="M0 0 C3.03840972 1.74620506 5.72933289 3.4753676 8.26953125 5.890625 C8.84405029 6.43162842 9.41856934 6.97263184 10.01049805 7.5300293 C10.60515869 8.09761963 11.19981934 8.66520996 11.8125 9.25 C13.06431794 10.4292206 14.31691573 11.60761393 15.5703125 12.78515625 C16.16618164 13.34605957 16.76205078 13.90696289 17.37597656 14.48486328 C19.8664759 16.80838085 22.43349013 19.03682339 25.01171875 21.26171875 C27.54052928 23.47256489 30.01872564 25.73596443 32.5 28 C36.28934126 31.45575413 40.11083698 34.8652289 43.98046875 38.23046875 C48.89736556 42.53869748 53.72639032 46.94686156 58.578125 51.328125 C62.36474959 54.74305638 66.15583617 58.14986526 70 61.5 C75.58979989 66.37143203 81.07534898 71.3589515 86.578125 76.328125 C91.680962 80.93007003 96.81726902 85.48833976 102 90 C103.50031934 91.31213495 105.00032601 92.62462751 106.5 93.9375 C107.1703125 94.52402344 107.840625 95.11054687 108.53125 95.71484375 C109.0159375 96.13894531 109.500625 96.56304688 110 97 C108.70176525 100.81562395 107.25033142 103.07090879 104.3125 105.8125 C100.7731462 109.19097408 97.62050228 112.73002093 94.54296875 116.53125 C93 118 93 118 90 118 C87.80078125 116.27734375 87.80078125 116.27734375 85.3125 113.9375 C84.42046875 113.10992188 83.5284375 112.28234375 82.609375 111.4296875 C81.74828125 110.62789062 80.8871875 109.82609375 80 109 C78.69312499 107.84775524 77.3811086 106.70129833 76.0625 105.5625 C71.86835635 101.91062947 67.76905708 98.15733816 63.66015625 94.41015625 C60.80972966 91.82761116 57.92174108 89.29344897 55.01953125 86.76953125 C50.10263444 82.46130252 45.27360968 78.05313844 40.421875 73.671875 C36.63525041 70.25694362 32.84416383 66.85013474 29 63.5 C23.37286188 58.59602822 17.8454703 53.5803901 12.31640625 48.56640625 C11.44886719 47.78136719 10.58132813 46.99632812 9.6875 46.1875 C8.90761719 45.47980469 8.12773438 44.77210938 7.32421875 44.04296875 C5.05845723 41.93082308 5.05845723 41.93082308 2.38525391 40.41625977 C-0.46236994 37.53161972 -0.56845599 35.7270545 -0.56648254 31.75311279 C-0.54067612 30.94255432 -0.51486969 30.13199585 -0.48828125 29.296875 C-0.48120651 28.45908508 -0.47413177 27.62129517 -0.46684265 26.75811768 C-0.43890066 24.08782853 -0.37616613 21.41965292 -0.3125 18.75 C-0.28741671 16.93753033 -0.26460359 15.12502772 -0.24414062 13.3125 C-0.18907504 8.87418829 -0.10280667 4.43745219 0 0 Z " fill="#FDFDFD" transform="translate(618,442)"/>
<path d="M0 0 C7.99664939 4.91622803 13.98624798 11.11736018 16.578125 20.2421875 C18.21565783 27.83438517 16.40221852 34.3957916 13.0078125 41.234375 C8.14405055 48.28859633 2.28162548 52.84595396 -5.9921875 55.234375 C-15.89701562 56.42848499 -23.1545051 54.75857886 -31.0234375 48.66015625 C-37.2366098 43.01301447 -40.57597355 35.43704939 -41.2421875 27.109375 C-40.57338165 16.74288428 -36.79813314 10.13235927 -28.9921875 3.234375 C-20.59728079 -2.26073665 -9.41886312 -4.17740373 0 0 Z " fill="#767676" transform="translate(511.9921875,391.765625)"/>
</svg>
