<?xml version="1.0" encoding="UTF-8"?>
<svg version="1.1" xmlns="http://www.w3.org/2000/svg" width="1000" height="1000">
<path d="M0 0 C1.53599854 0.06960937 1.53599854 0.06960937 3.10302734 0.140625 C71.36732438 3.49055286 137.41924896 22.91897629 194 62 C194.66064453 62.45503906 195.32128906 62.91007812 196.00195312 63.37890625 C200.05209723 66.18510744 204.04472583 69.06179633 208 72 C208.55768066 72.4134668 209.11536133 72.82693359 209.68994141 73.25292969 C216.218248 78.1187715 222.5042565 83.1664131 228.48828125 88.69921875 C230.48927826 90.53216935 232.51832804 92.30146829 234.578125 94.06640625 C239.56596902 98.42065141 244.25645124 103.07038503 248.93579102 107.75048828 C250.42641615 109.23893237 251.92487017 110.71917277 253.42382812 112.19921875 C259.73344544 118.47208683 265.46782637 125.01986354 271 132 C272.00029127 133.20872989 273.00371163 134.41488462 274.01171875 135.6171875 C282.48657734 145.87320807 289.82563769 156.80663473 297 168 C297.41846191 168.6487207 297.83692383 169.29744141 298.26806641 169.96582031 C323.72073214 209.75009108 339.53351355 254.43611985 347.75 300.75 C348.04825684 302.41554932 348.04825684 302.41554932 348.35253906 304.11474609 C351.49511797 322.71417751 352.37938383 341.22764699 352.3125 360.0625 C352.30976578 361.66983002 352.30976578 361.66983002 352.30697632 363.30963135 C352.25917919 380.04672314 351.66507066 396.44511716 349 413 C348.82307617 414.11874512 348.64615234 415.23749023 348.46386719 416.39013672 C333.65987075 507.52803879 286.07747739 577.15294491 222.15479088 640.96127474 C219.08296101 644.02873349 216.01407598 647.09913622 212.94480896 650.16915894 C207.64337237 655.47111659 202.34012694 660.77125918 197.03560257 666.07012749 C189.36641678 673.73114123 181.70003651 681.39495752 174.03430979 689.05943228 C161.59319135 701.49836911 149.14984746 713.93507719 136.70507812 726.37036133 C124.62544703 738.44079517 112.54688027 750.51229245 100.46972656 762.58520508 C99.7236688 763.33100012 98.97761104 764.07679515 98.20894547 764.84519004 C94.46571521 768.58711514 90.72250568 772.32906099 86.97930646 776.07101715 C55.98941801 807.05056075 24.99590682 838.02647802 -6 869 C-9.52863523 867.49259406 -11.79946304 865.45018056 -14.50191975 862.74696922 C-15.85546479 861.40032238 -15.85546479 861.40032238 -17.23635417 860.02647054 C-18.23385715 859.02395238 -19.23126637 858.02134091 -20.22859192 857.01864624 C-21.29082874 855.95799732 -22.35350305 854.89778641 -23.41657752 853.83797705 C-26.34015011 850.92082834 -29.25743285 847.9974589 -32.17374051 845.07304978 C-35.31883872 841.92138194 -38.46968765 838.77547263 -41.61982727 835.62884521 C-47.79273017 829.46098903 -53.96026987 823.28779639 -60.12602571 817.11279647 C-67.30720507 809.92123793 -74.49360376 802.73490452 -81.68021747 795.5487773 C-94.50650514 782.72299055 -107.32795195 769.89237539 -120.14672852 757.05908203 C-132.58158684 744.61014899 -145.01992873 732.16471047 -157.4621582 719.72314453 C-158.22779435 718.95754834 -158.99343049 718.19195216 -159.78226773 717.40315609 C-160.54658569 716.63887848 -161.31090366 715.87460087 -162.09838277 715.08716333 C-176.2626693 700.92356733 -190.42366003 686.75668018 -204.58312688 672.58826601 C-209.58853432 667.57984542 -214.59491489 662.5723988 -219.60160255 657.56525803 C-225.70823378 651.45794344 -231.81296203 645.34873372 -237.91534928 639.23717849 C-241.02784484 636.12007665 -244.14110776 633.00375218 -247.25653839 629.88958359 C-250.11164317 627.03557927 -252.96440826 624.17925733 -255.81536444 621.32110901 C-256.84410914 620.29056122 -257.87368124 619.26083852 -258.90418801 618.23205273 C-264.48757054 612.65695881 -269.88220999 607.00526892 -275 601 C-275.948172 599.92760616 -276.89831886 598.85695073 -277.8515625 597.7890625 C-289.84552591 584.17666232 -300.22699901 569.26796175 -310 554 C-310.35980957 553.43877441 -310.71961914 552.87754883 -311.09033203 552.29931641 C-322.54833444 534.24158828 -332.28649024 514.93714922 -340 495 C-340.32274902 494.18096191 -340.64549805 493.36192383 -340.97802734 492.51806641 C-357.41563265 450.52330761 -365.22315871 405.98691992 -365.25 361 C-365.25067474 359.98077454 -365.25134949 358.96154907 -365.25204468 357.91143799 C-365.23442248 341.09524976 -364.50429484 324.65503957 -362 308 C-361.83371094 306.8661084 -361.66742188 305.7322168 -361.49609375 304.56396484 C-356.12248133 269.00358709 -345.61979651 234.40056893 -330 202 C-329.61376465 201.18660156 -329.2275293 200.37320313 -328.82958984 199.53515625 C-315.08852908 170.69186537 -297.38496331 144.56883975 -276.36816406 120.56347656 C-275.18499264 119.2114013 -274.00972118 117.85242057 -272.8359375 116.4921875 C-262.19582992 104.37314605 -250.7345943 92.9024839 -238 83 C-236.3110779 81.58502904 -234.62363449 80.16829164 -232.9375 78.75 C-205.25661884 56.19810814 -173.39358119 37.70846163 -140 25 C-139.07364746 24.64244629 -138.14729492 24.28489258 -137.19287109 23.91650391 C-94.04018225 7.38320329 -46.38103263 -2.13114899 0 0 Z " fill="#A63114" transform="translate(506,83)"/>
<path d="M0 0 C3.01620022 0.01142908 6.03189958 -0.00831336 9.04803568 -0.02754956 C16.17973404 -0.07239679 23.31009683 -0.06618119 30.44178987 -0.02645612 C37.73792043 0.01335133 45.03009643 -0.03047396 52.32574028 -0.11647195 C58.64424374 -0.18808078 64.96152705 -0.20789037 71.28040224 -0.18780404 C75.0304032 -0.17627601 78.77793903 -0.18227266 82.52759576 -0.23809361 C100.6593465 -0.48174401 113.99494799 1.30442415 128.69139791 12.72020221 C132.76906701 15.76002096 137.14637548 18.32280175 141.50111604 20.94204974 C143.25502229 22.02798724 145.00892854 23.11392474 146.76283479 24.19986224 C150.22290086 26.3418998 153.68389983 28.48241812 157.14564729 30.62173724 C162.43377557 33.89038937 167.71804002 37.16523949 173.00111604 40.44204974 C174.59778108 41.43132464 174.59778108 41.43132464 176.22670197 42.4405849 C179.549193 44.50060658 182.86918599 46.56460013 186.18861604 48.62954974 C187.23509309 49.27778705 188.28157014 49.92602435 189.35975862 50.59390521 C190.81225007 51.49906878 190.81225007 51.49906878 192.29408479 52.42251849 C193.15542024 52.95772113 194.01675569 53.49292377 194.90419221 54.04434466 C197.00111604 55.44204974 197.00111604 55.44204974 199.00111604 57.44204974 C199.08748067 60.0390492 199.05108053 62.5215114 198.92323518 65.11026263 C198.86078673 66.75337737 198.79940079 68.39653275 198.73892426 70.03972125 C198.70418063 70.91443135 198.669437 71.78914145 198.63364053 72.69035792 C198.43247336 78.31898357 198.35799318 83.95101307 198.26122594 89.58222556 C198.16919476 94.51967193 198.03316789 99.44792966 197.7977469 104.38077044 C195.76839123 125.60981036 195.76839123 125.60981036 202.41566682 144.87106586 C207.9172594 150.53199503 214.83886264 153.95624659 222.01202607 157.07570148 C226.17045283 158.97656738 229.71747924 161.4799116 233.37611604 164.19204974 C234.6140741 165.05174924 235.85459921 165.90777582 237.09877229 166.75845599 C237.72026155 167.18658587 238.3417508 167.61471576 238.98207307 168.05581927 C241.25423627 169.61583652 243.53157844 171.16810523 245.80970979 172.71939349 C269.2398276 188.6807613 269.2398276 188.6807613 272.00111604 191.44204974 C272.0974968 192.79732709 272.12483549 194.15759241 272.12416387 195.51629233 C272.12615491 196.39958246 272.12814596 197.28287259 272.13019735 198.19292909 C272.1272845 199.17442617 272.12437166 200.15592324 272.12137055 201.16716266 C272.12265219 202.71815241 272.12265219 202.71815241 272.12395972 204.3004753 C272.12561762 207.79372888 272.1200881 211.2869353 272.11464143 214.78018451 C272.1143596 217.27291114 272.11451721 219.76563786 272.11508393 222.25836444 C272.11531226 227.63969865 272.11246081 233.02101795 272.10684609 238.40234828 C272.09873334 246.18293272 272.09611611 253.96351128 272.0948581 261.74409949 C272.09266723 274.36631995 272.08600619 286.98853396 272.07655549 299.61075091 C272.06738229 311.8750735 272.06030101 324.13939434 272.05604768 336.40371966 C272.05565359 337.5368904 272.05565359 337.5368904 272.05525155 338.69295347 C272.05394655 342.48265286 272.05268283 346.27235225 272.05143964 350.06205165 C272.04106593 381.52205571 272.02337254 412.98205175 272.00111604 444.44204974 C272.79625108 444.43538791 273.59138612 444.42872607 274.41061616 444.42186236 C281.90018063 444.36177733 289.38962842 444.31608879 296.87937093 444.28661323 C300.73003434 444.27095014 304.58049879 444.24970051 308.43104768 444.21573138 C312.14633033 444.18316028 315.86142147 444.16520157 319.57683587 444.15741801 C320.99505019 444.1518704 322.41325391 444.1410373 323.8313868 444.12485957 C325.81600071 444.10311784 327.8008069 444.10182462 329.78553987 444.10147357 C330.91583116 444.09481174 332.04612245 444.0881499 333.21066499 444.08128619 C336.00111604 444.44204974 336.00111604 444.44204974 337.9013083 445.8031795 C339.00111604 447.44204974 339.00111604 447.44204974 338.81361604 450.00454974 C338.00111604 452.44204974 338.00111604 452.44204974 336.00111604 454.44204974 C332.96630068 454.64065027 330.02258328 454.71143087 326.98643804 454.69652534 C325.56102567 454.70133505 325.56102567 454.70133505 324.1068171 454.70624194 C320.88618545 454.71461861 317.66573609 454.70859104 314.44510102 454.70274615 C312.12737393 454.70576335 309.80964783 454.70965064 307.49192351 454.71433872 C301.7667951 454.72359616 296.04171947 454.72345554 290.31658622 454.7194271 C283.46254681 454.71511449 276.60853218 454.72234588 269.75449734 454.72991838 C255.54228237 454.74518773 241.33008517 454.74686044 227.11786372 454.74439535 C216.14587005 454.74256521 205.17388222 454.74431642 194.20188928 454.74861979 C192.62752981 454.74922219 191.05317035 454.74982338 189.47881089 454.7504234 C187.10662409 454.75133062 184.7344373 454.75223928 182.3622505 454.75315575 C160.29656244 454.76158974 138.23087657 454.76591789 116.16518712 454.76174903 C115.33272734 454.76159265 114.50026756 454.76143628 113.64258173 454.76127516 C109.42300657 454.76046934 105.20343142 454.75962357 100.98385627 454.75876186 C100.14578245 454.75859077 99.30770863 454.75841968 98.44423863 454.75824341 C96.74944847 454.75789676 95.0546583 454.75754823 93.35986814 454.75719783 C66.98319081 454.75183945 40.6065469 454.75977253 14.2298758 454.77823138 C-15.3805666 454.79892884 -44.9909883 454.80967842 -74.60143834 454.8056559 C-77.75623937 454.80526053 -80.9110404 454.80489898 -84.06584144 454.80455852 C-85.23109439 454.80442242 -85.23109439 454.80442242 -86.4198878 454.80428357 C-98.16750578 454.80311564 -109.91510291 454.80978071 -121.66271567 454.82037044 C-135.01676855 454.83239572 -148.37077537 454.83401234 -161.72482889 454.82158027 C-168.5443162 454.81551642 -175.36372127 454.81427774 -182.18320251 454.82658267 C-188.41741258 454.83734983 -194.65145623 454.83444856 -200.88565821 454.82032099 C-203.14943216 454.81764856 -205.41321876 454.82011922 -207.67698037 454.82805685 C-210.73764722 454.83804968 -213.79772273 454.82983865 -216.85836482 454.81677985 C-217.75155422 454.8240892 -218.64474362 454.83139854 -219.56499937 454.83892938 C-225.55559771 454.78539742 -225.55559771 454.78539742 -227.75896863 453.07877494 C-228.99888396 451.44204974 -228.99888396 451.44204974 -228.81138396 448.87954974 C-227.99888396 446.44204974 -227.99888396 446.44204974 -225.99888396 444.44204974 C-223.67036223 444.20154071 -223.67036223 444.20154071 -220.72300506 444.21499896 C-219.07151961 444.21522555 -219.07151961 444.21522555 -217.38667083 444.21545672 C-216.19393554 444.22577929 -215.00120025 444.23610187 -213.77232146 444.24673724 C-212.55436889 444.24956714 -211.33641631 444.25239703 -210.08155608 444.25531268 C-206.17890013 444.26653718 -202.27647093 444.29164602 -198.37388396 444.31704974 C-195.73326227 444.3270766 -193.09263699 444.33620296 -190.45200896 444.34439349 C-183.96755616 444.36648393 -177.48323626 444.39998382 -170.99888396 444.44204974 C-171.00349293 443.89428756 -171.00810189 443.34652537 -171.01285052 442.78216434 C-171.12327483 429.45356785 -171.20569433 416.1250515 -171.25794482 402.79609561 C-171.28406089 396.35027047 -171.31949674 389.90477498 -171.37608123 383.45913959 C-171.43032761 377.24107116 -171.46028935 371.0233202 -171.47327018 364.80503345 C-171.48252319 362.43028267 -171.50059181 360.05554967 -171.52753425 357.68093371 C-171.5637251 354.35971004 -171.56883329 351.03980541 -171.56651092 347.71841693 C-171.59347548 346.23919505 -171.59347548 346.23919505 -171.62098479 344.7300899 C-171.5703464 338.05661741 -171.5703464 338.05661741 -168.65513396 334.92151141 C-167.77857146 334.43328906 -166.90200896 333.94506671 -165.99888396 333.44204974 C-164.48040862 332.47791156 -164.48040862 332.47791156 -162.93125701 331.49429584 C-161.80244109 330.824789 -160.67362517 330.15528216 -159.51060271 329.46548724 C-158.89427474 329.09814471 -158.27794677 328.73080218 -157.64294219 328.35232806 C-155.65934635 327.17063394 -153.67289878 325.99382887 -151.68638396 324.81704974 C-148.97539767 323.20472803 -146.26610342 321.58958353 -143.55747771 319.97329974 C-142.8974475 319.57972278 -142.23741729 319.18614581 -141.55738616 318.78064227 C-135.75627877 315.31373519 -130.01732918 311.75281684 -124.34141326 308.08413959 C-120.20625199 305.44204974 -120.20625199 305.44204974 -117.99888396 305.44204974 C-118.0071801 304.17037668 -118.01547624 302.89870362 -118.02402377 301.58849502 C-118.21896306 271.39853414 -118.36735721 241.2087432 -118.45847193 211.01830402 C-118.46972823 207.30204823 -118.48137713 203.58579378 -118.49326873 199.86953998 C-118.49562952 199.12970369 -118.49799032 198.3898674 -118.50042265 197.62761182 C-118.53958009 185.64966072 -118.61053823 173.67209854 -118.69325913 161.69437813 C-118.77743642 149.40322372 -118.82741564 137.11227292 -118.84568042 124.82084209 C-118.85802728 117.23668072 -118.89701333 109.65361862 -118.97013216 102.06979568 C-119.02335158 96.25348137 -119.02897761 90.43787069 -119.01685309 84.62136149 C-119.01933094 82.23603555 -119.03725905 79.85066834 -119.07173324 77.46559024 C-119.11650606 74.20848441 -119.10576218 70.95608456 -119.08117461 67.69887042 C-119.10739018 66.75430513 -119.13360576 65.80973985 -119.16061574 64.83655137 C-119.07760335 60.77002339 -118.88012274 58.39711009 -116.05855143 55.33917511 C-113.77584909 53.53366002 -111.48283227 51.95593994 -108.99888396 50.44204974 C-108.30500612 50.0042204 -107.61112828 49.56639106 -106.89622384 49.11529416 C-105.03920789 47.96590656 -103.15214623 46.88797133 -101.24888396 45.81704974 C-94.78230398 42.09240349 -88.39731593 38.25992904 -82.06138396 34.31704974 C-80.2879537 33.21417352 -78.51451598 32.11130929 -76.74107146 31.00845599 C-75.35806853 30.14824847 -75.35806853 30.14824847 -73.94712615 29.27066302 C-67.50576615 25.27548362 -61.04302449 21.31485258 -54.58311248 17.34976459 C-53.56918426 16.726664 -52.55525603 16.10356341 -51.51060271 15.46158099 C-50.00360053 14.56801898 -50.00360053 14.56801898 -48.46615386 13.65640521 C-46.08235605 12.19660464 -44.13766711 10.72493713 -41.9609201 8.91241717 C-29.55285702 -1.04079607 -15.12814655 -0.08636918 0 0 Z " fill="#060302" transform="translate(444.9988839626312,178.557950258255)"/>
<path d="M0 0 C1.95193304 1.02255701 3.86079947 2.12915726 5.734375 3.2890625 C6.85263672 3.97548828 7.97089844 4.66191406 9.12304688 5.36914062 C10.33204464 6.12107222 11.54102866 6.87302593 12.75 7.625 C14.0105351 8.40125617 15.271611 9.17663479 16.53320312 9.95117188 C18.46928229 11.13992448 20.4050246 12.32918708 22.33911133 13.5211792 C28.36195937 17.23247871 34.42639602 20.87242251 40.5 24.5 C71.23186872 42.8993627 71.23186872 42.8993627 75.14030457 45.54748535 C78.97414628 48.0733231 82.52227597 49.50908505 86.93676758 50.80273438 C93.8879115 53.23992318 100.5056785 56.13528744 104 63 C108.49506265 78.23402457 106.2477669 96.06811555 105.57928467 111.70819092 C105.30099848 118.9051774 105.19674493 126.10659216 105.06285858 133.30743408 C104.84079785 144.21404503 104.40020667 155.09195151 104 166 C78.26 166 52.52 166 26 166 C25.75 138.6875 25.75 138.6875 25.70214844 130.1315918 C25.67274984 127.86244717 25.64191895 125.59332045 25.609375 123.32421875 C25.60768311 121.59492126 25.60768311 121.59492126 25.60595703 119.83068848 C25.42368965 109.38698958 23.28912295 100.38812931 15.9375 92.65625 C9.03030453 86.75171194 1.50778892 85.57272898 -7.3515625 85.6640625 C-15.69607735 86.43240113 -21.2100388 90.49729372 -26.52734375 96.7421875 C-31.46305778 104.30940954 -31.46767402 110.92264032 -31.51171875 119.80859375 C-31.52835571 120.98103638 -31.54499268 122.153479 -31.56213379 123.3614502 C-31.61974756 127.71995301 -31.65213938 132.07875984 -31.6875 136.4375 C-31.790625 146.193125 -31.89375 155.94875 -32 166 C-58.07 166 -84.14 166 -111 166 C-112.2834819 141.05677713 -112.2834819 141.05677713 -112.5625 130.31445312 C-112.75299712 123.01517728 -112.97653379 115.72888615 -113.4140625 108.43969727 C-115.78577259 67.88881061 -115.78577259 67.88881061 -107.93209839 58.96966553 C-100.80846452 52.33359192 -91.90344426 48.69821674 -82.85095215 45.47720337 C-77.44793202 43.51129723 -72.80969008 40.44727271 -68.0625 37.25 C-66.41241299 36.21306511 -64.75918948 35.18108848 -63.1015625 34.15625 C-62.27817383 33.64449219 -61.45478516 33.13273437 -60.60644531 32.60546875 C-54.71743715 28.97806919 -48.774783 25.43858814 -42.83129883 21.90136719 C-37.62625281 18.79850577 -32.44320358 15.66746708 -27.30738831 12.45147705 C-24.74917249 10.84991416 -22.18467479 9.25854554 -19.62014771 7.66711426 C-18.38136608 6.8940204 -17.14584649 6.11567286 -15.91378784 5.33190918 C-14.1956013 4.2393837 -12.46520873 3.16612657 -10.734375 2.09375 C-9.74663086 1.47177734 -8.75888672 0.84980469 -7.74121094 0.20898438 C-4.4774429 -1.23046872 -3.32374541 -1.19512018 0 0 Z " fill="#D8D8D8" transform="translate(543,457)"/>
<path d="M0 0 C54.12 0 108.24 0 164 0 C164 81.18 164 162.36 164 246 C147.5 246 131 246 114 246 C114.04382813 238.35714844 114.08765625 230.71429687 114.1328125 222.83984375 C114.13830405 217.9953075 114.14085457 213.15112711 114.1328125 208.30664062 C114.12032991 200.61847164 114.1186826 192.93137776 114.18164062 185.2434082 C114.23172502 179.04427179 114.23314618 172.84685151 114.20095444 166.64761543 C114.19720577 164.28373075 114.21093594 161.9197511 114.24249649 159.55607414 C114.97147378 147.2175911 114.97147378 147.2175911 110.90115356 136.08435059 C108.3146373 134.23331405 105.97649764 133.09099789 103 132 C101.43113037 131.01314209 101.43113037 131.01314209 99.83056641 130.00634766 C98.47970947 129.2181665 98.47970947 129.2181665 97.1015625 128.4140625 C96.06008057 127.80248291 95.01859863 127.19090332 93.94555664 126.56079102 C92.84977295 125.92197998 91.75398926 125.28316895 90.625 124.625 C88.21850621 123.21225689 85.81420328 121.79580814 83.41015625 120.37890625 C82.79718185 120.01798386 82.18420746 119.65706146 81.55265808 119.28520203 C75.02158956 115.43410652 68.5386887 111.50497871 62.0625 107.5625 C61.4875177 107.21267059 60.9125354 106.86284119 60.32012939 106.50241089 C57.39660457 104.72357332 54.47370722 102.94370892 51.55126953 101.16308594 C46.11963509 97.85397173 40.68414488 94.55120596 35.24801636 91.2494812 C33.59477694 90.24508031 31.94202683 89.23987416 30.28930664 88.23461914 C20.21726855 82.11475369 10.10662018 76.06397211 0 70 C0 46.9 0 23.8 0 0 Z " fill="#A63114" transform="translate(543,377)"/>
<path d="M0 0 C40.92 0 81.84 0 124 0 C124.309375 12.478125 124.61875 24.95625 124.9375 37.8125 C125.07406006 41.73229736 125.21062012 45.65209473 125.35131836 49.69067383 C125.41906738 54.52868652 125.41906738 54.52868652 125.43165588 56.80351257 C125.45448984 58.37118154 125.50684633 59.93860864 125.58363342 61.50456238 C126.17975062 74.31744381 126.17975062 74.31744381 122.57295609 78.75622177 C119.05432884 82.01682567 115.13443218 84.50341263 110.97279549 86.8605566 C107.78573581 88.70133236 104.7877333 90.7986851 101.75 92.875 C100.50137698 93.70130327 99.25171094 94.52603816 98 95.34765625 C91.1084521 99.89780075 84.32251407 104.60514675 77.51416016 109.27832031 C74.89208372 111.07390033 72.26501532 112.86197628 69.63671875 114.6484375 C68.7662793 115.24100342 67.89583984 115.83356934 66.99902344 116.4440918 C65.32240623 117.58522061 63.64471233 118.72476948 61.96582031 119.86254883 C60.83611816 120.63248169 60.83611816 120.63248169 59.68359375 121.41796875 C59.01900146 121.86938232 58.35440918 122.3207959 57.66967773 122.78588867 C55.8620324 124.03394102 55.8620324 124.03394102 54 126 C53.85579667 129.1713479 53.85579667 129.1713479 54.10961914 132.94970703 C54.17872796 134.4342832 54.24662752 135.91891602 54.31349182 137.40359497 C54.35147951 138.19351963 54.3894672 138.98344429 54.42860603 139.79730606 C54.64884668 144.88320395 54.73529617 149.97348247 54.84351444 155.06277657 C54.94594732 159.52527256 55.09591854 163.97573929 55.35424805 168.43212891 C56.92349467 196.45474845 56.92349467 196.45474845 51.83961105 203.64002991 C45.78999783 210.12172355 37.30106265 213.48622542 29.21316528 216.68206787 C25.20565547 218.32581336 21.74672487 220.41015828 18.18359375 222.84375 C17.19681641 223.46894531 16.21003906 224.09414063 15.19335938 224.73828125 C13.25843088 225.97520932 11.32353818 227.2121934 9.38867188 228.44921875 C8.43412109 229.05378906 7.47957031 229.65835938 6.49609375 230.28125 C5.67294678 230.80783203 4.8497998 231.33441406 4.00170898 231.87695312 C2 233 2 233 0 233 C0 156.11 0 79.22 0 0 Z " fill="#A63114" transform="translate(337,244)"/>
<path d="M0 0 C45.54 0 91.08 0 138 0 C138 33 138 66 138 100 C92.46 100 46.92 100 0 100 C0 67 0 34 0 0 Z " fill="#A63114" transform="translate(284,523)"/>
<path d="M0 0 C7.61779463 4.04013198 14.96935278 8.38330123 22.25 13 C30.35818273 18.10545639 38.49394216 23.15765993 46.6875 28.125 C54.369939 32.78713996 62.0405789 37.46727686 69.6875 42.1875 C70.56688232 42.72842285 71.44626465 43.2693457 72.35229492 43.82666016 C73.16802979 44.33116699 73.98376465 44.83567383 74.82421875 45.35546875 C75.53666748 45.79528076 76.24911621 46.23509277 76.9831543 46.68823242 C77.64871338 47.12111572 78.31427246 47.55399902 79 48 C80.0383474 48.55386887 80.0383474 48.55386887 81.09767151 49.118927 C83.44533872 51.44036277 83.47047104 53.0333478 83.49768066 56.25978088 C83.47610901 57.32361244 83.47610901 57.32361244 83.45410156 58.40893555 C83.45468567 59.16039856 83.45526978 59.91186157 83.45587158 60.68609619 C83.45308467 63.17010688 83.42196578 65.65291771 83.390625 68.13671875 C83.38316473 69.85878341 83.37747079 71.58085656 83.37347412 73.30293274 C83.35820086 77.83561641 83.31890475 82.36778744 83.2746582 86.90026855 C83.22654812 92.3383754 83.20817952 97.77665366 83.18484497 103.21491241 C83.14605442 111.47696482 83.06941327 119.73789242 83 128 C65.84 128 48.68 128 31 128 C30.75 110.5625 30.75 110.5625 30.70214844 105.11547852 C30.51076897 93.57491788 29.0075109 85.45747947 20.9375 76.7265625 C14.16138301 70.68816792 6.45389238 69.57328461 -2.3515625 69.6640625 C-9.64383853 70.33551404 -14.85699625 73.4573185 -19.875 78.6875 C-27.60460469 88.79234143 -27.63894851 98.9150023 -27.75 111.125 C-27.8325 116.69375 -27.915 122.2625 -28 128 C-45.49 128 -62.98 128 -81 128 C-82.04282904 109.17559882 -82.04282904 109.17559882 -82.26953125 101.0546875 C-82.4242039 95.540463 -82.60545228 90.03760464 -82.96142578 84.53222656 C-84.82170835 54.99127377 -84.82170835 54.99127377 -78.5736084 46.83105469 C-72.52780744 41.58560937 -65.88361322 38.46667535 -58.45903015 35.50021362 C-52.58667605 32.9533189 -47.37278351 29.46053544 -42 26 C-39.86596355 24.68054768 -37.72955266 23.36492097 -35.58984375 22.0546875 C-34.5210498 21.39694336 -33.45225586 20.73919922 -32.35107422 20.06152344 C-29.4128296 18.2539657 -26.47410274 16.44719726 -23.5350647 14.64093018 C-21.12468367 13.15950321 -18.71455361 11.67766821 -16.30444336 10.19580078 C-14.59838971 9.14706199 -12.89197217 8.09891523 -11.18554688 7.05078125 C-10.15623047 6.41785156 -9.12691406 5.78492188 -8.06640625 5.1328125 C-7.15834229 4.57480957 -6.25027832 4.01680664 -5.31469727 3.44189453 C-3.52322613 2.32593329 -1.75614624 1.17076416 0 0 Z " fill="#FDFDFD" transform="translate(552,190)"/>
<path d="M0 0 C2.16633865 0.91633391 3.94189614 1.98017518 5.87133789 3.32714844 C6.99088867 4.10155273 6.99088867 4.10155273 8.13305664 4.89160156 C8.93227539 5.45298828 9.73149414 6.014375 10.55493164 6.59277344 C12.27487555 7.78563776 13.9949307 8.9783417 15.71508789 10.17089844 C16.59310059 10.78255859 17.47111328 11.39421875 18.37573242 12.02441406 C22.39896075 14.82017863 26.44609929 17.58060897 30.49243164 20.34277344 C32.06153328 21.41685893 33.63054321 22.49107842 35.19946289 23.56542969 C38.5060225 25.82817118 41.81644858 28.08512843 45.12915039 30.33886719 C46.39758789 31.20318359 46.39758789 31.20318359 47.69165039 32.08496094 C49.29348369 33.17631989 50.89627374 34.26627658 52.50024414 35.35449219 C53.2337207 35.85464844 53.96719727 36.35480469 54.72290039 36.87011719 C55.35607178 37.3005835 55.98924316 37.7310498 56.64160156 38.17456055 C57.41737549 38.7250708 58.19314941 39.27558105 58.99243164 39.84277344 C59.65888702 40.16034607 60.32534241 40.4779187 61.01199341 40.80511475 C63.61071511 42.25881743 65.17933155 43.46233931 66.99243164 45.84277344 C68.13263914 51.13556726 67.92465715 56.3643268 67.77368164 61.74121094 C67.75874767 63.30202325 67.7473661 64.86287325 67.73937988 66.42373657 C67.70893451 70.51825775 67.63044444 74.61048324 67.54174805 78.70410156 C67.44524372 83.62295589 67.40874094 88.54258099 67.36212158 93.46211243 C67.28472103 100.92392593 67.13140437 108.38070993 66.99243164 115.84277344 C53.13243164 115.84277344 39.27243164 115.84277344 24.99243164 115.84277344 C24.61743164 102.40527344 24.61743164 102.40527344 24.5144043 98.22387695 C24.05894712 83.47332385 24.05894712 83.47332385 16.42211914 71.24902344 C9.514524 64.92996779 3.58807862 63.17997719 -5.72241211 63.43652344 C-13.79505613 64.43480522 -19.30678856 68.46275937 -24.53491211 74.48730469 C-29.78938443 82.89167289 -29.54002896 91.21728546 -29.69506836 100.84277344 C-29.79819336 105.79277344 -29.90131836 110.74277344 -30.00756836 115.84277344 C-42.54756836 115.84277344 -55.08756836 115.84277344 -68.00756836 115.84277344 C-68.6092005 98.81435561 -68.6092005 98.81435561 -68.73999023 91.49707031 C-68.8293365 86.52218617 -68.93441128 81.55148099 -69.13916016 76.57983398 C-70.30728186 47.47070038 -70.30728186 47.47070038 -64.81054688 41.29833984 C-61.76712635 38.75156469 -58.56224771 37.05807675 -54.87722778 35.62153625 C-52.00560716 34.42542998 -49.59237911 32.64237627 -47.07006836 30.84277344 C-46.10327148 30.20726562 -45.13647461 29.57175781 -44.14038086 28.91699219 C-40.54626343 26.53734586 -36.99344641 24.1023707 -33.44506836 21.65527344 C-28.93659669 18.54636279 -24.42520434 15.44209514 -19.90209961 12.35449219 C-18.61831421 11.47796997 -18.61831421 11.47796997 -17.30859375 10.58374023 C-15.6402838 9.44518935 -13.97151965 8.30730365 -12.30224609 7.17016602 C-11.53984619 6.64962646 -10.77744629 6.12908691 -9.99194336 5.59277344 C-9.31873047 5.13386719 -8.64551758 4.67496094 -7.9519043 4.20214844 C-5.94473041 2.84915452 -5.94473041 2.84915452 -4.00854492 1.10839844 C-2.00756836 -0.15722656 -2.00756836 -0.15722656 0 0 Z " fill="#D7D7D7" transform="translate(467.007568359375,329.1572265625)"/>
<path d="M0 0 C3.67016048 3.05846707 6.07108946 6.81092462 7.5703125 11.30859375 C7.65871338 13.16454103 7.68793954 15.02354492 7.68383789 16.8815918 C7.68376236 18.02254807 7.68368683 19.16350433 7.68360901 20.33903503 C7.67844772 21.5703566 7.67328644 22.80167816 7.66796875 24.0703125 C7.6665538 25.33124222 7.66513885 26.59217194 7.66368103 27.89131165 C7.65902825 31.24011084 7.65004592 34.58884186 7.63897705 37.93762207 C7.62873937 41.35619508 7.62412355 44.77477534 7.61914062 48.19335938 C7.60895357 54.89847591 7.58937919 61.60347301 7.5703125 68.30859375 C-5.2996875 68.30859375 -18.1696875 68.30859375 -31.4296875 68.30859375 C-31.51377559 61.02095951 -31.59388614 53.73510136 -31.63668823 46.44740295 C-31.65773464 43.05310117 -31.685817 39.65920463 -31.73144531 36.26513672 C-31.78013443 32.36284729 -31.80269679 28.46113223 -31.8203125 24.55859375 C-31.84095764 23.35307861 -31.86160278 22.14756348 -31.88287354 20.90551758 C-31.88487317 13.35650153 -31.28805187 7.66358275 -26.0881958 1.79443359 C-18.68418906 -5.0550637 -8.30847929 -5.27491825 0 0 Z " fill="#D6D6D6" transform="translate(551.4296875,554.69140625)"/>
<path d="M0 0 C1.45699288 0.02512057 2.91402759 0.0479271 4.37109375 0.06835938 C7.91494197 0.12304363 11.45719932 0.20910469 15 0.3125 C11.65678714 3.78822928 8.1767302 6.1418846 4 8.5 C-4.00814657 13.11510621 -11.91986952 17.87877741 -19.8125 22.6875 C-22.25230768 24.17236262 -24.69249784 25.65659575 -27.1328125 27.140625 C-28.02304359 27.68208412 -28.02304359 27.68208412 -28.93125916 28.23448181 C-32.40524767 30.34639871 -35.88323202 32.45144285 -39.3671875 34.546875 C-40.17414063 35.03269043 -40.98109375 35.51850586 -41.8125 36.01904297 C-43.39568554 36.96459272 -44.98427785 37.9011479 -46.578125 38.82861328 C-51.11707922 41.48643538 -55.42833688 44.30436173 -59.6953125 47.3828125 C-76.71055616 59.22972056 -89.93507172 60.26278463 -110 58.3125 C-106.97662088 55.01662163 -103.87569456 52.88214676 -100.00390625 50.66015625 C-99.42343536 50.3241188 -98.84296448 49.98808136 -98.24490356 49.64186096 C-97.00097738 48.92224269 -95.75550566 48.20529055 -94.50863647 47.49078369 C-91.19299112 45.58981576 -87.88971362 43.66759307 -84.5859375 41.74609375 C-83.92669785 41.36316162 -83.26745819 40.98022949 -82.58824158 40.58569336 C-77.22780325 37.46424836 -71.9417454 34.23467032 -66.6875 30.9375 C-56.23754355 24.39067948 -45.62951048 18.11674735 -35.01245117 11.84619141 C-34.34941483 11.45366684 -33.68637848 11.06114227 -33.00325012 10.65672302 C-31.70698244 9.89182126 -30.40817132 9.13121187 -29.10673523 8.37513733 C-25.91404591 6.50962582 -22.97145839 4.52765107 -20.05078125 2.26953125 C-14.30923539 -1.36187382 -6.53940313 -0.19661242 0 0 Z " fill="#A43114" transform="translate(457,454.6875)"/>
<path d="M0 0 C1.41338621 0.0200917 2.82679993 0.03833777 4.24023438 0.0546875 C7.68156683 0.09848183 11.12185575 0.16736097 14.5625 0.25 C11.58138974 3.48998912 8.55531913 5.61162739 4.7421875 7.796875 C3.89198784 8.28862717 3.89198784 8.28862717 3.02461243 8.79031372 C1.80347806 9.49621204 0.58081415 10.1994698 -0.64321899 10.90032959 C-3.9437596 12.7914059 -7.23157288 14.70434293 -10.51953125 16.6171875 C-11.18999985 17.00685699 -11.86046844 17.39652649 -12.55125427 17.79800415 C-18.84941462 21.46888062 -25.05784112 25.27823033 -31.25 29.125 C-42.78298823 36.28165937 -54.43258609 43.2289463 -66.1184082 50.13232422 C-66.78359467 50.52552856 -67.44878113 50.91873291 -68.13412476 51.32385254 C-69.38305656 52.06179198 -70.63247883 52.79890218 -71.88247681 53.53503418 C-74.44782581 55.04987965 -76.95752916 56.59668611 -79.4375 58.25 C-82.6237793 58.47705078 -82.6237793 58.47705078 -86.51171875 58.4453125 C-87.1955513 58.4424826 -87.87938385 58.43965271 -88.5839386 58.43673706 C-90.76447165 58.42555684 -92.94459145 58.40045691 -95.125 58.375 C-96.60481177 58.36496738 -98.08462999 58.35584202 -99.56445312 58.34765625 C-103.188936 58.32562481 -106.81317766 58.29111002 -110.4375 58.25 C-106.75345551 55.16023982 -102.90134274 52.61130157 -98.7578125 50.1953125 C-98.11731964 49.81743591 -97.47682678 49.43955933 -96.81692505 49.05023193 C-95.44600542 48.24180279 -94.07409946 47.4350443 -92.70129395 46.62982178 C-89.06416704 44.4959341 -85.43485397 42.34882495 -81.8046875 40.203125 C-80.71909546 39.56206314 -80.71909546 39.56206314 -79.61157227 38.90805054 C-73.60848584 35.35998898 -67.63788419 31.76080837 -61.6875 28.125 C-60.79949707 27.58262695 -59.91149414 27.04025391 -58.99658203 26.48144531 C-57.15571935 25.35645539 -55.31506619 24.23112254 -53.47460938 23.10546875 C-48.09242687 19.81731866 -42.70345961 16.54034047 -37.31335449 13.26519775 C-35.48737652 12.15531637 -33.66212487 11.04424786 -31.83691406 9.93310547 C-29.63387344 8.59425674 -27.42495865 7.26500757 -25.20922852 5.94726562 C-22.54664768 4.37731394 -22.54664768 4.37731394 -20.61694336 2.88085938 C-14.72873397 -1.38915146 -6.91164816 -0.17099655 0 0 Z " fill="#A43114" transform="translate(407.4375,454.75)"/>
<path d="M0 0 C45.90160431 -3.1997901 45.90160431 -3.1997901 66.0546875 13.64648438 C70.90504664 17.5222687 76.15114763 20.76405206 81.39031982 24.08377075 C88.37834328 28.53005773 95.37817914 33.01956533 102 38 C102 38.33 102 38.66 102 39 C95.56370419 39.25626175 89.12874837 39.42976874 82.68847656 39.54931641 C80.50405744 39.59921104 78.31996541 39.66715684 76.13671875 39.75439453 C62.25659157 40.29460095 52.9538252 39.93255114 42.51190186 30.33337402 C40.08941211 28.19693581 37.41655397 26.47129444 34.7265625 24.69140625 C33.72423584 24.01207031 32.72190918 23.33273437 31.68920898 22.6328125 C30.67802002 21.94960938 29.66683105 21.26640625 28.625 20.5625 C26.4620963 19.09526327 24.29933608 17.62781503 22.13671875 16.16015625 C19.19374105 14.16487848 16.25061607 12.16981908 13.30712891 10.17529297 C11.01495824 8.62019829 8.72575552 7.06084728 6.4375 5.5 C5.77121582 5.04955322 5.10493164 4.59910645 4.41845703 4.13500977 C2.92765315 3.11582803 1.46048593 2.06217159 0 1 C0 0.67 0 0.34 0 0 Z " fill="#A53114" transform="translate(483,328)"/>
<path d="M0 0 C3.26915975 3.00298599 5.59052015 5.77156044 7 10 C7.08506322 12.73135251 7.11599182 15.43712315 7.09765625 18.16796875 C7.09664917 18.87264282 7.09564209 19.57731689 7.09460449 20.30334473 C7.08937914 22.93141308 7.07541786 25.5594582 7.0625 28.1875 C7.041875 34.065625 7.02125 39.94375 7 46 C-5.87 46 -18.74 46 -32 46 C-32.0825 40.39 -32.165 34.78 -32.25 29 C-32.28641602 27.24558594 -32.32283203 25.49117188 -32.36035156 23.68359375 C-32.3720513 22.26824155 -32.38224007 20.85287572 -32.390625 19.4375 C-32.41108887 18.72271484 -32.43155273 18.00792969 -32.45263672 17.27148438 C-32.45698752 10.88450524 -30.49081874 5.56379195 -26 0.94140625 C-25.34 0.48636719 -24.68 0.03132813 -24 -0.4375 C-23.34 -0.91058594 -22.68 -1.38367188 -22 -1.87109375 C-14.69703117 -5.99327733 -6.79813227 -4.24420599 0 0 Z " fill="#FDFDFD" transform="translate(566,272)"/>
<path d="M0 0 C0.67540329 -0.01095703 1.35080658 -0.02191406 2.04667664 -0.03320312 C8.88820925 -0.11046077 15.72222848 0.13217914 22.5546875 0.47265625 C20.21720393 3.02911563 17.75343816 4.68991513 14.77734375 6.44921875 C13.80345703 7.02865234 12.82957031 7.60808594 11.82617188 8.20507812 C10.76720703 8.82962891 9.70824219 9.45417969 8.6171875 10.09765625 C6.33678844 11.45367689 4.05686248 12.81047099 1.77734375 14.16796875 C1.18595612 14.51954041 0.59456848 14.87111206 -0.01473999 15.2333374 C-5.9308875 18.75306442 -11.81411187 22.3261032 -17.69384766 25.90621948 C-25.22311554 30.49066098 -32.75745609 35.0661924 -40.31640625 39.6015625 C-41.96129028 40.58950806 -41.96129028 40.58950806 -43.6394043 41.59741211 C-45.78023998 42.87643453 -47.92616802 44.14697642 -50.07739258 45.40844727 C-56.18018021 48.97194555 -56.18018021 48.97194555 -61.8359375 53.18359375 C-67.21785669 57.46808249 -72.06967834 58.86204516 -78.890625 58.9453125 C-79.56602829 58.95626953 -80.24143158 58.96722656 -80.93730164 58.97851562 C-87.77883425 59.05577327 -94.61285348 58.81313336 -101.4453125 58.47265625 C-99.10782893 55.91619687 -96.64406316 54.25539737 -93.66796875 52.49609375 C-92.69408203 51.91666016 -91.72019531 51.33722656 -90.71679688 50.74023438 C-89.12834961 49.8034082 -89.12834961 49.8034082 -87.5078125 48.84765625 C-85.22741344 47.49163561 -82.94748748 46.13484151 -80.66796875 44.77734375 C-80.07658112 44.42577209 -79.48519348 44.07420044 -78.87588501 43.7119751 C-72.9597375 40.19224808 -67.07651313 36.6192093 -61.19677734 33.03909302 C-53.66750946 28.45465152 -46.13316891 23.8791201 -38.57421875 19.34375 C-36.92933472 18.35580444 -36.92933472 18.35580444 -35.2512207 17.34790039 C-33.11038502 16.06887797 -30.96445698 14.79833608 -28.81323242 13.53686523 C-22.71044479 9.97336695 -22.71044479 9.97336695 -17.0546875 5.76171875 C-11.67276831 1.47723001 -6.82094666 0.08326734 0 0 Z " fill="#A43114" transform="translate(498.4453125,454.52734375)"/>
<path d="M0 0 C42.46235519 -3.08881929 42.46235519 -3.08881929 57.23095703 9.16162109 C58.94244271 10.65586845 60.63820199 12.16831732 62.31787109 13.69824219 C67.16302849 17.85627458 72.57637972 21.17722964 77.9375 24.625 C92.42137919 34.12849893 92.42137919 34.12849893 97 38 C97 38.33 97 38.66 97 39 C58.02218711 41.39825622 58.02218711 41.39825622 43.08496094 28.69335938 C39.46632605 25.75438378 35.47264864 23.42486868 31.5 21 C29.93586363 20.01431065 28.37336209 19.02602234 26.8125 18.03515625 C23.44423086 15.90706046 20.06804872 13.79212478 16.6875 11.68359375 C15.81931641 11.14025391 14.95113281 10.59691406 14.05664062 10.03710938 C12.39070691 8.99478721 10.72282758 7.95556627 9.05273438 6.91992188 C7.92834961 6.21512695 7.92834961 6.21512695 6.78125 5.49609375 C6.12189453 5.08544678 5.46253906 4.6747998 4.78320312 4.25170898 C2.9761246 2.9832408 1.50978522 1.60575109 0 0 Z " fill="#A53114" transform="translate(598,328)"/>
<path d="M0 0 C22.45427569 -1.88732059 37.78382707 -1.45248244 56.22802734 12.90429688 C60.82445279 16.37934673 65.73077835 19.34225044 70.625 22.375 C72.423763 23.51917267 74.22070826 24.66620917 76.015625 25.81640625 C79.16745996 27.83128619 82.32321791 29.83962373 85.484375 31.83984375 C86.78131036 32.66396752 88.07818998 33.48817901 89.375 34.3125 C90.47585938 35.00988281 91.57671875 35.70726562 92.7109375 36.42578125 C93.46632813 36.94527344 94.22171875 37.46476562 95 38 C95 38.33 95 38.66 95 39 C56.22266813 41.59806894 56.22266813 41.59806894 40.23486328 27.83886719 C36.36821044 24.65734772 32.10911725 22.09671491 27.875 19.4375 C26.229529 18.37194354 24.58627864 17.30294975 22.9453125 16.23046875 C22.13610352 15.70243652 21.32689453 15.1744043 20.49316406 14.63037109 C16.23814842 11.84786086 11.9895849 9.05596804 7.75 6.25 C6.96866699 5.73622803 6.18733398 5.22245605 5.38232422 4.69311523 C3.57017502 3.48879193 1.78211296 2.24834 0 1 C0 0.67 0 0.34 0 0 Z " fill="#A53114" transform="translate(545,328)"/>
<path d="M0 0 C3.7229703 2.6592645 6.55543557 5.73587115 8.625 9.875 C8.71138888 12.28311314 8.74075201 14.66257891 8.72265625 17.0703125 C8.72015869 18.36469238 8.71766113 19.65907227 8.71508789 20.99267578 C8.70598389 22.64509277 8.69687988 24.29750977 8.6875 26 C8.666875 31.23875 8.64625 36.4775 8.625 41.875 C-2.925 41.875 -14.475 41.875 -26.375 41.875 C-26.478125 36.925 -26.58125 31.975 -26.6875 26.875 C-26.73302002 25.32941406 -26.77854004 23.78382813 -26.82543945 22.19140625 C-26.90075671 14.71993421 -26.86846402 8.54143325 -21.375 2.875 C-15.22354962 -2.41795738 -7.50833693 -2.50277898 0 0 Z " fill="#D7D7D7" transform="translate(473.375,403.125)"/>
<path d="M0 0 C-2.54312244 2.83810295 -5.42249823 4.6018095 -8.6796875 6.5546875 C-9.23983047 6.8924118 -9.79997345 7.23013611 -10.37709045 7.57809448 C-11.58074277 8.30324309 -12.78556094 9.02645939 -13.99142456 9.7479248 C-17.18567252 11.65926723 -20.37133566 13.58484564 -23.55859375 15.5078125 C-24.51672722 16.08499023 -24.51672722 16.08499023 -25.49421692 16.67382812 C-30.14973712 19.47990941 -34.78695653 22.31398256 -39.4050293 25.18139648 C-41.09533379 26.22836519 -42.79086289 27.2669449 -44.49145508 28.29711914 C-48.80627973 30.92612087 -52.93572818 33.65564051 -56.9765625 36.69140625 C-71.30346785 47.08925379 -83.60863487 47.60380918 -101 46 C-98.5910149 43.35742237 -95.98149276 41.62487994 -92.93359375 39.76953125 C-91.38865234 38.82436646 -91.38865234 38.82436646 -89.8125 37.86010742 C-88.69875 37.18439697 -87.585 36.50868652 -86.4375 35.8125 C-85.27186556 35.1011093 -84.10650527 34.38926921 -82.94140625 33.67700195 C-80.51390199 32.19343051 -78.08521957 30.71181521 -75.65576172 29.23144531 C-71.02541043 26.40781696 -66.40800525 23.56340589 -61.79370117 20.71362305 C-59.59740919 19.36257219 -57.39571159 18.02026978 -55.1887207 16.68676758 C-50.43101132 13.8032092 -45.78487053 10.91630487 -41.3515625 7.55078125 C-28.40349806 -1.98104746 -15.63893809 -1.19489642 0 0 Z " fill="#A13014" transform="translate(490,189)"/>
<path d="M0 0 C-3.29265238 2.71765079 -6.61816012 5.10555751 -10.26171875 7.328125 C-11.79747559 8.26869751 -11.79747559 8.26869751 -13.36425781 9.22827148 C-14.46092773 9.89544189 -15.55759766 10.5626123 -16.6875 11.25 C-17.84104885 11.95543697 -18.9943652 12.66125426 -20.14746094 13.36743164 C-22.55031743 14.83847834 -24.95416837 16.3078778 -27.35888672 17.77587891 C-32.0458815 20.63779652 -36.72786009 23.50779413 -41.4050293 26.38574219 C-43.62932891 27.75009617 -45.85866337 29.1062767 -48.09301758 30.45410156 C-54.64645085 34.41310579 -54.64645085 34.41310579 -60.7578125 39.00390625 C-71.92494419 47.94600794 -85.3645412 45.82935573 -99 45 C-96.85818566 42.70863046 -94.70007481 41.0597505 -92.02734375 39.42578125 C-91.22361328 38.93142578 -90.41988281 38.43707031 -89.59179688 37.92773438 C-88.71587891 37.39470703 -87.83996094 36.86167969 -86.9375 36.3125 C-86.01646484 35.74724609 -85.09542969 35.18199219 -84.14648438 34.59960938 C-82.14929385 33.37415136 -80.15104018 32.15042469 -78.15185547 30.92822266 C-73.86139694 28.30343246 -69.57807677 25.66716848 -65.29760742 23.02612305 C-63.08824109 21.66863943 -60.87347388 20.31990927 -58.65356445 18.97973633 C-53.50370604 15.85813917 -48.49284505 12.69574106 -43.6640625 9.09375 C-29.49634562 -1.18516347 -17.19938358 -1.58610489 0 0 Z " fill="#A33014" transform="translate(536,189)"/>
<path d="M0 0 C-4.68298014 4.0448382 -9.89932363 7.07905871 -15.1875 10.25 C-17.25946701 11.50202113 -19.33106752 12.75464892 -21.40234375 14.0078125 C-22.48241699 14.66040039 -23.56249023 15.31298828 -24.67529297 15.98535156 C-29.10755893 18.6711394 -33.52730324 21.3768529 -37.94116211 24.09277344 C-40.1499423 25.44936506 -42.36302887 26.79896954 -44.58032227 28.14160156 C-49.53638412 31.15836703 -54.3749007 34.20409327 -59.0234375 37.6796875 C-71.45300082 46.77677148 -81.80358721 47.52178739 -97 46 C-94.39796705 43.24241872 -91.92763607 41.17475072 -88.640625 39.29296875 C-87.78476807 38.79676025 -86.92891113 38.30055176 -86.04711914 37.78930664 C-85.12406982 37.26071045 -84.20102051 36.73211426 -83.25 36.1875 C-75.09793126 31.44764175 -67.04697304 26.5792581 -59.0625 21.5625 C-58.06379883 20.9452002 -57.06509766 20.32790039 -56.03613281 19.69189453 C-50.99416444 16.56684843 -46.05669334 13.3655328 -41.21484375 9.9375 C-27.35437401 0.39308423 -16.75210705 -2.02475992 0 0 Z " fill="#A13014" transform="translate(444,189)"/>
</svg>
