<?xml version="1.0" encoding="UTF-8"?>
<svg version="1.1" xmlns="http://www.w3.org/2000/svg" width="1000" height="1000">
<path d="M0 0 C1.53599854 0.06960937 1.53599854 0.06960937 3.10302734 0.140625 C71.36732438 3.49055286 137.41924896 22.91897629 194 62 C194.66064453 62.45503906 195.32128906 62.91007812 196.00195312 63.37890625 C200.05209723 66.18510744 204.04472583 69.06179633 208 72 C208.55768066 72.4134668 209.11536133 72.82693359 209.68994141 73.25292969 C216.218248 78.1187715 222.5042565 83.1664131 228.48828125 88.69921875 C230.48927826 90.53216935 232.51832804 92.30146829 234.578125 94.06640625 C239.56596902 98.42065141 244.25645124 103.07038503 248.93579102 107.75048828 C250.42641615 109.23893237 251.92487017 110.71917277 253.42382812 112.19921875 C259.73344544 118.47208683 265.46782637 125.01986354 271 132 C272.00029127 133.20872989 273.00371163 134.41488462 274.01171875 135.6171875 C282.48657734 145.87320807 289.82563769 156.80663473 297 168 C297.41846191 168.6487207 297.83692383 169.29744141 298.26806641 169.96582031 C323.72073214 209.75009108 339.53351355 254.43611985 347.75 300.75 C348.04825684 302.41554932 348.04825684 302.41554932 348.35253906 304.11474609 C351.49511797 322.71417751 352.37938383 341.22764699 352.3125 360.0625 C352.30976578 361.66983002 352.30976578 361.66983002 352.30697632 363.30963135 C352.25917919 380.04672314 351.66507066 396.44511716 349 413 C348.82307617 414.11874512 348.64615234 415.23749023 348.46386719 416.39013672 C333.65987075 507.52803879 286.07747739 577.15294491 222.15479088 640.96127474 C219.08296101 644.02873349 216.01407598 647.09913622 212.94480896 650.16915894 C207.64337237 655.47111659 202.34012694 660.77125918 197.03560257 666.07012749 C189.36641678 673.73114123 181.70003651 681.39495752 174.03430979 689.05943228 C161.59319135 701.49836911 149.14984746 713.93507719 136.70507812 726.37036133 C124.62544703 738.44079517 112.54688027 750.51229245 100.46972656 762.58520508 C99.7236688 763.33100012 98.97761104 764.07679515 98.20894547 764.84519004 C94.46571521 768.58711514 90.72250568 772.32906099 86.97930646 776.07101715 C55.98941801 807.05056075 24.99590682 838.02647802 -6 869 C-9.52863523 867.49259406 -11.79946304 865.45018056 -14.50191975 862.74696922 C-15.85546479 861.40032238 -15.85546479 861.40032238 -17.23635417 860.02647054 C-18.23385715 859.02395238 -19.23126637 858.02134091 -20.22859192 857.01864624 C-21.29082874 855.95799732 -22.35350305 854.89778641 -23.41657752 853.83797705 C-26.34015011 850.92082834 -29.25743285 847.9974589 -32.17374051 845.07304978 C-35.31883872 841.92138194 -38.46968765 838.77547263 -41.61982727 835.62884521 C-47.79273017 829.46098903 -53.96026987 823.28779639 -60.12602571 817.11279647 C-67.30720507 809.92123793 -74.49360376 802.73490452 -81.68021747 795.5487773 C-94.50650514 782.72299055 -107.32795195 769.89237539 -120.14672852 757.05908203 C-132.58158684 744.61014899 -145.01992873 732.16471047 -157.4621582 719.72314453 C-158.22779435 718.95754834 -158.99343049 718.19195216 -159.78226773 717.40315609 C-160.54658569 716.63887848 -161.31090366 715.87460087 -162.09838277 715.08716333 C-176.2626693 700.92356733 -190.42366003 686.75668018 -204.58312688 672.58826601 C-209.58853432 667.57984542 -214.59491489 662.5723988 -219.60160255 657.56525803 C-225.70823378 651.45794344 -231.81296203 645.34873372 -237.91534928 639.23717849 C-241.02784484 636.12007665 -244.14110776 633.00375218 -247.25653839 629.88958359 C-250.11164317 627.03557927 -252.96440826 624.17925733 -255.81536444 621.32110901 C-256.84410914 620.29056122 -257.87368124 619.26083852 -258.90418801 618.23205273 C-264.48757054 612.65695881 -269.88220999 607.00526892 -275 601 C-275.948172 599.92760616 -276.89831886 598.85695073 -277.8515625 597.7890625 C-289.84552591 584.17666232 -300.22699901 569.26796175 -310 554 C-310.35980957 553.43877441 -310.71961914 552.87754883 -311.09033203 552.29931641 C-322.54833444 534.24158828 -332.28649024 514.93714922 -340 495 C-340.32274902 494.18096191 -340.64549805 493.36192383 -340.97802734 492.51806641 C-357.41563265 450.52330761 -365.22315871 405.98691992 -365.25 361 C-365.25067474 359.98077454 -365.25134949 358.96154907 -365.25204468 357.91143799 C-365.23442248 341.09524976 -364.50429484 324.65503957 -362 308 C-361.83371094 306.8661084 -361.66742188 305.7322168 -361.49609375 304.56396484 C-356.12248133 269.00358709 -345.61979651 234.40056893 -330 202 C-329.61376465 201.18660156 -329.2275293 200.37320313 -328.82958984 199.53515625 C-315.08852908 170.69186537 -297.38496331 144.56883975 -276.36816406 120.56347656 C-275.18499264 119.2114013 -274.00972118 117.85242057 -272.8359375 116.4921875 C-262.19582992 104.37314605 -250.7345943 92.9024839 -238 83 C-236.3110779 81.58502904 -234.62363449 80.16829164 -232.9375 78.75 C-205.25661884 56.19810814 -173.39358119 37.70846163 -140 25 C-139.07364746 24.64244629 -138.14729492 24.28489258 -137.19287109 23.91650391 C-94.04018225 7.38320329 -46.38103263 -2.13114899 0 0 Z " fill="#C0FE71" transform="translate(506,83)"/>
<path d="M0 0 C0.33 0 0.66 0 1 0 C1.18175781 0.88300781 1.36351562 1.76601562 1.55078125 2.67578125 C9.19418034 39.1681123 26.01675472 70.0411481 49.37011719 98.97314453 C51.41639537 101.51781222 53.42436544 104.09109836 55.43139648 106.66674805 C59.8222627 112.29640204 64.29297039 117.85604458 68.83203125 123.3671875 C70.27314373 125.11729526 71.70809403 126.87249612 73.13671875 128.6328125 C78.78126638 135.5846252 84.58390237 142.38875953 90.4296875 149.17089844 C92.02313171 151.02694383 93.60656353 152.89110626 95.1875 154.7578125 C101.9836323 162.78230334 101.9836323 162.78230334 109.31504822 170.31410217 C111.04146134 172.04148462 112.62298132 173.84051199 114.20922852 175.69702148 C117.92011416 179.96379988 121.83661605 183.98130204 125.83984375 187.97265625 C126.56563126 188.69940048 127.29141876 189.42614471 128.03919983 190.1749115 C129.56323556 191.69962296 131.08851569 193.2230915 132.61499023 194.74536133 C134.93132463 197.05633891 137.24227078 199.37260771 139.55273438 201.68945312 C141.04395034 203.1800082 142.53547653 204.670253 144.02734375 206.16015625 C145.048032 207.18388084 145.048032 207.18388084 146.08934021 208.22828674 C150.00609786 212.12626704 154.02368334 215.84937747 158.21405029 219.4521637 C160.98316176 221.8520808 163.64044338 224.36831222 166.3125 226.875 C171.1538939 231.38415518 176.14015511 235.62986906 181.30078125 239.7734375 C185.17402291 242.96844148 188.84888056 246.36748405 192.55078125 249.7578125 C197.55416573 254.98884118 197.55416573 254.98884118 204 257 C203.6613397 254.13736202 203.09680873 253.09323714 200.98828125 251.0625 C200.10527344 250.381875 199.22226562 249.70125 198.3125 249 C197.31734375 248.21367187 196.3221875 247.42734375 195.296875 246.6171875 C194.76126953 246.1953418 194.22566406 245.77349609 193.67382812 245.33886719 C190.74845008 242.9989061 187.90498116 240.56449848 185.0625 238.125 C184.17921021 237.3676355 184.17921021 237.3676355 183.27807617 236.5949707 C178.39598493 232.38576393 173.63550345 228.05605148 168.9140625 223.66796875 C166.673306 221.61644504 164.41283912 219.6065138 162.12109375 217.61328125 C150.59196547 207.55789286 139.70154967 196.80028691 128.875 186 C128.38417938 185.51176758 127.89335876 185.02353516 127.38766479 184.52050781 C122.27357246 179.4277425 117.27107349 174.29977832 112.57373047 168.81884766 C110.01274859 165.85897875 107.31047984 163.03395219 104.625 160.1875 C99.13745636 154.33168086 93.97602888 148.30039832 89 142 C92.39953852 139.11988009 96.11791528 137.57676918 100.2265625 135.98828125 C100.95046677 135.70297043 101.67437103 135.41765961 102.42021179 135.123703 C104.81939845 134.18035709 107.22208438 133.24630229 109.625 132.3125 C111.31287398 131.65137307 113.00061578 130.98990857 114.68823242 130.328125 C129.25128149 124.63044031 143.86446899 119.06185262 158.49658203 113.54418945 C167.32221806 110.20903559 176.09675291 106.79458336 184.78230286 103.10705566 C189.79161552 101 189.79161552 101 192 101 C192 100.01 192 99.02 192 98 C197.2307419 95.71672158 202.46351203 93.43818244 207.69824219 91.1640625 C209.47973663 90.38933015 211.26066401 89.61329249 213.04101562 88.8359375 C215.59618489 87.72054067 218.15333885 86.60981283 220.7109375 85.5 C221.50994476 85.15001953 222.30895203 84.80003906 223.13217163 84.43945312 C228.77225659 82 228.77225659 82 231 82 C231.27972656 82.65226562 231.55945313 83.30453125 231.84765625 83.9765625 C234.70963477 90.21585972 237.4941519 93.89760337 243 98 C241.69143177 104.87694369 239.60021063 110.86918403 236.75 117.25 C236.30946289 118.24757324 235.86892578 119.24514648 235.41503906 120.27294922 C229.95142481 132.52177663 224.06476248 144.56792447 218.16815186 156.61224365 C216.37957702 160.26817323 214.59511584 163.92610855 212.81015015 167.58380127 C208.4157607 176.58804863 204.01744467 185.59037286 199.61328125 194.58984375 C199.19196426 195.45116409 198.77064728 196.31248444 198.33656311 197.1999054 C197.7432444 198.41180794 197.7432444 198.41180794 197.13793945 199.64819336 C196.77100983 200.40172089 196.4040802 201.15524841 196.02603149 201.93161011 C195.12316801 203.75170405 194.17111191 205.54722005 193.21166992 207.33813477 C191.72380437 210.11931793 191.72380437 210.11931793 192 214 C192.66 214 193.32 214 194 214 C196.94105985 208.14761569 199.87830712 202.29333024 202.8125 196.4375 C203.24628967 195.57186432 203.68007935 194.70622864 204.12701416 193.81436157 C209.73765898 182.61065158 215.30171532 171.39254891 220.61254883 160.04272461 C223.18997721 154.56209823 225.99322057 149.25752807 229 144 C231 144 231 144 232.3046875 145.2578125 C232.82289063 145.87398437 233.34109375 146.49015625 233.875 147.125 C234.80699219 148.21941406 234.80699219 148.21941406 235.7578125 149.3359375 C236.49773437 150.21507812 237.23765625 151.09421875 238 152 C239.91225308 154.25377724 241.83021636 156.50263545 243.75 158.75 C244.26393311 159.35255615 244.77786621 159.9551123 245.30737305 160.57592773 C248.68900954 164.52283389 252.15071189 168.37946855 255.6875 172.1875 C260.70308544 177.60362022 265.41922002 183.21206858 270 189 C270.79019531 189.99515625 271.58039063 190.9903125 272.39453125 192.015625 C282.12789518 204.40161495 291.02210249 217.41601235 299 231 C299.38510742 231.65129883 299.77021484 232.30259766 300.16699219 232.97363281 C314.80549259 257.89739202 328.90952875 288.26234904 326 318 C324.73793242 322.42945008 321.0622573 324.32295236 317.375 326.6875 C316.71056885 327.12030273 316.0461377 327.55310547 315.36157227 327.99902344 C293.21842089 342.24409634 270.031044 351.73119973 244 356 C242.91493164 356.18095215 241.82986328 356.3619043 240.71191406 356.54833984 C231.18510542 357.98849837 221.86943055 358.30966022 212.24951172 358.26074219 C209.76634983 358.25007027 207.28392072 358.26068081 204.80078125 358.2734375 C188.89016626 358.28727598 173.43407838 356.97623714 158 353 C156.54642502 352.67841562 155.0919226 352.3610063 153.63671875 352.046875 C112.83337544 342.96836016 75.39488621 320.27122603 45 292 C43.8246919 290.92786651 42.64887329 289.85629248 41.47265625 288.78515625 C29.67573307 277.98304484 18.89256911 266.58321902 9 254 C8.51950195 253.3920459 8.03900391 252.7840918 7.54394531 252.15771484 C-3.66401985 237.92953477 -13.65899278 223.11508314 -22.9375 207.5625 C-23.73510742 206.23182495 -23.73510742 206.23182495 -24.54882812 204.87426758 C-29.76757614 196.00024629 -33.96244288 186.85930172 -37.125 177.0625 C-37.37870361 176.28382568 -37.63240723 175.50515137 -37.89379883 174.70288086 C-39.8808719 168.52293651 -41.69602248 162.36465219 -43 156 C-43.13535156 155.35611328 -43.27070313 154.71222656 -43.41015625 154.04882812 C-49.3016123 125.14884779 -45.57995996 96.901804 -37 69 C-36.79117187 68.31824707 -36.58234375 67.63649414 -36.3671875 66.93408203 C-33.281491 57.09842444 -28.81396182 48.07432856 -24 39 C-23.63277832 38.29891113 -23.26555664 37.59782227 -22.88720703 36.87548828 C-16.17054176 24.11642874 -8.69864054 11.51940466 0 0 Z " fill="#FEFEFE" transform="translate(328,250)"/>
<path d="M0 0 C3.9329098 0.42710333 6.33914461 2.60458533 9.375 5 C29.19410124 20.28682615 51.67625961 32.07959259 75 41 C76.66741415 41.6647949 78.33421295 42.33113848 80 43 C81.80029952 58.22050405 82.81650385 73.44738705 83.625 88.75 C83.6897049 89.96724762 83.75440979 91.18449524 83.82107544 92.43862915 C84.61727669 107.67896641 85.31338306 122.91874102 85.41986084 138.18151855 C85.43152788 139.83904533 85.44937235 141.49654127 85.47369385 143.15393066 C85.50289274 145.41960203 85.50454131 147.68341391 85.49609375 149.94921875 C85.49794678 151.20049561 85.4997998 152.45177246 85.50170898 153.7409668 C84.80888292 158.24147053 82.70274914 160.54219389 79.31640625 163.44140625 C70.70761488 168.94413035 59.84244459 172.22564875 49.60571289 172.03759766 C48.55013687 172.02072906 47.49456085 172.00386047 46.40699768 171.98648071 C45.27366501 171.9625827 44.14033234 171.93868469 42.97265625 171.9140625 C41.79215195 171.89282318 40.61164764 171.87158386 39.39537048 171.84970093 C36.89463403 171.80346181 34.39394603 171.75453543 31.89331055 171.703125 C28.10800528 171.62592803 24.32262157 171.55836174 20.53710938 171.4921875 C-21.33596438 170.7176134 -21.33596438 170.7176134 -30.625 163.625 C-36.93189654 156.65421962 -36.59670128 149.446491 -36.17724609 140.56005859 C-35.65239789 132.97939988 -34.4994177 125.46536568 -33.41015625 117.94970703 C-33.01443261 115.10379451 -32.66903086 112.25708489 -32.34375 109.40234375 C-29.35654764 83.57808114 -25.10477739 51.0325534 -11.82421875 27.95703125 C-10.77447137 25.8665067 -10.77447137 25.8665067 -11.18359375 22.8359375 C-10.93007557 17.53902575 -8.72946215 14.11481077 -6.0625 9.625 C-5.59392578 8.80644531 -5.12535156 7.98789062 -4.64257812 7.14453125 C-1.23972603 1.23972603 -1.23972603 1.23972603 0 0 Z " fill="#FDFDFD" transform="translate(383,558)"/>
<path d="M0 0 C20.94714498 12.50567622 39.43379918 29.54276612 57.21630859 46.14160156 C59.32066207 48.09541233 61.44539841 50.02632541 63.56982422 51.95825195 C68.14050414 56.11729577 72.59065514 60.36168104 76.92480469 64.76806641 C79.52935063 67.32920325 82.27925645 69.70241938 85.05371094 72.07666016 C86.79980469 73.61181641 86.79980469 73.61181641 88.98730469 75.92431641 C90.71887492 77.75269038 90.71887492 77.75269038 93.15014648 78.48632812 C96.06022984 79.72243651 97.73628669 81.12324185 100.00683594 83.30712891 C100.75771484 84.02255859 101.50859375 84.73798828 102.28222656 85.47509766 C103.05115234 86.22146484 103.82007813 86.96783203 104.61230469 87.73681641 C105.79469727 88.86796875 105.79469727 88.86796875 107.00097656 90.02197266 C108.94018701 91.87891357 110.87276237 93.74226456 112.79980469 95.61181641 C112.46980469 96.60181641 112.13980469 97.59181641 111.79980469 98.61181641 C109.18408203 99.90771484 109.18408203 99.90771484 105.63574219 101.22119141 C104.98871841 101.46461777 104.34169464 101.70804413 103.67506409 101.95884705 C101.512026 102.77018755 99.3434612 103.56562896 97.17480469 104.36181641 C95.64900734 104.93188212 94.12370636 105.50327795 92.59887695 106.07592773 C89.35343371 107.29406213 86.10622471 108.507318 82.85791016 109.71777344 C75.29501594 112.54254815 67.76034835 115.44086074 60.22625732 118.34140015 C57.74565964 119.29610086 55.26422556 120.24860313 52.78271484 121.20092773 C42.13131945 125.29448747 31.51807195 129.47150297 20.9675293 133.81958008 C20.05108643 134.1931665 19.13464355 134.56675293 18.19042969 134.95166016 C17.40700195 135.27513428 16.62357422 135.5986084 15.81640625 135.93188477 C13.79980469 136.61181641 13.79980469 136.61181641 10.79980469 136.61181641 C8.80024229 134.55520944 6.98754337 132.51137064 5.17480469 130.29931641 C4.63919922 129.65921631 4.10359375 129.01911621 3.55175781 128.35961914 C1.95877285 126.45093958 0.37810437 124.53264506 -1.20019531 122.61181641 C-2.37195313 121.20029297 -2.37195313 121.20029297 -3.56738281 119.76025391 C-5.79605106 117.0580957 -7.99952041 114.33681318 -10.20019531 111.61181641 C-11.12194773 110.48411203 -12.04382977 109.3565136 -12.96582031 108.22900391 C-20.77138444 98.63539243 -28.13169176 88.76037519 -35.20019531 78.61181641 C-35.67312012 77.9345752 -36.14604492 77.25733398 -36.63330078 76.55957031 C-52.35601992 53.80432505 -70.21441317 24.2669158 -68.20019531 -4.38818359 C-67.38946852 -8.56826118 -65.69788737 -10.93678847 -62.51269531 -13.82568359 C-43.85125133 -22.94032571 -16.04505265 -9.18987838 0 0 Z " fill="#FEFEFE" transform="translate(402.2001953125,250.38818359375)"/>
<path d="M0 0 C5.53807718 4.5851412 8.15804486 10.62162248 8.94140625 17.671875 C8.39817195 22.92313989 6.80958618 27.09811447 2.98828125 30.84375 C-3.30972586 35.66654824 -9.69889245 36.56826803 -17.43359375 36.296875 C-17.67207031 37.56273437 -17.91054688 38.82859375 -18.15625 40.1328125 C-19.39605573 45.70485059 -21.55288928 50.72370407 -23.87109375 55.921875 C-24.26619141 56.82421875 -24.66128906 57.7265625 -25.06835938 58.65625 C-28.21840748 65.84737479 -28.21840748 65.84737479 -29.42236328 68.36230469 C-30.54781828 70.76421377 -31.44184948 72.73651759 -31.40234375 75.41796875 C-29.98623167 78.16454097 -28.06480049 80.12621238 -25.93359375 82.359375 C-22.50892301 86.00408526 -19.24189424 89.69534693 -16.12109375 93.609375 C-12.6113655 97.96713283 -8.90126322 102.0496721 -5.05859375 106.109375 C0.75576049 112.28354507 6.06537312 118.72104664 11.18505859 125.47851562 C12.59836721 127.33894733 14.02870109 129.18536268 15.4609375 131.03125 C36.33454485 158.13599022 53.93170926 187.99772177 62.56640625 221.296875 C62.91703125 222.50085938 63.26765625 223.70484375 63.62890625 224.9453125 C65.61124356 232.03216838 65.70311284 239.17694988 65.81640625 246.484375 C65.83783691 247.25692627 65.85926758 248.02947754 65.88134766 248.82543945 C65.9098886 253.7276116 65.34806422 257.09076361 62.56640625 261.296875 C55.44960043 268.0233624 46.11723799 272.6347052 37.53027344 277.24169922 C35.73542839 278.20606027 33.95110244 279.18993377 32.16796875 280.17578125 C-5.87221284 300.37050948 -53.53763965 304.22691618 -95.43359375 296.296875 C-96.3251416 296.13638672 -97.21668945 295.97589844 -98.13525391 295.81054688 C-107.13625605 294.18357147 -115.80238663 292.36984594 -124.43359375 289.296875 C-124.38348145 289.91167725 -124.33336914 290.52647949 -124.28173828 291.15991211 C-121.72754102 322.7630353 -119.5499134 354.45682387 -119.24609375 386.171875 C-119.23304199 386.93290527 -119.21999023 387.69393555 -119.20654297 388.47802734 C-119.20001618 392.53302591 -119.62411951 395.64931823 -121.43359375 399.296875 C-122.75359375 398.966875 -124.07359375 398.636875 -125.43359375 398.296875 C-125.41002808 397.10094727 -125.41002808 397.10094727 -125.38598633 395.88085938 C-124.92420701 368.0260192 -126.42542769 340.33409539 -128.06982422 312.53466797 C-128.56507324 304.12420008 -129.00409023 295.71091946 -129.43359375 287.296875 C-130.43652466 287.05360474 -130.43652466 287.05360474 -131.4597168 286.80541992 C-138.40570858 285.02907389 -144.75562394 282.63613606 -151.24609375 279.609375 C-152.20386719 279.16730713 -153.16164063 278.72523926 -154.1484375 278.26977539 C-161.83702571 274.67352115 -169.20711009 270.76080726 -176.43359375 266.296875 C-176.99949219 265.94802246 -177.56539063 265.59916992 -178.1484375 265.23974609 C-192.06853078 256.60944327 -205.15785577 247.1437529 -217.43359375 236.296875 C-218.84318359 235.05550781 -218.84318359 235.05550781 -220.28125 233.7890625 C-233.19358957 222.17328523 -245.78400512 210.04019887 -256.43359375 196.296875 C-257.28050781 195.29011719 -258.12742187 194.28335938 -259 193.24609375 C-271.73350201 178.05703455 -282.88281243 161.04646633 -292.62109375 143.796875 C-293.03697754 143.06815186 -293.45286133 142.33942871 -293.88134766 141.58862305 C-294.81817585 139.86887714 -295.63882165 138.08671029 -296.43359375 136.296875 C-296.10359375 135.306875 -295.77359375 134.316875 -295.43359375 133.296875 C-291.78291081 133.85929042 -291.78291081 133.85929042 -290.25195312 135.77709961 C-289.93033203 136.41139893 -289.60871094 137.04569824 -289.27734375 137.69921875 C-288.90109863 138.4154541 -288.52485352 139.13168945 -288.13720703 139.86962891 C-287.74001465 140.64999512 -287.34282227 141.43036133 -286.93359375 142.234375 C-274.69583193 165.20830459 -258.62531751 186.40415046 -240.98828125 205.49609375 C-238.99161306 207.68510154 -237.0540745 209.90108072 -235.125 212.1484375 C-219.54437766 229.99353875 -200.40462911 244.73048506 -180.43359375 257.296875 C-179.7365332 257.73628418 -179.03947266 258.17569336 -178.32128906 258.62841797 C-140.83640434 282.00999108 -99.50637518 293.77604773 -55.43359375 293.671875 C-54.59585419 293.67166351 -53.75811462 293.67145203 -52.89498901 293.67123413 C-32.13131291 293.61934892 -12.03998064 291.47048008 7.56640625 284.296875 C8.72527344 283.91789062 9.88414062 283.53890625 11.078125 283.1484375 C26.94976532 277.85196626 42.61199465 269.73324232 55.89453125 259.50390625 C57.56640625 258.296875 57.56640625 258.296875 59.56640625 258.296875 C67.40353032 232.69981653 50.84216548 198.9862544 39.41430664 177.10253906 C32.68086441 164.56201911 24.85380183 152.85537299 16.56640625 141.296875 C16.02983398 140.54647949 15.49326172 139.79608398 14.94042969 139.02294922 C5.47570734 125.87750151 -5.14669752 113.84599411 -16.08984375 101.92578125 C-19.31849468 98.30431112 -22.34271339 94.52987456 -25.3828125 90.75 C-27.16722756 88.61549971 -28.99625346 86.66396329 -30.99609375 84.734375 C-31.80046875 83.93 -32.60484375 83.125625 -33.43359375 82.296875 C-33.43359375 81.636875 -33.43359375 80.976875 -33.43359375 80.296875 C-36.15615852 82.70914747 -37.57643618 85.22170482 -39.18359375 88.46875 C-39.70397217 89.51409912 -40.22435059 90.55944824 -40.76049805 91.63647461 C-41.31261963 92.76190674 -41.86474121 93.88733887 -42.43359375 95.046875 C-43.00956299 96.20904541 -43.58553223 97.37121582 -44.17895508 98.56860352 C-48.36015408 107.01987119 -52.41918621 115.52825896 -56.4543457 124.05004883 C-60.84734555 133.2746189 -65.59408028 142.30020897 -70.43359375 151.296875 C-71.42359375 150.966875 -72.41359375 150.636875 -73.43359375 150.296875 C-72.87147544 145.45834765 -71.43597529 141.8445832 -69.22265625 137.51953125 C-68.89892029 136.88049866 -68.57518433 136.24146606 -68.24163818 135.58306885 C-67.54790176 134.21545953 -66.8506135 132.84964708 -66.15008545 131.48550415 C-64.29587472 127.87366588 -62.4684852 124.2482568 -60.63671875 120.625 C-60.27134003 119.90415726 -59.9059613 119.18331451 -59.5295105 118.44062805 C-56.0872645 111.64072893 -52.78179494 104.780141 -49.52246094 97.89086914 C-47.04378104 92.65537519 -44.52823591 87.44062969 -41.96484375 82.24609375 C-28.76417426 59.12439438 -28.76417426 59.12439438 -22.43359375 34.296875 C-24.1065349 32.63479904 -24.1065349 32.63479904 -26.24609375 31.046875 C-31.3189513 26.76412624 -33.1324046 23.00757739 -33.87109375 16.359375 C-33.59852702 10.24439967 -30.89666823 5.82799946 -26.74609375 1.484375 C-18.22992213 -4.13951192 -8.94424724 -5.7276386 0 0 Z " fill="#0D0E0B" transform="translate(592.43359375,313.703125)"/>
<path d="M0 0 C7.58011611 6.41402572 14.92823812 13.04850298 22.18652344 19.82275391 C24.6022836 22.06814262 27.04292247 24.28612522 29.48046875 26.5078125 C35.30538726 31.8356713 41.04639426 37.25048663 46.76855469 42.68847656 C47.4546582 43.3378418 48.14076172 43.98720703 48.84765625 44.65625 C49.5034668 45.27725586 50.15927734 45.89826172 50.83496094 46.53808594 C52.57784876 48.11934583 54.37319176 49.55196005 56.23828125 50.984375 C57.06070313 51.73460937 57.883125 52.48484375 58.73046875 53.2578125 C58.73046875 54.5778125 58.73046875 55.8978125 58.73046875 57.2578125 C54.55762474 56.75332359 52.74167162 55.71213479 49.91796875 52.6328125 C47.32511875 49.89941549 44.72845339 47.32049644 41.85546875 44.8828125 C38.66364366 42.14159801 35.68743898 39.25095362 32.73046875 36.2578125 C29.24005435 32.73026603 25.68402561 29.38396776 21.9140625 26.16015625 C19.72248121 24.25085377 17.58700741 22.28759483 15.45678711 20.31030273 C10.30155864 15.52803701 5.03931195 10.9603641 -0.44921875 6.55859375 C-2.93350001 4.53194325 -5.34504813 2.44124009 -7.75146484 0.32348633 C-20.58077182 -10.86301936 -34.81758736 -19.67433039 -50.26953125 -26.7421875 C-51.30464844 -27.23460937 -52.33976562 -27.72703125 -53.40625 -28.234375 C-65.81497602 -33.83404041 -79.69808592 -36.26171266 -93.26953125 -34.7421875 C-97.21327063 -33.16377139 -98.84390126 -32.40900782 -101.14453125 -28.8046875 C-106.63869938 -12.65516298 -97.34342253 7.66836668 -90.28955078 22.19189453 C-89.95294434 22.87364746 -89.61633789 23.55540039 -89.26953125 24.2578125 C-88.71241455 25.39065674 -88.71241455 25.39065674 -88.14404297 26.54638672 C-82.61384515 37.66800226 -76.4901638 48.15485966 -69.26953125 58.2578125 C-68.74343262 58.99499512 -68.21733398 59.73217773 -67.67529297 60.49169922 C-60.11765124 71.02176602 -52.22828975 81.23425706 -43.9609375 91.21484375 C-42.14168902 93.41222702 -40.33004308 95.61572623 -38.51953125 97.8203125 C-33.45606116 103.98277984 -28.38120383 110.13524944 -23.26953125 116.2578125 C-22.73626221 116.02819824 -22.20299316 115.79858398 -21.65356445 115.56201172 C-6.91886952 109.25000575 7.96853297 103.44497706 22.97314453 97.81323242 C24.56935412 97.21407839 26.16554533 96.61487538 27.76171875 96.015625 C28.56342499 95.71471451 29.36513123 95.41380402 30.19113159 95.10377502 C36.35150592 92.78714268 42.49682563 90.43283793 48.63671875 88.0625 C49.53196762 87.71698593 50.42721649 87.37147186 51.34959412 87.01548767 C54.85911333 85.6602106 58.36825457 84.30398574 61.87576294 82.94351196 C64.28623038 82.00860216 66.69773027 81.07639901 69.109375 80.14453125 C69.82432129 79.8660434 70.53926758 79.58755554 71.27587891 79.30062866 C74.39477646 78.09738014 77.4532426 76.94518456 80.73046875 76.2578125 C81.06046875 77.5778125 81.39046875 78.8978125 81.73046875 80.2578125 C73.34051642 84.87618421 64.47982978 88.15191678 55.5352478 91.50332642 C51.85800842 92.88169967 48.1857031 94.27300066 44.51304626 95.66352844 C42.57971281 96.39543566 40.64616693 97.12678199 38.7124176 97.85758972 C28.57675264 101.6888116 18.45454561 105.55464028 8.34197998 109.44641113 C6.4008512 110.19252225 4.45900166 110.93676102 2.51641846 111.67907715 C-0.20170832 112.71784201 -2.91750573 113.7624836 -5.6328125 114.80859375 C-6.43617538 115.11418716 -7.23953827 115.41978058 -8.06724548 115.7346344 C-12.04723305 117.27581947 -15.67987907 118.90569392 -19.26953125 121.2578125 C-11.97358464 129.88617489 -4.54202027 138.3442293 3.1796875 146.59375 C4.73722321 148.26506036 6.28189357 149.94746468 7.82421875 151.6328125 C15.07120874 159.52059589 22.54178043 167.17501518 30.10546875 174.7578125 C31.03278809 175.68972412 31.96010742 176.62163574 32.91552734 177.58178711 C37.43067347 182.08677679 41.99489443 186.45578305 46.8359375 190.60839844 C50.16985174 193.51096604 53.34139355 196.58606304 56.54296875 199.6328125 C61.93996106 204.73421646 67.40956997 209.58660316 73.21875 214.21484375 C75.82648415 216.33590901 78.31098252 218.55381655 80.79296875 220.8203125 C85.59482818 225.19825176 90.61028614 229.25971246 95.73046875 233.2578125 C95.40046875 234.5778125 95.07046875 235.8978125 94.73046875 237.2578125 C90.84696607 236.69165266 88.97276561 234.91936603 86.16796875 232.2578125 C82.67575496 229.01577192 79.13943142 225.92139449 75.41796875 222.9453125 C69.95949627 218.53059892 64.83969513 213.81032883 59.7109375 209.0234375 C57.46448186 206.92870326 55.18573447 204.88451581 52.85546875 202.8828125 C41.19226443 192.76940088 30.20536234 181.89652544 19.31152344 170.96923828 C17.20753138 168.85981593 15.0981484 166.75588811 12.98828125 164.65234375 C11.62077253 163.28417515 10.25357355 161.91569689 8.88671875 160.546875 C8.26994263 159.93212311 7.6531665 159.31737122 7.0177002 158.68399048 C3.28366028 154.9300589 -0.26261457 151.05767494 -3.71902466 147.0464325 C-5.96647191 144.45384172 -8.30590492 141.95599993 -10.64453125 139.4453125 C-14.91472384 134.82347419 -18.95178498 130.06357302 -22.8984375 125.16015625 C-25.58784062 121.86818505 -28.36116902 118.65770254 -31.14453125 115.4453125 C-35.59961025 110.28620711 -39.88230333 105.02312011 -44.06079102 99.63818359 C-46.97009863 95.89328434 -49.93884604 92.20669021 -52.95532227 88.54760742 C-76.60800938 59.79732782 -99.10260789 27.54085085 -107.01953125 -9.4296875 C-107.23996094 -10.42935547 -107.46039063 -11.42902344 -107.6875 -12.45898438 C-108.22153098 -14.8853425 -108.74877424 -17.3129525 -109.26953125 -19.7421875 C-120.56394807 -2.58583952 -130.76245913 14.53814413 -139.26953125 33.2578125 C-140.58953125 33.2578125 -141.90953125 33.2578125 -143.26953125 33.2578125 C-142.70708814 27.49277061 -140.4981053 22.84668078 -138.01953125 17.6953125 C-137.57915527 16.77854736 -137.1387793 15.86178223 -136.68505859 14.91723633 C-113.74910758 -31.72237963 -113.74910758 -31.72237963 -96.25390625 -39.65625 C-62.69021675 -49.56678824 -23.71888891 -19.93563377 0 0 Z " fill="#0C0D0C" transform="translate(437.26953125,270.7421875)"/>
<path d="M0 0 C18.74509908 17.16731151 37.45045398 41.28860614 39.05688477 67.70727539 C39.44453716 84.92374038 39.426177 101.00957811 33.86401367 117.53540039 C33.53578613 118.53313477 33.53578613 118.53313477 33.20092773 119.55102539 C30.81836612 126.57178533 30.81836612 126.57178533 28.86401367 129.53540039 C26.71166992 130.33227539 26.71166992 130.33227539 24.86401367 130.53540039 C25.41198598 126.28527373 26.48986522 122.52727803 27.93383789 118.52294922 C36.47889335 94.77660802 38.34108738 68.35337227 28.05932617 44.68286133 C13.2227199 13.18789735 -13.99076252 -10.68255149 -46.51489258 -22.71459961 C-58.05679497 -26.49245454 -69.71095924 -27.8550088 -81.82348633 -27.83959961 C-82.97034912 -27.84016357 -84.11721191 -27.84072754 -85.29882812 -27.84130859 C-97.77890995 -27.68553102 -109.88857477 -25.72241475 -122.13598633 -23.46459961 C-126.94122123 -22.59585658 -131.26622149 -22.38063815 -136.13598633 -22.46459961 C-135.80598633 -23.45459961 -135.47598633 -24.44459961 -135.13598633 -25.46459961 C-85.26116134 -36.15424367 -40.03078533 -35.72516522 0 0 Z " fill="#0C1007" transform="translate(680.135986328125,222.464599609375)"/>
<path d="M0 0 C1.32 0.33 2.64 0.66 4 1 C3.38390812 4.72333791 2.30004014 7.81636679 0.75 11.25 C-8.81745029 33.93852498 -13.75238522 59.59787608 -16.73242188 83.93310547 C-17.09070079 86.70061395 -17.56928186 89.44117173 -18.0625 92.1875 C-22.93829867 115.53065758 -22.93829867 115.53065758 -18.8125 137.875 C-13.48197685 144.50493046 -5.35210274 146.37036799 2.83276367 147.33325195 C14.33598358 148.14431225 25.8480924 148.33956881 37.375 148.5625 C39.47917335 148.60579642 41.58334011 148.6494138 43.6875 148.69335938 C48.79159843 148.79927025 53.89576598 148.90084842 59 149 C58.67 150.32 58.34 151.64 58 153 C51.92091009 153.05017662 45.84194588 153.08607905 39.76269531 153.10986328 C37.70310359 153.11979906 35.64352549 153.1333523 33.58398438 153.15087891 C-9.58836169 153.50854454 -9.58836169 153.50854454 -21.30859375 143.01171875 C-25.82865934 137.63565922 -26.54939765 132.81907144 -26.5 126.0625 C-26.49572998 125.13791992 -26.49145996 124.21333984 -26.48706055 123.26074219 C-25.69497759 87.89409805 -18.42050191 51.33384282 -7.4375 17.8125 C-7.15664551 16.95100342 -6.87579102 16.08950684 -6.58642578 15.2019043 C-4.79154513 9.87305905 -2.62244336 4.97518248 0 0 Z " fill="#0A0C08" transform="translate(369,580)"/>
<path d="M0 0 C4.03996095 3.44584904 7.68173514 7.59451224 8.42578125 12.99609375 C8.45041797 17.73455558 8.40433859 21.11002095 5.125 24.8125 C-0.60941816 29.23278067 -5.75442233 29.69450509 -12.875 28.8125 C-17.63352474 27.168646 -20.07069483 24.96702617 -22.875 20.8125 C-24.65938576 15.45934273 -24.73357691 10.63268305 -22.3125 5.5 C-16.19492585 -1.24501765 -8.62350721 -3.56188341 0 0 Z " fill="#FAFAFA" transform="translate(587.875,316.1875)"/>
<path d="M0 0 C7.11502186 6.34806966 12.73939526 13.2102805 17.34228516 21.59960938 C17.87466797 22.54449219 18.40705078 23.489375 18.95556641 24.46289062 C30.02504222 45.20099048 31.5267662 70.25779802 25.21728516 92.72460938 C24.92853516 93.67335938 24.63978516 94.62210937 24.34228516 95.59960938 C23.02228516 95.92960937 21.70228516 96.25960937 20.34228516 96.59960938 C20.84044137 92.19922951 21.47150686 87.90732798 22.35791016 83.56835938 C26.71926936 59.70833898 22.26823344 37.66490003 9.29150391 17.39648438 C7.39872339 14.70616333 5.43461474 12.13693339 3.34228516 9.59960938 C2.82537109 8.96925781 2.30845703 8.33890625 1.77587891 7.68945312 C-11.03148012 -6.40185167 -31.05677134 -13.4621948 -49.65771484 -14.40039062 C-62.67515877 -14.88005363 -75.66765564 -14.2232903 -88.65771484 -13.40039062 C-88.32771484 -14.72039062 -87.99771484 -16.04039062 -87.65771484 -17.40039062 C-57.13027342 -21.82924223 -24.6531943 -20.82632143 0 0 Z " fill="#0F1409" transform="translate(647.65771484375,252.400390625)"/>
<path d="M0 0 C17.96366525 -0.68288485 32.77155601 1.41761062 46.984375 13.546875 C52.84216672 19.00951763 57.40995579 24.84314811 61 32 C61.58201172 33.16015625 61.58201172 33.16015625 62.17578125 34.34375 C67.05171365 44.69845736 67.24490845 53.78863539 67 65 C65.68 65.33 64.36 65.66 63 66 C62.97421875 64.83984375 62.9484375 63.6796875 62.921875 62.484375 C62.33176758 44.14973748 57.45628185 29.94808073 44 17 C35.80700277 10.21447969 24.93724602 5.16385078 14.234375 4.68359375 C13.34492187 4.64169922 12.45546875 4.59980469 11.5390625 4.55664062 C10.61867188 4.51732422 9.69828125 4.47800781 8.75 4.4375 C7.81414063 4.39431641 6.87828125 4.35113281 5.9140625 4.30664062 C3.60951359 4.2008195 1.30486161 4.09873443 -1 4 C-0.67 2.68 -0.34 1.36 0 0 Z " fill="#0F1408" transform="translate(570,275)"/>
</svg>
