<?xml version="1.0" encoding="UTF-8"?>
<svg version="1.1" xmlns="http://www.w3.org/2000/svg" width="1000" height="1000">
<path d="M0 0 C1.53599854 0.06960937 1.53599854 0.06960937 3.10302734 0.140625 C71.36732438 3.49055286 137.41924896 22.91897629 194 62 C194.66064453 62.45503906 195.32128906 62.91007812 196.00195312 63.37890625 C200.05209723 66.18510744 204.04472583 69.06179633 208 72 C208.55768066 72.4134668 209.11536133 72.82693359 209.68994141 73.25292969 C216.218248 78.1187715 222.5042565 83.1664131 228.48828125 88.69921875 C230.48927826 90.53216935 232.51832804 92.30146829 234.578125 94.06640625 C239.56596902 98.42065141 244.25645124 103.07038503 248.93579102 107.75048828 C250.42641615 109.23893237 251.92487017 110.71917277 253.42382812 112.19921875 C259.73344544 118.47208683 265.46782637 125.01986354 271 132 C272.00029127 133.20872989 273.00371163 134.41488462 274.01171875 135.6171875 C282.48657734 145.87320807 289.82563769 156.80663473 297 168 C297.41846191 168.6487207 297.83692383 169.29744141 298.26806641 169.96582031 C323.72073214 209.75009108 339.53351355 254.43611985 347.75 300.75 C348.04825684 302.41554932 348.04825684 302.41554932 348.35253906 304.11474609 C351.49511797 322.71417751 352.37938383 341.22764699 352.3125 360.0625 C352.30976578 361.66983002 352.30976578 361.66983002 352.30697632 363.30963135 C352.25917919 380.04672314 351.66507066 396.44511716 349 413 C348.82307617 414.11874512 348.64615234 415.23749023 348.46386719 416.39013672 C333.65987075 507.52803879 286.07747739 577.15294491 222.15479088 640.96127474 C219.08296101 644.02873349 216.01407598 647.09913622 212.94480896 650.16915894 C207.64337237 655.47111659 202.34012694 660.77125918 197.03560257 666.07012749 C189.36641678 673.73114123 181.70003651 681.39495752 174.03430979 689.05943228 C161.59319135 701.49836911 149.14984746 713.93507719 136.70507812 726.37036133 C124.62544703 738.44079517 112.54688027 750.51229245 100.46972656 762.58520508 C99.7236688 763.33100012 98.97761104 764.07679515 98.20894547 764.84519004 C94.46571521 768.58711514 90.72250568 772.32906099 86.97930646 776.07101715 C55.98941801 807.05056075 24.99590682 838.02647802 -6 869 C-9.52863523 867.49259406 -11.79946304 865.45018056 -14.50191975 862.74696922 C-15.85546479 861.40032238 -15.85546479 861.40032238 -17.23635417 860.02647054 C-18.23385715 859.02395238 -19.23126637 858.02134091 -20.22859192 857.01864624 C-21.29082874 855.95799732 -22.35350305 854.89778641 -23.41657752 853.83797705 C-26.34015011 850.92082834 -29.25743285 847.9974589 -32.17374051 845.07304978 C-35.31883872 841.92138194 -38.46968765 838.77547263 -41.61982727 835.62884521 C-47.79273017 829.46098903 -53.96026987 823.28779639 -60.12602571 817.11279647 C-67.30720507 809.92123793 -74.49360376 802.73490452 -81.68021747 795.5487773 C-94.50650514 782.72299055 -107.32795195 769.89237539 -120.14672852 757.05908203 C-132.58158684 744.61014899 -145.01992873 732.16471047 -157.4621582 719.72314453 C-158.22779435 718.95754834 -158.99343049 718.19195216 -159.78226773 717.40315609 C-160.54658569 716.63887848 -161.31090366 715.87460087 -162.09838277 715.08716333 C-176.2626693 700.92356733 -190.42366003 686.75668018 -204.58312688 672.58826601 C-209.58853432 667.57984542 -214.59491489 662.5723988 -219.60160255 657.56525803 C-225.70823378 651.45794344 -231.81296203 645.34873372 -237.91534928 639.23717849 C-241.02784484 636.12007665 -244.14110776 633.00375218 -247.25653839 629.88958359 C-250.11164317 627.03557927 -252.96440826 624.17925733 -255.81536444 621.32110901 C-256.84410914 620.29056122 -257.87368124 619.26083852 -258.90418801 618.23205273 C-264.48757054 612.65695881 -269.88220999 607.00526892 -275 601 C-275.948172 599.92760616 -276.89831886 598.85695073 -277.8515625 597.7890625 C-289.84552591 584.17666232 -300.22699901 569.26796175 -310 554 C-310.35980957 553.43877441 -310.71961914 552.87754883 -311.09033203 552.29931641 C-322.54833444 534.24158828 -332.28649024 514.93714922 -340 495 C-340.32274902 494.18096191 -340.64549805 493.36192383 -340.97802734 492.51806641 C-357.41563265 450.52330761 -365.22315871 405.98691992 -365.25 361 C-365.25067474 359.98077454 -365.25134949 358.96154907 -365.25204468 357.91143799 C-365.23442248 341.09524976 -364.50429484 324.65503957 -362 308 C-361.83371094 306.8661084 -361.66742188 305.7322168 -361.49609375 304.56396484 C-356.12248133 269.00358709 -345.61979651 234.40056893 -330 202 C-329.61376465 201.18660156 -329.2275293 200.37320313 -328.82958984 199.53515625 C-315.08852908 170.69186537 -297.38496331 144.56883975 -276.36816406 120.56347656 C-275.18499264 119.2114013 -274.00972118 117.85242057 -272.8359375 116.4921875 C-262.19582992 104.37314605 -250.7345943 92.9024839 -238 83 C-236.3110779 81.58502904 -234.62363449 80.16829164 -232.9375 78.75 C-205.25661884 56.19810814 -173.39358119 37.70846163 -140 25 C-139.07364746 24.64244629 -138.14729492 24.28489258 -137.19287109 23.91650391 C-94.04018225 7.38320329 -46.38103263 -2.13114899 0 0 Z " fill="#A02211" transform="translate(506,83)"/>
<path d="M0 0 C1.93763733 1.02606201 1.93763733 1.02606201 3.81665039 2.31542969 C4.53679321 2.80343552 5.25693604 3.29144135 5.99890137 3.79423523 C6.77399048 4.33135635 7.54907959 4.86847748 8.34765625 5.421875 C9.58992981 6.26749748 9.58992981 6.26749748 10.8572998 7.13020325 C12.65454208 8.35452727 14.44934257 9.58244165 16.24197388 10.81350708 C21.06637137 14.12580102 25.90913595 17.41105906 30.75 20.69921875 C31.75317764 21.38157089 32.75635529 22.06392303 33.78993225 22.76695251 C44.6437395 30.13905734 55.5957218 37.35995416 66.5625 44.5625 C67.4622757 45.15357544 68.36205139 45.74465088 69.28909302 46.3536377 C70.16765961 46.93077515 71.0462262 47.5079126 71.95141602 48.10253906 C72.81451889 48.6695755 73.67762177 49.23661194 74.56687927 49.8208313 C76.25317647 50.92861221 77.93966433 52.03610293 79.62635803 53.14328003 C86.26275533 57.50365185 92.87194169 61.90407646 99.46498108 66.32972717 C100.16481613 66.79833664 100.86465118 67.26694611 101.58569336 67.74975586 C102.50601601 68.36771278 102.50601601 68.36771278 103.44493103 68.99815369 C105.03753172 70.06395666 105.03753172 70.06395666 107 71 C107 153.5 107 236 107 321 C84.23 321 61.46 321 38 321 C37.5625 291.5625 37.5625 291.5625 37.43188477 282.25610352 C37.39378123 279.83869826 37.35531377 277.4212987 37.31640625 275.00390625 C37.2916925 273.10070618 37.2916925 273.10070618 37.26647949 271.15905762 C37.24629761 269.96131714 37.22611572 268.76357666 37.20532227 267.52954102 C37.18977798 266.48363297 37.1742337 265.43772491 37.15821838 264.36012268 C37.26300176 262.04359303 37.26300176 262.04359303 36 261 C33.57142965 260.89970143 31.17128387 260.86381575 28.7421875 260.87060547 C27.98286926 260.86885315 27.22355103 260.86710083 26.44122314 260.86529541 C23.91912584 260.8608767 21.39709807 260.86381494 18.875 260.8671875 C17.13004544 260.86651447 15.38509096 260.86554445 13.64013672 260.86428833 C9.97818105 260.86281133 6.31624972 260.86496597 2.65429688 260.86962891 C-2.05044492 260.8753262 -6.75512968 260.8720472 -11.45986938 260.86605644 C-15.06453891 260.86245088 -18.66919482 260.86358939 -22.27386475 260.86618423 C-24.00909431 260.86685352 -25.74432509 260.86602504 -27.47955322 260.86370468 C-29.90046487 260.86117823 -32.32128286 260.86501862 -34.7421875 260.87060547 C-35.46637878 260.86858124 -36.19057007 260.86655701 -36.93670654 260.86447144 C-40.25154091 260.5900952 -40.25154091 260.5900952 -43 262 C-43.12337174 263.84031989 -43.17791308 265.68529411 -43.20532227 267.52954102 C-43.22550415 268.72728149 -43.24568604 269.92502197 -43.26647949 271.15905762 C-43.28295532 272.42785767 -43.29943115 273.69665771 -43.31640625 275.00390625 C-43.33505737 276.16273315 -43.3537085 277.32156006 -43.3729248 278.51550293 C-43.44147316 282.86442082 -43.50146139 287.21347022 -43.5625 291.5625 C-43.706875 301.276875 -43.85125 310.99125 -44 321 C-66.77 321 -89.54 321 -113 321 C-113.97355631 289.64365765 -114.78439491 258.30210267 -115.2468745 226.93532698 C-115.30189331 223.21735616 -115.35884467 219.49941729 -115.41699219 215.78149414 C-115.42853385 215.04144745 -115.44007551 214.30140076 -115.45196691 213.53892841 C-115.64250169 201.61627151 -115.9887967 189.7031258 -116.39472303 177.78607909 C-116.80898498 165.52025349 -117.05113084 153.25933551 -117.13989377 140.98680514 C-117.19445118 134.10393705 -117.32436267 127.24089034 -117.6521225 120.36515236 C-119.53422794 79.71351961 -119.53422794 79.71351961 -111.01755786 68.35637498 C-100.83012867 57.53640184 -87.38600903 50.75982101 -74.10545158 44.49485397 C-67.59760816 41.40205699 -61.86841116 37.52455472 -56.03515625 33.31640625 C-54.31789153 32.14792547 -52.59772274 30.98368587 -50.87304688 29.82617188 C-49.26943714 28.73841998 -47.66592111 27.65052993 -46.0625 26.5625 C-44.36932027 25.41575033 -42.67595859 24.26926927 -40.98242188 23.12304688 C-40.14125824 22.55355316 -39.3000946 21.98405945 -38.43344116 21.39730835 C-36.78033842 20.27970509 -35.12610201 19.16377646 -33.47061157 18.04971313 C-29.04221371 15.06879069 -24.63832078 12.05758034 -20.25732422 9.00732422 C-18.35785047 7.70134747 -16.45827621 6.39551688 -14.55859375 5.08984375 C-13.23517723 4.1541732 -13.23517723 4.1541732 -11.88502502 3.19960022 C-11.05728073 2.63478439 -10.22953644 2.06996857 -9.37670898 1.48803711 C-8.65080063 0.98259872 -7.92489227 0.47716034 -7.17698669 -0.04359436 C-4.3273845 -1.2954971 -2.92992467 -0.95114729 0 0 Z " fill="#FDFCFB" transform="translate(503,336)"/>
<path d="M0 0 C36.3 0 72.6 0 110 0 C110 33.99 110 67.98 110 103 C73.7 103 37.4 103 0 103 C0 69.01 0 35.02 0 0 Z " fill="#FEFEFE" transform="translate(622,553)"/>
<path d="M0 0 C36.3 0 72.6 0 110 0 C110 33.99 110 67.98 110 103 C73.7 103 37.4 103 0 103 C0 69.01 0 35.02 0 0 Z " fill="#FFFFFF" transform="translate(268,553)"/>
<path d="M0 0 C0.82966278 0.00247742 1.65932556 0.00495483 2.51412964 0.00750732 C3.38742416 0.00239639 4.26071869 -0.00271454 5.16047668 -0.00798035 C8.05715727 -0.02191952 10.95360108 -0.02091632 13.85031128 -0.01861572 C15.85808908 -0.02250032 17.86586606 -0.0268345 19.87364197 -0.03160095 C24.08618837 -0.03907251 28.29865098 -0.03876516 32.51119995 -0.0335083 C37.9164561 -0.02771292 43.32136969 -0.04464185 48.72656918 -0.06785297 C52.87434402 -0.08256656 57.02203592 -0.08346525 61.16983223 -0.08034325 C63.16298666 -0.08085767 65.1561456 -0.08611803 67.14927483 -0.09615517 C69.93388158 -0.10845608 72.71781536 -0.10176616 75.50241089 -0.09014893 C76.33004944 -0.09779266 77.15768799 -0.1054364 78.01040649 -0.11331177 C83.63654307 -0.06128396 83.63654307 -0.06128396 85.80089664 1.64198017 C87.07296753 3.28216553 87.07296753 3.28216553 87.19015503 5.89935303 C85.54779452 10.87237472 82.48476187 14.3855988 79.19796753 18.40716553 C77.92973323 19.99309892 76.66150389 21.57903629 75.39328003 23.16497803 C74.82883179 23.85994385 74.26438354 24.55490967 73.68283081 25.27093506 C73.15157593 25.93464111 72.62032104 26.59834717 72.07296753 27.28216553 C71.48886108 27.92395752 70.90475464 28.56574951 70.302948 29.22698975 C68.84056471 31.23917503 68.84056471 31.23917503 69.19454956 33.76654053 C70.15464099 36.51606305 71.30109993 38.27056678 73.12765503 40.53216553 C74.04997925 41.69232178 74.04997925 41.69232178 74.99093628 42.87591553 C75.63675659 43.66997803 76.2825769 44.46404053 76.94796753 45.28216553 C87.13590459 57.96048721 87.13590459 57.96048721 86.94796753 61.90716553 C85.94649516 64.62544767 85.42752755 65.59846021 83.07296753 67.28216553 C80.46114543 67.56260473 78.09071372 67.66141887 75.48043823 67.6227417 C74.70946808 67.62317978 73.93849792 67.62361786 73.14416504 67.62406921 C70.59543548 67.62197891 68.04736345 67.59863699 65.49874878 67.57513428 C63.73184061 67.56953917 61.96492779 67.56526867 60.19801331 67.56227112 C55.54706986 67.5508156 50.89640737 67.5213424 46.24557495 67.48815918 C40.66558387 67.45207857 35.08549885 67.4383005 29.5054245 67.42079926 C21.02774342 67.3917054 12.55067885 67.33422334 4.07296753 67.28216553 C4.07296753 84.77216553 4.07296753 102.26216553 4.07296753 120.28216553 C0.11296753 120.28216553 -3.84703247 120.28216553 -7.92703247 120.28216553 C-7.97328889 104.93143276 -8.0090004 89.58070803 -8.03065681 74.22992134 C-8.0409786 67.10261796 -8.05505608 59.97535862 -8.07791138 52.8480835 C-8.0999405 45.97518367 -8.11158772 39.10232972 -8.11678696 32.22939682 C-8.1204941 29.60183871 -8.12773277 26.97428323 -8.13849258 24.34674454 C-8.15292347 20.67818956 -8.15501394 17.00982616 -8.15408325 13.34124756 C-8.1612738 12.24505096 -8.16846436 11.14885437 -8.1758728 10.0194397 C-8.17312347 9.02382019 -8.17037415 8.02820068 -8.1675415 7.00241089 C-8.16938509 6.1340819 -8.17122868 5.26575291 -8.17312813 4.37111092 C-7.59623038 -0.52579752 -4.09907928 0.03843015 0 0 Z " fill="#FEFDFD" transform="translate(501.9270324707031,205.71783447265625)"/>
<path d="M0 0 C36.63 0 73.26 0 111 0 C111 13.53 111 27.06 111 41 C74.37 41 37.74 41 0 41 C0 27.47 0 13.94 0 0 Z " fill="#FDFBFB" transform="translate(622,500)"/>
<path d="M0 0 C36.63 0 73.26 0 111 0 C111 13.53 111 27.06 111 41 C74.37 41 37.74 41 0 41 C0 27.47 0 13.94 0 0 Z " fill="#FDFBFB" transform="translate(267,500)"/>
<path d="M0 0 C1.78700317 -0.01407143 1.78700317 -0.01407143 3.61010742 -0.02842712 C4.89763916 -0.01719315 6.1851709 -0.00595917 7.51171875 0.00561523 C8.84545979 0.00546026 10.17920128 0.00397157 11.51293945 0.00120544 C14.30733158 -0.0001789 17.10121065 0.01238414 19.89550781 0.03515625 C23.47699347 0.06354198 27.05762667 0.06080453 30.63917542 0.04806614 C33.39301838 0.0411103 36.14666437 0.04889695 38.90048218 0.06132317 C40.8630868 0.06803442 42.82571909 0.06369421 44.78833008 0.05921936 C46.57533325 0.07824562 46.57533325 0.07824562 48.3984375 0.09765625 C49.44862061 0.10305923 50.49880371 0.10846222 51.58081055 0.11402893 C54.19921875 0.50170898 54.19921875 0.50170898 56.03552246 1.75819397 C57.48099439 3.92388104 57.59039357 5.20730488 57.61914062 7.80200195 C57.64300842 9.09882401 57.64300842 9.09882401 57.6673584 10.42184448 C57.66755981 11.35312164 57.66776123 12.2843988 57.66796875 13.24389648 C57.67938904 14.68468063 57.67938904 14.68468063 57.69104004 16.15457153 C57.70184789 18.187087 57.70469137 20.21965804 57.70019531 22.25219727 C57.69922446 25.35844975 57.74080744 28.4622205 57.78515625 31.56811523 C57.79036436 33.5433705 57.79305143 35.51863435 57.79296875 37.49389648 C57.80936401 38.42112518 57.82575928 39.34835388 57.84265137 40.30368042 C57.79836825 44.44793761 57.52058133 46.93601053 55.44726562 50.58569336 C50.35363302 53.5904159 45.4469281 53.21546224 39.63671875 53.16577148 C38.41267334 53.17055511 37.18862793 53.17533875 35.92749023 53.18026733 C33.34194655 53.18366676 30.75635991 53.17446162 28.17089844 53.15356445 C24.21321779 53.12680364 20.25837367 53.15331523 16.30078125 53.18530273 C13.78775416 53.18199865 11.27472883 53.17559245 8.76171875 53.16577148 C7.57827881 53.17589264 6.39483887 53.18601379 5.17553711 53.19644165 C0.34652041 53.12754249 -2.85014771 53.06713015 -7.04882812 50.56982422 C-9.52400615 46.23515836 -9.48384468 42.66264731 -9.39453125 37.74780273 C-9.39457153 36.80993423 -9.39461182 35.87206573 -9.39465332 34.90577698 C-9.38930356 32.9280017 -9.37174411 30.95022657 -9.34277344 28.97265625 C-9.3008735 25.94587277 -9.30171024 22.92131208 -9.30859375 19.89428711 C-9.29810233 17.97044353 -9.28516449 16.0466114 -9.26953125 14.12280273 C-9.26932983 13.21856064 -9.26912842 12.31431854 -9.2689209 11.38267517 C-9.25300903 10.53822342 -9.23709717 9.69377167 -9.22070312 8.82373047 C-9.21228394 8.08380356 -9.20386475 7.34387665 -9.19519043 6.58152771 C-8.13347672 0.98284451 -5.32925611 0.00084324 0 0 Z " fill="#A22716" transform="translate(524.80078125,447.498291015625)"/>
<path d="M0 0 C1.14799072 -0.01260864 2.29598145 -0.02521729 3.47875977 -0.03820801 C4.71424561 -0.03011108 5.94973145 -0.02201416 7.22265625 -0.01367188 C8.49488037 -0.01749878 9.76710449 -0.02132568 11.07788086 -0.02526855 C13.76829452 -0.02799114 16.45725496 -0.02262001 19.14746094 -0.00390625 C22.5911037 0.01888451 26.03349952 0.00575844 29.47709656 -0.01819611 C32.76732753 -0.0361474 36.057409 -0.02356908 39.34765625 -0.01367188 C40.58314209 -0.0217688 41.81862793 -0.02986572 43.09155273 -0.03820801 C44.81353882 -0.01929504 44.81353882 -0.01929504 46.5703125 0 C47.579729 0.00318237 48.58914551 0.00636475 49.62915039 0.00964355 C53.04332742 0.66257078 54.22186682 1.75467976 56.28515625 4.51757812 C56.79981995 6.64208984 56.79981995 6.64208984 56.81860352 8.94726562 C56.83443985 9.81496582 56.85027618 10.68266602 56.86659241 11.57666016 C56.86163254 12.50591309 56.85667267 13.43516602 56.8515625 14.39257812 C56.85776108 15.35405762 56.86395966 16.31553711 56.87034607 17.30615234 C56.87744307 19.33690377 56.87427233 21.36771339 56.86157227 23.3984375 C56.84770368 26.5069469 56.88178226 29.61244788 56.91992188 32.72070312 C56.92087305 34.6946622 56.91901434 36.66862504 56.9140625 38.64257812 C56.92732071 39.57183105 56.94057892 40.50108398 56.95423889 41.45849609 C56.89712643 45.41254143 56.78340585 47.78424625 54.53100586 51.09936523 C49.36212212 53.35781169 44.30333164 53.10737333 38.72265625 53.08398438 C37.49861084 53.09018295 36.27456543 53.09638153 35.01342773 53.10276794 C32.42790522 53.10986548 29.842337 53.10669338 27.25683594 53.09399414 C23.2992759 53.0801276 19.34407918 53.11420704 15.38671875 53.15234375 C12.87369734 53.15329492 10.36067296 53.15143622 7.84765625 53.14648438 C6.66421631 53.15974258 5.48077637 53.17300079 4.26147461 53.18666077 C-0.56910684 53.13185387 -3.75976134 53.08538341 -7.96069336 50.58789062 C-10.43569008 46.25587131 -10.41596229 42.67770034 -10.34375 37.76367188 C-10.34616196 36.82580338 -10.34857391 35.88793488 -10.35105896 34.92164612 C-10.35008161 32.94389608 -10.33671483 30.96611832 -10.31176758 28.98852539 C-10.27741615 25.96145823 -10.29112474 22.93730431 -10.31054688 19.91015625 C-10.30364938 17.9863157 -10.29397787 16.06248268 -10.28125 14.13867188 C-10.2886898 12.78230873 -10.2886898 12.78230873 -10.29627991 11.39854431 C-10.28044357 10.55409256 -10.26460724 9.70964081 -10.24829102 8.83959961 C-10.23899315 7.72970924 -10.23899315 7.72970924 -10.22950745 6.59739685 C-8.87964078 1.14242111 -5.12760551 0.01616573 0 0 Z " fill="#A22817" transform="translate(525.71484375,520.482421875)"/>
<path d="M0 0 C1.75697205 -0.01418472 1.75697205 -0.01418472 3.54943848 -0.02865601 C5.44792542 -0.01954697 5.44792542 -0.01954697 7.38476562 -0.01025391 C8.68297241 -0.01312408 9.9811792 -0.01599426 11.31872559 -0.01895142 C14.06594553 -0.02337316 16.8128727 -0.016949 19.56005859 -0.00292969 C23.08098403 0.01416268 26.60122345 0.00432061 30.12212372 -0.01364708 C33.48055934 -0.02709598 36.83881051 -0.01767904 40.19726562 -0.01025391 C41.46292358 -0.0163266 42.72858154 -0.02239929 44.03259277 -0.02865601 C45.20390747 -0.01919952 46.37522217 -0.00974304 47.58203125 0 C49.13065857 0.00358017 49.13065857 0.00358017 50.71057129 0.00723267 C53.29101562 0.38818359 53.29101562 0.38818359 55.12257385 1.63021851 C56.6066292 3.86303621 56.67704798 5.2306796 56.69506836 7.90380859 C56.70775253 8.81485352 56.72043671 9.72589844 56.73350525 10.66455078 C56.73056961 11.64584961 56.72763397 12.62714844 56.72460938 13.63818359 C56.72985123 14.6478418 56.73509308 15.6575 56.74049377 16.69775391 C56.74691841 18.83283569 56.7455713 20.96795285 56.73706055 23.10302734 C56.72854783 26.37580126 56.75731118 29.64683209 56.7890625 32.91943359 C56.79067446 34.99234974 56.79009709 37.06526898 56.78710938 39.13818359 C56.79834335 40.11948242 56.80957733 41.10078125 56.82115173 42.11181641 C56.80708031 43.47838379 56.80708031 43.47838379 56.79272461 44.87255859 C56.79255844 45.6740332 56.79239227 46.47550781 56.79222107 47.30126953 C56.29101562 49.38818359 56.29101562 49.38818359 54.61109924 51.14515686 C51.77200522 52.6662528 49.88322189 52.77471812 46.66796875 52.79223633 C45.53999878 52.8049205 44.41202881 52.81760468 43.24987793 52.83067322 C42.03626587 52.82773758 40.82265381 52.82480194 39.57226562 52.82177734 C38.32223755 52.8270192 37.07220947 52.83226105 35.78430176 52.83766174 C33.14119985 52.84408575 30.49896119 52.84417889 27.85595703 52.83422852 C24.4728861 52.82273151 21.09085785 52.84296319 17.70792389 52.87214565 C14.47519907 52.8949239 11.24255191 52.88804082 8.00976562 52.88427734 C6.79615356 52.89551132 5.5825415 52.9067453 4.33215332 52.9183197 C2.64019836 52.90424828 2.64019836 52.90424828 0.9140625 52.88989258 C-0.07758911 52.88972641 -1.06924072 52.88956024 -2.09094238 52.88938904 C-5.48429281 52.23975633 -6.6597207 51.13558735 -8.70898438 48.38818359 C-9.21018982 46.21897888 -9.21018982 46.21897888 -9.21069336 43.85083008 C-9.22007431 42.95988144 -9.22945526 42.0689328 -9.23912048 41.15098572 C-9.22788651 40.19672195 -9.21665253 39.24245819 -9.20507812 38.25927734 C-9.20653336 37.27323013 -9.20798859 36.28718292 -9.20948792 35.27125549 C-9.20782951 33.18918906 -9.19627476 31.1071103 -9.17553711 29.02514648 C-9.14655791 25.83378216 -9.15493444 22.64407626 -9.16796875 19.45263672 C-9.16173208 17.42984217 -9.15334169 15.40705287 -9.14257812 13.38427734 C-9.14551376 12.42798935 -9.1484494 11.47170135 -9.151474 10.48643494 C-9.13878983 9.59863846 -9.12610565 8.71084198 -9.11303711 7.79614258 C-9.10763412 7.01544907 -9.10223114 6.23475555 -9.09666443 5.43040466 C-8.1112166 0.23926238 -4.70639253 0.0108804 0 0 Z " fill="#A22717" transform="translate(426.708984375,520.61181640625)"/>
<path d="M0 0 C1.75697205 -0.01418472 1.75697205 -0.01418472 3.54943848 -0.02865601 C5.44792542 -0.01954697 5.44792542 -0.01954697 7.38476562 -0.01025391 C8.68297241 -0.01312408 9.9811792 -0.01599426 11.31872559 -0.01895142 C14.06594553 -0.02337316 16.8128727 -0.016949 19.56005859 -0.00292969 C23.08098403 0.01416268 26.60122345 0.00432061 30.12212372 -0.01364708 C33.48055934 -0.02709598 36.83881051 -0.01767904 40.19726562 -0.01025391 C41.46292358 -0.0163266 42.72858154 -0.02239929 44.03259277 -0.02865601 C45.20390747 -0.01919952 46.37522217 -0.00974304 47.58203125 0 C49.13065857 0.00358017 49.13065857 0.00358017 50.71057129 0.00723267 C53.29101562 0.38818359 53.29101562 0.38818359 55.12356567 1.63595581 C56.5950783 3.84455182 56.67114316 5.16676798 56.67919922 7.81201172 C56.6886557 8.70303589 56.69811218 9.59406006 56.70785522 10.51208496 C56.70178253 11.47151001 56.69570984 12.43093506 56.68945312 13.41943359 C56.6923233 14.40689575 56.69519348 15.39435791 56.69815063 16.41174316 C56.70019237 18.49976169 56.69465487 20.5877993 56.68212891 22.67578125 C56.66607713 25.87592243 56.68197422 29.07480055 56.70117188 32.27490234 C56.69918946 34.30224889 56.69534583 36.32959464 56.68945312 38.35693359 C56.69552582 39.31635864 56.70159851 40.27578369 56.70785522 41.26428223 C56.6936705 42.60081848 56.6936705 42.60081848 56.67919922 43.96435547 C56.67681244 44.74806519 56.67442566 45.5317749 56.67196655 46.3392334 C56.29101562 48.38818359 56.29101562 48.38818359 55.12356567 50.14041138 C52.55014226 51.89263977 50.68271523 51.76919892 47.58203125 51.77636719 C45.8250592 51.79055191 45.8250592 51.79055191 44.03259277 51.80502319 C42.76693481 51.7989505 41.50127686 51.79287781 40.19726562 51.78662109 C38.24995544 51.79092636 38.24995544 51.79092636 36.26330566 51.7953186 C33.51608572 51.79974035 30.76915855 51.79331618 28.02197266 51.77929688 C24.50104722 51.76220451 20.9808078 51.77204657 17.45990753 51.79001427 C14.10147191 51.80346317 10.74322074 51.79404623 7.38476562 51.78662109 C6.11910767 51.79269379 4.85344971 51.79876648 3.54943848 51.80502319 C2.37812378 51.79556671 1.20680908 51.78611023 0 51.77636719 C-1.54862732 51.77278702 -1.54862732 51.77278702 -3.12854004 51.76913452 C-5.70898438 51.38818359 -5.70898438 51.38818359 -7.54153442 50.14041138 C-9.01304705 47.93181537 -9.08911191 46.6095992 -9.09716797 43.96435547 C-9.10662445 43.0733313 -9.11608093 42.18230713 -9.12582397 41.26428223 C-9.11671494 39.82514465 -9.11671494 39.82514465 -9.10742188 38.35693359 C-9.11029205 37.36947144 -9.11316223 36.38200928 -9.11611938 35.36462402 C-9.11816112 33.2766055 -9.11262362 31.18856789 -9.10009766 29.10058594 C-9.08404588 25.90044476 -9.09994297 22.70156663 -9.11914062 19.50146484 C-9.11715821 17.4741183 -9.11331458 15.44677254 -9.10742188 13.41943359 C-9.11349457 12.46000854 -9.11956726 11.5005835 -9.12582397 10.51208496 C-9.11636749 9.62106079 -9.10691101 8.73003662 -9.09716797 7.81201172 C-9.09478119 7.028302 -9.09239441 6.24459229 -9.0899353 5.43713379 C-8.70898438 3.38818359 -8.70898438 3.38818359 -7.54153442 1.63595581 C-4.96811101 -0.11627259 -3.10068398 0.00716827 0 0 Z " fill="#A02312" transform="translate(426.708984375,447.61181640625)"/>
<path d="M0 0 C19.14 0 38.28 0 58 0 C58 15.84 58 31.68 58 48 C38.86 48 19.72 48 0 48 C0 32.16 0 16.32 0 0 Z " fill="#FEFEFE" transform="translate(471,608)"/>
<path d="M0 0 C13.2 0 26.4 0 40 0 C40 9.24 40 18.48 40 28 C26.8 28 13.6 28 0 28 C0 18.76 0 9.52 0 0 Z " fill="#FFFFFF" transform="translate(529,460)"/>
<path d="M0 0 C13.2 0 26.4 0 40 0 C40 9.24 40 18.48 40 28 C26.8 28 13.6 28 0 28 C0 18.76 0 9.52 0 0 Z " fill="#FEFEFE" transform="translate(431,460)"/>
<path d="M0 0 C13.2 0 26.4 0 40 0 C40 8.58 40 17.16 40 26 C26.8 26 13.6 26 0 26 C0 17.42 0 8.84 0 0 Z " fill="#FFFFFF" transform="translate(529,534)"/>
<path d="M0 0 C13.2 0 26.4 0 40 0 C40 8.58 40 17.16 40 26 C26.8 26 13.6 26 0 26 C0 17.42 0 8.84 0 0 Z " fill="#FEFEFE" transform="translate(431,534)"/>
</svg>
