<?xml version="1.0" encoding="UTF-8"?>
<svg version="1.1" xmlns="http://www.w3.org/2000/svg" width="1000" height="1000">
<path d="M0 0 C1.53599854 0.06960937 1.53599854 0.06960937 3.10302734 0.140625 C71.36732438 3.49055286 137.41924896 22.91897629 194 62 C194.66064453 62.45503906 195.32128906 62.91007812 196.00195312 63.37890625 C200.05209723 66.18510744 204.04472583 69.06179633 208 72 C208.55768066 72.4134668 209.11536133 72.82693359 209.68994141 73.25292969 C216.218248 78.1187715 222.5042565 83.1664131 228.48828125 88.69921875 C230.48927826 90.53216935 232.51832804 92.30146829 234.578125 94.06640625 C239.56596902 98.42065141 244.25645124 103.07038503 248.93579102 107.75048828 C250.42641615 109.23893237 251.92487017 110.71917277 253.42382812 112.19921875 C259.73344544 118.47208683 265.46782637 125.01986354 271 132 C272.00029127 133.20872989 273.00371163 134.41488462 274.01171875 135.6171875 C282.48657734 145.87320807 289.82563769 156.80663473 297 168 C297.41846191 168.6487207 297.83692383 169.29744141 298.26806641 169.96582031 C323.72073214 209.75009108 339.53351355 254.43611985 347.75 300.75 C348.04825684 302.41554932 348.04825684 302.41554932 348.35253906 304.11474609 C351.49511797 322.71417751 352.37938383 341.22764699 352.3125 360.0625 C352.30976578 361.66983002 352.30976578 361.66983002 352.30697632 363.30963135 C352.25917919 380.04672314 351.66507066 396.44511716 349 413 C348.82307617 414.11874512 348.64615234 415.23749023 348.46386719 416.39013672 C333.65987075 507.52803879 286.07747739 577.15294491 222.15479088 640.96127474 C219.08296101 644.02873349 216.01407598 647.09913622 212.94480896 650.16915894 C207.64337237 655.47111659 202.34012694 660.77125918 197.03560257 666.07012749 C189.36641678 673.73114123 181.70003651 681.39495752 174.03430979 689.05943228 C161.59319135 701.49836911 149.14984746 713.93507719 136.70507812 726.37036133 C124.62544703 738.44079517 112.54688027 750.51229245 100.46972656 762.58520508 C99.7236688 763.33100012 98.97761104 764.07679515 98.20894547 764.84519004 C94.46571521 768.58711514 90.72250568 772.32906099 86.97930646 776.07101715 C55.98941801 807.05056075 24.99590682 838.02647802 -6 869 C-9.52863523 867.49259406 -11.79946304 865.45018056 -14.50191975 862.74696922 C-15.85546479 861.40032238 -15.85546479 861.40032238 -17.23635417 860.02647054 C-18.23385715 859.02395238 -19.23126637 858.02134091 -20.22859192 857.01864624 C-21.29082874 855.95799732 -22.35350305 854.89778641 -23.41657752 853.83797705 C-26.34015011 850.92082834 -29.25743285 847.9974589 -32.17374051 845.07304978 C-35.31883872 841.92138194 -38.46968765 838.77547263 -41.61982727 835.62884521 C-47.79273017 829.46098903 -53.96026987 823.28779639 -60.12602571 817.11279647 C-67.30720507 809.92123793 -74.49360376 802.73490452 -81.68021747 795.5487773 C-94.50650514 782.72299055 -107.32795195 769.89237539 -120.14672852 757.05908203 C-132.58158684 744.61014899 -145.01992873 732.16471047 -157.4621582 719.72314453 C-158.22779435 718.95754834 -158.99343049 718.19195216 -159.78226773 717.40315609 C-160.54658569 716.63887848 -161.31090366 715.87460087 -162.09838277 715.08716333 C-176.2626693 700.92356733 -190.42366003 686.75668018 -204.58312688 672.58826601 C-209.58853432 667.57984542 -214.59491489 662.5723988 -219.60160255 657.56525803 C-225.70823378 651.45794344 -231.81296203 645.34873372 -237.91534928 639.23717849 C-241.02784484 636.12007665 -244.14110776 633.00375218 -247.25653839 629.88958359 C-250.11164317 627.03557927 -252.96440826 624.17925733 -255.81536444 621.32110901 C-256.84410914 620.29056122 -257.87368124 619.26083852 -258.90418801 618.23205273 C-264.48757054 612.65695881 -269.88220999 607.00526892 -275 601 C-275.948172 599.92760616 -276.89831886 598.85695073 -277.8515625 597.7890625 C-289.84552591 584.17666232 -300.22699901 569.26796175 -310 554 C-310.35980957 553.43877441 -310.71961914 552.87754883 -311.09033203 552.29931641 C-322.54833444 534.24158828 -332.28649024 514.93714922 -340 495 C-340.32274902 494.18096191 -340.64549805 493.36192383 -340.97802734 492.51806641 C-357.41563265 450.52330761 -365.22315871 405.98691992 -365.25 361 C-365.25067474 359.98077454 -365.25134949 358.96154907 -365.25204468 357.91143799 C-365.23442248 341.09524976 -364.50429484 324.65503957 -362 308 C-361.83371094 306.8661084 -361.66742188 305.7322168 -361.49609375 304.56396484 C-356.12248133 269.00358709 -345.61979651 234.40056893 -330 202 C-329.61376465 201.18660156 -329.2275293 200.37320313 -328.82958984 199.53515625 C-315.08852908 170.69186537 -297.38496331 144.56883975 -276.36816406 120.56347656 C-275.18499264 119.2114013 -274.00972118 117.85242057 -272.8359375 116.4921875 C-262.19582992 104.37314605 -250.7345943 92.9024839 -238 83 C-236.3110779 81.58502904 -234.62363449 80.16829164 -232.9375 78.75 C-205.25661884 56.19810814 -173.39358119 37.70846163 -140 25 C-139.07364746 24.64244629 -138.14729492 24.28489258 -137.19287109 23.91650391 C-94.04018225 7.38320329 -46.38103263 -2.13114899 0 0 Z " fill="#FF0101" transform="translate(506,83)"/>
<path d="M0 0 C141.9 0 283.8 0 430 0 C430 97.35 430 194.7 430 295 C422.74 295 415.48 295 408 295 C407.505 177.685 407.505 177.685 407 58 C376.64 58 346.28 58 315 58 C313.62520555 62.78483659 313.62520555 62.78483659 312.32421875 67.58984375 C309.72715844 77.16550784 305.29898675 84.3331009 297 90 C287.34261684 94.79238563 277.90768418 96.87854368 267.4375 93.4375 C256.53999668 89.02000925 250.6659531 82.07018843 245.875 71.5234375 C244.95253216 68.86310615 244.63469454 66.55267991 244.4375 63.75 C244.44505015 60.56912027 244.44505015 60.56912027 243 58 C240.14445419 57.89944887 237.31305977 57.86384456 234.45703125 57.87060547 C233.56116302 57.86885315 232.6652948 57.86710083 231.74227905 57.86529541 C228.76566663 57.86087553 225.78911308 57.86381536 222.8125 57.8671875 C220.75366199 57.8665145 218.69482406 57.86554451 216.63598633 57.86428833 C212.31493373 57.86281117 207.99390177 57.86496649 203.67285156 57.86962891 C198.12063454 57.8753262 192.56846586 57.87204729 187.01625061 57.86605644 C182.76305779 57.86245131 178.50987651 57.86358919 174.25668335 57.86618423 C172.20885207 57.86685364 170.16101977 57.86602462 168.1131897 57.86370468 C165.25642092 57.86117894 162.39973157 57.86501764 159.54296875 57.87060547 C158.26031631 57.86756912 158.26031631 57.86756912 156.95175171 57.86447144 C153.16936347 57.50999165 153.16936347 57.50999165 150 59 C149.88955138 62.03371647 149.84502424 65.04515329 149.84178162 68.07972717 C149.83684364 69.04429995 149.83190566 70.00887274 149.82681805 71.002675 C149.81136098 74.26097746 149.80306034 77.5192601 149.79467773 80.77758789 C149.78510565 83.10283078 149.77509598 85.4280719 149.76467896 87.75331116 C149.73755121 94.08774943 149.7165844 100.42219522 149.69667697 106.75665975 C149.67707316 112.69928402 149.65290959 118.64188822 149.62875474 124.58449548 C149.58104789 136.35815654 149.53779212 148.13182961 149.49731445 159.90551758 C149.45797524 171.34530574 149.41655282 182.78508321 149.37231445 194.22485352 C149.36822804 195.28185586 149.36822804 195.28185586 149.36405908 196.3602118 C149.35037986 199.89518211 149.33665954 203.43015227 149.32291877 206.96512234 C149.20890542 236.31005909 149.10238011 265.65502038 149 295 C136.79 295 124.58 295 112 295 C111.67 249.79 111.34 204.58 111 158 C96.665625 157.979375 82.33125 157.95875 67.5625 157.9375 C63.02959229 157.928396 58.49668457 157.91929199 53.82641602 157.90991211 C49.77751961 157.90656852 49.77751961 157.90656852 45.72862244 157.90455627 C43.91949722 157.90301659 42.11037305 157.89949118 40.30125427 157.89442444 C37.56743577 157.887148 34.83368019 157.88609255 32.09985352 157.88647461 C31.28840409 157.8828765 30.47695467 157.87927839 29.64091587 157.87557125 C26.0227715 157.54041574 26.0227715 157.54041574 23 159 C22.89147769 160.75855767 22.85312758 162.52147399 22.84178162 164.28334045 C22.82709839 166.00188988 22.82709839 166.00188988 22.81211853 167.75515747 C22.80636307 169.02326263 22.8006076 170.2913678 22.79467773 171.59790039 C22.78510434 172.93793544 22.77509458 174.27796744 22.76467896 175.61799622 C22.73756542 179.26656149 22.7165909 182.91513979 22.69667697 186.56375051 C22.67485705 190.37280116 22.64744889 194.18181139 22.62062073 197.99082947 C22.57063966 205.20854822 22.52572099 212.42628934 22.48259836 219.64405197 C22.43327215 227.85918128 22.37833696 236.07427004 22.32291877 244.28936017 C22.20901565 261.19286957 22.10239381 278.0964171 22 295 C14.74 295 7.48 295 0 295 C0 197.65 0 100.3 0 0 Z " fill="#FFFDFD" transform="translate(285,357)"/>
<path d="M0 0 C26.4 0 52.8 0 80 0 C81.32 4.29 82.64 8.58 84 13 C89.87047682 24.60443092 98.35233838 32.41220098 110.796875 36.60546875 C123.23543954 38.83294219 134.77178437 37.0014644 145.58984375 30.42578125 C154.06776221 24.37415559 158.94901184 15.84139259 162 6 C162.33 4.02 162.66 2.04 163 0 C189.73 0 216.46 0 244 0 C244 76.23 244 152.46 244 231 C228.16 231 212.32 231 196 231 C196 220.11 196 209.22 196 198 C199.3 197.67 202.6 197.34 206 197 C210.09383631 194.87997763 212.3002015 193.25715299 214 189 C214.66934214 184.21342537 214.7052646 180.25380373 212.3125 176 C209.92499582 173.93513152 207.92921849 173.08813423 205 172 C204.99453156 170.42931763 204.99453156 170.42931763 204.98895264 168.8269043 C204.95194886 158.93996284 204.89411735 149.05333129 204.81609726 139.16662598 C204.77665374 134.08421572 204.74444988 129.00197793 204.72900391 123.91943359 C204.71381681 119.01089 204.67933466 114.10282061 204.63169098 109.19448853 C204.61689837 107.32553234 204.60896021 105.45650844 204.60811615 103.5874939 C204.60573833 100.96146588 204.57859416 98.33673973 204.54589844 95.7109375 C204.55344398 94.56186165 204.55344398 94.56186165 204.56114197 93.38957214 C204.43876727 87.00203825 202.42881275 81.87243152 198.2890625 76.9765625 C197.73992187 76.53054688 197.19078125 76.08453125 196.625 75.625 C196.08101562 75.16351563 195.53703125 74.70203125 194.9765625 74.2265625 C189.81119296 71.02117508 184.47265454 70.67654056 178.5390625 70.5859375 C177.74849457 70.56657135 176.95792664 70.5472052 176.1434021 70.5272522 C173.63737517 70.46783947 171.13130135 70.42122573 168.625 70.375 C166.91794957 70.33678487 165.21091769 70.29773111 163.50390625 70.2578125 C159.33608956 70.16216989 155.1681827 70.07799885 151 70 C150.82368042 68.8709021 150.82368042 68.8709021 150.64379883 67.71899414 C150.47904053 66.73020264 150.31428223 65.74141113 150.14453125 64.72265625 C149.98573486 63.74304932 149.82693848 62.76344238 149.66333008 61.75415039 C148.66477905 57.60816062 147.14900435 55.85607371 144 53 C139.78610011 50.80740938 135.756698 50.67849612 131.1015625 50.6640625 C130.34837738 50.6574057 129.59519226 50.6507489 128.81918335 50.64389038 C127.23071726 50.63379738 125.64220906 50.62907232 124.05371094 50.62939453 C121.63925394 50.62502579 119.22663353 50.58868669 116.8125 50.55078125 C115.26302703 50.5449112 113.71354545 50.54094307 112.1640625 50.5390625 C111.45029449 50.52469147 110.73652649 50.51032043 110.00112915 50.49551392 C104.48073109 50.54517109 101.45430407 51.98356181 97 55 C94.15349956 58.22603383 93.80037067 61.02129628 93.4296875 65.1796875 C93.34702637 66.08187012 93.26436523 66.98405273 93.17919922 67.91357422 C93.12006348 68.60209473 93.06092773 69.29061523 93 70 C91.9262915 70.0093457 90.85258301 70.01869141 89.74633789 70.02832031 C85.72591122 70.0684839 81.70622875 70.1343129 77.6862793 70.20751953 C75.95330434 70.23557737 74.22020503 70.25686675 72.48706055 70.27099609 C57.94096628 69.95113954 57.94096628 69.95113954 45.44189453 76.44628906 C40.56778302 81.93635024 39.70056657 86.25838964 39.68115234 93.44042969 C39.66608391 94.7141468 39.66608391 94.7141468 39.65071106 96.01359558 C39.61985527 98.81634859 39.60283725 101.61900597 39.5859375 104.421875 C39.56722778 106.36672795 39.54765452 108.31157276 39.5272522 110.25640869 C39.47590429 115.37240811 39.43629274 120.48843386 39.39910889 125.60455322 C39.35908596 130.82627896 39.3079858 136.04789493 39.2578125 141.26953125 C39.1610217 151.51294376 39.07662695 161.7564182 39 172 C37.88496094 172.43828125 36.76992188 172.8765625 35.62109375 173.328125 C31.87382894 174.69161025 31.87382894 174.69161025 30.0625 177.75 C28.41542129 182.78812312 28.35236565 186.36549426 30.3125 191.3125 C31.87948487 194.21553887 31.87948487 194.21553887 35 196 C39.29 196.33 43.58 196.66 48 197 C48 208.22 48 219.44 48 231 C32.16 231 16.32 231 0 231 C0 154.77 0 78.54 0 0 Z " fill="#FFFDFD" transform="translate(442,421)"/>
<path d="M0 0 C151.14 0 302.28 0 458 0 C458 10.56 458 21.12 458 32 C306.86 32 155.72 32 0 32 C0 21.44 0 10.88 0 0 Z " fill="#FFFFFF" transform="translate(271,317)"/>
<path d="M0 0 C49.83 0 99.66 0 151 0 C151 13.2 151 26.4 151 40 C101.17 40 51.34 40 0 40 C0 26.8 0 13.6 0 0 Z " fill="#FFFAFA" transform="translate(488,552)"/>
<path d="M0 0 C42.57 0 85.14 0 129 0 C129 19.47 129 38.94 129 59 C117.78 59 106.56 59 95 59 C94.625 46.5625 94.625 46.5625 94.52197266 42.69750977 C94.13950041 31.59975751 93.09046859 24.13850624 85.875 15.4375 C77.41887425 8.26817599 69.49467059 6.94932929 58.65234375 7.453125 C50.59902955 8.16548958 43.94508248 11.52887996 38.4375 17.4375 C34.0496358 22.89157419 32.63078544 28.59614183 32.48828125 35.46484375 C32.43861206 37.32677368 32.43861206 37.32677368 32.38793945 39.22631836 C32.36304443 40.7810083 32.33814941 42.33569824 32.3125 43.9375 C32.209375 48.908125 32.10625 53.87875 32 59 C21.44 59 10.88 59 0 59 C0 39.53 0 20.06 0 0 Z " fill="#FFFDFD" transform="translate(285,250)"/>
<path d="M0 0 C0.80475266 0.00561951 1.60950531 0.01123901 2.43864441 0.01702881 C3.70951401 0.01418129 3.70951401 0.01418129 5.00605774 0.01127625 C7.81497869 0.0075624 10.62364281 0.01828048 13.43254089 0.02947998 C15.377848 0.03067145 17.32315568 0.03112501 19.26846313 0.03086853 C23.348176 0.0324344 27.42780124 0.04073257 31.50749207 0.05413818 C36.74916981 0.07113943 41.99075126 0.07495227 47.23245335 0.074193 C51.24974495 0.0744643 55.2670153 0.07993881 59.28429985 0.08719444 C61.21769487 0.09038684 63.15109231 0.09234984 65.08448982 0.09308815 C67.78070851 0.09524505 70.47682294 0.10397478 73.17301941 0.11468506 C73.9797963 0.11423187 74.78657318 0.11377869 75.61779785 0.11331177 C81.12666018 0.14547426 81.12666018 0.14547426 82.24113464 1.25994873 C82.33898806 2.605392 82.36911449 3.95587436 82.37052917 5.30487061 C82.37368134 6.16245972 82.3768335 7.02004883 82.38008118 7.90362549 C82.37704483 9.30203674 82.37704483 9.30203674 82.37394714 10.72869873 C82.37490387 11.67934204 82.3758606 12.62998535 82.37684631 13.60943604 C82.37752821 15.62363755 82.37567326 17.63784125 82.37150574 19.65203857 C82.36615762 22.74665228 82.37145041 25.84112083 82.37785339 28.93572998 C82.37719261 30.88755322 82.37591145 32.83937637 82.37394714 34.79119873 C82.37597137 35.7234729 82.37799561 36.65574707 82.38008118 37.61627197 C82.37535294 38.90265564 82.37535294 38.90265564 82.37052917 40.21502686 C82.36973358 40.97368042 82.36893799 41.73233398 82.36811829 42.51397705 C82.24113464 44.25994873 82.24113464 44.25994873 81.24113464 45.25994873 C78.54351003 45.36573864 75.87135344 45.40672812 73.17301941 45.4052124 C71.90477829 45.41025032 71.90477829 45.41025032 70.61091614 45.41539001 C67.80144299 45.42492955 64.99202925 45.42684462 62.18254089 45.42791748 C60.23819961 45.43112795 58.29385858 45.43449186 56.34951782 45.43800354 C52.26805562 45.44400232 48.18661462 45.44584267 44.10514832 45.44525146 C38.86462956 45.44514979 33.62424615 45.45880375 28.3837595 45.47602367 C24.36642833 45.48711974 20.34913013 45.48917141 16.3317852 45.48864174 C14.39921032 45.48982541 12.46663467 45.4942687 10.53407478 45.50197411 C7.83550044 45.51172598 5.13722311 45.50891511 2.43864441 45.50286865 C1.63389175 45.50848816 0.8291391 45.51410767 0 45.51989746 C-5.53054993 45.48826416 -5.53054993 45.48826416 -7.75886536 43.25994873 C-7.95900688 40.198161 -8.03857607 37.22875581 -8.02449036 34.16619873 C-8.02640381 33.26373413 -8.02831726 32.36126953 -8.0302887 31.43145752 C-8.03165095 29.52158327 -8.02795173 27.61169977 -8.01960754 25.70184326 C-8.00890857 22.77178223 -8.01950146 19.84233435 -8.03230286 16.91229248 C-8.03098127 15.05942654 -8.02841889 13.20656098 -8.02449036 11.35369873 C-8.02853882 10.47347046 -8.03258728 9.59324219 -8.03675842 8.68634033 C-7.98173094 1.57918024 -7.23824282 0.04140086 0 0 Z " fill="#FF0202" transform="translate(314.7588653564453,422.74005126953125)"/>
<path d="M0 0 C7.59 0 15.18 0 23 0 C24.9375 7.875 24.9375 7.875 25.54272461 10.35107422 C26.48639995 14.27505758 26.48639995 14.27505758 28 18 C39.55 18 51.1 18 63 18 C65.58007157 12.10649408 65.58007157 12.10649408 67.125 6.1875 C67.57815689 3.8779899 67.94519391 2.10961218 69 0 C76.26 0 83.52 0 91 0 C91 10.89 91 21.78 91 33 C60.97 33 30.94 33 0 33 C0 22.11 0 11.22 0 0 Z " fill="#FFFDFD" transform="translate(518,619)"/>
<path d="M0 0 C51.81 0 103.62 0 157 0 C157 4.62 157 9.24 157 14 C105.19 14 53.38 14 0 14 C0 9.38 0 4.76 0 0 Z " fill="#FFFFFF" transform="translate(271,228)"/>
<path d="M0 0 C0.08636719 0.83660156 0.17273438 1.67320312 0.26171875 2.53515625 C1.52843186 13.02911896 4.5837028 22.41928061 8.21484375 32.30859375 C11.17279487 40.90875768 13.40799105 50.8329695 9.9765625 59.62109375 C8.77275624 61.60919803 7.56657254 63.2878024 6 65 C5.53207031 65.58265625 5.06414063 66.1653125 4.58203125 66.765625 C3 68 3 68 1.06225586 67.77026367 C-1.37349907 66.86049609 -2.10107249 66.02018855 -3.578125 63.91015625 C-4.01640625 63.29076172 -4.4546875 62.67136719 -4.90625 62.03320312 C-5.57140625 61.05770508 -5.57140625 61.05770508 -6.25 60.0625 C-6.70890625 59.41603516 -7.1678125 58.76957031 -7.640625 58.10351562 C-11 53.28941127 -11 53.28941127 -11 51 C-14.70605319 54.49835844 -17.52199492 58.00850064 -20.3125 62.3125 C-21.00988281 63.38113281 -21.70726562 64.44976562 -22.42578125 65.55078125 C-22.94527344 66.35902344 -23.46476563 67.16726563 -24 68 C-27.44047512 67.4340344 -28.91074477 66.41638065 -31.125 63.75 C-31.62257813 63.16734375 -32.12015625 62.5846875 -32.6328125 61.984375 C-36.51947099 56.34316782 -36.77989618 50.63778308 -36 44 C-34.51792914 39.0099082 -32.32939721 34.34559559 -30.19921875 29.60546875 C-27.31359073 22.8356938 -26.41937769 17.34738111 -27 10 C-20.7076835 11.91968978 -17.81514686 13.63494972 -14 19 C-13.7525 17.80375 -13.505 16.6075 -13.25 15.375 C-11.80486286 9.6847725 -6.89158155 0 0 0 Z " fill="#FF0303" transform="translate(576,368)"/>
<path d="M0 0 C23.76 0 47.52 0 72 0 C72 8.91 72 17.82 72 27 C48.24 27 24.48 27 0 27 C0 18.09 0 9.18 0 0 Z " fill="#FFF6F6" transform="translate(488,518)"/>
<path d="M0 0 C1.25908676 0.00222061 2.51817352 0.00444122 3.81541443 0.00672913 C4.50806396 0.0065831 5.2007135 0.00643707 5.91435242 0.00628662 C8.21400537 0.00698577 10.51357828 0.01477823 12.81321716 0.02259827 C14.40362504 0.02446244 15.99403349 0.02588635 17.58444214 0.02688599 C21.77827021 0.03071123 25.97206386 0.04054156 30.1658783 0.05158997 C34.44220006 0.06180395 38.71852736 0.06638358 42.99485779 0.07142639 C51.39135975 0.08216383 59.78782709 0.09976068 68.18431091 0.12025452 C68.18431091 9.03025452 68.18431091 17.94025452 68.18431091 27.12025452 C44.42431091 27.12025452 20.66431091 27.12025452 -3.81568909 27.12025452 C-3.81568909 0.16296325 -3.81568909 0.16296325 0 0 Z " fill="#FFF6F6" transform="translate(570.8156890869141,517.8797454833984)"/>
<path d="M0 0 C1.02950177 -0.00573832 1.02950177 -0.00573832 2.07980156 -0.01159257 C4.39068022 -0.02195116 6.70131173 -0.01792511 9.01220703 -0.01396179 C10.66441072 -0.01830666 12.31661239 -0.02348905 13.96881104 -0.02944946 C18.46457387 -0.04287409 22.96025282 -0.04341436 27.4560318 -0.04088616 C31.20382557 -0.03981892 34.9516022 -0.0446934 38.69939232 -0.04949158 C47.53740081 -0.06059847 56.37536681 -0.06101736 65.21337891 -0.05497742 C74.34407138 -0.04893363 83.47460991 -0.06125621 92.60527611 -0.08254749 C100.43374302 -0.10013391 108.26216079 -0.10616959 116.09064674 -0.10290974 C120.77106534 -0.10109221 125.45137411 -0.10377974 130.1317749 -0.11762428 C134.5312477 -0.13015025 138.93047956 -0.12830852 143.32994843 -0.11521339 C144.94811838 -0.11283669 146.56630502 -0.11562113 148.18445587 -0.12383652 C150.38660119 -0.134214 152.58792438 -0.12627733 154.79003906 -0.11352539 C156.02448761 -0.11369313 157.25893616 -0.11386087 158.53079224 -0.1140337 C159.47598724 0.00962724 160.42118225 0.13328817 161.39501953 0.26069641 C163.55004484 3.49323437 163.86358088 4.51220564 163.39501953 8.26069641 C162.29344273 9.89355755 162.29344273 9.89355755 160.39501953 11.26069641 C157.42336178 11.63542652 157.42336178 11.63542652 153.70774841 11.63491821 C153.02464303 11.63889262 152.34153764 11.64286703 151.63773209 11.64696187 C149.3436456 11.65660363 147.05017292 11.644756 144.75610352 11.63301086 C143.11360443 11.6354382 141.47110681 11.63915695 139.82861328 11.64407349 C135.36384438 11.65349344 130.89929426 11.64404823 126.43454242 11.63074136 C121.76829661 11.61944303 117.10206183 11.62353306 112.43580627 11.62548828 C104.59998998 11.62637168 96.76426013 11.61528051 88.9284668 11.59687805 C79.85969396 11.57570235 70.79104772 11.57220184 61.72225517 11.57844001 C53.00893758 11.58412754 44.29566473 11.57849571 35.58235359 11.56726646 C31.86906167 11.56261312 28.15579703 11.56174979 24.44250298 11.56385231 C20.07341424 11.56573102 15.70445502 11.55766363 11.33539581 11.54179192 C9.72851917 11.53753664 8.12162941 11.53670681 6.51474953 11.53948212 C4.32812486 11.54268673 2.14189142 11.53366623 -0.04469299 11.52139282 C-1.27046838 11.51933995 -2.49624376 11.51728708 -3.75916386 11.515172 C-6.60498047 11.26069641 -6.60498047 11.26069641 -8.60498047 9.26069641 C-8.85498047 5.76069641 -8.85498047 5.76069641 -8.60498047 2.26069641 C-5.77941535 -0.56486871 -3.96077952 0.00658672 0 0 Z " fill="#FFFEFE" transform="translate(486.60498046875,599.7393035888672)"/>
<path d="M0 0 C1.27885574 -0.00569504 2.55771149 -0.01139008 3.87532043 -0.01725769 C7.36736599 -0.03173834 10.85825254 -0.00892177 14.35015798 0.02160144 C18.01218692 0.04805196 21.67418344 0.04266851 25.33628845 0.04151917 C31.48382842 0.04432424 37.63092274 0.07031022 43.77832031 0.11132812 C50.87722223 0.15852098 57.97563673 0.17432144 65.0746842 0.17212147 C72.64614235 0.17009229 80.21741362 0.19092868 87.78881526 0.21846128 C89.96490554 0.22484296 92.1409655 0.22698312 94.31706429 0.22817802 C98.3769729 0.23176204 102.43631 0.26093868 106.49609375 0.29296875 C107.69782227 0.29160919 108.89955078 0.29024963 110.13769531 0.28884888 C120.47219683 0.40810341 120.47219683 0.40810341 125.18334961 3.72875977 C129.18334961 8.78139134 129.18334961 8.78139134 129.18334961 12.72875977 C79.68334961 12.72875977 30.18334961 12.72875977 -20.81665039 12.72875977 C-19.5896237 5.36659961 -19.5896237 5.36659961 -15.12661934 1.90229988 C-10.37073421 -0.51384601 -5.2214796 -0.07337343 0 0 Z " fill="#FFFEFE" transform="translate(509.816650390625,498.271240234375)"/>
<path d="M0 0 C11.22 0 22.44 0 34 0 C34 14.85 34 29.7 34 45 C22.78 45 11.56 45 0 45 C0 30.15 0 15.3 0 0 Z " fill="#FFFCFC" transform="translate(356,566)"/>
<path d="M0 0 C11.22 0 22.44 0 34 0 C34 14.85 34 29.7 34 45 C22.78 45 11.56 45 0 45 C0 30.15 0 15.3 0 0 Z " fill="#FFFAFA" transform="translate(315,566)"/>
<path d="M0 0 C11.22 0 22.44 0 34 0 C34 12.21 34 24.42 34 37 C22.78 37 11.56 37 0 37 C0 24.79 0 12.58 0 0 Z " fill="#FFFAFA" transform="translate(356,521)"/>
<path d="M0 0 C11.22 0 22.44 0 34 0 C34 12.21 34 24.42 34 37 C22.78 37 11.56 37 0 37 C0 24.79 0 12.58 0 0 Z " fill="#FFFAFA" transform="translate(315,521)"/>
<path d="M0 0 C11.22 0 22.44 0 34 0 C34 10.89 34 21.78 34 33 C22.78 33 11.56 33 0 33 C0 22.11 0 11.22 0 0 Z " fill="#FFFCFC" transform="translate(356,619)"/>
<path d="M0 0 C11.22 0 22.44 0 34 0 C34 10.89 34 21.78 34 33 C22.78 33 11.56 33 0 33 C0 22.11 0 11.22 0 0 Z " fill="#FFFCFC" transform="translate(315,619)"/>
<path d="M0 0 C11.22 0 22.44 0 34 0 C34 10.23 34 20.46 34 31 C22.78 31 11.56 31 0 31 C0 20.77 0 10.54 0 0 Z " fill="#FFFAFA" transform="translate(356,430)"/>
<path d="M0 0 C11.22 0 22.44 0 34 0 C34 10.23 34 20.46 34 31 C22.78 31 11.56 31 0 31 C0 20.77 0 10.54 0 0 Z " fill="#FFFAFA" transform="translate(315,430)"/>
<path d="M0 0 C3.53571429 0.53571429 3.53571429 0.53571429 5 2 C5.07179964 3.51928038 5.08392007 5.04167482 5.0625 6.5625 C5.05347656 7.38878906 5.04445313 8.21507812 5.03515625 9.06640625 C5.02355469 9.70449219 5.01195312 10.34257812 5 11 C5.7425 11.20625 6.485 11.4125 7.25 11.625 C10.93154321 13.46577161 11.99872057 15.41574135 14 19 C14.58813802 21.75204207 14.9997422 24.22630938 15.25 27 C15.36601562 28.02867187 15.36601562 28.02867187 15.484375 29.078125 C15.90993493 33.06015009 16.1708507 36.99721223 16 41 C15 42 15 42 12.71484375 42.09765625 C10.14322917 42.06510417 7.57161458 42.03255208 5 42 C5 45.96 5 49.92 5 54 C2.525 54.495 2.525 54.495 0 55 C-2 53 -2 53 -2.1953125 50.3984375 C-2.17210937 49.40070313 -2.14890625 48.40296875 -2.125 47.375 C-2.10695313 46.37210937 -2.08890625 45.36921875 -2.0703125 44.3359375 C-2.04710937 43.56507813 -2.02390625 42.79421875 -2 42 C-2.62648438 42.02320313 -3.25296875 42.04640625 -3.8984375 42.0703125 C-4.71570313 42.08835937 -5.53296875 42.10640625 -6.375 42.125 C-7.18710937 42.14820313 -7.99921875 42.17140625 -8.8359375 42.1953125 C-11 42 -11 42 -13 40 C-13.17794478 36.57273485 -12.71016283 33.16131481 -12.375 29.75 C-12.30410156 28.80769531 -12.23320312 27.86539062 -12.16015625 26.89453125 C-11.63229168 21.27710679 -10.86001036 17.37560741 -7 13 C-6.27039063 12.6390625 -5.54078125 12.278125 -4.7890625 11.90625 C-4.19867188 11.6071875 -3.60828125 11.308125 -3 11 C-2.37374244 8.87773524 -2.37374244 8.87773524 -2.375 6.5 C-2.19322034 2.19322034 -2.19322034 2.19322034 0 0 Z " fill="#FF0606" transform="translate(411,462)"/>
<path d="M0 0 C13.2 0 26.4 0 40 0 C40 4.95 40 9.9 40 15 C26.8 15 13.6 15 0 15 C0 10.05 0 5.1 0 0 Z " fill="#FF0505" transform="translate(544,564)"/>
<path d="M0 0 C0.76171509 -0.00241196 1.52343018 -0.00482391 2.30822754 -0.00730896 C3.91533627 -0.00633142 5.52247906 0.00704031 7.12939453 0.03198242 C9.58612708 0.06629977 12.03926255 0.0526393 14.49609375 0.03320312 C16.05991111 0.04010185 17.6237192 0.04977448 19.1875 0.0625 C19.91988892 0.05754013 20.65227783 0.05258026 21.40686035 0.04747009 C24.65052916 0.12218547 26.80677971 0.45224649 29.58789062 2.16430664 C31.09375 4.62890625 31.09375 4.62890625 31.09375 12.62890625 C16.90375 12.62890625 2.71375 12.62890625 -11.90625 12.62890625 C-11.90625 5.62890625 -11.90625 5.62890625 -10.40039062 2.73071289 C-7.0442886 -0.09746667 -4.19963435 -0.07602468 0 0 Z " fill="#FFFCFC" transform="translate(553.90625,478.37109375)"/>
<path d="M0 0 C4.62 0 9.24 0 14 0 C14 10.89 14 21.78 14 33 C9.38 33 4.76 33 0 33 C0 22.11 0 11.22 0 0 Z " fill="#FFF9F9" transform="translate(497,619)"/>
<path d="M0 0 C4.29 0 8.58 0 13 0 C13 10.89 13 21.78 13 33 C8.71 33 4.42 33 0 33 C0 22.11 0 11.22 0 0 Z " fill="#FFFFFF" transform="translate(617,619)"/>
<path d="M0 0 C6.93 0 13.86 0 21 0 C21 5.61 21 11.22 21 17 C14.07 17 7.14 17 0 17 C0 11.39 0 5.78 0 0 Z " fill="#FFF2F2" transform="translate(352,292)"/>
<path d="M0 0 C6.93 0 13.86 0 21 0 C21 5.61 21 11.22 21 17 C14.07 17 7.14 17 0 17 C0 11.39 0 5.78 0 0 Z " fill="#FFF2F2" transform="translate(324,292)"/>
<path d="M0 0 C0 6.6 0 13.2 0 20 C-6.6 20 -13.2 20 -20 20 C-20 11.82051282 -20 11.82051282 -16 7 C-10.60911542 1.75613955 -7.89957734 0 0 0 Z " fill="#FFF2F2" transform="translate(345,265)"/>
<path d="M0 0 C7.97173869 0.99646734 11.05726317 1.73029241 16.25 7.5 C19.64422844 12.34889777 20 13.63663371 20 20 C13.4 20 6.8 20 0 20 C0 13.4 0 6.8 0 0 Z " fill="#FFF6F6" transform="translate(352,265)"/>
<path d="M0 0 C2.9375 2.4375 2.9375 2.4375 5 5 C5.33 5.33 5.66 5.66 6 6 C6.04277245 10.21736315 5.68972646 13.89643766 3.4375 17.5 C0.00158058 19.61441195 -2.96207791 20.42626817 -7 20 C-10.71198851 17.975279 -12.3843654 16.82385864 -13.73046875 12.8359375 C-14.43146888 8.68546151 -14.40538505 6.67098215 -12.1875 3 C-8.50284193 -0.36883023 -4.87415967 -0.86838477 0 0 Z " fill="#FF0707" transform="translate(617,562)"/>
<path d="M0 0 C9.9 0 19.8 0 30 0 C29.34 3.63 28.68 7.26 28 11 C19.42 11 10.84 11 2 11 C0 5 0 5 0 0 Z " fill="#FFFBFB" transform="translate(549,619)"/>
<path d="M0 0 C3.9295493 0.92685276 5.41241975 2.29808529 8.00390625 5.47265625 C8.80206186 8.6480523 8.76446448 11.29214003 8.00390625 14.47265625 C5.48556152 18.13570313 3.80106814 19.22626076 -0.43359375 20.53515625 C-4.82766964 20.4580672 -6.65939372 19.25323961 -9.99609375 16.47265625 C-11.74074823 12.98334729 -11.56059927 9.27978648 -10.99609375 5.47265625 C-8.10250338 1.041846 -5.38309693 -0.3983696 0 0 Z " fill="#FF0606" transform="translate(515.99609375,561.52734375)"/>
<path d="M0 0 C2.625 0.3125 2.625 0.3125 4.24609375 1.91015625 C6.91313944 6.55670894 6.36292781 12.07105624 6.625 17.3125 C2.335 17.3125 -1.955 17.3125 -6.375 17.3125 C-4.83565574 0.63627049 -4.83565574 0.63627049 0 0 Z " fill="#FFF0F0" transform="translate(412.375,479.6875)"/>
<path d="M0 0 C0.79792969 0.00386719 1.59585937 0.00773438 2.41796875 0.01171875 C3.21589844 0.00785156 4.01382812 0.00398437 4.8359375 0 C10.79136108 0.01011108 10.79136108 0.01011108 11.91796875 1.13671875 C12.04296875 3.63671875 12.04296875 3.63671875 11.91796875 6.13671875 C10.91796875 7.13671875 10.91796875 7.13671875 7.1015625 7.234375 C5.51950193 7.22769964 3.93745716 7.2157375 2.35546875 7.19921875 C1.54916016 7.19470703 0.74285156 7.19019531 -0.08789062 7.18554688 C-2.08596881 7.17372393 -4.08400908 7.15578789 -6.08203125 7.13671875 C-6.46336424 5.14531315 -6.79528707 3.14392798 -7.08203125 1.13671875 C-5.19650595 -0.74880655 -2.50434294 0.00425186 0 0 Z " fill="#FF0707" transform="translate(325.08203125,588.86328125)"/>
</svg>
