<?xml version="1.0" encoding="UTF-8"?>
<svg version="1.1" xmlns="http://www.w3.org/2000/svg" width="1000" height="1000">
<path d="M0 0 C1.53599854 0.06960937 1.53599854 0.06960937 3.10302734 0.140625 C71.36732438 3.49055286 137.41924896 22.91897629 194 62 C194.66064453 62.45503906 195.32128906 62.91007812 196.00195312 63.37890625 C200.05209723 66.18510744 204.04472583 69.06179633 208 72 C208.55768066 72.4134668 209.11536133 72.82693359 209.68994141 73.25292969 C216.218248 78.1187715 222.5042565 83.1664131 228.48828125 88.69921875 C230.48927826 90.53216935 232.51832804 92.30146829 234.578125 94.06640625 C239.56596902 98.42065141 244.25645124 103.07038503 248.93579102 107.75048828 C250.42641615 109.23893237 251.92487017 110.71917277 253.42382812 112.19921875 C259.73344544 118.47208683 265.46782637 125.01986354 271 132 C272.00029127 133.20872989 273.00371163 134.41488462 274.01171875 135.6171875 C282.48657734 145.87320807 289.82563769 156.80663473 297 168 C297.41846191 168.6487207 297.83692383 169.29744141 298.26806641 169.96582031 C323.72073214 209.75009108 339.53351355 254.43611985 347.75 300.75 C348.04825684 302.41554932 348.04825684 302.41554932 348.35253906 304.11474609 C351.49511797 322.71417751 352.37938383 341.22764699 352.3125 360.0625 C352.30976578 361.66983002 352.30976578 361.66983002 352.30697632 363.30963135 C352.25917919 380.04672314 351.66507066 396.44511716 349 413 C348.82307617 414.11874512 348.64615234 415.23749023 348.46386719 416.39013672 C333.65987075 507.52803879 286.07747739 577.15294491 222.15479088 640.96127474 C219.08296101 644.02873349 216.01407598 647.09913622 212.94480896 650.16915894 C207.64337237 655.47111659 202.34012694 660.77125918 197.03560257 666.07012749 C189.36641678 673.73114123 181.70003651 681.39495752 174.03430979 689.05943228 C161.59319135 701.49836911 149.14984746 713.93507719 136.70507812 726.37036133 C124.62544703 738.44079517 112.54688027 750.51229245 100.46972656 762.58520508 C99.7236688 763.33100012 98.97761104 764.07679515 98.20894547 764.84519004 C94.46571521 768.58711514 90.72250568 772.32906099 86.97930646 776.07101715 C55.98941801 807.05056075 24.99590682 838.02647802 -6 869 C-9.52863523 867.49259406 -11.79946304 865.45018056 -14.50191975 862.74696922 C-15.85546479 861.40032238 -15.85546479 861.40032238 -17.23635417 860.02647054 C-18.23385715 859.02395238 -19.23126637 858.02134091 -20.22859192 857.01864624 C-21.29082874 855.95799732 -22.35350305 854.89778641 -23.41657752 853.83797705 C-26.34015011 850.92082834 -29.25743285 847.9974589 -32.17374051 845.07304978 C-35.31883872 841.92138194 -38.46968765 838.77547263 -41.61982727 835.62884521 C-47.79273017 829.46098903 -53.96026987 823.28779639 -60.12602571 817.11279647 C-67.30720507 809.92123793 -74.49360376 802.73490452 -81.68021747 795.5487773 C-94.50650514 782.72299055 -107.32795195 769.89237539 -120.14672852 757.05908203 C-132.58158684 744.61014899 -145.01992873 732.16471047 -157.4621582 719.72314453 C-158.22779435 718.95754834 -158.99343049 718.19195216 -159.78226773 717.40315609 C-160.54658569 716.63887848 -161.31090366 715.87460087 -162.09838277 715.08716333 C-176.2626693 700.92356733 -190.42366003 686.75668018 -204.58312688 672.58826601 C-209.58853432 667.57984542 -214.59491489 662.5723988 -219.60160255 657.56525803 C-225.70823378 651.45794344 -231.81296203 645.34873372 -237.91534928 639.23717849 C-241.02784484 636.12007665 -244.14110776 633.00375218 -247.25653839 629.88958359 C-250.11164317 627.03557927 -252.96440826 624.17925733 -255.81536444 621.32110901 C-256.84410914 620.29056122 -257.87368124 619.26083852 -258.90418801 618.23205273 C-264.48757054 612.65695881 -269.88220999 607.00526892 -275 601 C-275.948172 599.92760616 -276.89831886 598.85695073 -277.8515625 597.7890625 C-289.84552591 584.17666232 -300.22699901 569.26796175 -310 554 C-310.35980957 553.43877441 -310.71961914 552.87754883 -311.09033203 552.29931641 C-322.54833444 534.24158828 -332.28649024 514.93714922 -340 495 C-340.32274902 494.18096191 -340.64549805 493.36192383 -340.97802734 492.51806641 C-357.41563265 450.52330761 -365.22315871 405.98691992 -365.25 361 C-365.25067474 359.98077454 -365.25134949 358.96154907 -365.25204468 357.91143799 C-365.23442248 341.09524976 -364.50429484 324.65503957 -362 308 C-361.83371094 306.8661084 -361.66742188 305.7322168 -361.49609375 304.56396484 C-356.12248133 269.00358709 -345.61979651 234.40056893 -330 202 C-329.61376465 201.18660156 -329.2275293 200.37320313 -328.82958984 199.53515625 C-315.08852908 170.69186537 -297.38496331 144.56883975 -276.36816406 120.56347656 C-275.18499264 119.2114013 -274.00972118 117.85242057 -272.8359375 116.4921875 C-262.19582992 104.37314605 -250.7345943 92.9024839 -238 83 C-236.3110779 81.58502904 -234.62363449 80.16829164 -232.9375 78.75 C-205.25661884 56.19810814 -173.39358119 37.70846163 -140 25 C-139.07364746 24.64244629 -138.14729492 24.28489258 -137.19287109 23.91650391 C-94.04018225 7.38320329 -46.38103263 -2.13114899 0 0 Z " fill="#263E4A" transform="translate(506,83)"/>
<path d="M0 0 C0.62800003 0.32514587 1.25600006 0.65029175 1.9030304 0.98529053 C3.93367437 2.03805142 5.96100518 3.09702033 7.98828125 4.15625 C9.39891738 4.88932685 10.80972585 5.62207217 12.22070312 6.35449219 C21.07083973 10.95287104 29.90456707 15.58265665 38.72265625 20.2421875 C43.98919738 23.02342059 49.26967153 25.77780569 54.55078125 28.53125 C55.51564453 29.03430664 56.48050781 29.53736328 57.47460938 30.05566406 C59.43680351 31.07853772 61.39904333 32.10132372 63.36132812 33.12402344 C69.13052238 36.13128782 74.89812414 39.14160513 80.66601562 42.15136719 C85.50727838 44.67745834 90.34894148 47.20277626 95.19140625 49.7265625 C103.98674989 54.31143153 112.77850223 58.90238422 121.55078125 63.53125 C129.28171029 67.60988964 137.03862074 71.63740539 144.80078125 75.65625 C153.31846709 80.06626649 161.82610663 84.49347963 170.30737305 88.97314453 C174.4657857 91.16837151 178.63066848 93.35019453 182.8046875 95.515625 C196.06318392 102.39654586 209.21589523 109.45058457 222.30078125 116.65625 C219.89246233 123.88120675 216.521381 130.75496481 213.30078125 137.65625 C64.80078125 137.65625 -83.69921875 137.65625 -236.69921875 137.65625 C-243.69921875 122.65625 -243.69921875 122.65625 -245.69921875 116.65625 C-229.88955818 107.82579872 -213.82131835 99.53681035 -197.70173645 91.29211426 C-196.9210228 90.89278687 -196.14030914 90.49345947 -195.3359375 90.08203125 C-194.56896042 89.6897937 -193.80198334 89.29755615 -193.01176453 88.89343262 C-185.29222149 84.9423241 -177.61944625 80.90582213 -169.95605469 76.84716797 C-165.46219437 74.47578646 -160.95493985 72.12999289 -156.44921875 69.78125 C-155.48387207 69.27795166 -154.51852539 68.77465332 -153.52392578 68.25610352 C-151.56222422 67.23346578 -149.60047263 66.21092401 -147.63867188 65.18847656 C-142.82477132 62.67917093 -138.01203227 60.16763974 -133.19921875 57.65625 C-127.40293684 54.63167345 -121.60638546 51.60761915 -115.80859375 48.5859375 C-107.01325011 44.00106847 -98.22149777 39.41011578 -89.44921875 34.78125 C-81.71828958 30.70261029 -73.96137154 26.67510972 -66.19921875 22.65625 C-59.16065572 19.01189059 -52.12253559 15.36731633 -45.11010742 11.67285156 C-43.6037526 10.87937276 -42.09612925 10.08829682 -40.5871582 9.29980469 C-36.38431089 7.09855365 -32.22099943 4.83972756 -28.078125 2.52734375 C-27.1298584 2.00744873 -26.1815918 1.48755371 -25.20458984 0.9519043 C-23.36899224 -0.05495486 -21.54190175 -1.07753211 -19.72509766 -2.11791992 C-18.8954248 -2.5688501 -18.06575195 -3.01978027 -17.2109375 -3.484375 C-16.48350342 -3.89204102 -15.75606934 -4.29970703 -15.0065918 -4.71972656 C-9.77374117 -6.13493831 -4.53732268 -2.35970116 0 0 Z " fill="#FEFEFE" transform="translate(511.69921875,219.34375)"/>
<path d="M0 0 C0.71349273 0.00525403 1.42698546 0.01050805 2.16209918 0.01592129 C2.92079828 0.01361361 3.67949738 0.01130592 4.46118736 0.0089283 C7.03012523 0.00359048 9.59881763 0.0126435 12.16774303 0.02150792 C14.0173803 0.02063662 15.86701734 0.01888705 17.71665305 0.01632959 C22.82007069 0.01183709 27.92340511 0.01988573 33.02681214 0.02988571 C38.52239756 0.03849065 44.01797796 0.03560215 49.51356822 0.03408116 C59.04194189 0.03303043 68.57028825 0.03932663 78.09865505 0.05055684 C91.87521689 0.06678346 105.65176547 0.07201693 119.42833583 0.07453282 C141.77774797 0.07891439 164.12714679 0.09221887 186.4765504 0.11113805 C208.19204442 0.12949942 229.90753455 0.14367031 251.62303478 0.15215367 C252.62664577 0.15254825 252.62664577 0.15254825 253.65053173 0.1529508 C260.36949563 0.15558778 267.08845956 0.15813942 273.80742351 0.16062852 C330.17809975 0.18151952 386.54875984 0.21682016 442.91942149 0.26201695 C443.5571742 1.50842 444.19150733 2.75657302 444.82445079 4.00542516 C445.17807185 4.7002953 445.53169292 5.39516545 445.89602977 6.11109227 C447.49029333 9.46185304 448.63160401 12.91157305 449.73192149 16.44951695 C449.96073009 17.13465367 450.18953868 17.81979039 450.42528087 18.52568883 C451.69748669 22.56795748 451.91401569 25.18580402 450.91942149 29.26201695 C391.82558659 29.28488066 332.7317518 29.30251584 273.63791341 29.31308228 C266.66933081 29.31432967 259.70074822 29.31562622 252.73216563 29.31694859 C251.69195126 29.31714473 251.69195126 29.31714473 250.63072245 29.31734483 C228.13287131 29.32160999 205.63502268 29.32912414 183.13717305 29.33831417 C159.37304911 29.34800388 135.6089271 29.35401055 111.84480119 29.35610545 C97.60021546 29.35748102 83.35563692 29.36183343 69.1110534 29.36993342 C59.35741471 29.37519886 49.60377976 29.37682171 39.85013974 29.37551833 C34.21369427 29.37487463 28.57726139 29.37589602 22.94081813 29.38122243 C17.78979854 29.38605487 12.63880013 29.38635663 7.48777961 29.38291585 C5.6156338 29.38249 3.74348671 29.38378703 1.87134344 29.38690013 C-0.65615456 29.39086157 -3.18357415 29.38878195 -5.71107072 29.38506478 C-6.45285999 29.38769179 -7.19464926 29.39031881 -7.95891699 29.39302543 C-12.96643271 29.37616275 -12.96643271 29.37616275 -14.08057851 28.26201695 C-13.63205 22.12062659 -12.13676586 16.69118111 -10.14307851 10.88701695 C-9.87817616 10.08135289 -9.61327382 9.27568883 -9.34034413 8.4456107 C-6.50503389 0.04521262 -6.50503389 0.04521262 0 0 Z " fill="#FEFEFE" transform="translate(281.0805785059929,634.7379830479622)"/>
<path d="M0 0 C12.82872878 10.34403847 23.46520926 25.33998141 25.72802734 41.92724609 C26.7032917 51.14146249 26.7032917 51.14146249 25.10886383 53.37706947 C22.65765043 55.18770021 21.08688716 55.0975326 18.0526123 55.10116577 C16.96739792 55.10962524 15.88218353 55.11808472 14.76408386 55.12680054 C13.57333755 55.12072784 12.38259125 55.11465515 11.15576172 55.10839844 C9.90193192 55.1136554 8.64810211 55.11891235 7.35627747 55.12432861 C3.91609068 55.13528224 0.47644402 55.13269787 -2.96371269 55.12319136 C-6.56179411 55.11560229 -10.15985226 55.12263827 -13.75793457 55.12734985 C-19.80057932 55.13280962 -25.84311412 55.12561006 -31.88574219 55.11132812 C-38.87439679 55.0950011 -45.86278885 55.10028946 -52.85143709 55.11680734 C-58.84896993 55.13041598 -64.84642367 55.13234495 -70.84396696 55.12449133 C-74.4272565 55.11981135 -78.01042259 55.11919878 -81.59370422 55.1291008 C-85.58747586 55.13936602 -89.58095279 55.12514313 -93.57470703 55.10839844 C-94.76545334 55.11447113 -95.95619965 55.12054382 -97.18302917 55.12680054 C-98.26824356 55.11834106 -99.35345795 55.10988159 -100.47155762 55.10116577 C-101.8885004 55.09946916 -101.8885004 55.09946916 -103.3340683 55.09773827 C-106.14472478 54.65104015 -107.0518449 54.00136298 -108.70947266 51.72021484 C-109.97528629 37.01376193 -102.22176377 22.25215638 -93.45947266 11.03271484 C-69.91193706 -16.45893534 -29.28634019 -21.92502075 0 0 Z " fill="#FDFDFD" transform="translate(707.70947265625,512.27978515625)"/>
<path d="M0 0 C0.969375 0.3403125 1.93875 0.680625 2.9375 1.03125 C19.72552997 7.36958785 32.96017564 20.06296457 41 36 C44.738278 44.37851781 47.88843593 53.7624009 46 63 C42.68182535 65.21211643 41.66252321 65.25223643 37.80004883 65.26069641 C36.18484848 65.27132362 36.18484848 65.27132362 34.53701782 65.28216553 C33.35562225 65.27968811 32.17422668 65.27721069 30.95703125 65.2746582 C29.71295502 65.27976913 28.46887878 65.28488007 27.18710327 65.29014587 C23.77388521 65.30167675 20.36090972 65.30411357 16.94768906 65.30158257 C14.09962603 65.30051371 11.25158548 65.30539396 8.40352726 65.310188 C1.6859933 65.32128625 -5.03148474 65.32171856 -11.74902344 65.31567383 C-18.68313593 65.30963028 -25.61704571 65.32195385 -32.55112362 65.3432439 C-38.50193801 65.36084433 -44.45268779 65.36686381 -50.40352726 65.36360615 C-53.9588834 65.36179093 -57.51409487 65.36445328 -61.06942749 65.37832069 C-65.03204347 65.39319831 -68.99439997 65.38394255 -72.95703125 65.37231445 C-74.13842682 65.37995819 -75.31982239 65.38760193 -76.53701782 65.39547729 C-77.61381805 65.38846298 -78.69061829 65.38144867 -79.80004883 65.3742218 C-81.2059301 65.37447341 -81.2059301 65.37447341 -82.64021301 65.37473011 C-85.4366894 64.93065448 -86.32066478 64.23949421 -88 62 C-90.37822406 50.90162103 -84.41663683 38.57410517 -79.1015625 29.19921875 C-70.45887699 16.04241684 -57.84952971 5.38638702 -43 0 C-42.12472656 -0.31839844 -41.24945313 -0.63679688 -40.34765625 -0.96484375 C-27.77519167 -4.79124601 -12.28246547 -4.75945537 0 0 Z " fill="#FDFDFD" transform="translate(354,502)"/>
<path d="M0 0 C1.24221313 0.00628418 1.24221313 0.00628418 2.50952148 0.01269531 C9.2392091 0.13594726 15.30249602 1.12063296 21.6875 3.3125 C22.50992188 3.56773437 23.33234375 3.82296875 24.1796875 4.0859375 C40.63499737 9.81638087 53.7148855 23.04307632 61.875 38.125 C65.84782992 46.65540538 69.61066958 56.8006072 67.6875 66.3125 C64.3573117 68.53262553 63.32306011 68.56337416 59.44285583 68.56646729 C57.81286652 68.57492676 57.81286652 68.57492676 56.14994812 68.58355713 C54.95763077 68.57950867 53.76531342 68.57546021 52.53686523 68.57128906 C51.28142914 68.5747937 50.02599304 68.57829834 48.73251343 68.58190918 C45.28841256 68.59103374 41.84443139 68.58748894 38.4003284 68.58115101 C34.79911393 68.57609246 31.19790981 68.58078195 27.59669495 68.58392334 C21.54987749 68.58756294 15.50310887 68.58276357 9.45629883 68.57324219 C2.45972167 68.56235271 -4.53673899 68.56588678 -11.53331333 68.576895 C-17.53591332 68.58596219 -23.53847818 68.58725609 -29.5410828 68.58201766 C-33.12822851 68.57889545 -36.71531941 68.57849555 -40.30246162 68.58509064 C-44.298774 68.59192473 -48.29495513 68.58246062 -52.29125977 68.57128906 C-53.48560135 68.57533752 -54.67994293 68.57938599 -55.91047668 68.58355713 C-56.99431641 68.57791748 -58.07815613 68.57227783 -59.19483948 68.56646729 C-60.1403898 68.56571323 -61.08594011 68.56495918 -62.06014347 68.56418228 C-64.3125 68.3125 -64.3125 68.3125 -66.3125 66.3125 C-68.51192234 52.72238513 -62.46108391 39.48154295 -54.828125 28.60546875 C-41.76458301 11.01083208 -22.06164377 -0.15422965 0 0 Z " fill="#FDFDFD" transform="translate(499.3125,498.6875)"/>
<path d="M0 0 C131.34 0 262.68 0 398 0 C393.5 13.5 393.5 13.5 390 17 C387.3068105 17.25415033 387.3068105 17.25415033 383.79924202 17.26006222 C383.15317397 17.26386789 382.50710592 17.26767356 381.84146005 17.27159455 C379.65563068 17.28198019 377.47005766 17.2779915 375.28421021 17.27415466 C373.70965853 17.2786033 372.13510909 17.2839161 370.56056297 17.29002339 C366.21738581 17.30425877 361.87428002 17.30586564 357.53108287 17.30542648 C352.85340936 17.30706982 348.17576567 17.32012721 343.49810791 17.33161926 C333.26274745 17.35450553 323.02740767 17.36239368 312.79202509 17.36744571 C306.40550457 17.37069835 300.0189901 17.37721816 293.63247299 17.3844471 C275.96269741 17.40401731 258.29292746 17.4204192 240.62314034 17.42332363 C239.49158933 17.4235112 238.36003832 17.42369877 237.19419789 17.42389202 C234.90009936 17.42425828 232.60600083 17.42462198 230.3119023 17.42498314 C229.17305169 17.42516595 228.03420108 17.42534876 226.86083984 17.42553711 C225.15048795 17.42580793 225.15048795 17.42580793 223.40558349 17.42608423 C204.92056151 17.42962753 186.43565591 17.45665776 167.95067431 17.494035 C148.98897734 17.53207052 130.02733818 17.55148076 111.06560218 17.55178314 C100.41255405 17.55236877 89.75964475 17.56092824 79.10663223 17.58978081 C70.03707263 17.61423113 60.96770248 17.62162068 51.89811887 17.60653328 C47.26771151 17.59933839 42.63767871 17.60033209 38.00731277 17.62294388 C33.77195771 17.64342918 29.53726766 17.64103249 25.30192064 17.62006903 C23.76624829 17.61655396 22.23052896 17.62156882 20.69491829 17.63577347 C18.61327575 17.65379451 16.53400814 17.64125227 14.45244026 17.62082577 C12.71570681 17.62204745 12.71570681 17.62204745 10.94388783 17.62329382 C8 17 8 17 5.67582405 14.62404019 C4.03892219 12.06094518 2.83208352 9.65082225 1.75 6.8125 C1.24726563 5.52279297 1.24726563 5.52279297 0.734375 4.20703125 C0 2 0 2 0 0 Z " fill="#F5F6F6" transform="translate(301,372)"/>
<path d="M0 0 C0.66265219 -0.00470446 1.32530438 -0.00940892 2.00803694 -0.01425594 C4.25027626 -0.0276737 6.49228479 -0.0267184 8.73456097 -0.02589989 C10.34964897 -0.03249481 11.96473367 -0.03994544 13.57981414 -0.04818285 C18.0350643 -0.06826583 22.49026058 -0.07566327 26.94554961 -0.08096147 C31.743906 -0.08875481 36.54221946 -0.10791223 41.34054852 -0.12538719 C52.93641199 -0.16495063 64.53227905 -0.18505206 76.12819317 -0.20284277 C81.58422117 -0.21160238 87.04024527 -0.22233753 92.49627018 -0.23282051 C110.62497973 -0.26684736 128.75368682 -0.29583831 146.8824234 -0.31031799 C151.58913266 -0.31413799 156.2958419 -0.31797863 161.00255108 -0.32188988 C162.75736873 -0.3233411 162.75736873 -0.3233411 164.54763725 -0.32482164 C183.51057504 -0.34143201 202.47326089 -0.39212108 221.4360886 -0.45705123 C240.88934466 -0.52311957 260.34247251 -0.55920882 279.7958414 -0.56560647 C290.72456648 -0.56994332 301.65292411 -0.58753679 312.58154011 -0.63852882 C321.88646226 -0.6818437 331.19092776 -0.69809317 340.49593929 -0.67859526 C345.24617967 -0.66947656 349.99547694 -0.67346296 354.74558926 -0.71211815 C359.09172184 -0.74718142 363.43621656 -0.74555575 367.78236409 -0.71432357 C369.35709975 -0.70954029 370.93194585 -0.71837986 372.5065119 -0.74198087 C384.29137984 -0.90772523 384.29137984 -0.90772523 387.6580528 2.015733 C388.98266408 4.07883819 389.85742787 5.95412032 390.64586163 8.26844215 C391.07898663 9.19656715 391.51211163 10.12469215 391.95836163 11.08094215 C392.64586163 13.26844215 392.64586163 13.26844215 392.64586163 16.26844215 C258.66586163 16.26844215 124.68586163 16.26844215 -13.35413837 16.26844215 C-12.22289993 9.48101147 -12.22289993 9.48101147 -10.41663837 6.01844215 C-10.07761494 5.3532859 -9.7385915 4.68812965 -9.38929462 4.00281715 C-6.83788441 -0.27199844 -4.73841015 0.01427566 0 0 Z " fill="#F7F8F9" transform="translate(310.3541383743286,603.7315578460693)"/>
<path d="M0 0 C7.8806406 5.43185397 13.52227629 13.34448355 15.76171875 22.6796875 C17.00064332 34.2851238 15.40303524 43.94772539 8.57421875 53.4921875 C2.76027973 60.43661467 -5.32746793 65.59935467 -14.37475586 67.01367188 C-26.32208763 67.95336482 -35.14887869 66.1756005 -44.79296875 58.69921875 C-51.73796853 52.44871895 -56.56528949 43.36153429 -57.51171875 33.96484375 C-57.83619812 23.66886372 -55.56683274 15.33183001 -48.92578125 7.3046875 C-35.46479019 -6.7098941 -17.15611343 -10.12001106 0 0 Z " fill="#FDFDFD" transform="translate(687.23828125,422.3203125)"/>
<path d="M0 0 C10.09595932 6.12628155 15.63090566 13.78779893 19 25 C19.495 26.485 19.495 26.485 20 28 C21.08515699 37.37504484 18.71087762 46.59863734 13.25 54.3125 C7.07480144 61.73817627 0.01033604 68.15470819 -9.96191406 69.20703125 C-22.01730383 69.9773437 -31.400647 68.88064588 -40.9296875 60.9453125 C-48.64875808 53.69229901 -53.0406158 45.31387258 -53.47265625 34.68896484 C-53.56142201 27.38005516 -53.1138957 21.26027607 -49 15 C-48.56429688 14.30648438 -48.12859375 13.61296875 -47.6796875 12.8984375 C-44.21307403 7.84059162 -40.17528285 4.25138588 -35 1 C-34.36835938 0.58492188 -33.73671875 0.16984375 -33.0859375 -0.2578125 C-23.98614967 -5.28201968 -9.10032699 -4.93167005 0 0 Z " fill="#FDFDFD" transform="translate(350,420)"/>
<path d="M0 0 C0.928125 0.62068359 0.928125 0.62068359 1.875 1.25390625 C2.8959375 1.89005859 2.8959375 1.89005859 3.9375 2.5390625 C11.78363097 7.87383716 17.32799032 15.10457477 19.875 24.25390625 C21.84067176 36.14173728 19.87798423 46.36734028 12.875 56.25390625 C7.38936396 62.52320458 -0.4639371 68.519893 -9.01928711 69.46264648 C-21.39971648 70.04220418 -30.3527229 69.35696947 -40.453125 61.42578125 C-47.48051445 55.02304864 -51.68613143 46.8092046 -52.43359375 37.34765625 C-52.86742152 26.05580966 -51.57491556 17.92592408 -44.19140625 8.88671875 C-33.56095716 -2.4275604 -14.34275344 -8.03978562 0 0 Z " fill="#FDFDFD" transform="translate(516.125,419.74609375)"/>
<path d="M0 0 C7.93961992 5.96645994 13.45402503 14.11188286 15 24 C15.87390433 33.19748495 14.52788162 41.24706651 8.94140625 48.7734375 C1.91228164 56.85752348 -5.29490674 62.19859306 -16.1171875 63.32421875 C-26.78013645 63.68801348 -34.74742606 60.84704354 -42.95703125 54.046875 C-48.79283087 48.19991706 -52.10754516 41.16529577 -53 33 C-53.11730469 32.09636719 -53.23460937 31.19273437 -53.35546875 30.26171875 C-54.0379797 20.53915717 -50.29393051 12.02808165 -44.03515625 4.69921875 C-31.48815776 -6.90364916 -14.92633859 -8.27522399 0 0 Z " fill="#273F4B" transform="translate(519,262)"/>
</svg>
