<?xml version="1.0" encoding="UTF-8"?>
<svg version="1.1" xmlns="http://www.w3.org/2000/svg" width="1000" height="1000">
<path d="M0 0 C1.53599854 0.06960937 1.53599854 0.06960937 3.10302734 0.140625 C71.36732438 3.49055286 137.41924896 22.91897629 194 62 C194.66064453 62.45503906 195.32128906 62.91007812 196.00195312 63.37890625 C200.05209723 66.18510744 204.04472583 69.06179633 208 72 C208.55768066 72.4134668 209.11536133 72.82693359 209.68994141 73.25292969 C216.218248 78.1187715 222.5042565 83.1664131 228.48828125 88.69921875 C230.48927826 90.53216935 232.51832804 92.30146829 234.578125 94.06640625 C239.56596902 98.42065141 244.25645124 103.07038503 248.93579102 107.75048828 C250.42641615 109.23893237 251.92487017 110.71917277 253.42382812 112.19921875 C259.73344544 118.47208683 265.46782637 125.01986354 271 132 C272.00029127 133.20872989 273.00371163 134.41488462 274.01171875 135.6171875 C282.48657734 145.87320807 289.82563769 156.80663473 297 168 C297.41846191 168.6487207 297.83692383 169.29744141 298.26806641 169.96582031 C323.72073214 209.75009108 339.53351355 254.43611985 347.75 300.75 C348.04825684 302.41554932 348.04825684 302.41554932 348.35253906 304.11474609 C351.49511797 322.71417751 352.37938383 341.22764699 352.3125 360.0625 C352.30976578 361.66983002 352.30976578 361.66983002 352.30697632 363.30963135 C352.25917919 380.04672314 351.66507066 396.44511716 349 413 C348.82307617 414.11874512 348.64615234 415.23749023 348.46386719 416.39013672 C333.65987075 507.52803879 286.07747739 577.15294491 222.15479088 640.96127474 C219.08296101 644.02873349 216.01407598 647.09913622 212.94480896 650.16915894 C207.64337237 655.47111659 202.34012694 660.77125918 197.03560257 666.07012749 C189.36641678 673.73114123 181.70003651 681.39495752 174.03430979 689.05943228 C161.59319135 701.49836911 149.14984746 713.93507719 136.70507812 726.37036133 C124.62544703 738.44079517 112.54688027 750.51229245 100.46972656 762.58520508 C99.7236688 763.33100012 98.97761104 764.07679515 98.20894547 764.84519004 C94.46571521 768.58711514 90.72250568 772.32906099 86.97930646 776.07101715 C55.98941801 807.05056075 24.99590682 838.02647802 -6 869 C-9.52863523 867.49259406 -11.79946304 865.45018056 -14.50191975 862.74696922 C-15.85546479 861.40032238 -15.85546479 861.40032238 -17.23635417 860.02647054 C-18.23385715 859.02395238 -19.23126637 858.02134091 -20.22859192 857.01864624 C-21.29082874 855.95799732 -22.35350305 854.89778641 -23.41657752 853.83797705 C-26.34015011 850.92082834 -29.25743285 847.9974589 -32.17374051 845.07304978 C-35.31883872 841.92138194 -38.46968765 838.77547263 -41.61982727 835.62884521 C-47.79273017 829.46098903 -53.96026987 823.28779639 -60.12602571 817.11279647 C-67.30720507 809.92123793 -74.49360376 802.73490452 -81.68021747 795.5487773 C-94.50650514 782.72299055 -107.32795195 769.89237539 -120.14672852 757.05908203 C-132.58158684 744.61014899 -145.01992873 732.16471047 -157.4621582 719.72314453 C-158.22779435 718.95754834 -158.99343049 718.19195216 -159.78226773 717.40315609 C-160.54658569 716.63887848 -161.31090366 715.87460087 -162.09838277 715.08716333 C-176.2626693 700.92356733 -190.42366003 686.75668018 -204.58312688 672.58826601 C-209.58853432 667.57984542 -214.59491489 662.5723988 -219.60160255 657.56525803 C-225.70823378 651.45794344 -231.81296203 645.34873372 -237.91534928 639.23717849 C-241.02784484 636.12007665 -244.14110776 633.00375218 -247.25653839 629.88958359 C-250.11164317 627.03557927 -252.96440826 624.17925733 -255.81536444 621.32110901 C-256.84410914 620.29056122 -257.87368124 619.26083852 -258.90418801 618.23205273 C-264.48757054 612.65695881 -269.88220999 607.00526892 -275 601 C-275.948172 599.92760616 -276.89831886 598.85695073 -277.8515625 597.7890625 C-289.84552591 584.17666232 -300.22699901 569.26796175 -310 554 C-310.35980957 553.43877441 -310.71961914 552.87754883 -311.09033203 552.29931641 C-322.54833444 534.24158828 -332.28649024 514.93714922 -340 495 C-340.32274902 494.18096191 -340.64549805 493.36192383 -340.97802734 492.51806641 C-357.41563265 450.52330761 -365.22315871 405.98691992 -365.25 361 C-365.25067474 359.98077454 -365.25134949 358.96154907 -365.25204468 357.91143799 C-365.23442248 341.09524976 -364.50429484 324.65503957 -362 308 C-361.83371094 306.8661084 -361.66742188 305.7322168 -361.49609375 304.56396484 C-356.12248133 269.00358709 -345.61979651 234.40056893 -330 202 C-329.61376465 201.18660156 -329.2275293 200.37320313 -328.82958984 199.53515625 C-315.08852908 170.69186537 -297.38496331 144.56883975 -276.36816406 120.56347656 C-275.18499264 119.2114013 -274.00972118 117.85242057 -272.8359375 116.4921875 C-262.19582992 104.37314605 -250.7345943 92.9024839 -238 83 C-236.3110779 81.58502904 -234.62363449 80.16829164 -232.9375 78.75 C-205.25661884 56.19810814 -173.39358119 37.70846163 -140 25 C-139.07364746 24.64244629 -138.14729492 24.28489258 -137.19287109 23.91650391 C-94.04018225 7.38320329 -46.38103263 -2.13114899 0 0 Z " fill="#F16E89" transform="translate(506,83)"/>
<path d="M0 0 C0.92554688 0.63035156 1.85109375 1.26070313 2.8046875 1.91015625 C22.20285533 15.67410823 36.17972259 34.04037214 47 55 C47.35723145 55.68852051 47.71446289 56.37704102 48.08251953 57.08642578 C53.37637251 67.42706928 57.077702 77.77357661 60 89 C60.46212891 90.67449219 60.46212891 90.67449219 60.93359375 92.3828125 C67.12694966 115.55603892 66.02266127 143.92385417 60 167 C59.81808105 167.70108887 59.63616211 168.40217773 59.44873047 169.12451172 C58.18082121 173.83016601 56.65242284 178.41680565 55 183 C54.71108887 183.80791992 54.42217773 184.61583984 54.12451172 185.44824219 C38.46304036 228.8322246 11.9039632 270.30768402 -21.4296875 302.43359375 C-23.19529439 304.19480859 -24.81224597 306.04622906 -26.4375 307.9375 C-29.40605556 311.38421216 -32.54079104 314.59110859 -35.8125 317.75 C-37.61881102 319.6079199 -39.28906831 321.49544304 -40.96899414 323.46459961 C-45.63855446 328.81391989 -50.65901222 333.80361859 -55.68359375 338.81640625 C-56.70832108 339.84180924 -57.73290011 340.86736046 -58.75733948 341.89305115 C-60.8930043 344.03018063 -63.03044208 346.16551609 -65.16918945 348.29956055 C-67.89008416 351.01475875 -70.6064631 353.73442333 -73.32151699 356.45546055 C-75.43283814 358.57042075 -77.54656675 360.68296207 -79.66099739 362.79481316 C-80.66271091 363.79586663 -81.66370177 364.79764385 -82.663908 365.80020332 C-87.77244239 370.91812114 -92.90760918 375.93606651 -98.41053772 380.63072205 C-100.37744391 382.32515753 -102.197304 384.132922 -104 386 C-107.16779529 389.21093647 -110.44970428 392.2106278 -113.8671875 395.15234375 C-116.27376821 397.2371655 -118.63764945 399.36521533 -121 401.5 C-132.80757284 412.14294123 -144.86837603 422.42982159 -157.4140625 432.19140625 C-159.82534852 434.07057815 -162.21375204 435.9740572 -164.5859375 437.90234375 C-178.47220618 449.1870351 -193.01051827 459.42595653 -207.875 469.375 C-208.72100769 469.94302338 -208.72100769 469.94302338 -209.58410645 470.52252197 C-213.36373544 473.05591204 -217.16972377 475.54391834 -221 478 C-222.09344727 478.70286133 -223.18689453 479.40572266 -224.31347656 480.12988281 C-225.36760742 480.78053711 -226.42173828 481.43119141 -227.5078125 482.1015625 C-228.44512207 482.68502441 -229.38243164 483.26848633 -230.34814453 483.86962891 C-233.53197279 485.22675695 -234.76178335 485.12546217 -238 484 C-240.50439453 482.72827148 -240.50439453 482.72827148 -243.1328125 481.12109375 C-244.09815918 480.53376465 -245.06350586 479.94643555 -246.05810547 479.34130859 C-247.07018066 478.71305176 -248.08225586 478.08479492 -249.125 477.4375 C-250.16672363 476.79635254 -251.20844727 476.15520508 -252.28173828 475.49462891 C-258.11828669 471.87463053 -263.81656749 468.19980526 -269.28515625 464.04296875 C-272.17477049 461.86848206 -275.12504354 459.80123993 -278.0925293 457.73510742 C-286.63967364 451.77663959 -294.89418273 445.54311768 -303 439 C-303.64324219 438.4829248 -304.28648437 437.96584961 -304.94921875 437.43310547 C-316.07323099 428.48494572 -327.07077571 419.39162889 -337.7734375 409.94140625 C-339.62126802 408.3302277 -341.48170312 406.73774909 -343.3515625 405.15234375 C-354.49474234 395.69420121 -354.49474234 395.69420121 -359.44140625 390.5625 C-361.15932171 388.84027899 -362.96415643 387.26865727 -364.8125 385.6875 C-368.86032338 382.20339671 -372.58804549 378.45011544 -376.3125 374.625 C-378.38645935 372.59927227 -380.47308352 370.71027228 -382.66967773 368.82592773 C-386.94208039 365.10025967 -390.97142505 361.17329032 -394.97265625 357.16015625 C-396.0627726 356.07147499 -396.0627726 356.07147499 -397.1749115 354.96080017 C-398.69962296 353.43676444 -400.2230915 351.91148431 -401.74536133 350.38500977 C-404.05633891 348.06867537 -406.37260771 345.75772922 -408.68945312 343.44726562 C-410.1800082 341.95604966 -411.670253 340.46452347 -413.16015625 338.97265625 C-414.18388084 337.951968 -414.18388084 337.951968 -415.22828674 336.91065979 C-419.13478564 332.98534251 -422.86199455 328.95828572 -426.46665955 324.75352478 C-428.69512765 322.20505354 -431.07760813 319.86539441 -433.5 317.5 C-437.18488963 313.86440864 -440.70735904 310.15387033 -444.06640625 306.21484375 C-446.09919594 303.88637556 -448.19446069 301.62789124 -450.30419922 299.36938477 C-455.33841779 293.97915603 -460.17107975 288.50377413 -464.76953125 282.73046875 C-466.58310314 280.51035185 -468.43968669 278.36767681 -470.34375 276.2265625 C-499.60195773 242.92304539 -522.52097452 199.60186988 -530.64160156 155.91992188 C-530.96320953 154.19708463 -531.31926033 152.48076118 -531.6796875 150.765625 C-539.07537244 110.03870245 -526.58289837 68.63324397 -503.62524414 35.04663086 C-480.40578468 1.99207506 -445.65713713 -16.57848885 -406.29223633 -23.56201172 C-364.03496553 -30.08064763 -315.47856698 -23.24536362 -280.125 2 C-278.40335036 3.31609387 -276.69497301 4.64972334 -275 6 C-274.05382812 6.74378906 -273.10765625 7.48757813 -272.1328125 8.25390625 C-266.76070714 12.55595811 -261.74928002 17.02336083 -257 22 C-256.21625 22.78375 -255.4325 23.5675 -254.625 24.375 C-253.75875 25.24125 -252.8925 26.1075 -252 27 C-251.33097656 27.64582031 -250.66195313 28.29164063 -249.97265625 28.95703125 C-245.08018558 33.73241715 -240.74433166 38.66661434 -236.62890625 44.12890625 C-236.09136719 44.74636719 -235.55382812 45.36382812 -235 46 C-234.34 46 -233.68 46 -233 46 C-231.62787699 44.46804728 -230.3284554 42.87078919 -229.0625 41.25 C-212.97570771 21.21206575 -194.47291991 4.53194367 -172 -8 C-170.87980469 -8.6290625 -169.75960938 -9.258125 -168.60546875 -9.90625 C-119.10216741 -36.18506887 -45.82101504 -32.57916207 0 0 Z " fill="#FEFEFE" transform="translate(734,275)"/>
<path d="M0 0 C0.77859375 0.05027344 1.5571875 0.10054688 2.359375 0.15234375 C3.51179687 0.20068359 3.51179687 0.20068359 4.6875 0.25 C8.29122224 1.49967787 10.09517801 3.98134974 12.109375 7.08984375 C13.70958334 10.61074769 14.92485559 14.23353979 16.140625 17.90234375 C16.49902466 18.94825684 16.85742432 19.99416992 17.22668457 21.07177734 C18.36662732 24.40706885 19.48839525 27.74813699 20.609375 31.08984375 C21.36205206 33.30510552 22.11594704 35.51995388 22.87109375 37.734375 C23.96720545 40.94987637 25.06158996 44.16587604 26.1484375 47.38452148 C28.43889818 54.16568963 30.81407426 60.90677422 33.31445312 67.61328125 C34.109375 70.08984375 34.109375 70.08984375 34.109375 73.08984375 C44.69749605 73.12133943 55.28486804 73.11524247 65.87291908 73.06137753 C70.78967907 73.03754075 75.70576145 73.0265712 80.62255859 73.04516602 C85.36922288 73.06264137 90.11467075 73.04611024 94.86118698 73.00616646 C96.67041298 72.99688447 98.47974446 72.99978061 100.28892899 73.01515007 C102.82759874 73.03461974 105.36244147 73.01048177 107.90087891 72.97631836 C108.64606781 72.99213455 109.39125671 73.00795074 110.1590271 73.02424622 C113.25224354 72.94433924 115.50735795 72.62328347 117.85783005 70.54055977 C119.46589495 68.69310002 119.46589495 68.69310002 120.82910728 66.77913761 C122.93597108 63.99916274 124.79382908 63.13362673 128.109375 62.08984375 C135.50061459 61.25467543 142.04712372 61.46196442 148.109375 66.08984375 C153.38240885 71.05685332 156.12810992 75.59890966 156.484375 82.90234375 C156.330841 88.98048398 154.63182092 93.40003175 150.4609375 97.84765625 C144.51491328 103.2224467 139.16949431 104.66101691 131.19140625 104.54296875 C125.36746875 103.68672445 121.0922978 100.44983241 117.36328125 96.01171875 C116.109375 94.08984375 116.109375 94.08984375 116.109375 92.08984375 C114.97011566 92.10094681 113.83085632 92.11204987 112.65707397 92.12348938 C101.91624585 92.22488461 91.17551492 92.29981854 80.43431664 92.34890461 C74.91222549 92.37498885 69.39052098 92.41036614 63.86865234 92.46704102 C58.53885732 92.52140164 53.20943397 92.55127312 47.87938309 92.56422997 C45.84678929 92.5734625 43.81421564 92.5914917 41.78178024 92.61849403 C38.9326877 92.65483791 36.08512722 92.65978683 33.23583984 92.6574707 C32.39714355 92.67544708 31.55844727 92.69342346 30.69433594 92.71194458 C26.62263049 92.67617269 23.92493953 92.37409674 20.66186523 89.81933594 C18.39621904 87.39657894 17.17965022 85.93075597 16.14306641 82.8503418 C15.86322906 82.04988937 15.58339172 81.24943695 15.29507446 80.42472839 C15.01980927 79.57558365 14.74454407 78.7264389 14.4609375 77.8515625 C14.15868256 76.97079544 13.85642761 76.09002838 13.54501343 75.18257141 C12.59007736 72.38657555 11.66197048 69.58251378 10.734375 66.77734375 C10.08899455 64.87245139 9.44187707 62.9681466 8.79296875 61.06445312 C7.21158346 56.41281055 5.65418622 51.75375371 4.109375 47.08984375 C1.75765089 53.74639397 -0.07155683 60.45644814 -1.73803711 67.31347656 C-2.00514999 68.39915924 -2.27226288 69.48484192 -2.54747009 70.60342407 C-3.12346871 72.9454308 -3.69794348 75.28781273 -4.27103996 77.63053131 C-5.17918125 81.33875285 -6.09344896 85.04541221 -7.00965881 88.75164795 C-9.61302412 99.28389308 -12.21212424 109.81714221 -14.79077148 120.35546875 C-16.37113005 126.81372382 -17.96511781 133.26852279 -19.5668354 139.72151947 C-20.17397888 142.17794804 -20.77637169 144.63555588 -21.37391472 147.09433746 C-22.20867066 150.52721444 -23.05936599 153.95577002 -23.91381836 157.38378906 C-24.27790802 158.90653946 -24.27790802 158.90653946 -24.64935303 160.46005249 C-25.92854849 165.51855924 -27.04363873 169.33328683 -30.890625 173.08984375 C-34.04858607 174.66882428 -37.49733136 174.90912546 -40.890625 174.08984375 C-45.29409452 170.31221598 -47.55323518 166.38842693 -49.96484375 161.24609375 C-50.51373512 160.10864212 -50.51373512 160.10864212 -51.07371521 158.94821167 C-52.25204774 156.50016209 -53.41538339 154.04533147 -54.578125 151.58984375 C-55.38245506 149.90926294 -56.18763345 148.22908789 -56.99365234 146.54931641 C-58.57833329 143.24286265 -60.15713046 139.93370365 -61.73095703 136.62207031 C-63.56523602 132.76554629 -65.42274372 128.92124665 -67.29296875 125.08203125 C-68.20073305 123.20973829 -69.10830722 121.33735313 -70.015625 119.46484375 C-70.42256592 118.63275391 -70.82950684 117.80066406 -71.2487793 116.94335938 C-73.890625 111.43303759 -73.890625 111.43303759 -73.890625 108.08984375 C-74.550625 108.08984375 -75.210625 108.08984375 -75.890625 108.08984375 C-76.01050781 109.39695312 -76.13039063 110.7040625 -76.25390625 112.05078125 C-76.77970925 116.75456169 -77.80883626 121.16338874 -79.078125 125.71484375 C-79.53172031 127.38919558 -79.98482362 129.06368075 -80.4375 130.73828125 C-80.67533203 131.6106543 -80.91316406 132.48302734 -81.15820312 133.38183594 C-82.41427145 138.02593921 -83.61874809 142.6834066 -84.828125 147.33984375 C-85.33708516 149.293009 -85.84620093 151.2461337 -86.35546875 153.19921875 C-86.60925293 154.17310547 -86.86303711 155.14699219 -87.12451172 156.15039062 C-88.37902736 160.96376484 -89.63488503 165.77678883 -90.890625 170.58984375 C-91.39063163 172.50650869 -91.89063162 174.42317536 -92.390625 176.33984375 C-93.390625 180.17317708 -94.390625 184.00651042 -95.390625 187.83984375 C-95.63820557 188.78899658 -95.88578613 189.73814941 -96.14086914 190.71606445 C-96.63986975 192.62871054 -97.13905533 194.54130838 -97.63842773 196.45385742 C-98.9052557 201.30665585 -100.16865003 206.16030487 -101.42578125 211.015625 C-104.46489194 222.74026036 -107.55035578 234.44696289 -110.890625 246.08984375 C-111.16648437 247.08113281 -111.44234375 248.07242188 -111.7265625 249.09375 C-112.64175359 252.15914811 -113.53904205 254.66013126 -115.578125 257.15234375 C-118.98774309 258.53462135 -122.35207843 259.09144352 -125.890625 258.08984375 C-130.62285489 254.1521422 -132.37206366 250.25732815 -134.3671875 244.6328125 C-134.68554565 243.77206619 -135.00390381 242.91131989 -135.33190918 242.02449036 C-136.03210854 240.12607912 -136.72588779 238.22529087 -137.41412354 236.32250977 C-138.5476063 233.18892954 -139.69726854 230.06169779 -140.85107422 226.93554688 C-142.12778697 223.47489607 -143.40304899 220.01375352 -144.67337036 216.55075073 C-148.15295007 207.06528897 -151.68237375 197.59918802 -155.234375 188.140625 C-155.645461 187.04594469 -155.645461 187.04594469 -156.06485176 185.92914963 C-157.19028387 182.93272471 -158.3159671 179.93639434 -159.44204044 176.94021034 C-161.44925602 171.59926496 -163.45304718 166.25704481 -165.45483398 160.9140625 C-170.98486949 146.1550468 -176.52429742 131.39969713 -182.08867645 116.65359116 C-183.77940138 112.17144027 -185.46758669 107.68833218 -187.15566254 103.20518303 C-188.75365076 98.96224168 -190.35593624 94.72095575 -191.96140003 90.48083782 C-192.70892846 88.50425452 -193.45421465 86.52684391 -194.19847107 84.54902649 C-195.1021089 82.14767969 -196.00934457 79.74768258 -196.92079163 77.34928894 C-197.31519943 76.29776138 -197.70960724 75.24623383 -198.1159668 74.1628418 C-198.46088669 73.24971725 -198.80580658 72.33659271 -199.16117859 71.39579773 C-199.890625 69.08984375 -199.890625 69.08984375 -199.890625 66.08984375 C-200.550625 66.08984375 -201.210625 66.08984375 -201.890625 66.08984375 C-202.04917969 66.77046875 -202.20773437 67.45109375 -202.37109375 68.15234375 C-204.10739489 75.36614736 -206.19502587 82.42723134 -208.44140625 89.49609375 C-210.11935186 94.78331554 -211.72123291 100.09318633 -213.328125 105.40234375 C-215.75372961 113.39960815 -218.21085753 121.38543978 -220.75708008 129.34521484 C-221.96111757 133.11293471 -223.13229701 136.88466611 -224.234375 140.68359375 C-224.55897705 141.78199585 -224.55897705 141.78199585 -224.89013672 142.90258789 C-225.47466526 144.88820535 -226.04641298 146.87757277 -226.6171875 148.8671875 C-227.94036818 152.21572755 -229.09365498 153.866199 -231.890625 156.08984375 C-235.08981587 157.15624071 -237.35815664 157.20807888 -240.71972656 157.19995117 C-241.918172 157.20053024 -243.11661743 157.20110931 -244.35137939 157.20170593 C-246.29666534 157.19854118 -246.29666534 157.19854118 -248.28125 157.1953125 C-251.01955577 157.20618541 -253.75781707 157.2236861 -256.49609375 157.24023438 C-260.81931357 157.26453272 -265.14205355 157.28030098 -269.46533203 157.26489258 C-272.96407805 157.25319016 -276.46163664 157.27073435 -279.96019745 157.30733681 C-281.93146834 157.32007165 -283.90286122 157.30195681 -285.87408447 157.2832489 C-293.6046203 157.31009705 -293.6046203 157.31009705 -300.09960938 161.05395508 C-301.03292473 162.06317316 -301.96371871 163.07473616 -302.890625 164.08984375 C-308.30024639 166.90940399 -313.9329839 166.93769102 -319.890625 166.08984375 C-326.56302168 163.36886639 -330.94110237 158.59459455 -333.890625 152.08984375 C-335.55386939 146.57431073 -335.72384927 141.32078208 -333.390625 136.02734375 C-330.44171671 130.67914449 -325.71551312 126.03147312 -319.890625 124.08984375 C-312.48733645 123.42080582 -305.9610764 123.43583101 -299.890625 128.08984375 C-297.64216181 130.25628146 -295.59558314 132.46782478 -293.890625 135.08984375 C-293.890625 135.74984375 -293.890625 136.40984375 -293.890625 137.08984375 C-277.390625 137.08984375 -260.890625 137.08984375 -243.890625 137.08984375 C-243.560625 134.77984375 -243.230625 132.46984375 -242.890625 130.08984375 C-242.39704541 128.3425432 -241.85266962 126.60863815 -241.25390625 124.89453125 C-240.92680664 123.94151123 -240.59970703 122.98849121 -240.26269531 122.0065918 C-239.91303711 121.00281494 -239.56337891 119.99903809 -239.203125 118.96484375 C-236.46555941 110.95445134 -233.90678851 102.93390153 -231.640625 94.77734375 C-229.93075685 88.62759921 -228.09438454 82.62672322 -225.8125 76.66015625 C-224.73256487 73.64915066 -223.87211763 70.60931312 -223.015625 67.52734375 C-221.24913465 61.18466974 -219.2312679 54.95437443 -217.10424805 48.72387695 C-215.91710696 45.2330141 -214.76859001 41.75178699 -213.79296875 38.1953125 C-213.47457031 37.04675781 -213.15617187 35.89820313 -212.828125 34.71484375 C-212.56902344 33.71710938 -212.30992187 32.719375 -212.04296875 31.69140625 C-210.57871655 28.38567078 -208.91728536 27.02366835 -205.890625 25.08984375 C-203.828125 24.55859375 -203.828125 24.55859375 -201.890625 24.58984375 C-200.9315625 24.574375 -200.9315625 24.574375 -199.953125 24.55859375 C-196.88904172 25.34782732 -195.21045751 26.9620219 -192.890625 29.08984375 C-191.48397827 31.70587158 -191.48397827 31.70587158 -190.36474609 34.73535156 C-189.71366882 36.46260971 -189.71366882 36.46260971 -189.04943848 38.22476196 C-188.58739324 39.49740565 -188.12561002 40.77014448 -187.6640625 42.04296875 C-187.16375442 43.38709359 -186.66204911 44.73069905 -186.15905762 46.07382202 C-184.7958964 49.72507908 -183.4515248 53.38300554 -182.11013031 57.04230499 C-180.68781322 60.91182315 -179.24780128 64.77474064 -177.80908203 68.63818359 C-175.69716431 74.313834 -173.5906256 79.99142765 -171.49075127 85.67154503 C-167.60377312 96.18498022 -163.67881686 106.68378311 -159.734375 117.17578125 C-159.44317717 117.95050781 -159.15197933 118.72523438 -158.85195732 119.5234375 C-157.68586666 122.62573771 -156.51967166 125.72799863 -155.35321712 128.83016205 C-152.24617204 137.09407481 -149.14730961 145.36104784 -146.05078125 153.62890625 C-145.78435884 154.34024719 -145.51793644 155.05158813 -145.24344063 155.78448486 C-138.09441366 174.87456742 -130.97960427 193.97738334 -123.890625 213.08984375 C-121.76404503 209.39834342 -120.85896205 205.45422102 -119.8671875 201.3515625 C-119.58601578 200.21482841 -119.58601578 200.21482841 -119.29916382 199.05513 C-118.70017949 196.63027675 -118.10760153 194.20391637 -117.515625 191.77734375 C-116.73907546 188.61406534 -115.95990841 185.45143721 -115.1796875 182.2890625 C-114.89132523 181.11849808 -114.89132523 181.11849808 -114.59713745 179.92428589 C-113.07956546 173.78966754 -111.4721229 167.68349101 -109.82861328 161.58129883 C-108.35433536 156.09362352 -106.93649754 150.59154156 -105.515625 145.08984375 C-104.90508717 142.73043271 -104.29440772 140.37105832 -103.68359375 138.01171875 C-103.38243652 136.84833984 -103.0812793 135.68496094 -102.77099609 134.48632812 C-100.73701593 126.63920333 -98.68628294 118.79644576 -96.63769531 110.953125 C-95.85335352 107.94699411 -95.07100792 104.94034882 -94.2890625 101.93359375 C-94.02359619 100.91362305 -93.75812988 99.89365234 -93.48461914 98.84277344 C-92.98331039 96.91646989 -92.48245608 94.99004798 -91.98217773 93.06347656 C-91.52255119 91.29838184 -91.0597315 89.5341151 -90.59350586 87.77075195 C-90.09759252 85.8792534 -89.61530443 83.98415706 -89.14282227 82.08666992 C-88.89201904 81.10674072 -88.64121582 80.12681152 -88.3828125 79.1171875 C-88.16093262 78.23023193 -87.93905273 77.34327637 -87.71044922 76.42944336 C-86.29805688 72.39878352 -84.63940221 71.14106147 -80.890625 69.08984375 C-77.95537623 68.28719089 -75.82330585 68.28897481 -72.890625 69.08984375 C-66.98474496 74.74663225 -64.10566606 81.44195081 -60.828125 88.83984375 C-59.70147317 91.33554346 -58.56696432 93.82765833 -57.43359375 96.3203125 C-57.14578033 96.95645981 -56.85796692 97.59260712 -56.56143188 98.24803162 C-52.84007875 106.45326373 -48.88246218 114.54435547 -44.94116211 122.64550781 C-44.16591187 124.24410645 -44.16591187 124.24410645 -43.375 125.875 C-42.69002441 127.28084351 -42.69002441 127.28084351 -41.99121094 128.71508789 C-40.890625 131.08984375 -40.890625 131.08984375 -39.890625 134.08984375 C-36.3676736 121.63940261 -33.07366541 109.14687542 -29.953125 96.58984375 C-29.73486053 95.71501343 -29.51659607 94.84018311 -29.29171753 93.93884277 C-26.75287086 83.75943387 -24.2683692 73.57281062 -21.953125 63.33984375 C-20.94389484 58.9204584 -19.92244067 54.50400589 -18.890625 50.08984375 C-18.69577515 49.256203 -18.50092529 48.42256226 -18.3001709 47.56365967 C-16.91125316 41.63965765 -15.49685343 35.72231645 -14.06027222 29.80969238 C-13.57549007 27.80186056 -13.09698361 25.79250224 -12.62503052 23.78161621 C-11.95831764 20.94638167 -11.26894159 18.11754522 -10.57421875 15.2890625 C-10.3784726 14.43501328 -10.18272644 13.58096405 -9.98104858 12.70103455 C-8.67274534 7.50198805 -7.1477952 4.62309103 -2.890625 1.08984375 C-1.890625 0.08984375 -1.890625 0.08984375 0 0 Z " fill="#FF0303" transform="translate(602.890625,373.91015625)"/>
</svg>
