<?xml version="1.0" encoding="UTF-8"?>
<svg version="1.1" xmlns="http://www.w3.org/2000/svg" width="1000" height="1000">
<path d="M0 0 C1.53599854 0.06960937 1.53599854 0.06960937 3.10302734 0.140625 C71.36732438 3.49055286 137.41924896 22.91897629 194 62 C194.66064453 62.45503906 195.32128906 62.91007812 196.00195312 63.37890625 C200.05209723 66.18510744 204.04472583 69.06179633 208 72 C208.55768066 72.4134668 209.11536133 72.82693359 209.68994141 73.25292969 C216.218248 78.1187715 222.5042565 83.1664131 228.48828125 88.69921875 C230.48927826 90.53216935 232.51832804 92.30146829 234.578125 94.06640625 C239.56596902 98.42065141 244.25645124 103.07038503 248.93579102 107.75048828 C250.42641615 109.23893237 251.92487017 110.71917277 253.42382812 112.19921875 C259.73344544 118.47208683 265.46782637 125.01986354 271 132 C272.00029127 133.20872989 273.00371163 134.41488462 274.01171875 135.6171875 C282.48657734 145.87320807 289.82563769 156.80663473 297 168 C297.41846191 168.6487207 297.83692383 169.29744141 298.26806641 169.96582031 C323.72073214 209.75009108 339.53351355 254.43611985 347.75 300.75 C348.04825684 302.41554932 348.04825684 302.41554932 348.35253906 304.11474609 C351.49511797 322.71417751 352.37938383 341.22764699 352.3125 360.0625 C352.30976578 361.66983002 352.30976578 361.66983002 352.30697632 363.30963135 C352.25917919 380.04672314 351.66507066 396.44511716 349 413 C348.82307617 414.11874512 348.64615234 415.23749023 348.46386719 416.39013672 C333.65987075 507.52803879 286.07747739 577.15294491 222.15479088 640.96127474 C219.08296101 644.02873349 216.01407598 647.09913622 212.94480896 650.16915894 C207.64337237 655.47111659 202.34012694 660.77125918 197.03560257 666.07012749 C189.36641678 673.73114123 181.70003651 681.39495752 174.03430979 689.05943228 C161.59319135 701.49836911 149.14984746 713.93507719 136.70507812 726.37036133 C124.62544703 738.44079517 112.54688027 750.51229245 100.46972656 762.58520508 C99.7236688 763.33100012 98.97761104 764.07679515 98.20894547 764.84519004 C94.46571521 768.58711514 90.72250568 772.32906099 86.97930646 776.07101715 C55.98941801 807.05056075 24.99590682 838.02647802 -6 869 C-9.52863523 867.49259406 -11.79946304 865.45018056 -14.50191975 862.74696922 C-15.85546479 861.40032238 -15.85546479 861.40032238 -17.23635417 860.02647054 C-18.23385715 859.02395238 -19.23126637 858.02134091 -20.22859192 857.01864624 C-21.29082874 855.95799732 -22.35350305 854.89778641 -23.41657752 853.83797705 C-26.34015011 850.92082834 -29.25743285 847.9974589 -32.17374051 845.07304978 C-35.31883872 841.92138194 -38.46968765 838.77547263 -41.61982727 835.62884521 C-47.79273017 829.46098903 -53.96026987 823.28779639 -60.12602571 817.11279647 C-67.30720507 809.92123793 -74.49360376 802.73490452 -81.68021747 795.5487773 C-94.50650514 782.72299055 -107.32795195 769.89237539 -120.14672852 757.05908203 C-132.58158684 744.61014899 -145.01992873 732.16471047 -157.4621582 719.72314453 C-158.22779435 718.95754834 -158.99343049 718.19195216 -159.78226773 717.40315609 C-160.54658569 716.63887848 -161.31090366 715.87460087 -162.09838277 715.08716333 C-176.2626693 700.92356733 -190.42366003 686.75668018 -204.58312688 672.58826601 C-209.58853432 667.57984542 -214.59491489 662.5723988 -219.60160255 657.56525803 C-225.70823378 651.45794344 -231.81296203 645.34873372 -237.91534928 639.23717849 C-241.02784484 636.12007665 -244.14110776 633.00375218 -247.25653839 629.88958359 C-250.11164317 627.03557927 -252.96440826 624.17925733 -255.81536444 621.32110901 C-256.84410914 620.29056122 -257.87368124 619.26083852 -258.90418801 618.23205273 C-264.48757054 612.65695881 -269.88220999 607.00526892 -275 601 C-275.948172 599.92760616 -276.89831886 598.85695073 -277.8515625 597.7890625 C-289.84552591 584.17666232 -300.22699901 569.26796175 -310 554 C-310.35980957 553.43877441 -310.71961914 552.87754883 -311.09033203 552.29931641 C-322.54833444 534.24158828 -332.28649024 514.93714922 -340 495 C-340.32274902 494.18096191 -340.64549805 493.36192383 -340.97802734 492.51806641 C-357.41563265 450.52330761 -365.22315871 405.98691992 -365.25 361 C-365.25067474 359.98077454 -365.25134949 358.96154907 -365.25204468 357.91143799 C-365.23442248 341.09524976 -364.50429484 324.65503957 -362 308 C-361.83371094 306.8661084 -361.66742188 305.7322168 -361.49609375 304.56396484 C-356.12248133 269.00358709 -345.61979651 234.40056893 -330 202 C-329.61376465 201.18660156 -329.2275293 200.37320313 -328.82958984 199.53515625 C-315.08852908 170.69186537 -297.38496331 144.56883975 -276.36816406 120.56347656 C-275.18499264 119.2114013 -274.00972118 117.85242057 -272.8359375 116.4921875 C-262.19582992 104.37314605 -250.7345943 92.9024839 -238 83 C-236.3110779 81.58502904 -234.62363449 80.16829164 -232.9375 78.75 C-205.25661884 56.19810814 -173.39358119 37.70846163 -140 25 C-139.07364746 24.64244629 -138.14729492 24.28489258 -137.19287109 23.91650391 C-94.04018225 7.38320329 -46.38103263 -2.13114899 0 0 Z " fill="#FAFE47" transform="translate(506,83)"/>
<path d="M0 0 C1.56427734 0.57814453 1.56427734 0.57814453 3.16015625 1.16796875 C29.40195348 11.41918916 49.13280883 29.96814354 60.72607422 55.49926758 C64.43053425 64.03929474 67.2702452 72.69562634 68 82 C68.95519531 81.73445313 69.91039062 81.46890625 70.89453125 81.1953125 C112.47358695 69.77457188 153.59522352 75.14165842 191.13305664 96.38647461 C198.28616479 100.59806837 204.69988112 105.61547583 211 111 C211.52577637 111.44601562 212.05155273 111.89203125 212.59326172 112.3515625 C238.36179662 134.43196071 255.25541198 164.84995929 262 198 C262.27034058 199.30795532 262.27034058 199.30795532 262.54614258 200.64233398 C264.05328644 208.65441484 264.26831713 216.42549134 264.1875 224.5625 C264.18685547 225.79935547 264.18621094 227.03621094 264.18554688 228.31054688 C264.13477622 238.97802524 263.54570842 249.15047581 260.875 259.5 C260.65618164 260.35311768 260.43736328 261.20623535 260.21191406 262.08520508 C253.03388519 289.13223689 240.34619923 311.76144841 221 332 C220.01386719 333.08087891 220.01386719 333.08087891 219.0078125 334.18359375 C198.22070248 356.18655361 169.38554249 369.36813816 140 375 C138.86304688 375.22558594 137.72609375 375.45117188 136.5546875 375.68359375 C118.73492645 378.62649278 99.51519744 378.49453855 82 374 C80.76765625 373.70996094 79.5353125 373.41992188 78.265625 373.12109375 C63.12706149 369.36786068 49.53799063 363.66374757 36 356 C35.87625 357.07121094 35.7525 358.14242188 35.625 359.24609375 C34.66356075 365.02073825 32.39562775 369.00143763 27.87890625 372.76953125 C20.16646924 378.11491339 13.37187294 379.99456611 4 379 C-3.68491799 377.21175693 -9.28871878 373.30367231 -14 367 C-16.42564358 362.61971159 -17.72719032 357.95193164 -19.1015625 353.15625 C-22.20145334 342.4104714 -25.81432156 332.36391483 -36.02514648 326.39379883 C-39.61603365 324.71137168 -43.27559371 323.66301371 -47.09375 322.6484375 C-47.87905594 322.43518326 -48.66436188 322.22192902 -49.47346497 322.00221252 C-58.52191931 319.55969629 -67.60369983 317.24428489 -76.6875 314.9375 C-79.18553374 314.30186243 -81.68341654 313.66564167 -84.18109131 313.02859497 C-85.80430668 312.61463128 -87.42771674 312.20143014 -89.05133057 311.78903198 C-92.81680842 310.8292585 -96.57491903 309.85089217 -100.32128906 308.81884766 C-100.99682327 308.63367081 -101.67235748 308.44849396 -102.36836243 308.25770569 C-104.1720367 307.76031401 -105.97368125 307.25557804 -107.77514648 306.75024414 C-116.70095048 304.67370574 -124.08275793 305.42807148 -132 310 C-133.4540625 310.8353125 -133.4540625 310.8353125 -134.9375 311.6875 C-140.2505594 315.699402 -145.07615581 320.2866726 -149.953125 324.8125 C-157.08404985 331.23675662 -162.90501868 332.65050908 -172.4921875 332.40625 C-179.80618473 331.55919464 -184.95848376 328.45669656 -189.9375 323.125 C-195.98411757 315.40985824 -196.87109176 308.70439285 -196.25875854 299.03384399 C-195.59220806 293.79475245 -193.31515405 289.0194445 -191.15621948 284.24990845 C-189.69817852 281.00985845 -188.34708481 277.7256324 -186.9921875 274.44140625 C-186.72468185 273.79590317 -186.45717621 273.15040009 -186.18156433 272.4853363 C-178.84893765 254.56513725 -177.47228005 235.31491727 -175.74804688 216.20800781 C-174.9446352 207.30634148 -174.18533073 199.0862215 -170 191 C-171.02738281 190.79246094 -172.05476563 190.58492187 -173.11328125 190.37109375 C-186.35105143 187.50857012 -197.07275241 182.52739497 -205 171 C-212.14095341 157.87187168 -213.74939072 146.68222294 -210.03125 132.13671875 C-206.31957616 120.84704415 -198.37625401 111.98377238 -187.875 106.5625 C-176.06829148 101.1944625 -165.00489344 100.31678259 -152.79296875 104.8125 C-141.32734699 109.5003181 -132.00437127 117.72747094 -127.0625 129.1875 C-122.16216367 141.59614826 -123.48962285 152.70061813 -128 165 C-128.33 165.66 -128.66 166.32 -129 167 C-128.24976563 167.14695312 -127.49953125 167.29390625 -126.7265625 167.4453125 C-117.02221773 169.57195732 -109.51575647 173.48634439 -102 180 C-97.16626374 166.36886375 -95.04450702 155.36848389 -100.99609375 141.71484375 C-105.466693 132.94380647 -112.1974322 126.08430134 -120.1484375 120.4140625 C-126.10081823 115.86815148 -129.79549816 110.41772384 -131 103 C-132.9632952 75.21391929 -124.50005516 49.66520885 -106.29370117 28.57275391 C-94.16375234 15.08852088 -79.0454127 5.87468227 -62 0 C-60.87207031 -0.41507813 -59.74414062 -0.83015625 -58.58203125 -1.2578125 C-41.17371082 -6.68723414 -16.96106248 -6.77119139 0 0 Z " fill="#3E352B" transform="translate(474,214)"/>
<path d="M0 0 C1.51668086 1.41838883 2.99023217 2.88388232 4.42456055 4.38549805 C10.48187848 9.95984046 16.85283362 11.58067917 24.70703125 13.39453125 C26.14144651 13.75019178 27.57515988 14.10869333 29.00820923 14.46981812 C32.81698573 15.42216426 36.63361301 16.33816015 40.45295334 17.2470665 C44.4083077 18.19491377 48.35541354 19.1758239 52.30297852 20.15551758 C57.04752602 21.33166781 61.79239205 22.50619896 66.54081726 23.66661072 C75.85692153 25.94636035 85.13349824 28.32753117 94.3828125 30.8671875 C95.43850937 31.15625473 96.49420624 31.44532196 97.58189392 31.7431488 C101.46918792 32.81082057 105.35514888 33.88246487 109.23526001 34.97598267 C111.79837721 35.69720436 114.36538397 36.40264105 116.93359375 37.10546875 C117.65954742 37.31593842 118.3855011 37.52640808 119.13345337 37.74325562 C124.6246086 39.22681083 128.92300942 38.72876093 134.375 37.4375 C144.28188833 35.78635195 153.03991714 37.9718219 161.3125 43.75 C167.35090443 48.67476427 172.52019974 55.21285435 174 63 C175.55344683 78.77611558 170.18338603 90.68244983 163.45068359 104.61816406 C153.98079711 124.40916278 149.11063468 143.97357844 147.21386719 165.79125977 C146.49236328 173.24393704 145.57488471 181.49112385 139.99023438 186.97265625 C134.18468909 191.61025572 129.1672728 192.42218048 121.82421875 192.34375 C117.40937288 191.8063967 114.19529829 190.06008523 111 187 C107.48917771 182.47948633 106.04821243 178.36555268 104.6875 172.9375 C101.03693908 159.51370347 95.19300234 148.03017766 83.05517578 140.6015625 C78.20170974 138.05731308 73.24721276 136.75775711 67.9375 135.5 C65.64177537 134.91987088 63.34620686 134.33912366 61.05078125 133.7578125 C59.3020874 133.3251709 59.3020874 133.3251709 57.51806641 132.88378906 C52.96520766 131.74004523 48.43830881 130.51000276 43.91040039 129.27172852 C40.65453264 128.38306074 37.39445344 127.51174402 34.1328125 126.64453125 C30.26253596 125.6145091 26.40529704 124.55030331 22.5546875 123.44921875 C9.72608937 119.86877604 -5.23460588 116.54100665 -17.828125 122.6640625 C-23.9123898 126.40654193 -29.02470699 130.89713538 -34 136 C-39.92259739 141.68266274 -44.54952659 145.50550295 -52.9375 146.4375 C-58.39754284 146.18403573 -62.79049124 144.06285994 -66.765625 140.3515625 C-71.34198197 135.26425306 -73.61551572 130.79953618 -73.44140625 123.75390625 C-72.55850453 118.24553712 -70.09853026 113.20310327 -67.90283203 108.109375 C-58.3205304 85.72130412 -54.07541268 64.01580009 -52.28662109 39.74682617 C-51.28855647 26.4012453 -49.39449922 13.81321007 -39.08203125 4.21484375 C-27.46171114 -4.93306783 -13.27983472 -6.98676732 0 0 Z " fill="#645E67" transform="translate(358,393)"/>
<path d="M0 0 C1.64582629 1.39241706 3.27018942 2.81050271 4.875 4.25 C5.78121094 5.06210938 6.68742188 5.87421875 7.62109375 6.7109375 C21.15148584 19.50944985 32.05960487 37.64023821 34.875 56.25 C34.91324623 58.58301986 34.92074284 60.91711508 34.875 63.25 C33.84761719 63.75789063 32.82023438 64.26578125 31.76171875 64.7890625 C27.45639205 66.92347852 23.16412723 69.08325302 18.875 71.25 C17.87855469 71.75015625 16.88210938 72.2503125 15.85546875 72.765625 C2.67174813 79.64408793 -8.62656807 88.80862477 -19.125 99.25 C-19.61097656 99.73194824 -20.09695313 100.21389648 -20.59765625 100.71044922 C-31.03197458 111.20518424 -38.73791785 123.48776457 -46.125 136.25 C-50.1868294 135.61596746 -53.4827334 134.30368948 -57.19140625 132.546875 C-58.98118896 131.70467407 -58.98118896 131.70467407 -60.80712891 130.84545898 C-62.10059741 130.23033011 -63.39405413 129.61517646 -64.6875 129 C-66.03535364 128.36404782 -67.38350294 127.72872193 -68.73193359 127.09399414 C-71.50826256 125.78680798 -74.28351413 124.47737388 -77.05810547 123.16650391 C-83.1086595 120.31128075 -89.17961925 117.50028698 -95.25 114.6875 C-96.37946045 114.16260986 -97.5089209 113.63771973 -98.67260742 113.09692383 C-104.08622162 110.58144109 -109.5030871 108.07353021 -114.92984009 105.58653259 C-117.50209208 104.40713838 -120.07261694 103.22400702 -122.64300537 102.04055786 C-124.44929047 101.21079472 -126.25805961 100.38644573 -128.06689453 99.56225586 C-142.6786979 92.83028988 -142.6786979 92.83028988 -145.9375 87.25 C-146.33582031 86.59 -146.73414063 85.93 -147.14453125 85.25 C-153.11415523 73.07291842 -148.38189555 55.50038527 -144.2265625 43.1940918 C-135.43163909 18.90461751 -118.15735321 0.74703615 -95.125 -10.75 C-64.26508723 -25.03288529 -26.99174255 -20.85144093 0 0 Z " fill="#C74141" transform="translate(499.125,235.75)"/>
<path d="M0 0 C29.60220114 12.88501063 50.39364069 51.78247547 62.08203125 79.90625 C68.69716628 97.12055582 73.96019169 114.7155875 77.08203125 132.90625 C77.27522949 134.01258789 77.46842773 135.11892578 77.66748047 136.25878906 C79.11156962 144.78186217 80.18999782 153.3091652 81.08203125 161.90625 C81.30052734 163.76080811 81.30052734 163.76080811 81.5234375 165.65283203 C83.82144961 186.93454368 83.82144961 186.93454368 77.87890625 195.015625 C73.76928697 199.62413133 69.0600667 203.28705368 64.08203125 206.90625 C62.61848737 208.04128895 61.15620151 209.17795229 59.6953125 210.31640625 C41.77815026 223.88540169 21.26614376 233.10636123 -0.91796875 236.90625 C-21.20392734 212.65325951 -26.16371061 179.5251979 -23.91796875 148.90625 C-21.48780737 124.902536 -15.66031097 101.0501336 -10.6706543 77.48266602 C-10.42226807 76.30244873 -10.17388184 75.12223145 -9.91796875 73.90625 C-9.72485107 73.01905273 -9.5317334 72.13185547 -9.33276367 71.21777344 C-6.12019356 53.31511668 -9.62242786 35.80976955 -19.91796875 20.90625 C-21.25185269 18.90661718 -22.58529687 16.90669081 -23.91796875 14.90625 C-4.36337523 -0.21328107 -4.36337523 -0.21328107 0 0 Z " fill="#F9994A" transform="translate(614.91796875,344.09375)"/>
<path d="M0 0 C7.91004443 5.76264405 12.56567096 14.86520257 14.56640625 24.359375 C15.13371276 29.12270536 15.31892025 33.83038904 15.375 38.625 C15.38909912 39.47626465 15.40319824 40.3275293 15.41772461 41.20458984 C15.31469868 55.34392012 11.81972722 69.28309795 8.58203125 82.97244263 C-2.63313275 130.78906906 -4.31673061 174.48686926 21 218 C16.26181379 220.3690931 9.74339354 219.24556492 4.5 219.25 C3.79471161 219.25067474 3.08942322 219.25134949 2.36276245 219.25204468 C-24.17871203 219.21158915 -49.61656697 212.68912792 -72 198 C-71.07515571 173.73081017 -64.18233525 152.85822502 -54 131 C-47.11689399 116.20487008 -41.70077125 102.19946977 -47 85.875 C-49.25320835 79.98800478 -52.22464242 75.66610826 -56.5234375 71.0859375 C-58 69 -58 69 -57.96875 67.125 C-56.60149564 64.12586141 -54.92222795 61.37878617 -53.125 58.625 C-52.72643799 58.01140625 -52.32787598 57.3978125 -51.91723633 56.765625 C-47.34917576 49.85313806 -42.26585899 43.38981133 -37 37 C-36.52159668 36.41718262 -36.04319336 35.83436523 -35.55029297 35.23388672 C-25.10225288 22.57816982 -13.91114908 11.15151416 -1 1 C-0.67 0.67 -0.34 0.34 0 0 Z " fill="#F9994A" transform="translate(584,364)"/>
<path d="M0 0 C4.2763619 2.99758562 8.33917975 6.26984603 12 10 C12 10.66 12 11.32 12 12 C12.89980087 11.99777939 13.79960175 11.99555878 14.72666931 11.99327087 C23.18813967 11.97327056 31.64960214 11.9580272 40.11109066 11.94818783 C44.46168459 11.94295935 48.81225907 11.93586235 53.1628418 11.92456055 C57.35790258 11.91373041 61.55294459 11.9077229 65.74801826 11.90512276 C67.35206968 11.90326874 68.95612003 11.89964856 70.5601635 11.89426994 C72.79916515 11.88705781 75.0380883 11.88600913 77.27709961 11.88647461 C78.55395126 11.884254 79.83080292 11.88203339 81.14634705 11.87974548 C84 12 84 12 85 13 C85.04080783 14.99958364 85.04254356 17.00045254 85 19 C85.73471527 18.99555878 86.46943054 18.99111755 87.22640991 18.98654175 C94.14235368 18.94650724 101.05828017 18.91603712 107.97430992 18.89637566 C111.53012399 18.88592776 115.0858425 18.87175041 118.64160156 18.84912109 C122.727223 18.82328168 126.81274369 18.81353556 130.8984375 18.8046875 C132.17866791 18.79436493 133.45889832 18.78404236 134.77792358 18.77340698 C135.95899689 18.77325592 137.14007019 18.77310486 138.35693359 18.77294922 C139.92246475 18.76628738 139.92246475 18.76628738 141.5196228 18.75949097 C144 19 144 19 146 21 C146.26991906 23.68839385 146.08737357 26.29141936 146 29 C146.74685059 28.98952637 147.49370117 28.97905273 148.26318359 28.96826172 C151.63375508 28.9267923 155.004273 28.90070271 158.375 28.875 C159.550625 28.85824219 160.72625 28.84148438 161.9375 28.82421875 C163.61972656 28.81455078 163.61972656 28.81455078 165.3359375 28.8046875 C166.37282715 28.79421387 167.4097168 28.78374023 168.47802734 28.77294922 C171 29 171 29 173 31 C172.75 33.5625 172.75 33.5625 172 36 C169.39048764 37.30475618 167.47298715 37.11301572 164.5546875 37.09765625 C163.47832031 37.09443359 162.40195312 37.09121094 161.29296875 37.08789062 C160.16503906 37.07951172 159.03710938 37.07113281 157.875 37.0625 C156.73933594 37.05798828 155.60367188 37.05347656 154.43359375 37.04882812 C151.62234362 37.03701615 148.8111977 37.02054507 146 37 C146.04125 38.11375 146.0825 39.2275 146.125 40.375 C146 44 146 44 144 46 C141.5196228 46.24050903 141.5196228 46.24050903 138.35693359 46.22705078 C137.17586029 46.22689972 135.99478699 46.22674866 134.77792358 46.22659302 C133.49769318 46.21627045 132.21746277 46.20594788 130.8984375 46.1953125 C128.93833237 46.19106766 128.93833237 46.19106766 126.93862915 46.18673706 C123.46317919 46.17909776 119.98789617 46.1594469 116.51251221 46.1373291 C112.96669778 46.11687696 109.4208564 46.10773671 105.875 46.09765625 C98.91659805 46.07620116 91.95830704 46.04206173 85 46 C85.04125 46.94875 85.0825 47.8975 85.125 48.875 C85 52 85 52 83 54 C80.13134766 54.21791077 80.13134766 54.21791077 76.4140625 54.17602539 C75.39896355 54.16940887 75.39896355 54.16940887 74.36335754 54.16265869 C72.890635 54.15279966 71.41793518 54.13893114 69.94528198 54.12156868 C66.8040486 54.08919567 63.66314631 54.09159944 60.52177429 54.09185696 C54.6737678 54.0917134 48.8265923 54.07692623 42.97900391 54.00366211 C38.91069447 53.95403037 34.8443381 53.94882228 30.77581787 53.97179985 C29.23215789 53.97236521 27.68839825 53.95687566 26.14508057 53.92436409 C18.23748299 53.7646874 12.37301484 53.83898247 6.16479492 59.42456055 C4.76027282 60.93474898 3.36935346 62.45785132 2 64 C-11.67088262 73.9361434 -30.14745286 79.40437893 -47 78 C-55.60505005 76.52022983 -62.0653237 72.76240552 -67.4375 65.875 C-70.84631355 59.60278307 -70.64640802 53.75778184 -68.6875 46.9375 C-67.45450675 43.09173534 -65.95833097 39.54364652 -64 36 C-64.63989868 35.4421582 -64.63989868 35.4421582 -65.29272461 34.87304688 C-68.91645755 31.28793745 -70.42410334 28.67616939 -70.69140625 23.53125 C-70.67954677 21.52040917 -70.63583142 19.50953825 -70.5625 17.5 C-70.56056641 16.49324219 -70.55863281 15.48648438 -70.55664062 14.44921875 C-70.41449099 6.41513216 -68.96263134 -0.19025664 -63 -6 C-42.91210338 -17.87164508 -18.83819641 -11.77326664 0 0 Z " fill="#3D362C" transform="translate(395,608)"/>
<path d="M0 0 C2.09402793 1.43565627 4.10694208 2.90260259 6.125 4.4375 C17.70758583 12.93506891 30.4202325 19.35764047 43.3125 25.625 C44.75387329 26.32616943 44.75387329 26.32616943 46.22436523 27.04150391 C51.04154647 29.32504354 55.81026713 31.34418711 60.88671875 32.98046875 C76.5908456 38.04748767 76.5908456 38.04748767 80.5 45.5625 C81.40864655 48.01506463 82.24272072 50.4965544 83 53 C83.44730469 54.17820312 83.89460937 55.35640625 84.35546875 56.5703125 C85.74612852 60.34670823 86.89661785 64.13341471 88 68 C88.19754883 68.63808594 88.39509766 69.27617187 88.59863281 69.93359375 C98.6855577 103.28152872 92.35563257 143.2117305 76.3125 173.5 C73.56611792 178.61791845 70.50574104 183.36549395 67 188 C66.67 188 66.34 188 66 188 C65.90295776 186.86461792 65.90295776 186.86461792 65.80395508 185.70629883 C60.43345045 124.35346959 44.94048919 58.73120769 -3 16 C-7.23683336 12.53998197 -11.60427724 9.25432953 -16 6 C-13.42961953 4.00336517 -10.88441837 2.25981274 -8 0.75 C-7.01 0.21632813 -7.01 0.21632813 -6 -0.328125 C-3.42338781 -1.19370566 -2.51552966 -1.04583376 0 0 Z " fill="#F8994A" transform="translate(638,334)"/>
<path d="M0 0 C-1.49846794 3.62401213 -3.55788493 5.6317703 -6.5 8.1875 C-7.84578125 9.37279297 -7.84578125 9.37279297 -9.21875 10.58203125 C-10.98935155 12.1213604 -12.76016196 13.66044936 -14.53125 15.19921875 C-32.22228287 30.79084107 -46.19032859 50.31684637 -59 70 C-59.66902344 69.71125 -60.33804688 69.4225 -61.02734375 69.125 C-70.73842943 65.37091587 -80.97879717 64.63121309 -91.22973633 66.62963867 C-95.70004912 67.06876737 -99.02092265 66.33709216 -103.3046875 65.1640625 C-104.06927277 64.96525482 -104.83385803 64.76644714 -105.62161255 64.56161499 C-107.224944 64.1422607 -108.8266569 63.71667317 -110.42675781 63.28515625 C-112.88537463 62.62220253 -115.34821677 61.97747387 -117.8125 61.3359375 C-119.37266901 60.92551621 -120.93257505 60.51409367 -122.4921875 60.1015625 C-123.23064911 59.90672272 -123.96911072 59.71188293 -124.72994995 59.51113892 C-129.88188643 58.11811357 -129.88188643 58.11811357 -131 57 C-130.93917053 49.33548722 -130.06393759 41.40863057 -124.8125 35.56640625 C-121.96935933 32.91749176 -119.03131224 30.42748383 -116 28 C-114.98164063 27.17371094 -113.96328125 26.34742188 -112.9140625 25.49609375 C-109.67066762 22.91219253 -106.35206672 20.44064016 -103 18 C-102.43861328 17.5875 -101.87722656 17.175 -101.29882812 16.75 C-73.00101161 -3.80687012 -32.85165186 -18.7617786 0 0 Z " fill="#F8994A" transform="translate(578,358)"/>
<path d="M0 0 C7.18168786 5.51342043 11.96183345 12.75029673 14.3125 21.5 C15.31196058 31.36835811 15.02742174 40.99111653 9.3125 49.5 C6.21994921 51.72785731 3.07566378 53.04744286 -0.5 54.3125 C-4.98318069 56.03473832 -8.40641215 58.27549284 -12.09375 61.328125 C-13.6875 62.5 -13.6875 62.5 -15.6875 62.5 C-16.1825 63.985 -16.1825 63.985 -16.6875 65.5 C-28.68287291 66.12223836 -36.68455421 65.15997422 -46 57.3125 C-52.74127147 50.87813099 -57.10934475 43.20852231 -58.05859375 33.8359375 C-58.25744964 21.97476863 -56.21870797 12.15109983 -47.70703125 3.25 C-33.81027922 -8.79205979 -15.31100799 -10.16567605 0 0 Z " fill="#C2DCD9" transform="translate(327.6875,330.5)"/>
<path d="M0 0 C0.65274902 0.05897461 1.30549805 0.11794922 1.97802734 0.17871094 C7.00846421 0.63786171 12.00060202 1.28200135 17 2 C18.25296875 2.17144531 19.5059375 2.34289062 20.796875 2.51953125 C39.17716922 5.47486901 56.71086351 12.10362546 73 21 C74.32988371 21.67352175 75.66140747 22.34395713 77 23 C77 23.66 77 24.32 77 25 C75.6105957 26.08154297 75.6105957 26.08154297 73.67578125 27.2421875 C72.97646484 27.66886719 72.27714844 28.09554688 71.55664062 28.53515625 C70.44579102 29.19837891 70.44579102 29.19837891 69.3125 29.875 C64.64136753 32.68853287 60.17330077 35.46051414 56 39 C52.23557478 37.55639473 48.67331434 35.85197041 45.0625 34.0625 C24.33709569 24.5594839 1.68564598 26.55169878 -19.3125 34.0625 C-35.279208 40.08748938 -49.45967896 48.48868122 -63.13476562 58.62353516 C-66.06413746 60.78528888 -69.03311266 62.89012804 -72 65 C-70.59125927 60.16579496 -68.48152548 56.02688123 -65.875 51.75 C-65.47539062 51.09104736 -65.07578125 50.43209473 -64.6640625 49.75317383 C-58.82573107 40.29706306 -51.54508704 32.12441731 -44 24 C-43.44957031 23.39542969 -42.89914062 22.79085938 -42.33203125 22.16796875 C-37.30480394 16.86765749 -31.50549652 12.50280313 -25.62695312 8.20019531 C-24.1243826 7.09175643 -22.64683266 5.94961319 -21.171875 4.8046875 C-14.02813718 -0.35467871 -8.64394926 -0.88801227 0 0 Z " fill="#F7984A" transform="translate(530,315)"/>
<path d="M0 0 C11.76992371 4.90765918 23.38571172 10.05291917 34.86572266 15.60595703 C43.01959388 19.54729306 51.21962713 23.38202109 59.4375 27.1875 C60.06834503 27.47975464 60.69919006 27.77200928 61.34915161 28.07312012 C64.89859393 29.71723384 68.44889295 31.35948525 72 33 C70.79713061 39.42807272 70.79713061 39.42807272 67.20703125 42.00390625 C66.08683594 42.51824219 64.96664062 43.03257812 63.8125 43.5625 C54.41379022 48.23080188 49.43547903 53.04041917 44 62 C29.80001732 59.81789257 15.81209312 55.89653086 2 52 C2.6575111 48.21412029 3.76869063 44.79996416 5.0625 41.1875 C9.06418359 28.16731625 7.71580472 17.28031983 2 5 C1.32395659 3.3371147 0.65400162 1.67167703 0 0 Z " fill="#D9B99A" transform="translate(377,346)"/>
<path d="M0 0 C23.43 0 46.86 0 71 0 C63.21431558 15.57136883 49.01115891 25.32127323 32.92578125 31.10546875 C22.38695501 34.10249143 10.10269835 34.86001019 0 30 C-3.14744561 27.36642306 -5.64280224 25.22909488 -6.30859375 21.07421875 C-6.79829288 12.00736523 -4.35365308 9.43291501 0 0 Z " fill="#33926F" transform="translate(339,645)"/>
<path d="M0 0 C0.80859375 2.44140625 0.80859375 2.44140625 1.4375 5.5625 C3.36564643 13.98440386 6.43464558 19.50708651 12 26 C12 26.66 12 27.32 12 28 C10.13591458 29.04063021 8.25814929 30.05677915 6.375 31.0625 C5.33085938 31.63097656 4.28671875 32.19945312 3.2109375 32.78515625 C-0.51217191 34.19377794 -2.21840235 34.13194131 -6 33 C-8.40234375 31.6875 -8.40234375 31.6875 -10.9375 30 C-30.85448926 18.03998302 -55.10729122 11.42545294 -78.1484375 9.421875 C-81 9 -81 9 -83 7 C-57.61927145 -2.28581827 -26.59973775 -8.86657925 0 0 Z " fill="#F7984A" transform="translate(617,300)"/>
<path d="M0 0 C19.47 0 38.94 0 59 0 C59 8.91 59 17.82 59 27 C39.53 27 20.06 27 0 27 C1.65 23.04 3.3 19.08 5 15 C4.22559767 11.12798835 3.70836858 9.09400199 1.9375 5.8125 C0 2.20640569 0 2.20640569 0 0 Z " fill="#FABD59" transform="translate(414,627)"/>
<path d="M0 0 C5.63144967 3.03231905 8.98751212 5.64128272 11.25 11.75 C12.70309115 18.41186404 12.52653955 23.70930156 9.25 29.75 C5.90559244 34.76661134 2.14355106 37.51671987 -3.75 38.75 C-10.27653315 39.49834309 -15.34735514 38.58375454 -20.75 34.75 C-24.84323973 30.95803934 -27.33392423 26.68004937 -28.12109375 21.13671875 C-28.2875888 14.36918453 -27.37314209 9.8343034 -22.75 4.75 C-15.77298246 -1.37206572 -8.7753494 -2.92511647 0 0 Z " fill="#3A322C" transform="translate(485.75,499.25)"/>
<path d="M0 0 C4.7827884 2.83978061 7.64043986 7.20647584 9.375 12.41015625 C10.11570307 19.24648128 9.47185922 24.76754953 5.375 30.41015625 C1.78902057 34.17831111 -2.14906517 37.07413652 -7.359375 37.78125 C-14.44176745 37.93720942 -19.31940931 37.32274022 -24.625 32.41015625 C-29.48162334 26.97073811 -31.06430653 22.04745258 -30.96875 14.78515625 C-30.17490943 9.30043959 -26.67736719 5.12559558 -22.625 1.53515625 C-15.04484572 -3.8341197 -8.39913273 -3.57219212 0 0 Z " fill="#3A322C" transform="translate(343.625,462.58984375)"/>
<path d="M0 0 C13.32016272 10.32312611 27.68624478 22.72659944 35.125 38.171875 C25.93257876 35.94169568 17.63580299 31.86767105 9.1875 27.734375 C8.46110321 27.38138336 7.73470642 27.02839172 6.98629761 26.66470337 C-23.9216959 11.60183115 -23.9216959 11.60183115 -28.875 4.171875 C-25.48588113 2.96457694 -22.08785584 1.78461319 -18.6875 0.609375 C-17.24793945 0.09600586 -17.24793945 0.09600586 -15.77929688 -0.42773438 C-14.84794922 -0.74677734 -13.91660156 -1.06582031 -12.95703125 -1.39453125 C-11.67662964 -1.84227905 -11.67662964 -1.84227905 -10.37036133 -2.29907227 C-6.14809822 -3.19425318 -3.59085554 -2.28331575 0 0 Z " fill="#F6984A" transform="translate(672.875,324.828125)"/>
<path d="M0 0 C0.98169662 -0.00524185 1.96339325 -0.0104837 2.97483826 -0.0158844 C5.05002907 -0.02229372 7.12525627 -0.02098175 9.20043945 -0.01245117 C12.33678057 -0.00399872 15.4712631 -0.03262522 18.60742188 -0.06445312 C33.58140265 -0.117848 46.38079045 1.13929641 58.80859375 10.43359375 C59.30359375 11.42359375 59.30359375 11.42359375 59.80859375 12.43359375 C50.21204071 12.50305219 40.61557398 12.55638375 31.01882458 12.58903027 C26.56283386 12.60469762 22.1070149 12.62595527 17.65112305 12.65991211 C13.35229615 12.69246763 9.05363463 12.7104387 4.75469398 12.71822548 C3.1131969 12.72377586 1.47170904 12.73461424 -0.16971779 12.75078392 C-2.46596585 12.77250806 -4.76152733 12.77556285 -7.05786133 12.77416992 C-8.36580154 12.78083176 -9.67374176 12.78749359 -11.02131653 12.7943573 C-14.19140625 12.43359375 -14.19140625 12.43359375 -16.13334656 11.09980774 C-17.19140625 9.43359375 -17.19140625 9.43359375 -17.25390625 6.43359375 C-16.19140625 3.43359375 -16.19140625 3.43359375 -13.76196289 1.77319336 C-9.07301848 0.0139976 -4.96795152 -0.01560725 0 0 Z " fill="#49AE8E" transform="translate(349.19140625,624.56640625)"/>
<path d="M0 0 C4.02876814 2.3210515 7.51696835 4.85680876 10.9375 8 C7.83937939 9.5490603 5.47162784 8.33400334 2.1328125 7.578125 C-7.06970572 5.68381873 -16.09249922 5.61064573 -25.45703125 5.71875 C-28.21888588 5.75035921 -30.98016841 5.75978358 -33.7421875 5.765625 C-35.51823611 5.77478123 -37.29427897 5.78515255 -39.0703125 5.796875 C-40.29380905 5.80324982 -40.29380905 5.80324982 -41.54202271 5.80975342 C-45.81891085 5.86320401 -49.85036124 6.15807841 -54.0625 7 C-53.81809105 -0.2100639 -53.81809105 -0.2100639 -50.3125 -3.875 C-35.25407267 -13.72089479 -14.6870709 -7.609677 0 0 Z " fill="#33916E" transform="translate(387.0625,612)"/>
<path d="M0 0 C17.49 0 34.98 0 53 0 C53 3.63 53 7.26 53 11 C35.51 11 18.02 11 0 11 C0 7.37 0 3.74 0 0 Z " fill="#C74141" transform="translate(480,635)"/>
<path d="M0 0 C1.32 0.33 2.64 0.66 4 1 C5.55855405 6.72846023 3.84106033 10.47681901 2 16 C6.29 16.99 10.58 17.98 15 19 C15.495 21.475 15.495 21.475 16 24 C14 26 14 26 11.9765625 26.01171875 C11.20054687 25.90472656 10.42453125 25.79773438 9.625 25.6875 C8.85414063 25.58824219 8.08328125 25.48898437 7.2890625 25.38671875 C5.17234644 25.02911655 3.08261515 24.52065379 1 24 C-0.32 27.96 -1.64 31.92 -3 36 C-5.475 36.495 -5.475 36.495 -8 37 C-10 35 -10 35 -10.046875 33.01171875 C-9.94890625 32.24472656 -9.8509375 31.47773438 -9.75 30.6875 C-9.61851562 29.54861328 -9.61851562 29.54861328 -9.484375 28.38671875 C-8.9511089 25.75909302 -8.06116273 23.45720059 -7 21 C-8.13888672 20.83564453 -8.13888672 20.83564453 -9.30078125 20.66796875 C-10.29464844 20.50941406 -11.28851563 20.35085938 -12.3125 20.1875 C-13.29863281 20.03667969 -14.28476562 19.88585937 -15.30078125 19.73046875 C-18.137237 18.96286061 -19.29078323 18.35978371 -21 16 C-20.74853421 13.86254078 -20.54074221 12.54074221 -19 11 C-14.01229179 11.42268714 -9.71276667 12.2327125 -5 14 C-4.83564453 12.98679687 -4.83564453 12.98679687 -4.66796875 11.953125 C-4.50941406 11.06109375 -4.35085938 10.1690625 -4.1875 9.25 C-4.03667969 8.36828125 -3.88585937 7.4865625 -3.73046875 6.578125 C-2.94585752 3.8089089 -1.85404641 2.1740599 0 0 Z " fill="#3A322C" transform="translate(349,410)"/>
<path d="M0 0 C3.12578143 1.6720747 5.39281175 3.7856235 7 7 C7.51512617 11.09157355 7.94367269 15.23589546 5.953125 18.95703125 C3.55501226 21.85592636 1.60351712 23.79811835 -2.171875 24.2734375 C-9.99311902 24.58154711 -9.99311902 24.58154711 -13.5 21.8125 C-16.98066674 17.89674991 -18.03300317 15.81517458 -17.9375 10.5625 C-16.76192992 6.09533368 -15.20335403 4.28148461 -12 1 C-8.27533151 -0.86233425 -4.05504687 -0.57130829 0 0 Z " fill="#514855" transform="translate(483,506)"/>
<path d="M0 0 C2.72985321 2.27487767 4.41092369 3.87825436 4.99609375 7.45703125 C5.19751327 15.17021423 5.19751327 15.17021423 2.375 18.6875 C-1.01689202 21.7710382 -2.73167566 22.97315335 -7.25 23.5625 C-11.99513395 22.99308393 -14.77371108 20.62866002 -18.25 17.5 C-20.05805607 13.7834403 -20.01292623 10.23237291 -19.375 6.1875 C-17.76785226 3.03060266 -16.40061766 0.99334244 -13.625 -1.1875 C-8.37822281 -2.64493811 -4.71876312 -2.53415056 0 0 Z " fill="#514855" transform="translate(340.375,469.8125)"/>
<path d="M0 0 C3.4032768 3.04122608 4.76796963 5.1733918 6 9.5625 C6 14.14239404 4.53762881 16.18443245 1.66015625 19.58203125 C-1.39589809 22.19226119 -5.10476169 22.21935642 -9 22 C-12.58024504 20.30752053 -14.39236856 19.04954522 -16.375 15.625 C-17.37631136 11.41949231 -17.56355787 8.34627712 -15.875 4.3125 C-11.64477166 -0.90478162 -6.21528238 -2.28916779 0 0 Z " fill="#3B332C" transform="translate(517,461)"/>
<path d="M0 0 C3.57545703 0.02280993 5.54438404 0.46007439 8.3125 2.75 C11.24801421 5.83228992 11.74469929 6.47664054 12.0625 10.6875 C11.73806346 15.47293901 10.33306699 17.74179841 7.125 21.1875 C3.732856 22.92941178 0.50481196 22.92554353 -3.1875 22.375 C-6.77302881 20.73812815 -7.98065055 19.68527417 -10.1875 16.375 C-10.73343928 12.98442974 -10.73900778 9.76515077 -10.1875 6.375 C-7.75 3.3125 -7.75 3.3125 -5.1875 1.375 C-3.63766739 -0.17483261 -2.15081622 0.09367039 0 0 Z " fill="#3A322B" transform="translate(487.1875,468.625)"/>
<path d="M0 0 C2.89728868 1.2328888 4.39683427 2.2245012 6.3125 4.6875 C7.35205591 8.18418806 7.68521551 11.43002718 7 15 C5.02970454 18.52379766 2.89793345 20.70068885 -1 22 C-6.88400994 22.66611433 -6.88400994 22.66611433 -9.75390625 20.953125 C-12.62993989 18.59685648 -14.78551824 16.78969204 -15.23828125 13.01171875 C-15.3713075 8.84589668 -15.38831668 6.62130669 -13.125 3 C-9.13279051 -0.75737364 -5.2660136 -0.51020201 0 0 Z " fill="#3A322C" transform="translate(499,442)"/>
<path d="M0 0 C11.66516989 2.59500601 22.3922792 7.60568617 33 13 C33 13.66 33 14.32 33 15 C29.92608026 16.23331876 26.83981533 17.432125 23.75 18.625 C22.87730469 18.975625 22.00460937 19.32625 21.10546875 19.6875 C20.26113281 20.00976562 19.41679688 20.33203125 18.546875 20.6640625 C17.77182617 20.96779785 16.99677734 21.2715332 16.19824219 21.58447266 C13.41211248 22.11112667 12.34267994 21.52072537 10 20 C4.90349656 15.33094524 1.8769887 10.62466599 0 4 C0 2.68 0 1.36 0 0 Z " fill="#F59749" transform="translate(625,302)"/>
<path d="M0 0 C0.625 2.375 0.625 2.375 1 5 C0.34 5.66 -0.32 6.32 -1 7 C-7.1387288 6.61034795 -12.94644417 5.14130019 -18.875 3.5625 C-19.72835938 3.34529297 -20.58171875 3.12808594 -21.4609375 2.90429688 C-22.275625 2.68966797 -23.0903125 2.47503906 -23.9296875 2.25390625 C-24.66429199 2.06127197 -25.39889648 1.8686377 -26.15576172 1.67016602 C-28 1 -28 1 -30 -1 C-29.75 -3.5625 -29.75 -3.5625 -29 -6 C-22.01246544 -9.49376728 -7.2266623 -2.19650292 0 0 Z " fill="#3B332C" transform="translate(455,467)"/>
<path d="M0 0 C6.19151716 0.5292613 11.99601928 2.31213897 17.9375 4.0625 C18.90751953 4.34416016 19.87753906 4.62582031 20.87695312 4.91601562 C23.25256591 5.60646466 25.62682705 6.30122001 28 7 C28.625 9.375 28.625 9.375 29 12 C28.34 12.66 27.68 13.32 27 14 C20.4549368 13.67400068 13.80536129 11.53281777 7.4375 10 C6.7347998 9.83419434 6.03209961 9.66838867 5.30810547 9.49755859 C0.23522203 8.23522203 0.23522203 8.23522203 -2 6 C-1.44444444 1.44444444 -1.44444444 1.44444444 0 0 Z " fill="#3A332C" transform="translate(377,447)"/>
<path d="M0 0 C1.58272601 3.16545202 0.33086619 5.74418878 -0.4375 9.125 C-0.72496094 10.40632813 -1.01242187 11.68765625 -1.30859375 13.0078125 C-1.53675781 13.99523437 -1.76492188 14.98265625 -2 16 C-6.58798777 17.53271273 -8.77944742 16.02911182 -13 14 C-11.64101764 9.77533744 -9.86283346 7.6105921 -6.5 4.75 C-5.30890625 3.72132813 -5.30890625 3.72132813 -4.09375 2.671875 C-2 1 -2 1 0 0 Z " fill="#F2F646" transform="translate(442,396)"/>
<path d="M0 0 C2.625 0.375 2.625 0.375 5 1 C5.6875 2.8125 5.6875 2.8125 6 5 C4.8125 6.8125 4.8125 6.8125 3 8 C0.8125 7.6875 0.8125 7.6875 -1 7 C-1.625 4.625 -1.625 4.625 -2 2 C-1.34 1.34 -0.68 0.68 0 0 Z " fill="#B93F3E" transform="translate(486,476)"/>
<path d="M0 0 C2.625 0.375 2.625 0.375 5 1 C5.6875 2.8125 5.6875 2.8125 6 5 C4.8125 6.8125 4.8125 6.8125 3 8 C0.8125 7.6875 0.8125 7.6875 -1 7 C-1.625 4.625 -1.625 4.625 -2 2 C-1.34 1.34 -0.68 0.68 0 0 Z " fill="#86BDDE" transform="translate(493,449)"/>
<path d="M0 0 C2.00720923 0.28674418 4.0085944 0.61866701 6 1 C6.042721 2.66611905 6.04063832 4.33382885 6 6 C5 7 5 7 2.5 7.125 C0 7 0 7 -1 6 C-1.125 3.5 -1.125 3.5 -1 1 C-0.67 0.67 -0.34 0.34 0 0 Z " fill="#F4B957" transform="translate(509,468)"/>
</svg>
