<?xml version="1.0" encoding="UTF-8"?>
<svg version="1.1" xmlns="http://www.w3.org/2000/svg" width="1000" height="1000">
<path d="M0 0 C1.53599854 0.06960937 1.53599854 0.06960937 3.10302734 0.140625 C71.36732438 3.49055286 137.41924896 22.91897629 194 62 C194.66064453 62.45503906 195.32128906 62.91007812 196.00195312 63.37890625 C200.05209723 66.18510744 204.04472583 69.06179633 208 72 C208.55768066 72.4134668 209.11536133 72.82693359 209.68994141 73.25292969 C216.218248 78.1187715 222.5042565 83.1664131 228.48828125 88.69921875 C230.48927826 90.53216935 232.51832804 92.30146829 234.578125 94.06640625 C239.56596902 98.42065141 244.25645124 103.07038503 248.93579102 107.75048828 C250.42641615 109.23893237 251.92487017 110.71917277 253.42382812 112.19921875 C259.73344544 118.47208683 265.46782637 125.01986354 271 132 C272.00029127 133.20872989 273.00371163 134.41488462 274.01171875 135.6171875 C282.48657734 145.87320807 289.82563769 156.80663473 297 168 C297.41846191 168.6487207 297.83692383 169.29744141 298.26806641 169.96582031 C323.72073214 209.75009108 339.53351355 254.43611985 347.75 300.75 C348.04825684 302.41554932 348.04825684 302.41554932 348.35253906 304.11474609 C351.49511797 322.71417751 352.37938383 341.22764699 352.3125 360.0625 C352.30976578 361.66983002 352.30976578 361.66983002 352.30697632 363.30963135 C352.25917919 380.04672314 351.66507066 396.44511716 349 413 C348.82307617 414.11874512 348.64615234 415.23749023 348.46386719 416.39013672 C333.65987075 507.52803879 286.07747739 577.15294491 222.15479088 640.96127474 C219.08296101 644.02873349 216.01407598 647.09913622 212.94480896 650.16915894 C207.64337237 655.47111659 202.34012694 660.77125918 197.03560257 666.07012749 C189.36641678 673.73114123 181.70003651 681.39495752 174.03430979 689.05943228 C161.59319135 701.49836911 149.14984746 713.93507719 136.70507812 726.37036133 C124.62544703 738.44079517 112.54688027 750.51229245 100.46972656 762.58520508 C99.7236688 763.33100012 98.97761104 764.07679515 98.20894547 764.84519004 C94.46571521 768.58711514 90.72250568 772.32906099 86.97930646 776.07101715 C55.98941801 807.05056075 24.99590682 838.02647802 -6 869 C-9.52863523 867.49259406 -11.79946304 865.45018056 -14.50191975 862.74696922 C-15.85546479 861.40032238 -15.85546479 861.40032238 -17.23635417 860.02647054 C-18.23385715 859.02395238 -19.23126637 858.02134091 -20.22859192 857.01864624 C-21.29082874 855.95799732 -22.35350305 854.89778641 -23.41657752 853.83797705 C-26.34015011 850.92082834 -29.25743285 847.9974589 -32.17374051 845.07304978 C-35.31883872 841.92138194 -38.46968765 838.77547263 -41.61982727 835.62884521 C-47.79273017 829.46098903 -53.96026987 823.28779639 -60.12602571 817.11279647 C-67.30720507 809.92123793 -74.49360376 802.73490452 -81.68021747 795.5487773 C-94.50650514 782.72299055 -107.32795195 769.89237539 -120.14672852 757.05908203 C-132.58158684 744.61014899 -145.01992873 732.16471047 -157.4621582 719.72314453 C-158.22779435 718.95754834 -158.99343049 718.19195216 -159.78226773 717.40315609 C-160.54658569 716.63887848 -161.31090366 715.87460087 -162.09838277 715.08716333 C-176.2626693 700.92356733 -190.42366003 686.75668018 -204.58312688 672.58826601 C-209.58853432 667.57984542 -214.59491489 662.5723988 -219.60160255 657.56525803 C-225.70823378 651.45794344 -231.81296203 645.34873372 -237.91534928 639.23717849 C-241.02784484 636.12007665 -244.14110776 633.00375218 -247.25653839 629.88958359 C-250.11164317 627.03557927 -252.96440826 624.17925733 -255.81536444 621.32110901 C-256.84410914 620.29056122 -257.87368124 619.26083852 -258.90418801 618.23205273 C-264.48757054 612.65695881 -269.88220999 607.00526892 -275 601 C-275.948172 599.92760616 -276.89831886 598.85695073 -277.8515625 597.7890625 C-289.84552591 584.17666232 -300.22699901 569.26796175 -310 554 C-310.35980957 553.43877441 -310.71961914 552.87754883 -311.09033203 552.29931641 C-322.54833444 534.24158828 -332.28649024 514.93714922 -340 495 C-340.32274902 494.18096191 -340.64549805 493.36192383 -340.97802734 492.51806641 C-357.41563265 450.52330761 -365.22315871 405.98691992 -365.25 361 C-365.25067474 359.98077454 -365.25134949 358.96154907 -365.25204468 357.91143799 C-365.23442248 341.09524976 -364.50429484 324.65503957 -362 308 C-361.83371094 306.8661084 -361.66742188 305.7322168 -361.49609375 304.56396484 C-356.12248133 269.00358709 -345.61979651 234.40056893 -330 202 C-329.61376465 201.18660156 -329.2275293 200.37320313 -328.82958984 199.53515625 C-315.08852908 170.69186537 -297.38496331 144.56883975 -276.36816406 120.56347656 C-275.18499264 119.2114013 -274.00972118 117.85242057 -272.8359375 116.4921875 C-262.19582992 104.37314605 -250.7345943 92.9024839 -238 83 C-236.3110779 81.58502904 -234.62363449 80.16829164 -232.9375 78.75 C-205.25661884 56.19810814 -173.39358119 37.70846163 -140 25 C-139.07364746 24.64244629 -138.14729492 24.28489258 -137.19287109 23.91650391 C-94.04018225 7.38320329 -46.38103263 -2.13114899 0 0 Z " fill="#FF914D" transform="translate(506,83)"/>
<path d="M0 0 C0.71944853 -0.00297112 1.43889705 -0.00594224 2.18014705 -0.0090034 C4.57957248 -0.0176422 6.97894773 -0.01919456 9.37838745 -0.02069092 C11.10362351 -0.02532257 12.82885855 -0.0303477 14.55409241 -0.03573608 C19.23414527 -0.04883011 23.9141838 -0.05529938 28.59425211 -0.05974674 C31.52211479 -0.06268279 34.4499736 -0.06678863 37.37783432 -0.07125092 C46.54979055 -0.08491901 55.72173788 -0.09458859 64.89370358 -0.09845281 C75.45997448 -0.10292962 86.02611576 -0.12046291 96.59234726 -0.1494534 C104.77348248 -0.17111597 112.95458136 -0.18115955 121.13574493 -0.18249393 C126.01540421 -0.18353883 130.89494154 -0.18937931 135.77457047 -0.20731354 C140.36945491 -0.22387311 144.96412676 -0.2259117 149.55903053 -0.21717453 C151.23751078 -0.21640831 152.91600283 -0.22069151 154.59445381 -0.23063278 C177.83783974 -0.36013275 197.91266327 6.71611307 214.63961792 23.14044189 C215.34086792 23.81719971 216.04211792 24.49395752 216.76461792 25.19122314 C220.98580093 29.56905161 224.06765171 34.26332956 226.95211792 39.57794189 C227.27776733 40.17429443 227.60341675 40.77064697 227.93893433 41.3850708 C232.37690334 49.95868228 234.3074948 59.47936118 236.45211792 68.82794189 C236.70928589 69.94588135 236.96645386 71.0638208 237.23141479 72.21563721 C239.9380001 84.17136863 242.2298405 96.20430287 244.5146637 108.24594116 C248.17023581 127.48258421 252.11544918 146.66053813 256.24508667 165.80059814 C256.45720795 166.78992844 256.66932922 167.77925873 256.88787842 168.79856873 C257.36157142 170.90438055 257.86844543 173.00326151 258.42175293 175.08956909 C260.5820901 183.42043059 261.0374174 191.17434181 260.93258667 199.75372314 C260.92697219 201.10277325 260.92271089 202.45182958 260.91972351 203.80088806 C260.90841997 207.30422689 260.87908344 210.80717601 260.84561157 214.31036377 C260.8145926 217.90406018 260.80115112 221.49782128 260.78610229 225.09161377 C260.75419511 232.10804656 260.7031812 239.12421842 260.63961792 246.14044189 C259.91902191 246.14186691 259.1984259 246.14329193 258.45599365 246.14476013 C251.60235383 246.16272913 244.74921827 246.20474823 237.89590263 246.27253246 C234.37403031 246.30655164 230.85258015 246.33187267 227.33053589 246.33599854 C223.2637881 246.34117031 219.19828818 246.38654119 215.13180542 246.43341064 C213.89163666 246.429478 212.6514679 246.42554535 211.37371826 246.42149353 C197.26865864 246.65234664 186.47595941 251.30409631 175.63961792 260.14044189 C174.76563354 260.77079346 174.76563354 260.77079346 173.87399292 261.41387939 C157.79777277 273.34412698 151.97098389 299.57885534 144.91378784 317.4287262 C143.22544264 321.68983762 141.49990803 325.93418949 139.75289917 330.17169189 C139.30092163 331.27569336 138.84894409 332.37969482 138.38327026 333.51715088 C137.54617865 335.55887208 136.70207867 337.5977423 135.84909058 339.63287354 C125.54404256 364.91893428 129.16621193 387.17777149 128.63961792 416.14044189 C85.07961792 416.14044189 41.51961792 416.14044189 -3.36038208 416.14044189 C-3.36038208 423.73044189 -3.36038208 431.32044189 -3.36038208 439.14044189 C-7.04800966 446.51569705 -9.06182014 450.02211267 -16.36038208 453.14044189 C-18.64779663 453.40786743 -18.64779663 453.40786743 -21.18557739 453.43096924 C-22.14047058 453.44372894 -23.09536377 453.45648865 -24.07919312 453.46963501 C-25.61830353 453.47297348 -25.61830353 453.47297348 -27.18850708 453.47637939 C-28.2514801 453.48303619 -29.31445312 453.48969299 -30.40963745 453.49655151 C-32.65898917 453.50667407 -34.90837089 453.51136866 -37.15774536 453.51104736 C-40.5838739 453.51540815 -44.00870121 453.55169917 -47.43460083 453.58966064 C-49.62339853 453.59553147 -51.81220232 453.59949908 -54.00100708 453.60137939 C-55.52797211 453.62293594 -55.52797211 453.62293594 -57.08578491 453.64492798 C-63.29663685 453.6054273 -68.23653986 452.84968947 -73.36038208 449.14044189 C-77.80370715 443.64475036 -79.63076691 438.87215285 -79.42288208 431.84356689 C-79.41643677 430.63700439 -79.40999146 429.43044189 -79.40335083 428.18731689 C-79.37487558 425.67114007 -79.31534391 423.15510913 -79.22366333 420.64044189 C-79.19234803 413.52404255 -79.19234803 413.52404255 -82.52810669 407.46807861 C-84.28783693 405.94035301 -86.093037 404.46326232 -87.94192505 403.04473877 C-91.13572835 400.52993302 -92.30237679 398.45148677 -93.92288208 394.76544189 C-94.37792114 393.76770752 -94.83296021 392.76997314 -95.30178833 391.74200439 C-97.20277706 387.07020184 -97.50643609 383.17276427 -97.50082397 378.19172668 C-97.5037951 377.37275262 -97.50676622 376.55377856 -97.50982738 375.7099871 C-97.51852384 372.9557567 -97.52002346 370.20156972 -97.52151489 367.44732666 C-97.5261426 365.47623095 -97.5311672 363.50513613 -97.53656006 361.53404236 C-97.54969543 356.16994933 -97.55613188 350.80586882 -97.56057072 345.44176221 C-97.56350117 342.08860878 -97.56760605 338.73545876 -97.57207489 335.38230705 C-97.58575626 324.88617931 -97.59541832 314.39005939 -97.59927678 303.89392334 C-97.60375148 291.78814565 -97.62126939 279.68248121 -97.65027738 267.57673794 C-97.67192829 258.21520621 -97.68198297 248.85370626 -97.6833179 239.49214977 C-97.68436399 233.90374999 -97.69022955 228.31545657 -97.70813751 222.72708321 C-97.72467586 217.46331437 -97.72674576 212.19973115 -97.7179985 206.93594551 C-97.71723106 205.01074729 -97.72153194 203.08553885 -97.73145676 201.16036606 C-97.78086841 190.97259019 -97.34153116 181.96810889 -94.36038208 172.14044189 C-93.51665886 168.15378393 -92.78677555 164.1477346 -92.04788208 160.14044189 C-90.32507246 150.98414965 -88.47283731 141.86782931 -86.48538208 132.76544189 C-84.10468037 121.8340274 -81.91409699 110.87554069 -79.79788208 99.89044189 C-66.40348829 30.49264493 -66.40348829 30.49264493 -41.36038208 13.14044189 C-28.67310775 5.14873774 -15.13944017 0.03506989 0 0 Z " fill="#FFFEFE" transform="translate(352.3603820800781,197.85955810546875)"/>
<path d="M0 0 C1.33366848 -0.00515304 2.66733012 -0.01244468 4.00097656 -0.02168274 C7.58586309 -0.04002777 11.16999557 -0.02736787 14.75484967 -0.00759244 C18.52797477 0.00893349 22.30105728 -0.00003788 26.07420349 -0.00511169 C32.40619795 -0.00961668 38.73789547 0.00613885 45.06982422 0.03417969 C52.36475545 0.0662384 59.65915192 0.06620534 66.95412117 0.04896492 C74.00640209 0.03303988 81.05848909 0.03987072 88.11076164 0.05690193 C91.09655941 0.06373029 94.08219975 0.06278385 97.06799507 0.05535698 C101.24614725 0.04619403 105.42348943 0.07035661 109.6015625 0.09765625 C111.43553841 0.08786743 111.43553841 0.08786743 113.30656433 0.07788086 C123.04578558 0.1855943 132.2155954 1.89171696 139.54858398 8.75610352 C140.3078418 9.43930664 141.06709961 10.12250977 141.84936523 10.82641602 C148.61861124 18.781111 152.39620273 28.28020934 156.22045898 37.88891602 C156.76700963 39.24575126 157.31416097 40.60234467 157.86187744 41.95870972 C158.9999127 44.78213736 160.13219093 47.6077791 161.26000977 50.43530273 C162.69850901 54.04098848 164.14918121 57.64162115 165.60390854 61.2407856 C166.73186651 64.03426939 167.85447795 66.82987697 168.97541046 69.62618637 C169.50826448 70.9542689 170.04247184 72.28180935 170.57811737 73.60876846 C171.32707802 75.46714383 172.06833565 77.3286179 172.80932617 79.19018555 C173.23091003 80.24368195 173.6524939 81.29717834 174.08685303 82.38259888 C176.37383658 88.84716255 177.53873655 94.61506947 177.37133789 101.51586914 C177.35714561 102.6295285 177.35714561 102.6295285 177.34266663 103.76568604 C177.30931744 106.18984406 177.26111598 108.61345483 177.21264648 111.03735352 C177.18644532 112.72984437 177.16118111 114.42234996 177.1368103 116.11486816 C177.07049251 120.54714771 176.99152932 124.97911327 176.90985107 129.41113281 C176.82860395 133.9426681 176.75942801 138.4743863 176.68920898 143.00610352 C176.54992147 151.88132265 176.39726222 160.75625681 176.23608398 169.63110352 C176.89608398 169.63110352 177.55608398 169.63110352 178.23608398 169.63110352 C178.31049076 175.62676305 178.3648076 181.6221511 178.40087891 187.61816406 C178.41592345 189.65597214 178.4363641 191.69374806 178.46240234 193.73144531 C178.49897645 196.66813107 178.51585397 199.60438702 178.52905273 202.54125977 C178.54453659 203.44570328 178.56002045 204.35014679 178.57597351 205.28199768 C178.57758991 211.4193934 177.8913465 216.46074909 173.80639648 221.33813477 C166.03776105 227.28009106 159.35776151 226.99675639 149.86108398 227.00610352 C148.55913086 227.0305957 147.25717773 227.05508789 145.91577148 227.08032227 C137.68296034 227.10552475 132.63111108 226.75020962 126.49389648 220.99829102 C117.98199475 209.78606183 122.23608398 210.68372271 122.23608398 188.63110352 C78.34608398 188.63110352 34.45608398 188.63110352 -10.76391602 188.63110352 C-10.76391602 196.88110352 -10.76391602 205.13110352 -10.76391602 213.63110352 C-15.43995707 222.98318563 -15.43995707 222.98318563 -21.79418945 225.75952148 C-27.44801202 227.41885613 -33.04049064 227.30833933 -38.88891602 227.19360352 C-40.11223633 227.20456055 -41.33555664 227.21551758 -42.59594727 227.22680664 C-49.7698492 227.16863987 -54.69855583 226.54470497 -60.76391602 222.63110352 C-65.35486383 217.91934129 -67.02902648 213.41893165 -66.95922852 206.89282227 C-66.9527832 205.82612305 -66.94633789 204.75942383 -66.93969727 203.66040039 C-66.92293945 202.55760742 -66.90618164 201.45481445 -66.88891602 200.31860352 C-66.87989258 199.19647461 -66.87086914 198.0743457 -66.86157227 196.91821289 C-66.83806087 194.15562442 -66.80519756 191.3934742 -66.76391602 188.63110352 C-67.42391602 188.63110352 -68.08391602 188.63110352 -68.76391602 188.63110352 C-68.85712683 177.30334743 -68.92793794 165.97568451 -68.9711647 154.64762115 C-68.99192491 149.38595406 -69.02002791 144.12455183 -69.06567383 138.86303711 C-69.10954829 133.77311142 -69.13313978 128.68343841 -69.14342499 123.59333801 C-69.15074246 121.66392547 -69.16502861 119.73452473 -69.18683624 117.80522156 C-69.38226202 99.77787123 -65.94892636 85.57565517 -59.11547852 68.82250977 C-58.57444133 67.4771328 -58.03404026 66.13149987 -57.49423218 64.78562927 C-56.37313873 61.99735331 -55.24470106 59.21220702 -54.1105957 56.42919922 C-52.66875291 52.88936831 -51.24582287 49.34228473 -49.82824135 45.79267979 C-48.72033839 43.02448182 -47.60260923 40.26033253 -46.48197556 37.49726677 C-45.9536192 36.19131686 -45.4281806 34.88418198 -44.90593338 33.57577705 C-39.63560458 20.40315818 -33.82193553 9.00370785 -20.35072327 2.96742249 C-13.49192732 0.2091296 -7.32424198 -0.07015783 0 0 Z " fill="#FFFEFE" transform="translate(566.763916015625,462.368896484375)"/>
<path d="M0 0 C1.32585605 -0.00657338 1.32585605 -0.00657338 2.67849708 -0.01327956 C5.64624224 -0.02665546 8.61395772 -0.03284368 11.58172607 -0.03897095 C13.70724115 -0.04687277 15.83275489 -0.05514177 17.95826721 -0.06375122 C24.94309205 -0.08995881 31.92792285 -0.10527616 38.91278076 -0.11953735 C41.31723789 -0.12489728 43.72169499 -0.13027479 46.12615204 -0.13566971 C56.12694403 -0.15729527 66.1277344 -0.1760326 76.12854385 -0.1872921 C90.46239227 -0.20353624 104.79596985 -0.23672934 119.12971616 -0.29369295 C129.20797012 -0.33238029 139.2861516 -0.3519233 149.36447787 -0.35721266 C155.38429539 -0.36086731 161.40382393 -0.37290147 167.4235611 -0.4053154 C173.08712607 -0.43537497 178.75022688 -0.44171513 184.4138546 -0.42993164 C186.49071418 -0.42971074 188.56759518 -0.43802916 190.64438057 -0.45558548 C193.48393718 -0.47828055 196.32181106 -0.46998043 199.16137695 -0.45410156 C199.97968152 -0.46798365 200.79798609 -0.48186574 201.64108777 -0.49616849 C207.65307637 -0.4135563 211.65257057 1.39444394 216.33465576 5.15390015 C220.73269783 10.10101171 221.58058006 15.56233504 222.75653076 21.8843689 C222.96324402 22.93392258 223.16995728 23.98347626 223.38293457 25.06483459 C223.82096438 27.29314079 224.25339038 29.52255487 224.68060303 31.75296021 C225.53349649 36.18783113 226.42468754 40.61463227 227.31500244 45.04211426 C228.64283723 51.65348691 229.95137883 58.26871715 231.26141357 64.88363647 C231.91438225 68.1784824 232.56968416 71.47285753 233.22528076 74.7671814 C233.423172 75.7700972 233.62106323 76.773013 233.82495117 77.80632019 C234.10094147 79.1913398 234.10094147 79.1913398 234.38250732 80.6043396 C234.62302826 81.81813042 234.62302826 81.81813042 234.8684082 83.05644226 C235.3357782 85.32865621 235.3357782 85.32865621 236.33465576 88.15390015 C236.95362372 94.18883772 236.51032722 99.87962062 233.33465576 105.15390015 C229.85099204 108.94890579 225.54535475 112.75873268 220.26970792 113.40805048 C219.52827377 113.4100014 218.78683962 113.41195232 218.02293777 113.41396236 C216.7330189 113.42456075 216.7330189 113.42456075 215.41704106 113.43537325 C214.47697611 113.43295816 213.53691115 113.43054308 212.56835938 113.42805481 C211.56603232 113.43329149 210.56370527 113.43852817 209.53100467 113.44392353 C206.1624551 113.45896057 202.79405694 113.45962951 199.42547607 113.46029663 C197.01424909 113.46791566 194.60302454 113.47634271 192.19180298 113.48551941 C185.63385796 113.5074976 179.0759489 113.51628959 172.51797581 113.52134585 C168.4219394 113.52460366 164.32591238 113.53112668 160.22988129 113.53834724 C148.88571602 113.55791309 137.54155948 113.5743172 126.19737625 113.57722378 C125.47149686 113.57741135 124.74561748 113.57759892 123.99774174 113.57779217 C122.5262475 113.57815842 121.05475326 113.57852212 119.58325902 113.57888328 C118.48760275 113.5791575 118.48760275 113.5791575 117.36981201 113.57943726 C116.2728159 113.57970808 116.2728159 113.57970808 115.15365824 113.57998437 C103.30609244 113.58352527 91.45870848 113.61054233 79.61120573 113.64793514 C67.44305719 113.68603212 55.27499885 113.70538136 43.10678935 113.70568329 C36.27657937 113.70626758 29.44658629 113.7147406 22.61643219 113.74368095 C16.19122893 113.7707805 9.76634193 113.77208777 3.34109879 113.75602531 C0.98366231 113.75420773 -1.37379864 113.76092924 -3.7311821 113.77684402 C-6.95166876 113.79725888 -10.17064597 113.78677825 -13.39111328 113.76863098 C-14.32225535 113.78183095 -15.25339742 113.79503092 -16.21275592 113.80863088 C-22.56471753 113.72697682 -26.7266082 112.18350255 -31.66534424 108.15390015 C-36.64977968 102.77595665 -38.07308249 98.72599224 -37.9303894 91.51339722 C-37.38683501 84.62374361 -35.88977878 77.89440541 -34.48956299 71.13827515 C-34.15972915 69.51181313 -33.83062552 67.88520288 -33.50221252 66.25845337 C-32.81538544 62.86833979 -32.12123338 59.47983851 -31.42144775 56.09237671 C-30.52799436 51.76545127 -29.65091619 47.43540414 -28.77900982 43.10409164 C-28.10271895 39.75192787 -27.41889393 36.40133616 -26.73270607 33.05118561 C-26.40654632 31.45531152 -26.08243466 29.85901734 -25.76047325 28.26229095 C-25.30872973 26.02891342 -24.8471257 23.79779243 -24.38287354 21.56698608 C-23.9931562 19.66816681 -23.9931562 19.66816681 -23.5955658 17.73098755 C-22.20387086 12.37934376 -20.66926303 7.35973223 -16.22784424 3.77890015 C-15.6516333 3.29679077 -15.07542236 2.8146814 -14.48175049 2.31796265 C-10.09375674 -0.49412797 -5.03744992 0.00303112 0 0 Z " fill="#FF914D" transform="translate(335.66534423828125,273.8460998535156)"/>
<path d="M0 0 C1.07109009 -0.0071553 2.14218018 -0.01431061 3.24572754 -0.02168274 C4.42600525 -0.02437164 5.60628296 -0.02706055 6.82232666 -0.02983093 C8.06143799 -0.03640213 9.30054932 -0.04297333 10.57720947 -0.04974365 C14.69309731 -0.06951476 18.80894613 -0.08114778 22.92486572 -0.09111023 C24.341881 -0.0951577 25.75889608 -0.09927462 27.17591095 -0.10346031 C33.83409446 -0.12251494 40.49226687 -0.13674453 47.1504724 -0.14507228 C54.83435125 -0.1548416 62.51794178 -0.18115167 70.20171905 -0.22157317 C76.14150923 -0.25174683 82.08121683 -0.26654239 88.02108216 -0.26985329 C91.56823909 -0.27220271 95.11508812 -0.28114807 98.66216278 -0.30631447 C102.62189426 -0.33395408 106.58124749 -0.32976017 110.54107666 -0.32279968 C111.71325745 -0.33560974 112.88543823 -0.3484198 114.09313965 -0.36161804 C120.34702712 -0.32149694 124.2228316 -0.12114796 128.94049072 4.14717102 C132.98705848 9.11668142 135.03315188 14.91539359 137.30377197 20.83857727 C137.70001266 21.86144333 138.09625336 22.88430939 138.50450134 23.93817139 C139.33603156 26.09254621 140.1636611 28.24843019 140.98760986 30.40571594 C142.25218231 33.70756021 143.53803078 37.0005872 144.82525635 40.2936554 C145.63190401 42.39145977 146.43728646 44.48975118 147.24127197 46.58857727 C147.62761307 47.57201614 148.01395416 48.55545502 148.41200256 49.56869507 C148.93331001 50.95054237 148.93331001 50.95054237 149.46514893 52.36030579 C149.93003471 53.56893028 149.93003471 53.56893028 150.40431213 54.80197144 C151.06508077 57.6921173 150.9042452 59.34265335 149.94049072 62.14717102 C147.66974879 65.13223941 146.51011612 66.05708457 142.75766754 66.65053558 C141.4907885 66.65204369 140.22390945 66.65355179 138.91864014 66.65510559 C138.21159014 66.66134555 137.50454015 66.66758552 136.7760644 66.67401457 C134.40670589 66.68997037 132.0383725 66.6773311 129.66900635 66.66474915 C127.97048848 66.67016915 126.27197531 66.67729112 124.57347107 66.68598938 C119.95983311 66.70424026 115.34655254 66.69714798 110.73290825 66.68447304 C105.9074392 66.67435449 101.082001 66.68373553 96.25653076 66.6900177 C88.15259297 66.69729745 80.04880093 66.68769782 71.94488525 66.6686554 C62.57214823 66.64688602 53.19975924 66.65393716 43.82703066 66.67596102 C35.78361164 66.6941057 27.74029747 66.69667791 19.6968646 66.68620634 C14.89119988 66.67996628 10.0856988 66.67914985 5.28004456 66.69235229 C0.76226298 66.70389663 -3.75506937 66.69591116 -8.27280235 66.67277527 C-9.93205201 66.66748057 -11.5913394 66.66901496 -13.25057411 66.67782593 C-15.51344813 66.68873562 -17.77487711 66.67507543 -20.03765869 66.65510559 C-21.30453773 66.65359749 -22.57141678 66.65208939 -23.8766861 66.65053558 C-27.63347434 66.05639825 -28.82729798 65.17816543 -31.05950928 62.14717102 C-32.06331306 55.74475011 -29.60285311 50.30126327 -27.33294678 44.42842102 C-26.94764801 43.41171326 -26.56234924 42.39500549 -26.16537476 41.3474884 C-25.34898671 39.20377304 -24.52662047 37.06232599 -23.69866943 34.92304993 C-22.44138059 31.66497698 -21.21230437 28.39721577 -19.98529053 25.12763977 C-19.1861974 23.03975331 -18.38546921 20.95249175 -17.58294678 18.86592102 C-17.22018646 17.89594177 -16.85742615 16.92596252 -16.4836731 15.92658997 C-13.24295818 7.66226367 -9.6555951 0.04416559 0 0 Z " fill="#FF914E" transform="translate(563.0595092773438,490.8528289794922)"/>
<path d="M0 0 C0.87604889 -0.0071553 1.75209778 -0.01431061 2.6546936 -0.02168274 C4.09240364 -0.02571609 4.09240364 -0.02571609 5.55915833 -0.02983093 C6.57087097 -0.03640213 7.58258362 -0.04297333 8.62495422 -0.04974365 C11.97908094 -0.06948249 15.33316284 -0.08114125 18.68733215 -0.09111023 C19.83301477 -0.09518576 20.9786974 -0.09926128 22.15909767 -0.10346031 C28.22425278 -0.12432459 34.28938524 -0.13862419 40.35456848 -0.147995 C46.61465586 -0.15905379 52.87438725 -0.19344698 59.13434887 -0.23316669 C63.95142267 -0.25933283 68.76841169 -0.26768691 73.58555031 -0.27127647 C75.89277358 -0.27614322 78.19999304 -0.28775964 80.50714684 -0.30631447 C83.74091524 -0.3307026 86.97376331 -0.32974095 90.20759583 -0.32279968 C91.63012413 -0.34201477 91.63012413 -0.34201477 93.08139038 -0.36161804 C99.89931398 -0.30843316 105.57448003 1.05469062 110.54670715 5.96357727 C110.90893372 6.53978821 111.27116028 7.11599915 111.6443634 7.70967102 C112.21477356 8.57785461 112.21477356 8.57785461 112.79670715 9.46357727 C115.32934456 14.14841298 115.25929793 18.96809734 114.7068634 24.14717102 C112.75783599 30.36499217 109.44228816 34.15939772 103.67092896 37.23057556 C99.35320433 38.56577099 95.21457887 38.44202392 90.71931458 38.43769836 C89.71706345 38.44441559 88.71481232 38.45113281 87.68218994 38.45805359 C84.37135347 38.47703956 81.06071967 38.48095819 77.74983215 38.48310852 C75.44443682 38.4895363 73.1390423 38.49626464 70.83364868 38.50328064 C66.00092172 38.51525511 61.16826626 38.51896131 56.33552551 38.51777649 C50.1516948 38.51757336 43.96832395 38.54486928 37.78460217 38.57932091 C33.0224193 38.60159076 28.26034705 38.60561399 23.49811745 38.60455704 C21.21881336 38.6069131 18.93950623 38.61573684 16.66025352 38.63122177 C13.46737627 38.65088161 10.27549004 38.64504296 7.08259583 38.63301086 C5.67880676 38.64986938 5.67880676 38.64986938 4.24665833 38.66706848 C-1.74611148 38.60986466 -6.29151188 37.55566873 -11.2931366 34.14717102 C-16.77558102 28.37617689 -17.70573567 23.85448431 -17.5353241 16.05342102 C-17.06659733 10.42869978 -14.85865567 7.48762157 -10.7931366 3.83467102 C-7.31557243 0.92907465 -4.50971639 0.02531982 0 0 Z " fill="#FF924E" transform="translate(385.2931365966797,216.8528289794922)"/>
<path d="M0 0 C8.64064785 4.99362116 13.50126527 11.5662958 16.625 20.9375 C17.83304998 29.85260302 15.5740032 36.51929392 10.625 43.9375 C5.13572362 50.58681954 -2.13102755 53.84424129 -10.5390625 55.31640625 C-18.44192355 55.80443153 -25.59811647 51.3721071 -31.5859375 46.63671875 C-37.53942275 40.98220765 -40.31342448 33.68843797 -40.75 25.5625 C-40.51994102 17.59163313 -36.61304889 11.45369072 -31.3125 5.73046875 C-22.6340736 -2.30057504 -11.07005367 -5.18643067 0 0 Z " fill="#FF924F" transform="translate(332.375,521.0625)"/>
<path d="M0 0 C4.80632699 2.35562839 7.94463438 6.43478305 9.71484375 11.37109375 C10.65954391 17.5231655 10.76723462 23.39715981 7.65234375 28.93359375 C4.93690677 32.49149317 2.07344845 35.13346526 -2.28515625 36.37109375 C-9.3323273 37.31611669 -15.84803695 37.39828976 -21.6953125 32.97265625 C-26.08835882 28.54722875 -27.51155679 24.04418168 -27.78515625 17.87109375 C-27.52025722 11.70150979 -25.87908144 7.48988943 -21.953125 2.76953125 C-16.15632978 -2.48427303 -7.16193125 -1.97106142 0 0 Z " fill="#FF924E" transform="translate(716.28515625,595.62890625)"/>
<path d="M0 0 C5.28628418 2.17782246 7.74333588 4.44067024 11 9 C13.03954829 15.15737047 13.05364783 22.51335356 10.375 28.4375 C7.71417351 33.0584371 4.00371727 35.33209424 -1 37 C-7.99971923 37.72589681 -13.64414268 37.6902977 -19.4453125 33.4296875 C-23.42723318 29.76792125 -24.70558355 25.70863132 -25.2734375 20.484375 C-25.52922495 13.5977899 -24.58977053 9.2296313 -20 4 C-14.65021275 -1.48696128 -7.18398418 -0.90616164 0 0 Z " fill="#FF924E" transform="translate(544,595)"/>
</svg>
